<svg xmlns="http://www.w3.org/2000/svg" xmlns:xlink="http://www.w3.org/1999/xlink" width="400.205" height="318.458" viewBox="0 0 400.205 318.458">
  <defs>
    <radialGradient id="radial-gradient" cx="0.505" cy="0.648" r="0.952" gradientTransform="translate(0.164 0.131) scale(0.675 0.798)" gradientUnits="objectBoundingBox">
      <stop offset="0" stop-color="#fff"/>
      <stop offset="0.318" stop-color="#fbfdfd"/>
      <stop offset="0.602" stop-color="#f0f8f9"/>
      <stop offset="0.872" stop-color="#deeff1"/>
      <stop offset="0.999" stop-color="#d3eaed"/>
    </radialGradient>
  </defs>
  <g id="Group_19330" data-name="Group 19330" transform="translate(-1308.315 -785.905)">
    <path id="Path_1626" data-name="Path 1626" d="M1149.578,603.922V531.445h94.827" transform="translate(412.906 422.616)" fill="none" stroke="#2755f4" stroke-linecap="round" stroke-linejoin="round" stroke-width="3" stroke-dasharray="4"/>
    <path id="Path_1627" data-name="Path 1627" d="M1149.578,531.445v72.477h94.827" transform="translate(412.906 483.654)" fill="none" stroke="#2755f4" stroke-linecap="round" stroke-linejoin="round" stroke-width="3" stroke-dasharray="4"/>
    <path id="Path_1628" data-name="Path 1628" d="M1149.578,465.445V604.4h193.354" transform="translate(160.237 424.385)" fill="none" stroke="#2755f4" stroke-linecap="round" stroke-linejoin="round" stroke-width="3" stroke-dasharray="4"/>
    <path id="Path_1629" data-name="Path 1629" d="M933.169,353.642c0-18.054-13.435-32.69-30.011-32.69a27.928,27.928,0,0,0-13.954,3.761c-.5-17.136-13.376-30.87-29.229-30.87a27.247,27.247,0,0,0-13.6,3.66c-5.462-19.65-22.212-33.958-42.034-33.958-21.125,0-38.762,16.25-42.962,37.9a27.541,27.541,0,0,0-17.059-6.008c-16.17,0-29.279,14.279-29.279,31.893a33.91,33.91,0,0,0,3.944,15.94,24.953,24.953,0,0,0-6.141-.791c-14.958,0-27.082,13.208-27.082,29.5s12.124,29.5,27.082,29.5a25.032,25.032,0,0,0,9.982-2.1c3.189,25.966,22.733,45.95,46.38,45.95,16.894,0,31.7-10.2,39.937-25.494a22.033,22.033,0,0,0,17.888,9.548,21.442,21.442,0,0,0,14.044-5.328,34.6,34.6,0,0,0,26.948,13.3c19.807,0,35.866-17.492,35.866-39.069a42.158,42.158,0,0,0-1.737-12.014c.337.01.667.054,1,.054C919.734,386.332,933.169,371.7,933.169,353.642Z" transform="translate(663.97 657.724)" stroke="#6bbcf9" stroke-miterlimit="10" stroke-width="2.607" fill="url(#radial-gradient)"/>
    <g id="Group_19083" data-name="Group 19083" transform="translate(1505.637 785.905)">
      <path id="Path_471" data-name="Path 471" d="M2801.068-858.76a12.611,12.611,0,0,0,3.75-9,12.611,12.611,0,0,0-3.75-9l-1,1a11.209,11.209,0,0,1,3.332,8,11.209,11.209,0,0,1-3.332,8Z" transform="translate(-2767.119 878.86)" fill="#2755f4"/>
      <path id="Path_472" data-name="Path 472" d="M2710.471-791.8a9.356,9.356,0,0,0,0-12.283l-1.05.95a7.907,7.907,0,0,1,0,10.382Z" transform="translate(-2680.038 809.036)" fill="#2755f4"/>
      <path id="Path_473" data-name="Path 473" d="M2615.971-725.462a5.039,5.039,0,0,0,0-6.616l-1.05.951a3.591,3.591,0,0,1,0,4.716Z" transform="translate(-2589.256 739.869)" fill="#2755f4"/>
      <path id="Path_474" data-name="Path 474" d="M2898.4-929.128a16.542,16.542,0,0,1,0,21.714l1.05.95a17.991,17.991,0,0,0,0-23.614Z" transform="translate(-2861.584 930.078)" fill="#2755f4"/>
      <path id="Path_475" data-name="Path 475" d="M2083.01-876.762a12.612,12.612,0,0,0-3.75,9,12.612,12.612,0,0,0,3.75,9l1-1a11.208,11.208,0,0,1-3.333-8,11.208,11.208,0,0,1,3.333-8Z" transform="translate(-2074.671 878.86)" fill="#2755f4"/>
      <path id="Path_476" data-name="Path 476" d="M2207.813-804.078a9.357,9.357,0,0,0,0,12.283l1.051-.951a7.908,7.908,0,0,1,0-10.382Z" transform="translate(-2195.959 809.036)" fill="#2755f4"/>
      <path id="Path_477" data-name="Path 477" d="M2328.186-732.078a5.04,5.04,0,0,0,0,6.616l1.05-.95a3.592,3.592,0,0,1,0-4.716Z" transform="translate(-2312.614 739.869)" fill="#2755f4"/>
      <path id="Path_478" data-name="Path 478" d="M1968.118-929.128l-1.051-.951a17.99,17.99,0,0,0,0,23.614l1.05-.95A16.542,16.542,0,0,1,1968.118-929.128Z" transform="translate(-1962.65 930.078)" fill="#2755f4"/>
      <path id="Path_479" data-name="Path 479" d="M2162.96-671.866a.006.006,0,0,1,0,0L2161-676.334l-1.319-3.014-.069-.159-.343-.784-5.284-12.076a.707.707,0,0,0-.648-.425h-.538v-5.088a2.122,2.122,0,0,0,1.417-1.994,2.127,2.127,0,0,0-2.125-2.125,2.127,2.127,0,0,0-2.125,2.125,2.122,2.122,0,0,0,1.416,1.994v5.088h-.879a.708.708,0,0,0-.649.425l-2.324,5.313-1.631,3.726-.536,1.225-2.806,6.414h0l-.26.594h0l-2.173,4.966h-2.37v1.417H2166.8v-1.417h-3.078Zm-10.865-28.718a.709.709,0,0,1,.708.708.709.709,0,0,1-.708.708.709.709,0,0,1-.708-.708A.709.709,0,0,1,2152.095-700.584Zm-2.94,13.359,5.975,1,.423.966-7.827,1.3.715-1.633Zm9.086,8.6-13.857,2.31,1.883-4.3Zm-11.389-3.334.2-.448,5.844-.974,3.246-.541,1.657,3.786Zm12.174,4.639,1.357,3.1.754,1.723-15.527-2.587Zm-8.055-14.054h1.907l1.574,3.6-4.713-.785Zm10.161,21.247h-19.457l1.7-3.893,18.436,3.072.359.821Z" transform="translate(-2130.869 710.974)" fill="#2755f4"/>
    </g>
    <g id="Group_19084" data-name="Group 19084" transform="translate(1503.169 859.783)">
      <path id="Path_471-2" data-name="Path 471" d="M2801.126-857.709a13.348,13.348,0,0,0,3.969-9.526,13.348,13.348,0,0,0-3.969-9.526l-1.057,1.063a11.862,11.862,0,0,1,3.526,8.463,11.863,11.863,0,0,1-3.526,8.463Z" transform="translate(-2765.197 878.982)" fill="#2755f4"/>
      <path id="Path_472-2" data-name="Path 472" d="M2710.533-791.079a9.9,9.9,0,0,0,0-13l-1.112,1.006a8.369,8.369,0,0,1,0,10.987Z" transform="translate(-2678.323 809.325)" fill="#2755f4"/>
      <path id="Path_473-2" data-name="Path 473" d="M2616.033-725.076a5.335,5.335,0,0,0,0-7l-1.112,1.006a3.8,3.8,0,0,1,0,4.991Z" transform="translate(-2587.759 740.323)" fill="#2755f4"/>
      <path id="Path_474-2" data-name="Path 474" d="M2898.4-929.072a17.506,17.506,0,0,1,0,22.98l1.112,1.006a19.04,19.04,0,0,0,0-24.992Z" transform="translate(-2859.436 930.078)" fill="#2755f4"/>
      <path id="Path_475-2" data-name="Path 475" d="M2083.228-876.762a13.347,13.347,0,0,0-3.969,9.526,13.348,13.348,0,0,0,3.969,9.526l1.057-1.063a11.862,11.862,0,0,1-3.527-8.463,11.861,11.861,0,0,1,3.527-8.463Z" transform="translate(-2074.403 878.982)" fill="#2755f4"/>
      <path id="Path_476-2" data-name="Path 476" d="M2207.947-804.078a9.9,9.9,0,0,0,0,13l1.112-1.006a8.369,8.369,0,0,1,0-10.987Z" transform="translate(-2195.402 809.325)" fill="#2755f4"/>
      <path id="Path_477-2" data-name="Path 477" d="M2328.258-732.078a5.334,5.334,0,0,0,0,7l1.112-1.006a3.8,3.8,0,0,1,0-4.991Z" transform="translate(-2311.778 740.323)" fill="#2755f4"/>
      <path id="Path_478-2" data-name="Path 478" d="M1968.437-929.072l-1.112-1.006a19.04,19.04,0,0,0,0,24.992l1.111-1.006A17.508,17.508,0,0,1,1968.437-929.072Z" transform="translate(-1962.65 930.078)" fill="#2755f4"/>
      <path id="Path_479-2" data-name="Path 479" d="M2164.429-670.108a.007.007,0,0,1,0,0l-2.068-4.725-1.4-3.19-.073-.168-.363-.83-5.593-12.781a.749.749,0,0,0-.687-.45h-.569v-5.385a2.245,2.245,0,0,0,1.5-2.111,2.251,2.251,0,0,0-2.249-2.249,2.252,2.252,0,0,0-2.249,2.249,2.245,2.245,0,0,0,1.5,2.111v5.385h-.93a.749.749,0,0,0-.687.45l-2.46,5.623-1.726,3.943-.566,1.3-2.97,6.788h0l-.275.628h0l-2.3,5.256h-2.508v1.5h30.732v-1.5h-3.258Zm-11.5-30.393a.75.75,0,0,1,.75.749.75.75,0,0,1-.75.75.75.75,0,0,1-.75-.75A.75.75,0,0,1,2152.931-700.5Zm-3.112,14.138,6.324,1.054.448,1.022-8.284,1.38.757-1.729Zm9.616,9.1-14.666,2.444,1.993-4.556Zm-12.053-3.528.207-.474,6.185-1.031,3.436-.573,1.753,4.007Zm12.884,4.91,1.436,3.282.8,1.823-16.433-2.738Zm-8.525-14.874h2.018l1.666,3.809-4.988-.831Zm10.753,22.487H2141.9l1.8-4.12,19.511,3.252.38.869Z" transform="translate(-2130.467 711.498)" fill="#2755f4"/>
    </g>
    <text id="gNB" transform="translate(1582.484 822.986)" fill="#19367e" font-size="20" font-family="Poppins-Regular, Poppins"><tspan x="-19.72" y="0">gNB</tspan></text>
    <text id="gNB-2" data-name="gNB" transform="translate(1582.484 899.024)" fill="#19367e" font-size="20" font-family="Poppins-Regular, Poppins"><tspan x="-19.72" y="0">gNB</tspan></text>
    <g id="Group_19085" data-name="Group 19085" transform="translate(1640 900.365)">
      <g id="Group_19057" data-name="Group 19057">
        <path id="Path_471-3" data-name="Path 471" d="M2801.687-847.591a20.437,20.437,0,0,0,6.077-14.585,20.436,20.436,0,0,0-6.077-14.585l-1.618,1.627a18.16,18.16,0,0,1,5.4,12.958,18.16,18.16,0,0,1-5.4,12.958Z" transform="translate(-2746.678 880.161)" fill="#2755f4"/>
        <path id="Path_472-3" data-name="Path 472" d="M2711.123-784.176a15.163,15.163,0,0,0,0-19.9l-1.7,1.54a12.812,12.812,0,0,1,0,16.822Z" transform="translate(-2661.809 812.111)" fill="#2755f4"/>
        <path id="Path_473-3" data-name="Path 473" d="M2616.623-721.357a8.167,8.167,0,0,0,0-10.721l-1.7,1.54a5.819,5.819,0,0,1,0,7.641Z" transform="translate(-2573.334 744.702)" fill="#2755f4"/>
        <path id="Path_474-3" data-name="Path 474" d="M2898.4-928.538c8.775,9.7,8.775,25.484,0,35.184l1.7,1.54c9.543-10.549,9.543-27.714,0-38.264Z" transform="translate(-2838.742 930.078)" fill="#2755f4"/>
        <path id="Path_475-3" data-name="Path 475" d="M2085.336-876.762a20.435,20.435,0,0,0-6.077,14.585,20.436,20.436,0,0,0,6.077,14.585l1.618-1.627a18.16,18.16,0,0,1-5.4-12.958,18.161,18.161,0,0,1,5.4-12.958Z" transform="translate(-2071.824 880.161)" fill="#2755f4"/>
        <path id="Path_476-3" data-name="Path 476" d="M2209.238-804.078a15.163,15.163,0,0,0,0,19.9l1.7-1.54a12.814,12.814,0,0,1,0-16.822Z" transform="translate(-2190.031 812.111)" fill="#2755f4"/>
        <path id="Path_477-3" data-name="Path 477" d="M2328.954-732.078a8.165,8.165,0,0,0,0,10.721l1.7-1.54a5.819,5.819,0,0,1,0-7.641Z" transform="translate(-2303.721 744.702)" fill="#2755f4"/>
        <path id="Path_478-3" data-name="Path 478" d="M1971.51-928.538l-1.7-1.54c-9.543,10.549-9.543,27.714,0,38.264l1.7-1.54C1962.735-903.054,1962.735-918.838,1971.51-928.538Z" transform="translate(-1962.65 930.078)" fill="#2755f4"/>
        <path id="Path_479-3" data-name="Path 479" d="M2178.593-653.172a.01.01,0,0,1,0-.006l-3.167-7.235-2.137-4.884-.112-.257-.556-1.271-8.562-19.568a1.147,1.147,0,0,0-1.051-.688h-.871v-8.245a3.438,3.438,0,0,0,2.3-3.232,3.447,3.447,0,0,0-3.443-3.443,3.447,3.447,0,0,0-3.443,3.443,3.438,3.438,0,0,0,2.3,3.232v8.245h-1.424a1.147,1.147,0,0,0-1.051.688l-3.767,8.61-2.642,6.038-.867,1.984-4.547,10.393a0,0,0,0,1,0,0l-.421.962h0l-3.521,8.047h-3.84v2.3h47.052v-2.3h-4.987Zm-17.6-46.533a1.148,1.148,0,0,1,1.147,1.147,1.149,1.149,0,0,1-1.147,1.148,1.149,1.149,0,0,1-1.147-1.148A1.148,1.148,0,0,1,2160.988-699.7Zm-4.765,21.646,9.683,1.613.685,1.565-12.683,2.113,1.158-2.647Zm14.723,13.93-22.455,3.743,3.052-6.975Zm-18.454-5.4.317-.725,9.469-1.578,5.26-.877,2.684,6.134Zm19.727,7.517,2.2,5.024,1.221,2.791-25.159-4.192Zm-13.052-22.773h3.09l2.551,5.831-7.636-1.272Zm16.464,34.429H2144.1l2.76-6.308,29.873,4.978.582,1.33Z" transform="translate(-2126.595 716.542)" fill="#2755f4"/>
      </g>
      <g id="Group_19058" data-name="Group 19058" transform="translate(4.418 38.21)">
        <g id="Rectangle_500" data-name="Rectangle 500" transform="translate(0 0.594)" fill="#fff" stroke="#6bbcf9" stroke-width="2">
          <rect width="64.102" height="29.677" rx="5" stroke="none"/>
          <rect x="1" y="1" width="62.102" height="27.677" rx="4" fill="none"/>
        </g>
        <text id="RRH" transform="translate(30.871 22)" fill="#19367e" font-size="21" font-family="Poppins-Regular, Poppins"><tspan x="-19.456" y="0">RRH</tspan></text>
      </g>
    </g>
    <g id="Group_19086" data-name="Group 19086" transform="translate(1449 948.062)">
      <path id="Path_471-4" data-name="Path 471" d="M2801.126-857.709a13.348,13.348,0,0,0,3.969-9.526,13.348,13.348,0,0,0-3.969-9.526l-1.057,1.063a11.862,11.862,0,0,1,3.526,8.463,11.863,11.863,0,0,1-3.526,8.463Z" transform="translate(-2765.197 878.982)" fill="#2755f4"/>
      <path id="Path_472-4" data-name="Path 472" d="M2710.533-791.079a9.9,9.9,0,0,0,0-13l-1.112,1.006a8.369,8.369,0,0,1,0,10.987Z" transform="translate(-2678.323 809.325)" fill="#2755f4"/>
      <path id="Path_473-4" data-name="Path 473" d="M2616.033-725.076a5.335,5.335,0,0,0,0-7l-1.112,1.006a3.8,3.8,0,0,1,0,4.991Z" transform="translate(-2587.759 740.323)" fill="#2755f4"/>
      <path id="Path_474-4" data-name="Path 474" d="M2898.4-929.072a17.506,17.506,0,0,1,0,22.98l1.112,1.006a19.04,19.04,0,0,0,0-24.992Z" transform="translate(-2859.436 930.078)" fill="#2755f4"/>
      <path id="Path_475-4" data-name="Path 475" d="M2083.228-876.762a13.347,13.347,0,0,0-3.969,9.526,13.348,13.348,0,0,0,3.969,9.526l1.057-1.063a11.862,11.862,0,0,1-3.527-8.463,11.861,11.861,0,0,1,3.527-8.463Z" transform="translate(-2074.403 878.982)" fill="#2755f4"/>
      <path id="Path_476-4" data-name="Path 476" d="M2207.947-804.078a9.9,9.9,0,0,0,0,13l1.112-1.006a8.369,8.369,0,0,1,0-10.987Z" transform="translate(-2195.402 809.325)" fill="#2755f4"/>
      <path id="Path_477-4" data-name="Path 477" d="M2328.258-732.078a5.334,5.334,0,0,0,0,7l1.112-1.006a3.8,3.8,0,0,1,0-4.991Z" transform="translate(-2311.778 740.323)" fill="#2755f4"/>
      <path id="Path_478-4" data-name="Path 478" d="M1968.437-929.072l-1.112-1.006a19.04,19.04,0,0,0,0,24.992l1.111-1.006A17.508,17.508,0,0,1,1968.437-929.072Z" transform="translate(-1962.65 930.078)" fill="#2755f4"/>
      <path id="Path_479-4" data-name="Path 479" d="M2164.429-670.108a.007.007,0,0,1,0,0l-2.068-4.725-1.4-3.19-.073-.168-.363-.83-5.593-12.781a.749.749,0,0,0-.687-.45h-.569v-5.385a2.245,2.245,0,0,0,1.5-2.111,2.251,2.251,0,0,0-2.249-2.249,2.252,2.252,0,0,0-2.249,2.249,2.245,2.245,0,0,0,1.5,2.111v5.385h-.93a.749.749,0,0,0-.687.45l-2.46,5.623-1.726,3.943-.566,1.3-2.97,6.788h0l-.275.628h0l-2.3,5.256h-2.508v1.5h30.732v-1.5h-3.258Zm-11.5-30.393a.75.75,0,0,1,.75.749.75.75,0,0,1-.75.75.75.75,0,0,1-.75-.75A.75.75,0,0,1,2152.931-700.5Zm-3.112,14.138,6.324,1.054.448,1.022-8.284,1.38.757-1.729Zm9.616,9.1-14.666,2.444,1.993-4.556Zm-12.053-3.528.207-.474,6.185-1.031,3.436-.573,1.753,4.007Zm12.884,4.91,1.436,3.282.8,1.823-16.433-2.738Zm-8.525-14.874h2.018l1.666,3.809-4.988-.831Zm10.753,22.487H2141.9l1.8-4.12,19.511,3.252.38.869Z" transform="translate(-2130.467 711.498)" fill="#2755f4"/>
    </g>
    <text id="C-RAN" transform="translate(1471 1025.448)" fill="#19367e" font-size="20" font-family="Poppins-Regular, Poppins"><tspan x="-31.93" y="0">C-RAN</tspan></text>
    <text id="BBU" transform="translate(1471 1056.531)" fill="#19367e" font-size="21" font-family="Poppins-Regular, Poppins"><tspan x="-19.625" y="0">BBU</tspan></text>
    <g id="Group_19087" data-name="Group 19087" transform="translate(1640 1032.063)">
      <g id="Group_19059" data-name="Group 19059" transform="translate(0 0)">
        <path id="Path_471-5" data-name="Path 471" d="M2801.687-847.591a20.437,20.437,0,0,0,6.077-14.585,20.436,20.436,0,0,0-6.077-14.585l-1.618,1.627a18.16,18.16,0,0,1,5.4,12.958,18.16,18.16,0,0,1-5.4,12.958Z" transform="translate(-2746.678 880.161)" fill="#2755f4"/>
        <path id="Path_472-5" data-name="Path 472" d="M2711.123-784.176a15.163,15.163,0,0,0,0-19.9l-1.7,1.54a12.812,12.812,0,0,1,0,16.822Z" transform="translate(-2661.809 812.111)" fill="#2755f4"/>
        <path id="Path_473-5" data-name="Path 473" d="M2616.623-721.357a8.167,8.167,0,0,0,0-10.721l-1.7,1.54a5.819,5.819,0,0,1,0,7.641Z" transform="translate(-2573.334 744.702)" fill="#2755f4"/>
        <path id="Path_474-5" data-name="Path 474" d="M2898.4-928.538c8.775,9.7,8.775,25.484,0,35.184l1.7,1.54c9.543-10.549,9.543-27.714,0-38.264Z" transform="translate(-2838.742 930.078)" fill="#2755f4"/>
        <path id="Path_475-5" data-name="Path 475" d="M2085.336-876.762a20.435,20.435,0,0,0-6.077,14.585,20.436,20.436,0,0,0,6.077,14.585l1.618-1.627a18.16,18.16,0,0,1-5.4-12.958,18.161,18.161,0,0,1,5.4-12.958Z" transform="translate(-2071.824 880.161)" fill="#2755f4"/>
        <path id="Path_476-5" data-name="Path 476" d="M2209.238-804.078a15.163,15.163,0,0,0,0,19.9l1.7-1.54a12.814,12.814,0,0,1,0-16.822Z" transform="translate(-2190.031 812.111)" fill="#2755f4"/>
        <path id="Path_477-5" data-name="Path 477" d="M2328.954-732.078a8.165,8.165,0,0,0,0,10.721l1.7-1.54a5.819,5.819,0,0,1,0-7.641Z" transform="translate(-2303.721 744.702)" fill="#2755f4"/>
        <path id="Path_478-5" data-name="Path 478" d="M1971.51-928.538l-1.7-1.54c-9.543,10.549-9.543,27.714,0,38.264l1.7-1.54C1962.735-903.054,1962.735-918.838,1971.51-928.538Z" transform="translate(-1962.65 930.078)" fill="#2755f4"/>
        <path id="Path_479-5" data-name="Path 479" d="M2178.593-653.172a.01.01,0,0,1,0-.006l-3.167-7.235-2.137-4.884-.112-.257-.556-1.271-8.562-19.568a1.147,1.147,0,0,0-1.051-.688h-.871v-8.245a3.438,3.438,0,0,0,2.3-3.232,3.447,3.447,0,0,0-3.443-3.443,3.447,3.447,0,0,0-3.443,3.443,3.438,3.438,0,0,0,2.3,3.232v8.245h-1.424a1.147,1.147,0,0,0-1.051.688l-3.767,8.61-2.642,6.038-.867,1.984-4.547,10.393a0,0,0,0,1,0,0l-.421.962h0l-3.521,8.047h-3.84v2.3h47.052v-2.3h-4.987Zm-17.6-46.533a1.148,1.148,0,0,1,1.147,1.147,1.149,1.149,0,0,1-1.147,1.148,1.149,1.149,0,0,1-1.147-1.148A1.148,1.148,0,0,1,2160.988-699.7Zm-4.765,21.646,9.683,1.613.685,1.565-12.683,2.113,1.158-2.647Zm14.723,13.93-22.455,3.743,3.052-6.975Zm-18.454-5.4.317-.725,9.469-1.578,5.26-.877,2.684,6.134Zm19.727,7.517,2.2,5.024,1.221,2.791-25.159-4.192Zm-13.052-22.773h3.09l2.551,5.831-7.636-1.272Zm16.464,34.429H2144.1l2.76-6.308,29.873,4.978.582,1.33Z" transform="translate(-2126.595 716.542)" fill="#2755f4"/>
      </g>
      <g id="Group_19060" data-name="Group 19060" transform="translate(2.374 38.21)">
        <g id="Rectangle_500-2" data-name="Rectangle 500" transform="translate(0 0.594)" fill="#fff" stroke="#6bbcf9" stroke-width="2">
          <rect width="64.102" height="29.677" rx="5" stroke="none"/>
          <rect x="1" y="1" width="62.102" height="27.677" rx="4" fill="none"/>
        </g>
        <text id="RRH-2" data-name="RRH" transform="translate(30.871 22)" fill="#19367e" font-size="21" font-family="Poppins-Regular, Poppins"><tspan x="-19.456" y="0">RRH</tspan></text>
      </g>
    </g>
    <path id="Path_1630" data-name="Path 1630" d="M1214.177,955.96V884.383h56.389" transform="translate(234.733 -66.659)" fill="none" stroke="#2755f4" stroke-linecap="round" stroke-linejoin="round" stroke-width="3" stroke-dasharray="4"/>
  </g>
</svg>
