<svg id="Group_21585" data-name="Group 21585" xmlns="http://www.w3.org/2000/svg" width="41.009" height="40.485" viewBox="0 0 41.009 40.485">
  <path id="Path_18141" data-name="Path 18141" d="M-487.059-56.9a1.686,1.686,0,0,1-1.262.977c-1.824.5-3.634,1.051-5.461,1.54a2.438,2.438,0,0,1-1.207,0c-1.853-.495-3.692-1.04-5.536-1.567-.883-.252-1.124-.541-1.214-1.492H-514.3a8.8,8.8,0,0,0,.653-3.276,8.62,8.62,0,0,0-.651-3.227h12.558c.011-.1.024-.169.029-.244a1.231,1.231,0,0,1,.952-1.194c1.984-.572,3.967-1.147,5.96-1.684a2.034,2.034,0,0,1,1.012.047c1.825.5,3.637,1.042,5.462,1.537a1.724,1.724,0,0,1,1.271.97v.64c-.555.885-.885,1.009-1.922.714-.6-.171-1.2-.346-1.8-.518-1.127-.322-2.253-.647-3.381-.964-.447-.126-.691.019-.691.4,0,2.361.005,4.723-.008,7.085,0,.31.14.41.393.421a1.386,1.386,0,0,0,.428-.067q2.576-.729,5.149-1.465a1.283,1.283,0,0,1,1.838.8Z" transform="translate(528.067 67.103)" fill="#6373eb" fill-rule="evenodd"/>
  <path id="Path_18142" data-name="Path 18142" d="M-550.364-60.7c.088-.359.16-.723.267-1.077a6.018,6.018,0,0,1,6.34-4.209,6,6,0,0,1,5.338,5.147,5.994,5.994,0,0,1-5.117,6.775,5.994,5.994,0,0,1-6.754-5.053,1.336,1.336,0,0,0-.073-.222Z" transform="translate(550.364 66.427)" fill="#6373eb" fill-rule="evenodd"/>
  <path id="Path_18143" data-name="Path 18143" d="M-530.211-13.63c.086-1.062.17-2.1.254-3.131.013-.16.031-.319.043-.479a1.21,1.21,0,0,1,1.274-1.21c.28,0,.56,0,.922,0l-7.833-13.57a8.565,8.565,0,0,0,6.143-2.311c.105.172.2.313.281.459q4.34,7.519,8.671,15.041a.674.674,0,0,0,.687.39c2.283-.018,4.565-.01,6.848-.009a1.247,1.247,0,0,1,1.442,1.33c.085,1.078.181,2.154.271,3.231.007.077,0,.156,0,.259Z" transform="translate(541.205 46.84)" fill="#6373eb" fill-rule="evenodd"/>
  <path id="Path_18144" data-name="Path 18144" d="M-503.137,26.334c.072.839.144,1.661.214,2.482.028.319.061.638.078.957a1.209,1.209,0,0,1-1.293,1.38c-1.681.007-3.363,0-5.044,0h-12.211c-1.067,0-1.542-.527-1.446-1.578.084-.916.153-1.834.23-2.751.013-.158.038-.313.06-.492Z" transform="translate(533.352 9.328)" fill="#6373eb" fill-rule="evenodd"/>
</svg>
