<svg xmlns="http://www.w3.org/2000/svg" width="35.733" height="33.756" viewBox="0 0 35.733 33.756">
  <g id="Group_21583" data-name="Group 21583" transform="translate(-229.75 -116.995)">
    <path id="Path_22477" data-name="Path 22477" d="M229.75,129.444c.065-.2.124-.394.2-.587a2.938,2.938,0,0,1,3.98-1.659.49.49,0,0,0,.585-.07q2.562-1.931,5.143-3.838a.372.372,0,0,0,.154-.488,2.835,2.835,0,0,1,.906-3.092,2.789,2.789,0,0,1,3.094-.489,2.753,2.753,0,0,1,1.795,2.631.734.734,0,0,0,.532.77c1.276.612,2.54,1.25,3.831,1.889a2.985,2.985,0,0,1,4.774-.638l4.944-2.94a2.917,2.917,0,0,1,.951-3.263,2.969,2.969,0,0,1,4.766,1.6c.022.088.055.173.082.259v.907c-.04.118-.086.234-.121.354a2.952,2.952,0,0,1-4.157,1.843.483.483,0,0,0-.538.014q-2.434,1.465-4.882,2.9a.414.414,0,0,0-.233.41,2.975,2.975,0,0,1-5.8.9.8.8,0,0,0-.36-.41c-1.481-.751-2.973-1.479-4.457-2.224a.338.338,0,0,0-.428.048,2.906,2.906,0,0,1-3.052.406.478.478,0,0,0-.393.039q-2.68,1.977-5.339,3.982a.432.432,0,0,0-.136.361,2.976,2.976,0,1,1-5.776,1.408.6.6,0,0,0-.059-.121Z" fill="#6373eb" fill-rule="evenodd"/>
    <path id="Path_22478" data-name="Path 22478" d="M555.721,266.008a1.271,1.271,0,0,1-1.331.717c-1.15-.036-2.3-.009-3.453-.011-.8,0-1.164-.362-1.165-1.174q0-9.75,0-19.5a1.016,1.016,0,0,1,1.153-1.161c1.163,0,2.326.015,3.488-.008a1.223,1.223,0,0,1,1.308.757Z" transform="translate(-290.238 -115.976)" fill="#6373eb" fill-rule="evenodd"/>
    <path id="Path_22479" data-name="Path 22479" d="M229.75,352.313a1.246,1.246,0,0,1,1.322-.736c1.139.028,2.279.006,3.418.009.858,0,1.209.352,1.209,1.2q0,4.744,0,9.489c0,.862-.346,1.209-1.2,1.21-1.14,0-2.28-.026-3.418.011a1.27,1.27,0,0,1-1.332-.717Z" transform="translate(0 -212.749)" fill="#6373eb" fill-rule="evenodd"/>
    <path id="Path_22480" data-name="Path 22480" d="M342.308,276.3q0,4.291,0,8.582a3.925,3.925,0,0,1-.013.418.954.954,0,0,1-.99.922q-1.971.013-3.942,0a.977.977,0,0,1-1.012-.944c-.008-.081-.006-.163-.006-.244q0-8.722,0-17.443a2.549,2.549,0,0,1,.007-.279.974.974,0,0,1,1-.921q1.971-.013,3.942,0a.955.955,0,0,1,1,.91,3.736,3.736,0,0,1,.015.418Q342.309,272.013,342.308,276.3Z" transform="translate(-96.674 -135.49)" fill="#6373eb" fill-rule="evenodd"/>
    <path id="Path_22481" data-name="Path 22481" d="M448.976,316.958q0,3.365,0,6.729c0,.872-.355,1.227-1.224,1.228q-1.8,0-3.591,0a1,1,0,0,1-1.146-1.128q-.007-6.8,0-13.6a1,1,0,0,1,1.134-1.141q1.848-.007,3.7,0a1.01,1.01,0,0,1,1.131,1.146Q448.98,313.576,448.976,316.958Z" transform="translate(-193.414 -174.176)" fill="#6373eb" fill-rule="evenodd"/>
  </g>
</svg>
