<svg xmlns="http://www.w3.org/2000/svg" width="121.789" height="119.696" viewBox="0 0 121.789 119.696">
  <g id="Group_21576" data-name="Group 21576" transform="translate(-241.747 -124.063)">
    <path id="Path_22458" data-name="Path 22458" d="M355.39,186.752h4.1v1.423q0,21.187,0,42.374c0,5.6-3.318,8.921-8.9,8.922q-16.747,0-33.493,0h-1.518l1.1,12.141h6.182v4.03H278.389V251.7h6.149c.377-4.081.745-8.06,1.13-12.23h-1.527q-16.747,0-33.493,0c-5.571,0-8.9-3.337-8.9-8.922q0-39.837,0-79.673c0-5.5,3.345-8.85,8.841-8.85q30.385,0,60.77,0h1.35v4.06h-61.99c-3.427,0-4.91,1.5-4.911,4.961,0,2.359,0,4.718,0,7.169h52.681v4.076H245.88v56.775H355.39Zm.032,36.564H245.9a1.722,1.722,0,0,0-.082.322q-.011,3.361-.015,6.723c0,3.618,1.439,5.05,5.076,5.05H350.34c.423,0,.847.017,1.268-.013a3.992,3.992,0,0,0,3.793-3.752C355.487,228.9,355.422,226.158,355.422,223.316Zm-42.815,28.292c-.378-4.1-.744-8.081-1.108-12.043H289.731c-.365,4.06-.722,8.029-1.083,12.043Z" transform="translate(0 -11.884)" fill="#6373eb" fill-rule="evenodd"/>
    <path id="Path_22459" data-name="Path 22459" d="M474.713,170.874a4.848,4.848,0,0,1-.884-.073c-2.275-.61-3.782.548-5.028,2.218a2.153,2.153,0,0,0-.34,1.264c.046,1.817.136,3.633.255,5.447a2.245,2.245,0,0,1-1.533,2.475q-3.053,1.234-6.085,2.516a2.176,2.176,0,0,1-2.716-.686c-1.18-1.327-2.333-2.683-3.593-3.93a3.523,3.523,0,0,0-1.715-.758,4.255,4.255,0,0,0-4.713,2.058,28.215,28.215,0,0,1-2.355,2.654,2.175,2.175,0,0,1-2.725.652c-2.058-.877-4.133-1.713-6.2-2.575a2.064,2.064,0,0,1-1.388-2.183c.094-1.773.128-3.551.284-5.318a2.9,2.9,0,0,0-.871-2.22,4.216,4.216,0,0,0-4.305-1.641c-1.332.2-2.7.166-4.049.241a2.06,2.06,0,0,1-2.18-1.392c-.861-2.065-1.7-4.14-2.575-6.2a2.169,2.169,0,0,1,.655-2.721c1.328-1.178,2.681-2.335,3.93-3.594a3.5,3.5,0,0,0,.783-1.705,4.256,4.256,0,0,0-2.035-4.723,27.555,27.555,0,0,1-2.745-2.443,2.109,2.109,0,0,1-.6-2.624c.872-2.06,1.714-4.133,2.569-6.2a2.119,2.119,0,0,1,2.289-1.42q2.659.158,5.32.263a4.219,4.219,0,0,0,3.788-3.846c-.068-1.774-.163-3.547-.26-5.32a2.116,2.116,0,0,1,1.472-2.254c2.031-.831,4.062-1.664,6.08-2.527a2.179,2.179,0,0,1,2.734.616c1.212,1.355,2.4,2.739,3.678,4.025a3.274,3.274,0,0,0,1.61.714,4.343,4.343,0,0,0,4.818-2.1,26.334,26.334,0,0,1,2.357-2.651,2.113,2.113,0,0,1,2.617-.631c2.061.87,4.134,1.71,6.2,2.564a2.126,2.126,0,0,1,1.451,2.273c-.1,1.73-.126,3.467-.282,5.191a2.966,2.966,0,0,0,.916,2.327,4.151,4.151,0,0,0,4.191,1.609c1.329-.209,2.7-.163,4.048-.248a2.118,2.118,0,0,1,2.275,1.444c.839,2.028,1.661,4.064,2.529,6.08a2.253,2.253,0,0,1-.672,2.836c-1.2,1.066-2.355,2.191-3.6,3.2a3.092,3.092,0,0,0-1.148,2.48,4.094,4.094,0,0,0,1.776,3.989,38.353,38.353,0,0,1,3.035,2.69,2.19,2.19,0,0,1,.62,2.737c-.863,2.018-1.7,4.049-2.525,6.081a2.193,2.193,0,0,1-2.379,1.485c-.926-.05-1.857-.01-2.786-.01Zm-43.345-4.146c4.227-.094,3.106-.646,5.961,2.236,3.393,3.427,2.777,1.9,2.644,6.8-.088,3.262-.146,3.282,3.033,4.384a1.468,1.468,0,0,0,1.256-.279c1.136-1.133,2.21-2.333,3.249-3.557a2.827,2.827,0,0,1,2.438-1.063c1.478.054,2.962.067,4.438,0a3.025,3.025,0,0,1,2.639,1.195q1.47,1.745,3.07,3.378a1.43,1.43,0,0,0,1.13.421c3.347-.951,3.367-1.005,3.2-4.394a4.5,4.5,0,0,0-.029-.633c-.487-2.482.43-4.285,2.313-5.97,3.492-3.123,1.857-2.641,6.754-2.51,3.192.085,3.169.128,4.388-2.89a1.113,1.113,0,0,0-.332-1.517,44.1,44.1,0,0,1-3.649-3.335,3.465,3.465,0,0,1-.871-1.975,29.979,29.979,0,0,1,0-4.94A3.967,3.967,0,0,1,474,149.9c1.086-1.176,2.374-2.162,3.523-3.283a1.424,1.424,0,0,0,.421-1.126c-.944-3.357-1-3.379-4.382-3.216a5.188,5.188,0,0,0-.759.034c-2.4.478-4.124-.421-5.756-2.225-3.242-3.584-2.735-1.951-2.606-6.841.085-3.19.124-3.166-2.881-4.4a1.112,1.112,0,0,0-1.517.331,44.614,44.614,0,0,1-3.333,3.65,3.466,3.466,0,0,1-1.978.867,30.18,30.18,0,0,1-4.941,0,3.958,3.958,0,0,1-2.179-.979c-1.176-1.085-2.161-2.374-3.282-3.524a1.428,1.428,0,0,0-1.127-.422c-3.341.93-3.385,1.018-3.22,4.381a5.289,5.289,0,0,0,.035.76c.475,2.395-.419,4.127-2.224,5.757-3.583,3.238-1.96,2.732-6.844,2.6-3.2-.085-3.175-.127-4.392,2.886a1.123,1.123,0,0,0,.335,1.52,38.642,38.642,0,0,1,3.554,3.249,3.98,3.98,0,0,1,.96,2.19,26.362,26.362,0,0,1,0,4.812,3.984,3.984,0,0,1-.987,2.179c-1.086,1.175-2.376,2.159-3.525,3.28a1.424,1.424,0,0,0-.415,1.131c.951,3.362.991,3.371,4.386,3.209C431.03,166.721,431.2,166.728,431.368,166.728Z" transform="translate(-119.103)" fill="#6373eb" fill-rule="evenodd"/>
    <path id="Path_22460" data-name="Path 22460" d="M421.9,344.1v-3.91h38.411v3.91Z" transform="translate(-119.19 -142.99)" fill="#6373eb" fill-rule="evenodd"/>
    <path id="Path_22461" data-name="Path 22461" d="M457.894,320.1V316.2h34.351V320.1Z" transform="translate(-143.003 -127.115)" fill="#6373eb" fill-rule="evenodd"/>
    <path id="Path_22462" data-name="Path 22462" d="M379.889,322.15c0,1.226.018,2.453,0,3.679a2.053,2.053,0,0,1-2.235,2.322q-3.869.044-7.738,0a2.012,2.012,0,0,1-2.193-2.229q-.041-3.869,0-7.738a2.008,2.008,0,0,1,2.227-2.193q3.869-.041,7.738,0a2.02,2.02,0,0,1,2.2,2.227C379.912,319.528,379.889,320.839,379.889,322.15Zm-8.014-2.083v3.948h3.858v-3.948Z" transform="translate(-83.329 -126.965)" fill="#6373eb" fill-rule="evenodd"/>
    <path id="Path_22463" data-name="Path 22463" d="M325.89,315.991c1.226,0,2.453-.017,3.679,0a2.048,2.048,0,0,1,2.317,2.237q.044,3.869,0,7.738a2.015,2.015,0,0,1-2.233,2.191q-3.869.042-7.739,0a2.013,2.013,0,0,1-2.188-2.234q-.041-3.869,0-7.738a2.017,2.017,0,0,1,2.231-2.19C323.268,315.968,324.579,315.991,325.89,315.991Zm1.882,8.067v-3.932h-3.91v3.932Z" transform="translate(-51.576 -126.974)" fill="#6373eb" fill-rule="evenodd"/>
    <path id="Path_22464" data-name="Path 22464" d="M271.732,322.068c0-1.311-.029-2.623.008-3.933a1.99,1.99,0,0,1,2.145-2.144q3.932-.051,7.865,0a1.982,1.982,0,0,1,2.146,2.143q.053,3.932,0,7.865a1.986,1.986,0,0,1-2.145,2.146q-3.932.052-7.865,0A1.993,1.993,0,0,1,271.74,326C271.7,324.691,271.732,323.379,271.732,322.068Zm8.095-1.951h-3.948V324h3.948Z" transform="translate(-19.831 -126.963)" fill="#6373eb" fill-rule="evenodd"/>
    <path id="Path_22465" data-name="Path 22465" d="M277.8,232.169c-1.311,0-2.623.03-3.933-.008A1.993,1.993,0,0,1,271.732,230q-.05-3.932,0-7.865A1.978,1.978,0,0,1,273.884,220q3.932-.05,7.865,0a1.983,1.983,0,0,1,2.138,2.152q.051,3.932,0,7.865a2,2,0,0,1-2.154,2.141C280.424,232.2,279.112,232.169,277.8,232.169Zm-2-4.136h3.948v-3.881H275.8Z" transform="translate(-19.821 -63.457)" fill="#6373eb" fill-rule="evenodd"/>
    <path id="Path_22466" data-name="Path 22466" d="M331.909,226.121c0,1.184.009,2.368,0,3.552-.017,1.8-.729,2.5-2.568,2.505q-3.552.015-7.1,0c-1.8-.009-2.5-.727-2.5-2.568q-.014-3.552,0-7.1c.009-1.757.72-2.49,2.438-2.5q3.679-.023,7.358,0c1.642.013,2.358.76,2.378,2.436C331.921,223.668,331.909,224.894,331.909,226.121Zm-8.029-2.006v3.9h3.9v-3.9Z" transform="translate(-51.589 -63.467)" fill="#6373eb" fill-rule="evenodd"/>
    <path id="Path_22467" data-name="Path 22467" d="M367.72,226.09c0-1.311-.028-2.623.008-3.933A1.988,1.988,0,0,1,369.863,220q3.932-.053,7.865,0a1.981,1.981,0,0,1,2.156,2.134q.055,3.932,0,7.865a1.984,1.984,0,0,1-2.136,2.156q-3.932.054-7.865,0a1.994,1.994,0,0,1-2.155-2.136C367.69,228.713,367.72,227.4,367.72,226.09Zm4.112,1.93h3.9v-3.9h-3.9Z" transform="translate(-83.337 -63.457)" fill="#6373eb" fill-rule="evenodd"/>
    <path id="Path_22468" data-name="Path 22468" d="M283.9,274.076c0,1.311.03,2.623-.008,3.932a2,2,0,0,1-2.15,2.144q-3.932.051-7.865,0A1.981,1.981,0,0,1,271.732,278q-.05-3.932,0-7.865A1.978,1.978,0,0,1,273.879,268q3.932-.051,7.865,0a2,2,0,0,1,2.145,2.147C283.927,271.454,283.9,272.765,283.9,274.076Zm-8.026-1.977V276h3.9v-3.9Z" transform="translate(-19.822 -95.21)" fill="#6373eb" fill-rule="evenodd"/>
    <path id="Path_22469" data-name="Path 22469" d="M319.726,274.072c0-1.311-.029-2.623.008-3.932A1.989,1.989,0,0,1,321.881,268q3.932-.051,7.865,0a1.982,1.982,0,0,1,2.145,2.145q.053,3.932,0,7.865a1.987,1.987,0,0,1-2.147,2.145q-3.932.052-7.865,0a1.993,1.993,0,0,1-2.144-2.147C319.7,276.695,319.726,275.383,319.726,274.072Zm8.058-1.957h-3.919v3.9h3.919Z" transform="translate(-51.584 -95.21)" fill="#6373eb" fill-rule="evenodd"/>
    <path id="Path_22470" data-name="Path 22470" d="M379.888,274.151c0,1.269.026,2.538-.007,3.806a2.025,2.025,0,0,1-2.226,2.2q-3.869.043-7.738,0a2.012,2.012,0,0,1-2.2-2.224q-.042-3.869,0-7.738a2.007,2.007,0,0,1,2.222-2.2q3.868-.042,7.738,0a2.02,2.02,0,0,1,2.2,2.222C379.913,271.529,379.889,272.84,379.888,274.151Zm-4.153,1.9v-3.948h-3.894v3.948Z" transform="translate(-83.329 -95.212)" fill="#6373eb" fill-rule="evenodd"/>
    <path id="Path_22471" data-name="Path 22471" d="M293.894,166.2v3.917h-3.94V166.2Z" transform="translate(-31.894 -27.878)" fill="#6373eb" fill-rule="evenodd"/>
    <path id="Path_22472" data-name="Path 22472" d="M317.846,170.15h-3.894V166.2h3.894Z" transform="translate(-47.771 -27.879)" fill="#6373eb" fill-rule="evenodd"/>
    <path id="Path_22473" data-name="Path 22473" d="M433.976,316.184h3.913v3.9h-3.913Z" transform="translate(-127.179 -127.108)" fill="#6373eb" fill-rule="evenodd"/>
    <path id="Path_22474" data-name="Path 22474" d="M269.873,166.3V170.2h-3.948V166.3Z" transform="translate(-15.996 -27.945)" fill="#6373eb" fill-rule="evenodd"/>
    <path id="Path_22475" data-name="Path 22475" d="M409.928,394.162h3.9v3.924h-3.9Z" transform="translate(-111.269 -178.698)" fill="#6373eb" fill-rule="evenodd"/>
    <path id="Path_22476" data-name="Path 22476" d="M500.081,190.181a12.177,12.177,0,1,1-12.2-12.157A12.2,12.2,0,0,1,500.081,190.181Zm-4.058.081a8.117,8.117,0,1,0-8.208,8.061A8.13,8.13,0,0,0,496.022,190.261Z" transform="translate(-154.802 -35.701)" fill="#6373eb" fill-rule="evenodd"/>
  </g>
</svg>
