<svg xmlns="http://www.w3.org/2000/svg" width="50" height="51" viewBox="0 0 50 51">
  <g id="Group_21492" data-name="Group 21492" transform="translate(0.171 0.342)">
    <ellipse id="Ellipse_23" data-name="Ellipse 23" cx="25" cy="25.5" rx="25" ry="25.5" transform="translate(-0.171 -0.342)" fill="#2c2c6e"/>
    <g id="Group_19602" data-name="Group 19602" transform="translate(8.484 13.297)">
      <path id="Path_18116" data-name="Path 18116" d="M330.036,235.742c-.632.8-.842.854-1.721.451-.739-.338-1.477-.677-2.209-1.03a.373.373,0,0,0-.568.149.839.839,0,0,1-1.257.243c-.693-.388-1.378-.791-2.089-1.2-.492.574-1,.461-1.558.117-.819-.505-1.665-.965-2.495-1.453-.664-.39-.759-.762-.381-1.442.192-.346.39-.688.607-1.07-.424-.127-.671-.113-.724.4-.065.624-.309.86-.937.872-1.411.028-2.823.031-4.233,0-.678-.015-.923-.333-.923-1.031q0-6.451,0-12.9c0-.75.3-1.037,1.064-1.04,1.146,0,2.292.019,3.437-.014a1.835,1.835,0,0,0,.911-.288c1-.658,2-1.321,2.936-2.055a4.939,4.939,0,0,1,2.532-1.02c.837-.1,1.664-.3,2.5-.37a1.57,1.57,0,0,1,.994.29c.912.691,1.765,1.46,2.667,2.165a1.422,1.422,0,0,0,.8.279c1.643.025,3.288.033,4.931,0a1.134,1.134,0,0,1,1.179.638,1.01,1.01,0,0,0,1.075.582c2.241-.028,4.483-.013,6.725-.011.747,0,1.015.268,1.015,1.021q0,6.027,0,12.055c0,.715-.309,1.04-1.023,1.046-1.345.011-2.69.009-4.035,0-.666,0-.9-.224-1.051-.88-.034-.15-.176-.393-.261-.39a1.014,1.014,0,0,0-.692.21c-.42.532-.767,1.122-1.141,1.69q-1.4,2.121-2.793,4.241c-.443.669-.713.749-1.462.459C331.256,236.222,330.656,235.984,330.036,235.742Zm-5.53-1.993c.959-1.51,1.87-2.955,2.793-4.391a.841.841,0,0,1,1.224-.363.876.876,0,0,1,.178,1.275c-.276.453-.568.9-.851,1.347-.4.627-.79,1.255-1.221,1.94l2.083.967c.1-.151.174-.256.232-.371.52-1.02,1.026-2.046,1.559-3.059a.828.828,0,0,1,1.139-.387.846.846,0,0,1,.341,1.119c-.128.3-.287.6-.434.893-.246.5-.494.99-.754,1.511a8.222,8.222,0,0,1,.81.326c.376.2.593.122.832-.249,1.192-1.857,2.426-3.688,3.622-5.542a1.23,1.23,0,0,1,1.141-.649c.166,0,.332-.012.5,0,.33.019.481-.106.48-.459q-.012-4.284,0-8.567c0-.337-.148-.427-.455-.42-.581.014-1.165-.031-1.743.013a1.467,1.467,0,0,1-1.557-.821.716.716,0,0,0-.471-.363c-.956-.034-1.913-.017-3.008-.017.234.2.364.319.5.43.8.67,1.612,1.333,2.409,2.009a.84.84,0,0,1,.1,1.374q-1.164,1.23-2.364,2.425a.839.839,0,0,1-1.282.084c-.586-.436-1.16-.887-1.741-1.329-.853-.65-1.707-1.3-2.593-1.971l-6.448,11.379,1.564.9c.152-.239.282-.428.4-.626.823-1.422,1.637-2.848,2.466-4.266a.842.842,0,1,1,1.455.827c-.271.495-.562.978-.844,1.467l-1.553,2.7Zm7.7-13.091a1.941,1.941,0,0,1-.255-.147c-1.853-1.537-3.751-3.024-5.535-4.636a2.9,2.9,0,0,0-3.1-.886,10.4,10.4,0,0,0-1.933.524c-1.129.659-2.155,1.491-3.243,2.221a.95.95,0,0,0-.457.906c.017,2.059.008,4.118.008,6.177,0,1.146-.006,2.292.007,3.437,0,.163.082.459.149.465a5.33,5.33,0,0,0,1.383.008c.177-.029.332-.338.451-.546q2.586-4.542,5.157-9.093c.449-.792.893-.889,1.605-.348.74.562,1.474,1.133,2.213,1.7.721.549,1.445,1.094,2.035,1.542Zm-18.979,3.614c0,1.776.008,3.551-.007,5.327,0,.372.124.5.489.489.6-.02,1.195-.018,1.792,0,.35.01.456-.131.451-.473-.017-1.244-.008-2.489-.008-3.734,0-2.29-.009-4.58.008-6.87,0-.413-.124-.558-.539-.536a15.418,15.418,0,0,1-1.692,0c-.411-.023-.505.141-.5.521C313.231,220.753,313.223,222.512,313.223,224.271Zm29.417-.18c0-1.641-.007-3.282.006-4.923,0-.35-.08-.519-.469-.5-.6.025-1.194.025-1.79,0-.388-.016-.471.152-.471.5q.012,4.924-.005,9.847c0,.365.141.456.472.446.58-.017,1.162-.03,1.74,0,.433.025.529-.152.524-.549C342.629,227.308,342.64,225.7,342.64,224.092Z" transform="translate(-311.546 -213.054)" fill="#fff" fill-rule="evenodd"/>
    </g>
  </g>
</svg>
