<svg xmlns="http://www.w3.org/2000/svg" width="50" height="51" viewBox="0 0 50 51">
  <g id="Group_21835" data-name="Group 21835" transform="translate(-1005.001 -981)">
    <g id="Group_21661" data-name="Group 21661" transform="translate(-0.012)">
      <g id="Group_21587" data-name="Group 21587" transform="translate(1005.039 981.342)">
        <g id="Group_19606" data-name="Group 19606" transform="translate(0 0)">
          <ellipse id="Ellipse_23" data-name="Ellipse 23" cx="25" cy="25.5" rx="25" ry="25.5" transform="translate(-0.026 -0.342)" fill="#1f3bb3"/>
        </g>
      </g>
      <path id="Path_18141" data-name="Path 18141" d="M-498.286-61.1a.991.991,0,0,1-.742.575c-1.072.293-2.136.618-3.211.906a1.434,1.434,0,0,1-.71,0c-1.089-.291-2.17-.611-3.255-.921-.519-.148-.661-.318-.714-.877H-514.3a5.175,5.175,0,0,0,.384-1.926,5.069,5.069,0,0,0-.383-1.9h7.383c.007-.056.014-.1.017-.143a.724.724,0,0,1,.56-.7c1.166-.337,2.332-.674,3.5-.99a1.2,1.2,0,0,1,.6.027c1.073.293,2.138.612,3.211.9a1.014,1.014,0,0,1,.747.57v.377c-.326.521-.52.593-1.13.42-.354-.1-.707-.2-1.061-.3-.662-.189-1.325-.381-1.988-.567-.263-.074-.406.011-.406.235,0,1.388,0,2.777,0,4.165,0,.182.082.241.231.248a.815.815,0,0,0,.251-.039q1.514-.429,3.027-.861a.754.754,0,0,1,1.08.472Z" transform="translate(1540.744 1061.572)" fill="#fff" fill-rule="evenodd"/>
    </g>
    <path id="Path_18142" data-name="Path 18142" d="M-550.364-62.891c.052-.211.094-.425.157-.633A3.538,3.538,0,0,1-546.48-66a3.53,3.53,0,0,1,3.138,3.026,3.524,3.524,0,0,1-3.009,3.983,3.524,3.524,0,0,1-3.971-2.97.776.776,0,0,0-.043-.13Z" transform="translate(1568.712 1060.724)" fill="#fff" fill-rule="evenodd"/>
    <path id="Path_18143" data-name="Path 18143" d="M-532.411-22.161c.051-.624.1-1.233.149-1.841.008-.094.018-.187.026-.281a.711.711,0,0,1,.749-.711c.164,0,.329,0,.542,0l-4.605-7.978a5.035,5.035,0,0,0,3.612-1.359c.062.1.116.184.165.27q2.552,4.42,5.1,8.843a.4.4,0,0,0,.4.229c1.342-.01,2.684-.006,4.026-.005a.733.733,0,0,1,.848.782c.05.634.107,1.266.16,1.9,0,.045,0,.092,0,.152Z" transform="translate(1557.223 1036.154)" fill="#fff" fill-rule="evenodd"/>
    <path id="Path_18144" data-name="Path 18144" d="M-511.261,26.334c.043.493.085.976.126,1.459.016.188.036.375.046.563a.711.711,0,0,1-.76.811c-.989,0-1.977,0-2.966,0h-7.179c-.627,0-.907-.31-.85-.928.049-.539.09-1.078.135-1.617.008-.093.022-.184.035-.289Z" transform="translate(1547.373 989.101)" fill="#fff" fill-rule="evenodd"/>
  </g>
</svg>
