<svg id="Group_21" data-name="Group 21" xmlns="http://www.w3.org/2000/svg" width="22.157" height="33.575" viewBox="0 0 22.157 33.575">
  <path id="Path_442" data-name="Path 442" d="M671.8,271.077c-.447-.663-10.953-16.3-10.953-22.313a11.079,11.079,0,1,1,22.157,0c0,6.012-10.51,21.651-10.957,22.313l-.122.183Z" transform="translate(-660.847 -237.685)" fill="#689930"/>
  <path id="Path_443" data-name="Path 443" d="M682.948,248.858c0,3.325-3.316,9.732-6.294,14.815-2.43,4.147-4.635,7.415-4.635,7.415s-2.208-3.268-4.638-7.415c-.516-.879-1.042-1.8-1.56-2.738-.029-.055-.059-.108-.09-.164-2.433-4.427-4.644-9.2-4.644-11.913a10.931,10.931,0,0,1,21.846-.583C682.945,248.468,682.948,248.663,682.948,248.858Z" transform="translate(-660.94 -237.779)" fill="#689930"/>
</svg>
