<svg xmlns="http://www.w3.org/2000/svg" width="72.659" height="40.852" viewBox="0 0 72.659 40.852">
  <g id="Group_19483" data-name="Group 19483" transform="translate(11.732 17.766)">
    <g id="Group_19481" data-name="Group 19481" transform="translate(-11.732 -3.978)">
      <path id="Path_17835" data-name="Path 17835" d="M7.641,1.719V5.752h-14.1l-.059,6.47h.1q1.494-2.085,6.136-2.085,5.29,0,7.189,1.947t1.9,7.336q0,5.528-2.124,7.445t-8.222,1.918q-6.018,0-8.1-1.633t-2.085-6.333h4.976q.137,2.6.993,3.235t4.2.639q3.717,0,4.524-.855t.807-4.81q0-3.087-.905-3.943t-4.189-.856q-4.78,0-5.251,1.869h-4.6V1.719Z" transform="translate(11.732 -1.719)" fill="#fff"/>
      <path id="Path_17836" data-name="Path 17836" d="M20.539,21.953h8.989v4.288H20.539Z" transform="translate(2.296 -7.635)" fill="#fff"/>
      <path id="Path_17837" data-name="Path 17837" d="M41.671,6.006v7.238H53.707v4.287H41.671V28.566H36.576V1.719h17.78V6.007H41.671Z" transform="translate(-2.393 -1.719)" fill="#fff"/>
      <path id="Path_17838" data-name="Path 17838" d="M70.407,12.082V31.6H65.9V12.082Z" transform="translate(-10.968 -4.749)" fill="#fff"/>
    </g>
    <g id="Group_19482" data-name="Group 19482" transform="translate(43.437 -17.766)">
      <path id="Path_17839" data-name="Path 17839" d="M68.189,1.433a1.95,1.95,0,1,1-1.95,1.95A1.95,1.95,0,0,1,68.189,1.433Z" transform="translate(-66.235 12.152)" fill="#6b7dfd"/>
      <path id="Path_17840" data-name="Path 17840" d="M66.233-13.429a11.336,11.336,0,0,1,1.954-.171A11.383,11.383,0,0,1,79.557-2.23a11.349,11.349,0,0,1-.171,1.954h4.209a15.5,15.5,0,0,0,.129-1.954A15.554,15.554,0,0,0,68.187-17.766a15.376,15.376,0,0,0-1.954.127Z" transform="translate(-66.233 17.766)" fill="#6b7dfd"/>
      <path id="Path_17841" data-name="Path 17841" d="M66.233-3.184a4.313,4.313,0,0,1,1.954-.468,4.328,4.328,0,0,1,3.861,6.285h4.406A8.524,8.524,0,0,0,76.682.679a8.5,8.5,0,0,0-8.494-8.494,8.51,8.51,0,0,0-1.954.228Z" transform="translate(-66.233 14.856)" fill="#6b7dfd"/>
    </g>
  </g>
</svg>
