<svg xmlns="http://www.w3.org/2000/svg" width="45.146" height="34.032" viewBox="0 0 45.146 34.032">
  <g id="Group_21573" data-name="Group 21573" transform="translate(-307.315 -106.03)">
    <path id="Path_22454" data-name="Path 22454" d="M336.835,106.03c.458.16.928.293,1.372.486a5.915,5.915,0,1,1-4.044-.224c.252-.079.5-.174.748-.262Z" transform="translate(-18.192)" fill="#6373eb" fill-rule="evenodd"/>
    <path id="Path_22455" data-name="Path 22455" d="M309.767,170.421a10.506,10.506,0,0,0,15.658.128,8.941,8.941,0,0,0,13.969.149,5.025,5.025,0,0,1,1.889,3.279,7.871,7.871,0,0,1,.069,1.106c0,3.722.018,7.444,0,11.165a5.177,5.177,0,0,1-5.522,5.5q-11.5.005-23,0a5.17,5.17,0,0,1-5.5-5.441c-.024-3.8-.016-7.592,0-11.387A4.9,4.9,0,0,1,309.767,170.421Z" transform="translate(0 -51.687)" fill="#6373eb" fill-rule="evenodd"/>
    <path id="Path_22456" data-name="Path 22456" d="M508.948,189.291c0,1.824.01,3.648,0,5.472-.015,2.189-1.586,3.153-3.542,2.186-.86-.426-1.713-.868-2.58-1.278a.806.806,0,0,1-.547-.837c.021-3.747,0-7.494.032-11.24a1.07,1.07,0,0,1,.467-.774c.919-.522,1.874-.983,2.829-1.439a2.2,2.2,0,0,1,3.333,2.068C508.975,185.4,508.947,187.344,508.948,189.291Z" transform="translate(-156.497 -60.253)" fill="#6373eb" fill-rule="evenodd"/>
    <path id="Path_22457" data-name="Path 22457" d="M416.86,121.039a4.437,4.437,0,1,1-4.458,4.387A4.434,4.434,0,0,1,416.86,121.039Z" transform="translate(-84.353 -12.047)" fill="#6373eb" fill-rule="evenodd"/>
  </g>
</svg>
