<svg xmlns="http://www.w3.org/2000/svg" width="36.943" height="36.944" viewBox="0 0 36.943 36.944">
  <g id="Group_21759" data-name="Group 21759" transform="translate(174.268 -92.997)">
    <path id="Path_22523" data-name="Path 22523" d="M-155.818,129.938q-5.894,0-11.788,0a6.565,6.565,0,0,1-6.529-5.32,6.548,6.548,0,0,1-.126-1.308q-.011-11.829,0-23.658A6.573,6.573,0,0,1-167.627,93q11.829-.012,23.658,0a6.57,6.57,0,0,1,6.638,6.647q.011,11.829,0,23.658a6.572,6.572,0,0,1-6.617,6.628C-147.9,129.947-151.861,129.938-155.818,129.938Z" transform="translate(0)" fill="#6373eb" fill-rule="evenodd"/>
    <path id="Path_22524" data-name="Path 22524" d="M-112.38,141.48a15.9,15.9,0,0,1,10.568,4.217,25.828,25.828,0,0,1,1.958,1.942,1.3,1.3,0,0,1-.18,2.067q-2.843,2.249-5.691,4.491a1.327,1.327,0,0,1-2.18-.379,5.344,5.344,0,0,0-4.554-2.692,5.31,5.31,0,0,0-4.784,2.713,1.369,1.369,0,0,1-1.286.8,1.54,1.54,0,0,1-.788-.292q-2.961-2.3-5.891-4.637a1.282,1.282,0,0,1-.219-1.9A17.647,17.647,0,0,1-116.678,142,15.48,15.48,0,0,1-112.38,141.48Zm9.7,6.977c-6.561-6.558-15.133-5.082-19.827.031l3.7,2.922a8.321,8.321,0,0,1,4.872-2.827c0-.6,0-1.18,0-1.756a1.33,1.33,0,0,1,1.31-1.439,1.332,1.332,0,0,1,1.327,1.425c0,.589,0,1.178,0,1.774a8.32,8.32,0,0,1,4.877,2.822Z" transform="translate(-43.182 -43.152)" fill="#fff" fill-rule="evenodd"/>
  </g>
</svg>
