<svg width="14" height="14" viewBox="0 0 14 14" fill="none" xmlns="http://www.w3.org/2000/svg">
<path d="M2.90065 10.5964C3.46732 10.1592 4.10065 9.81434 4.80065 9.56187C5.50065 9.30986 6.23398 9.18385 7.00065 9.18385C7.76732 9.18385 8.50065 9.30986 9.20065 9.56187C9.90065 9.81434 10.534 10.1592 11.1006 10.5964C11.4895 10.1368 11.7924 9.61546 12.0093 9.0325C12.2258 8.44954 12.334 7.82734 12.334 7.16591C12.334 5.67488 11.8147 4.40515 10.776 3.35672C9.73687 2.30874 8.47843 1.78474 7.00065 1.78474C5.52287 1.78474 4.26465 2.30874 3.22598 3.35672C2.18687 4.40515 1.66732 5.67488 1.66732 7.16591C1.66732 7.82734 1.77576 8.44954 1.99265 9.0325C2.2091 9.61546 2.51176 10.1368 2.90065 10.5964ZM7.00065 7.83856C6.3451 7.83856 5.79221 7.61165 5.34198 7.15784C4.89221 6.70358 4.66732 6.14573 4.66732 5.4843C4.66732 4.82286 4.89221 4.26501 5.34198 3.81075C5.79221 3.35694 6.3451 3.13004 7.00065 3.13004C7.65621 3.13004 8.2091 3.35694 8.65932 3.81075C9.10909 4.26501 9.33398 4.82286 9.33398 5.4843C9.33398 6.14573 9.10909 6.70358 8.65932 7.15784C8.2091 7.61165 7.65621 7.83856 7.00065 7.83856ZM7.00065 13.8924C6.07843 13.8924 5.21176 13.7157 4.40065 13.3623C3.58954 13.0094 2.88398 12.5303 2.28398 11.9249C1.68398 11.3195 1.2091 10.6076 0.859318 9.78923C0.509096 8.97084 0.333984 8.0964 0.333984 7.16591C0.333984 6.23542 0.509096 5.36098 0.859318 4.54259C1.2091 3.72421 1.68398 3.01232 2.28398 2.40694C2.88398 1.80156 3.58954 1.32219 4.40065 0.968825C5.21176 0.61591 6.07843 0.439453 7.00065 0.439453C7.92287 0.439453 8.78954 0.61591 9.60065 0.968825C10.4118 1.32219 11.1173 1.80156 11.7173 2.40694C12.3173 3.01232 12.7922 3.72421 13.142 4.54259C13.4922 5.36098 13.6673 6.23542 13.6673 7.16591C13.6673 8.0964 13.4922 8.97084 13.142 9.78923C12.7922 10.6076 12.3173 11.3195 11.7173 11.9249C11.1173 12.5303 10.4118 13.0094 9.60065 13.3623C8.78954 13.7157 7.92287 13.8924 7.00065 13.8924ZM7.00065 12.5471C7.58954 12.5471 8.14509 12.4603 8.66732 12.2868C9.18954 12.1128 9.66732 11.8632 10.1006 11.5381C9.66732 11.213 9.18954 10.9634 8.66732 10.7895C8.14509 10.6159 7.58954 10.5291 7.00065 10.5291C6.41176 10.5291 5.85621 10.6159 5.33398 10.7895C4.81176 10.9634 4.33398 11.213 3.90065 11.5381C4.33398 11.8632 4.81176 12.1128 5.33398 12.2868C5.85621 12.4603 6.41176 12.5471 7.00065 12.5471ZM7.00065 6.49326C7.28954 6.49326 7.52843 6.39797 7.71732 6.20739C7.90621 6.01681 8.00065 5.77578 8.00065 5.4843C8.00065 5.19282 7.90621 4.95178 7.71732 4.7612C7.52843 4.57062 7.28954 4.47533 7.00065 4.47533C6.71176 4.47533 6.47287 4.57062 6.28398 4.7612C6.0951 4.95178 6.00065 5.19282 6.00065 5.4843C6.00065 5.77578 6.0951 6.01681 6.28398 6.20739C6.47287 6.39797 6.71176 6.49326 7.00065 6.49326Z" fill="#7E8299"/>
</svg>
