<svg width="15" height="15" viewBox="0 0 15 15" fill="none" xmlns="http://www.w3.org/2000/svg">
<path d="M2.25 15C1.625 15 1.09375 14.7812 0.65625 14.3438C0.21875 13.9062 0 13.375 0 12.75C0 12.2625 0.1405 11.828 0.4215 11.4465C0.703 11.0655 1.0625 10.7937 1.5 10.6312V4.36875C1.0625 4.20625 0.703 3.93425 0.4215 3.55275C0.1405 3.17175 0 2.7375 0 2.25C0 1.625 0.21875 1.09375 0.65625 0.65625C1.09375 0.21875 1.625 0 2.25 0C2.7375 0 3.172 0.1405 3.5535 0.4215C3.9345 0.703 4.20625 1.0625 4.36875 1.5H10.6312C10.7812 1.0625 11.047 0.703 11.4285 0.4215C11.8095 0.1405 12.25 0 12.75 0C13.375 0 13.9062 0.21875 14.3438 0.65625C14.7812 1.09375 15 1.625 15 2.25C15 2.75 14.8595 3.1905 14.5785 3.5715C14.297 3.953 13.9375 4.21875 13.5 4.36875V10.6312C13.9375 10.7937 14.297 11.0655 14.5785 11.4465C14.8595 11.828 15 12.2625 15 12.75C15 13.375 14.7812 13.9062 14.3438 14.3438C13.9062 14.7812 13.375 15 12.75 15C12.2625 15 11.8282 14.8595 11.4473 14.5785C11.0658 14.297 10.7937 13.9375 10.6312 13.5H4.36875C4.20625 13.9375 3.9345 14.297 3.5535 14.5785C3.172 14.8595 2.7375 15 2.25 15ZM4.36875 12H10.6312C10.7437 11.675 10.9187 11.3938 11.1562 11.1562C11.3938 10.9187 11.675 10.7437 12 10.6312V4.36875C11.675 4.25625 11.3938 4.08125 11.1562 3.84375C10.9187 3.60625 10.7437 3.325 10.6312 3H4.36875C4.25625 3.325 4.08125 3.60625 3.84375 3.84375C3.60625 4.08125 3.325 4.25625 3 4.36875V10.6312C3.325 10.7437 3.60625 10.9187 3.84375 11.1562C4.08125 11.3938 4.25625 11.675 4.36875 12Z" fill="#181C32"/>
</svg>
