<svg xmlns="http://www.w3.org/2000/svg" width="38.878" height="38.878" viewBox="0 0 38.878 38.878">
  <path id="path436" d="M55.865,126.795c-.155-.155-.158-.263-.158-6.662v-6.5l.183-.172c.173-.163.255-.172,1.535-.172h1.352l.164.208a.967.967,0,0,1,.164.672v.463h.623l.024-1.651c.022-1.493.039-1.667.175-1.817s.225-.166,1.749-.166c1.406,0,1.619.017,1.765.138s.168.218.187,1.8l.02,1.659,4.365.02,4.365.02v-1.61c0-1.509.01-1.623.164-1.818l.164-.208h1.6a4.979,4.979,0,0,1,1.752.112c.141.1.156.246.193,1.8.039,1.674.041,1.685.217,1.711s.178,0,.178-.494c0-.822.025-.835,1.65-.835,1.86,0,1.7-.206,1.731,2.244l.024,1.943h5.838v-.661c0-.549.028-.7.164-.869l.164-.208H88.56a14.427,14.427,0,0,1,2.819.12,4.4,4.4,0,0,1,.064,8.524,13.665,13.665,0,0,1-2.844.124c-1.3,0-2.4-.027-2.446-.059-.19-.127-.269-.432-.269-1.04v-.637H80.047l-.024,1.927c-.022,1.765-.036,1.941-.174,2.094s-.229.166-1.506.166c-1.65,0-1.645,0-1.7-.764l-.04-.54-8.749-.02-8.749-.02v.464a.968.968,0,0,1-.164.672l-.164.208H57.4c-1.271,0-1.389-.012-1.535-.158ZM58,120.119v-5.728H56.813v11.455H58Zm20.935,0v-5.728H77.748v11.455h1.185Zm-2.291.04v-4.424H59.1v8.848H76.642ZM90.7,123.4a3.34,3.34,0,0,0,2.631-1.952,3.595,3.595,0,0,0,0-2.642,3.387,3.387,0,0,0-2.075-1.835,9.82,9.82,0,0,0-2.35-.125H86.991v3.265c0,1.8.024,3.289.053,3.318a27.154,27.154,0,0,0,3.66-.028Zm-1.238-.992a2.926,2.926,0,0,1-1.245-1.087,2.439,2.439,0,0,1,.318-2.814,2.408,2.408,0,1,1,2.805,3.807,2.992,2.992,0,0,1-1.878.094Zm1.658-1.24a1.309,1.309,0,1,0-2.074-1.343,1.281,1.281,0,0,0,.615,1.448A1.484,1.484,0,0,0,91.124,121.163Zm-5.239-1.044v-1.54H80.039v3.081h5.846ZM62.5,113.365V112.1H60.842v1.211a8.267,8.267,0,0,0,.053,1.264,3.724,3.724,0,0,0,.83.053H62.5Zm12.64,0V112.1H73.482v1.211a8.268,8.268,0,0,0,.053,1.264,3.725,3.725,0,0,0,.83.053h.777Z" transform="translate(-117.876 -11.501) rotate(-45)"/>
</svg>
