<svg xmlns="http://www.w3.org/2000/svg" width="107.611" height="24.523" viewBox="0 0 107.611 24.523">
  <path id="path676" d="M22.2,6.359A19.581,19.581,0,0,1,20.52,8.633L6.387,24.961h4.806a21.268,21.268,0,0,1,2.045-2.816L17.087,17.6h7.269l.392,5.155a13.649,13.649,0,0,1-.189,2.208h5.061l-1.1-15.453a30.627,30.627,0,0,1,0-3.149Zm14.753,0L35.61,9.777h4.225L41.18,6.359ZM24.061,8.888l.35,5.694H19.376Zm67.084,1.346a30.317,30.317,0,0,0-6.273.728l-1.656,3.431a18.949,18.949,0,0,1,6.125-1.441c1.548,0,2.165.622,1.882,1.47s-1.385,1.211-3.4,1.682l-3.525.82c-2.988.7-4.751,2.018-5.492,4.211-.834,2.53.564,4.133,3.754,4.133a14.077,14.077,0,0,0,2.868-.363l1.911-2.921a14.272,14.272,0,0,1-2.6.457c-1.292,0-1.872-.457-1.535-1.467s1.2-1.318,2.826-1.735l2.287-.62a9.421,9.421,0,0,0,1.777-.673l-1.627,4.038.013.039a23.513,23.513,0,0,1-1.346,2.989h4.548c.4-1.211.675-2.005.823-2.369L95.2,15.539c.215-.525.35-.958.457-1.267.875-2.894-.282-4.038-4.509-4.038Zm17.653.024A9.139,9.139,0,0,0,102.91,12.4l.578-1.738H99.45a151.74,151.74,0,0,1-5.56,14.3H98.4c.215-.767.458-1.441.673-2.114,2.181-6.609,4.159-9.611,8.076-9.611,2.275,0,2.627,1.05,1.819,3.46-.39,1.184-1.416,3.958-3.26,8.265h4.39c.148-.485.323-.957.457-1.414,1.36-4.038,2.53-6.879,3.055-8.481,1.117-3.352-.107-4.806-4.522-4.806q-.145,0-.289,0Zm-50.375,0c-3.567,0-6.259,1.55-6.946,3.6-.525,1.575.255,2.476,1.6,3.715l2.692,2.463A1.036,1.036,0,0,1,56,21.044c-.283.848-1.2,1.209-2.8,1.209v.029a10.914,10.914,0,0,1-4.59-1.346L47.8,24.5a15.17,15.17,0,0,0,4.766.849c4.051,0,6.743-1.643,7.632-4.335.538-1.6-.108-2.61-1.454-3.875l-2.545-2.3a.808.808,0,0,1-.242-.781c.175-.5.928-.82,2.166-.82a12.625,12.625,0,0,1,3.959.849l.794-3.231a19.732,19.732,0,0,0-4.456-.594Zm14.348,0a32.386,32.386,0,0,0-7.485.957,188.645,188.645,0,0,1-7.821,19.664h4.524c.5-1.373.956-2.7,1.454-3.957l1.209-3.068a5.209,5.209,0,0,0,4.038,1.493A11.414,11.414,0,0,0,79.205,17.4c1.642-4.711-.551-7.135-6.433-7.135Zm-21.423.013q-.393-.012-.786.016a6.73,6.73,0,0,0-5.181,2.476l.712-2.1H42.056a151.692,151.692,0,0,1-5.586,14.2h4.5a75.3,75.3,0,0,1,3.149-8.076,5.155,5.155,0,0,1,4.956-3.218,10.069,10.069,0,0,1,1.546.121l1.038-3.4q-.152-.011-.305-.016Zm-16.212.634c-1.588,4.778-3.365,9.437-5.384,14.054h4.525c1.131-3.378,2.813-8.078,5.169-14.054Zm36.626,2.476c2.961,0,3.956,1.185,2.96,4.133s-2.893,4.577-5.544,4.577-3.164-1.5-2.114-4.672a21.091,21.091,0,0,1,1.493-3.538A11.318,11.318,0,0,1,71.763,13.384Z" transform="translate(-6.387 -6.359)" fill="#a5a5aa"/>
</svg>
