<svg width="13" height="16" viewBox="0 0 13 16" fill="none" xmlns="http://www.w3.org/2000/svg">
<path d="M5.06278 14.5191C5.06278 15.3377 5.70556 16 6.5 16C7.29444 16 7.93722 15.3377 7.93722 14.5191H5.06278ZM6.5 3.34884C8.49333 3.34884 10.1111 5.01581 10.1111 7.06977V12.2791H2.88889V7.06977C2.88889 5.01581 4.50667 3.34884 6.5 3.34884ZM6.5 0C5.90056 0 5.41667 0.498605 5.41667 1.11628V1.98698C3.14889 2.49302 1.44444 4.57674 1.44444 7.06977V11.5349L0 13.0233V13.7674H13V13.0233L11.5556 11.5349V7.06977C11.5556 4.57674 9.85111 2.49302 7.58333 1.98698V1.11628C7.58333 0.498605 7.09944 0 6.5 0ZM5.77778 4.83721H7.22222V7.81395H5.77778V4.83721ZM5.77778 9.30233H7.22222V10.7907H5.77778V9.30233Z" fill="white"/>
</svg>
