<svg xmlns="http://www.w3.org/2000/svg" width="50" height="51" viewBox="0 0 50 51">
  <g id="Group_21494" data-name="Group 21494" transform="translate(0.026 0.342)">
    <g id="Group_19606" data-name="Group 19606" transform="translate(0 0)">
      <ellipse id="Ellipse_23" data-name="Ellipse 23" cx="25" cy="25.5" rx="25" ry="25.5" transform="translate(-0.026 -0.342)" fill="#2c2c6e"/>
    </g>
    <g id="Group_19605" data-name="Group 19605" transform="translate(11.915 12.041)">
      <path id="Path_18125" data-name="Path 18125" d="M193.607,271.255a1.023,1.023,0,0,1-.664-1.515q2.531-6.335,5.036-12.68c.038-.1.071-.192.1-.284a3.491,3.491,0,1,1,4.207-.01c.03.087.059.184.1.278q2.519,6.354,5.04,12.707a1.2,1.2,0,0,1,.076.883.991.991,0,0,1-.744.622h-.313a6.911,6.911,0,0,1-.66-.4q-2.659-2.014-5.3-4.046a.357.357,0,0,0-.526.005q-2.667,2.025-5.35,4.029a7.325,7.325,0,0,1-.686.409Zm4.28-8.8c.751.573,1.487,1.14,2.234,1.693a.317.317,0,0,0,.281-.041c.638-.467,1.264-.952,1.9-1.418a.287.287,0,0,0,.118-.406c-.591-1.465-1.18-2.932-1.746-4.407-.114-.3-.232-.458-.582-.416-.174.021-.259.058-.321.219-.264.689-.538,1.374-.81,2.06C198.608,260.637,198.249,261.539,197.887,262.451Zm3.877-8.464a1.577,1.577,0,1,0-1.579,1.569A1.572,1.572,0,0,0,201.764,253.988Zm-4.6,10.3-1.243,3.137.038.031,2.7-2.03Zm4.644,1.148,2.576,1.961.049-.043-1.189-3Z" transform="translate(-187.225 -244.533)" fill="#fff" fill-rule="evenodd"/>
      <path id="Path_18126" data-name="Path 18126" d="M422.509,159.081a4.08,4.08,0,0,1,1.377,1.315,12.318,12.318,0,0,1,2.726,6.251,12.794,12.794,0,0,1-3.577,10.974.952.952,0,1,1-1.381-1.3,11.1,11.1,0,0,0,2.32-3.467,10.976,10.976,0,0,0,.846-4.964,10.674,10.674,0,0,0-3.057-7.008,1.019,1.019,0,0,1,.328-1.8Z" transform="translate(-400.834 -159.081)" fill="#fff" fill-rule="evenodd"/>
      <path id="Path_18127" data-name="Path 18127" d="M111.628,159.081a1,1,0,0,1,.75.924,1.093,1.093,0,0,1-.386.822,10.366,10.366,0,0,0-2.622,4.415,10.9,10.9,0,0,0,2.51,10.87c.087.1.183.187.265.287a.943.943,0,0,1-.069,1.316.912.912,0,0,1-1.313-.032,16.01,16.01,0,0,1-1.319-1.545,12.951,12.951,0,0,1,1.26-16.713,3.056,3.056,0,0,1,.506-.346Z" transform="translate(-106.968 -159.081)" fill="#fff" fill-rule="evenodd"/>
      <path id="Path_18128" data-name="Path 18128" d="M371.814,218.658a7.909,7.909,0,0,1-2.311,5.468.947.947,0,0,1-1.337.064.928.928,0,0,1-.065-1.332,6.426,6.426,0,0,0,1.306-1.933,6.027,6.027,0,0,0-1-6.44c-.1-.128-.223-.244-.327-.372a.945.945,0,0,1,1.387-1.281,7.879,7.879,0,0,1,1.781,2.7A8.342,8.342,0,0,1,371.814,218.658Z" transform="translate(-350.831 -209.066)" fill="#fff" fill-rule="evenodd"/>
      <path id="Path_18129" data-name="Path 18129" d="M185.552,212.5a1,1,0,0,1,.991.548.914.914,0,0,1-.119,1,14.778,14.778,0,0,0-1.017,1.348,6.078,6.078,0,0,0,.682,7.062c.1.117.212.231.312.351a.949.949,0,0,1-.062,1.318.939.939,0,0,1-1.318-.026,7.722,7.722,0,0,1-1.785-2.728,7.95,7.95,0,0,1-.012-5.827,7.588,7.588,0,0,1,1.794-2.75A1.957,1.957,0,0,1,185.552,212.5Z" transform="translate(-177.739 -209.011)" fill="#fff" fill-rule="evenodd"/>
    </g>
  </g>
</svg>
