<svg width="33" height="33" viewBox="0 0 33 33" fill="none" xmlns="http://www.w3.org/2000/svg">
<path d="M28 16H25.9C25.5 12.9 23 10.5 20 10.1V8C20 7.4 19.6 7 19 7C18.4 7 18 7.4 18 8V10.1C14.9 10.5 12.5 13 12.1 16H10C9.4 16 9 16.4 9 17C9 17.6 9.4 18 10 18H12.1C12.5 21.1 15 23.4999 18 23.8999V26C18 26.6 18.4 27 19 27C19.6 27 20 26.6 20 26V23.8999C23.1 23.4999 25.5 21 25.9 18H28C28.6 18 29 17.6 29 17C29 16.4 28.6 16 28 16ZM19 22C16.2 22 14 19.8 14 17C14 14.2 16.2 12 19 12C21.8 12 24 14.2 24 17C24 19.8 21.8 22 19 22Z" fill="#B5B5C3"/>
<path d="M19 20C20.6569 20 22 18.6569 22 17C22 15.3431 20.6569 14 19 14C17.3431 14 16 15.3431 16 17C16 18.6569 17.3431 20 19 20Z" fill="#B5B5C3"/>
</svg>
