<svg width="27" height="27" viewBox="0 0 27 27" fill="none" xmlns="http://www.w3.org/2000/svg">
<path d="M13.5 26.625C11.7014 26.625 10.0058 26.2789 8.41333 25.5867C6.82181 24.8935 5.43056 23.9514 4.23958 22.7604C3.04861 21.5694 2.10653 20.1782 1.41333 18.5867C0.721111 16.9942 0.375 15.2986 0.375 13.5C0.375 12.4306 0.496528 11.3913 0.739583 10.3821C0.982639 9.37389 1.33507 8.42597 1.79687 7.53833C2.25868 6.65167 2.81187 5.82576 3.45646 5.06063C4.10007 4.29451 4.82292 3.60764 5.625 3L15.5417 12.9167L13.5 14.9583L5.625 7.08333C4.89583 7.95833 4.32465 8.93688 3.91146 10.019C3.49826 11.1001 3.29167 12.2604 3.29167 13.5C3.29167 16.3194 4.28819 18.7257 6.28125 20.7188C8.27431 22.7118 10.6806 23.7083 13.5 23.7083C16.3194 23.7083 18.7257 22.7118 20.7188 20.7188C22.7118 18.7257 23.7083 16.3194 23.7083 13.5C23.7083 10.8993 22.8761 8.65688 21.2117 6.77271C19.5463 4.88951 17.4618 3.77778 14.9583 3.4375V6.20833H12.0417V0.375H13.5C15.2986 0.375 16.9942 0.721111 18.5867 1.41333C20.1782 2.10653 21.5694 3.04861 22.7604 4.23958C23.9514 5.43056 24.8935 6.82181 25.5867 8.41333C26.2789 10.0058 26.625 11.7014 26.625 13.5C26.625 15.2986 26.2789 16.9942 25.5867 18.5867C24.8935 20.1782 23.9514 21.5694 22.7604 22.7604C21.5694 23.9514 20.1782 24.8935 18.5867 25.5867C16.9942 26.2789 15.2986 26.625 13.5 26.625ZM13.5 22.25C13.0868 22.25 12.7407 22.11 12.4617 21.83C12.1817 21.551 12.0417 21.2049 12.0417 20.7917C12.0417 20.3785 12.1817 20.0324 12.4617 19.7533C12.7407 19.4733 13.0868 19.3333 13.5 19.3333C13.9132 19.3333 14.2598 19.4733 14.5398 19.7533C14.8188 20.0324 14.9583 20.3785 14.9583 20.7917C14.9583 21.2049 14.8188 21.551 14.5398 21.83C14.2598 22.11 13.9132 22.25 13.5 22.25ZM20.7917 14.9583C20.3785 14.9583 20.0324 14.8183 19.7533 14.5383C19.4733 14.2593 19.3333 13.9132 19.3333 13.5C19.3333 13.0868 19.4733 12.7402 19.7533 12.4602C20.0324 12.1812 20.3785 12.0417 20.7917 12.0417C21.2049 12.0417 21.551 12.1812 21.83 12.4602C22.11 12.7402 22.25 13.0868 22.25 13.5C22.25 13.9132 22.11 14.2593 21.83 14.5383C21.551 14.8183 21.2049 14.9583 20.7917 14.9583ZM6.20833 14.9583C5.79514 14.9583 5.44854 14.8183 5.16854 14.5383C4.88951 14.2593 4.75 13.9132 4.75 13.5C4.75 13.0868 4.88951 12.7402 5.16854 12.4602C5.44854 12.1812 5.79514 12.0417 6.20833 12.0417C6.62153 12.0417 6.96812 12.1812 7.24813 12.4602C7.52715 12.7402 7.66667 13.0868 7.66667 13.5C7.66667 13.9132 7.52715 14.2593 7.24813 14.5383C6.96812 14.8183 6.62153 14.9583 6.20833 14.9583Z" fill="#1C1B1F"/>
</svg>
