<svg xmlns="http://www.w3.org/2000/svg" width="103.785" height="29.9" viewBox="0 0 103.785 29.9">
  <g id="layer1" transform="translate(0 0)">
    <g id="layer1-1" transform="translate(0 0)">
      <path id="path21" d="M17.858,28.3c4.96-.876,9.056-1.6,9.1-1.611l.085-.019L22.364,21.1c-2.575-3.062-4.682-5.581-4.682-5.6S22.517,2.167,22.544,2.119c.009-.016,3.3,5.665,7.976,13.77l8.022,13.9.06.107-14.88,0-14.881,0Zm57.066-1.347c-2.265-.145-3.583-1.435-3.932-3.849a34.714,34.714,0,0,1-.1-4.829l-.009-4.034h2.005l.008,3.9c.007,3.518.012,3.931.046,4.178a3.7,3.7,0,0,0,.87,2.164,2.488,2.488,0,0,0,1.4.735,5.341,5.341,0,0,0,1.346,0,2.973,2.973,0,0,0,1.526-.828,4.033,4.033,0,0,0,1.029-1.971l.06-.265.006-3.936.007-3.936h2.046V26.663H79.207v-.982a7.357,7.357,0,0,0-.023-.975.833.833,0,0,0-.116.177,4.122,4.122,0,0,1-1.568,1.57,4.405,4.405,0,0,1-2.577.5Zm22.991-.01a5.32,5.32,0,0,1-2.33-.761,5.678,5.678,0,0,1-2.559-4.411A10.686,10.686,0,0,1,93,19.525a7.294,7.294,0,0,1,1.435-3.586,7.288,7.288,0,0,1,.868-.868,5.409,5.409,0,0,1,2.212-1.057,7.207,7.207,0,0,1,1.8-.1,4.719,4.719,0,0,1,3.181,1.634,6.249,6.249,0,0,1,1.284,3.884c.008.255.011.7,0,.991l-.011.529-4.387.006-4.387,0v.2a4.866,4.866,0,0,0,.4,1.852,4.088,4.088,0,0,0,.893,1.306,3.932,3.932,0,0,0,2.225.94,8.755,8.755,0,0,0,1.453-.056,6.171,6.171,0,0,0,2.741-1.13c.09-.068.177-.133.193-.142a3.638,3.638,0,0,1,.027.913v.931l-.208.129a7.277,7.277,0,0,1-2.94,1.019,17.1,17.1,0,0,1-1.858.028Zm3.819-7.856a3.986,3.986,0,0,0-1.016-2.679,2.794,2.794,0,0,0-1.549-.751,4.532,4.532,0,0,0-1.2.034,3.14,3.14,0,0,0-1.641.872A4.485,4.485,0,0,0,95.239,18.3a5.608,5.608,0,0,0-.21.855l-.015.1h6.719ZM42.218,26.635c0-.015,1.495-3.929,3.311-8.7l3.3-8.671h2.122l.088.226c.269.69,6.61,17.152,6.61,17.161s-.508.01-1.129.01H55.392l-.915-2.433L53.564,21.8H46.205l-.032.083c-.018.046-.408,1.14-.868,2.433l-.836,2.35H43.339a6.2,6.2,0,0,1-1.122-.027Zm10.675-6.7s-.614-1.67-1.367-3.7a31.15,31.15,0,0,1-1.6-4.645c-.053-.286-.079-.295-.11-.033a5.98,5.98,0,0,1-.192.837c-.037.115-.67,1.853-1.407,3.862s-1.34,3.662-1.34,3.671,1.353.019,3.006.019S52.892,19.943,52.892,19.939Zm5.44,6.407v-.317L62,20.989l3.666-5.039-3.319-.01-3.318-.011-.006-.843-.006-.842h9.6v.569L64.949,19.88c-2.017,2.786-3.667,5.072-3.667,5.077s1.631.01,3.623.01h3.621v1.7H58.332Zm26.9.3c-.007-.008-.014-2.8-.014-6.21V14.243h2V15.52c0,.7.009,1.278.019,1.278a1.182,1.182,0,0,0,.109-.256,4.421,4.421,0,0,1,1.119-1.724,2.9,2.9,0,0,1,1.583-.787,3.231,3.231,0,0,1,.66-.024,2.926,2.926,0,0,1,.92.128l.083.027v2.08l-.237-.118a2.526,2.526,0,0,0-1.326-.266,2.4,2.4,0,0,0-.794.155A2.505,2.505,0,0,0,88.1,17.044a5.977,5.977,0,0,0-.838,2.41c-.017.147-.027,1.347-.03,3.713l-.006,3.5h-.986C85.692,26.663,85.241,26.656,85.233,26.648ZM0,26.6c0-.008,2.206-3.838,4.9-8.511l4.9-8.5,5.714-4.8C18.662,2.165,21.241,0,21.252,0a.992.992,0,0,1-.092.231c-.061.131-2.853,6.12-6.2,13.307L8.862,26.608l-4.431.006C1.994,26.616,0,26.612,0,26.6Z" transform="translate(0 0)" fill="#a5a5aa"/>
    </g>
  </g>
</svg>
