<svg width="20" height="20" viewBox="0 0 20 20" fill="none" xmlns="http://www.w3.org/2000/svg">
<path opacity="0.5" d="M15 9.16669H5.83333C5.3731 9.16669 5 9.53978 5 10C5 10.4603 5.3731 10.8334 5.83333 10.8334H15C15.4602 10.8334 15.8333 10.4603 15.8333 10C15.8333 9.53978 15.4602 9.16669 15 9.16669Z" fill="black"/>
<path d="M7.13807 9.52857L10.625 6.04166C10.9702 5.69648 10.9702 5.13683 10.625 4.79166C10.2798 4.44648 9.72016 4.44648 9.375 4.79166L4.75592 9.41074C4.43048 9.73616 4.43048 10.2638 4.75592 10.5892L9.375 15.2083C9.72016 15.5535 10.2798 15.5535 10.625 15.2083C10.9702 14.8632 10.9702 14.3035 10.625 13.9583L7.13807 10.4714C6.87772 10.2111 6.87772 9.78891 7.13807 9.52857Z" fill="black"/>
</svg>
