<svg xmlns="http://www.w3.org/2000/svg" width="92.437" height="20.973" viewBox="0 0 92.437 20.973">
  <g id="Group_21675" data-name="Group 21675" transform="translate(141 -24.28)">
    <path id="Path_22499" data-name="Path 22499" d="M-84.979,24.28c.443.1.892.171,1.328.29A6.088,6.088,0,0,1-79.1,30.424a5.436,5.436,0,0,1-1.266,3.346c-.079.1-.163.195-.264.314a1.835,1.835,0,0,0,.206.212,5.808,5.808,0,0,1,.642,8.485,6,6,0,0,1-4.61,2.025c-2.675.015-5.35,0-8.025.011-.325,0-.448-.094-.447-.441q.015-7.768,0-15.536c0-.306.07-.43.4-.425,1.171.018,2.343.007,3.565.007.009.211.024.39.024.57,0,3.777.008,7.553-.008,11.33,0,.431.11.568.549.559,1.315-.027,2.632,0,3.948-.016a2.174,2.174,0,0,0,2.155-2.082,2.158,2.158,0,0,0-1.933-2.2,6.5,6.5,0,0,0-.771-.028c-.644,0-1.288-.01-1.931,0-.281.005-.412-.068-.407-.385q.025-1.588,0-3.176c0-.307.106-.4.4-.391a14.108,14.108,0,0,0,1.8-.029,2.157,2.157,0,0,0,2-2.224,2.185,2.185,0,0,0-2.236-2.045c-.972-.019-1.946,0-2.918-.005-.572,0-.573,0-.573-.555,0-1,0-2,0-3,0-.155-.026-.31-.04-.466Z" transform="translate(-44.004)" fill="#eb6124" fill-rule="evenodd"/>
    <path id="Path_22500" data-name="Path 22500" d="M744.176,24.28a1.386,1.386,0,0,1,.847,1.5c-.023,6.147-.013,12.295-.013,18.442v.559c-.159.011-.295.028-.43.029-1,0-2-.019-3,.011-.439.013-.552-.129-.551-.56q.02-9.693.008-19.385c0-.2-.022-.4-.034-.6Z" transform="translate(-806.294)" fill="#eb6124" fill-rule="evenodd"/>
    <path id="Path_22501" data-name="Path 22501" d="M-138.082,24.28c.138.068.281.128.412.207a1.248,1.248,0,0,1,.687,1.109c0,.773-.009,1.545.008,2.317.006.3-.093.4-.393.4-.744-.016-1.488,0-2.232-.008a1.277,1.277,0,0,1-1.3-.922,1.371,1.371,0,0,0-.1-.181V24.28Z" fill="#eb6124" fill-rule="evenodd"/>
    <path id="Path_22502" data-name="Path 22502" d="M496.978,117.412a2.858,2.858,0,0,0,1.1,1.3,3.213,3.213,0,0,0,3.3.161,2.68,2.68,0,0,1,1.052-.26c1.227-.031,2.456-.012,3.733-.012a2.616,2.616,0,0,1-.111.355,6.661,6.661,0,0,1-5.513,3.9,6.837,6.837,0,1,1,6-8.229,12.53,12.53,0,0,1,.114,2.338c.01.325-.169.421-.489.418-1.831-.014-3.662-.007-5.492-.007-1.044,0-2.088,0-3.132,0C497.374,117.372,497.209,117.395,496.978,117.412Zm.05-2.738h5.659a3.1,3.1,0,0,0-2.865-1.83A3.049,3.049,0,0,0,497.027,114.674Z" transform="translate(-579.566 -77.644)" fill="#eb6124" fill-rule="evenodd"/>
    <path id="Path_22503" data-name="Path 22503" d="M808.144,117.916c.429,0,.858,0,1.287,0a.681.681,0,0,1,.771.538c.241,1.248,2.381,1.56,3.295.638a.635.635,0,0,0-.323-1.124c-.819-.241-1.659-.412-2.488-.621-.595-.15-1.2-.279-1.776-.478a3.3,3.3,0,0,1-2.375-2.582,3.776,3.776,0,0,1,1.223-3.728,5.534,5.534,0,0,1,3.21-1.293,7.45,7.45,0,0,1,3.544.4,4.385,4.385,0,0,1,2.951,4.077c0,.3-.049.443-.393.434-.843-.022-1.687-.009-2.531-.007a.659.659,0,0,1-.728-.476,1.685,1.685,0,0,0-1.937-1.19,2.7,2.7,0,0,0-1.264.434.62.62,0,0,0,.172,1.175c.673.226,1.378.357,2.07.528s1.4.31,2.076.523a3.375,3.375,0,0,1,2.581,2.846,3.729,3.729,0,0,1-1.593,3.784,6.592,6.592,0,0,1-4.318,1.08,6.24,6.24,0,0,1-3.611-1.289,4.274,4.274,0,0,1-1.545-3.354c-.011-.243.089-.328.328-.321C807.229,117.926,807.687,117.917,808.144,117.916Z" transform="translate(-866.12 -77.642)" fill="#eb6124" fill-rule="evenodd"/>
    <path id="Path_22504" data-name="Path 22504" d="M335.8,117.758a6.688,6.688,0,0,1-7.254,5.33,6.793,6.793,0,0,1-6.228-7,6.9,6.9,0,0,1,6.228-6.581c3.617-.152,6.989,2.3,7.245,5.319-.12.012-.24.035-.361.035-.987,0-1.975.023-2.96-.015a1,1,0,0,1-.665-.348,3.159,3.159,0,0,0-3.394-1.3,3.186,3.186,0,1,0,3.381,4.9.761.761,0,0,1,.463-.331C333.426,117.745,334.6,117.758,335.8,117.758Z" transform="translate(-423.551 -77.905)" fill="#eb6124" fill-rule="evenodd"/>
    <path id="Path_22505" data-name="Path 22505" d="M87.144,126.027H85.829c-.715,0-1.43-.02-2.144.008a.618.618,0,0,1-.7-.46c-.966-2.457-1.953-4.906-2.934-7.357-.066-.166-.141-.329-.26-.608-.111.246-.178.379-.233.516-.993,2.477-1.992,4.952-2.97,7.435a.628.628,0,0,1-.692.472c-1.138-.021-2.277-.008-3.47-.008.178-.438.33-.82.488-1.2q2.323-5.6,4.639-11.194a.677.677,0,0,1,.748-.511c1.043.032,2.087.017,3.13.006a.48.48,0,0,1,.515.343q2.533,6.111,5.078,12.217C87.064,125.776,87.09,125.87,87.144,126.027Z" transform="translate(-195.109 -81.214)" fill="#eb6124" fill-rule="evenodd"/>
    <path id="Path_22506" data-name="Path 22506" d="M671.252,85.282v-.476q0-7.832-.009-15.663c0-.423.086-.584.54-.56.742.04,1.487.021,2.231.008a1.145,1.145,0,0,1,1.237,1.25c-.022,4.978-.015,9.956,0,14.934,0,.4-.1.556-.523.544-1.029-.027-2.06-.008-3.089-.01C671.525,85.309,671.413,85.294,671.252,85.282Z" transform="translate(-742.525 -40.498)" fill="#eb6124" fill-rule="evenodd"/>
    <path id="Path_22507" data-name="Path 22507" d="M257.964,119.5c0-1.958.011-3.916-.009-5.873,0-.417.129-.546.538-.531.771.028,1.543,0,2.315.012a1.045,1.045,0,0,1,1.148,1.144c.006,3.787,0,7.574.007,11.361,0,.265-.069.4-.358.393-1.086-.008-2.172-.012-3.258,0-.352,0-.386-.184-.385-.462C257.966,123.528,257.964,121.513,257.964,119.5Z" transform="translate(-364.711 -81.189)" fill="#eb6124" fill-rule="evenodd"/>
  </g>
</svg>
