<svg width="28" height="28" viewBox="0 0 28 28" fill="none" xmlns="http://www.w3.org/2000/svg">
<path d="M14 25.6667C15.933 25.6667 17.5 24.0997 17.5 22.1667C17.5 20.2336 15.933 18.6667 14 18.6667C12.0669 18.6667 10.5 20.2336 10.5 22.1667C10.5 24.0997 12.0669 25.6667 14 25.6667Z" fill="#E9E9ED"/>
<path d="M22.1667 17.5V21C22.1667 21.7 21.7 22.1667 21 22.1667H7.00004C6.30004 22.1667 5.83337 21.7 5.83337 21V17.5C7.11671 17.5 8.16671 16.45 8.16671 15.1667V11.6667C8.16671 8.86667 10.15 6.53334 12.8334 5.95V3.5C12.8334 2.8 13.3 2.33334 14 2.33334C14.7 2.33334 15.1667 2.8 15.1667 3.5V5.95C17.85 6.53334 19.8334 8.86667 19.8334 11.6667V15.1667C19.8334 16.45 20.8834 17.5 22.1667 17.5ZM12.8334 11.6667C12.8334 10.9667 13.3 10.5 14 10.5C14.7 10.5 15.1667 10.0333 15.1667 9.33334C15.1667 8.63334 14.7 8.16667 14 8.16667C12.0167 8.16667 10.5 9.68334 10.5 11.6667C10.5 12.3667 10.9667 12.8333 11.6667 12.8333C12.3667 12.8333 12.8334 12.3667 12.8334 11.6667Z" fill="#B5B5C3"/>
</svg>
