<svg width="19" height="23" viewBox="0 0 19 23" fill="none" xmlns="http://www.w3.org/2000/svg">
<path d="M0.875 22.0416V6.70825C0.875 6.18117 1.06251 5.73011 1.43754 5.35509C1.81321 4.97942 2.26458 4.79159 2.79167 4.79159H12.375C12.9021 4.79159 13.3535 4.97942 13.7291 5.35509C14.1042 5.73011 14.2917 6.18117 14.2917 6.70825V22.0416L7.58333 19.1666L0.875 22.0416ZM2.79167 19.1187L7.58333 17.0583L12.375 19.1187V6.70825H2.79167V19.1187ZM16.2083 19.1666V2.87492H3.75V0.958252H16.2083C16.7354 0.958252 17.1868 1.14577 17.5625 1.52079C17.9375 1.89646 18.125 2.34784 18.125 2.87492V19.1666H16.2083Z" fill="#181C32"/>
</svg>
