<svg width="23" height="23" viewBox="0 0 23 23" fill="none" xmlns="http://www.w3.org/2000/svg">
<path d="M20.1243 21.083H2.87435C2.29935 21.083 1.91602 20.6997 1.91602 20.1247V4.79134C1.91602 4.21634 2.29935 3.83301 2.87435 3.83301H20.1243C20.6993 3.83301 21.0827 4.21634 21.0827 4.79134V20.1247C21.0827 20.6997 20.6993 21.083 20.1243 21.083Z" fill="#E9E9ED"/>
<path d="M5.74935 5.75033C5.17435 5.75033 4.79102 5.36699 4.79102 4.79199V2.87533C4.79102 2.30033 5.17435 1.91699 5.74935 1.91699C6.32435 1.91699 6.70768 2.30033 6.70768 2.87533V4.79199C6.70768 5.36699 6.32435 5.75033 5.74935 5.75033ZM10.541 4.79199V2.87533C10.541 2.30033 10.1577 1.91699 9.58268 1.91699C9.00768 1.91699 8.62435 2.30033 8.62435 2.87533V4.79199C8.62435 5.36699 9.00768 5.75033 9.58268 5.75033C10.1577 5.75033 10.541 5.36699 10.541 4.79199ZM14.3743 4.79199V2.87533C14.3743 2.30033 13.991 1.91699 13.416 1.91699C12.841 1.91699 12.4577 2.30033 12.4577 2.87533V4.79199C12.4577 5.36699 12.841 5.75033 13.416 5.75033C13.991 5.75033 14.3743 5.36699 14.3743 4.79199ZM18.2077 4.79199V2.87533C18.2077 2.30033 17.8243 1.91699 17.2493 1.91699C16.6743 1.91699 16.291 2.30033 16.291 2.87533V4.79199C16.291 5.36699 16.6743 5.75033 17.2493 5.75033C17.8243 5.75033 18.2077 5.36699 18.2077 4.79199Z" fill="#7E8299"/>
<path d="M8.43319 12.5543C8.81653 12.5543 9.10403 12.4585 9.29569 12.2668C9.48736 12.0752 9.67903 11.7877 9.67903 11.4043C9.67903 11.1168 9.58319 10.8293 9.39153 10.6377C9.19986 10.446 8.91236 10.3502 8.62486 10.3502C8.43319 10.3502 8.24152 10.3502 8.04985 10.446C7.85818 10.5418 7.76236 10.6377 7.66653 10.7335C7.57069 10.8293 7.47486 10.9252 7.37903 11.1168C7.28319 11.3085 7.18736 11.4043 7.18736 11.596C7.18736 11.6918 7.09153 11.6918 6.99569 11.7877C6.89986 11.8835 6.80402 11.8835 6.61235 11.8835C6.42068 11.8835 6.32486 11.7877 6.22903 11.6918C6.13319 11.596 6.03736 11.4043 6.03736 11.2127C6.03736 11.021 6.13319 10.8293 6.22903 10.6377C6.32486 10.446 6.51653 10.2543 6.70819 10.0627C6.89986 9.87099 7.18735 9.67932 7.57068 9.58349C7.95402 9.48769 8.24154 9.39185 8.7207 9.39185C9.10404 9.39185 9.39154 9.48769 9.67903 9.58349C9.96653 9.67932 10.254 9.87099 10.4457 9.96682C10.6374 10.0627 10.829 10.3502 10.9249 10.6377C11.0207 10.9252 11.1165 11.1168 11.1165 11.4043C11.1165 11.7877 11.0207 12.0752 10.829 12.3627C10.6374 12.6502 10.4457 12.9377 10.1582 13.1293C10.4457 13.321 10.7332 13.5127 10.9249 13.7043C11.1165 13.896 11.3082 14.0877 11.404 14.3752C11.4999 14.6627 11.5957 14.8543 11.5957 15.1418C11.5957 15.5252 11.4999 15.8127 11.404 16.1002C11.3082 16.3877 11.0207 16.6752 10.829 16.9627C10.6374 17.2502 10.254 17.4418 9.87069 17.5377C9.48736 17.6335 9.10403 17.7293 8.62486 17.7293C8.14569 17.7293 7.76236 17.6335 7.37903 17.4418C6.99569 17.2502 6.70819 17.0585 6.51653 16.8668C6.32486 16.6752 6.13319 16.3877 6.03736 16.1002C5.94153 15.8127 5.8457 15.621 5.8457 15.4293C5.8457 15.2377 5.94153 15.046 6.03736 14.9502C6.13319 14.8543 6.32486 14.7585 6.51653 14.7585C6.61236 14.7585 6.7082 14.7585 6.80404 14.8543C6.89987 14.9502 6.99569 14.9502 6.99569 15.046C7.18736 15.5252 7.37903 15.9085 7.66653 16.196C7.95403 16.4835 8.24153 16.5793 8.62486 16.5793C8.81653 16.5793 9.10403 16.4835 9.29569 16.3877C9.48736 16.2918 9.67903 16.1002 9.87069 15.9085C10.0624 15.7168 10.0624 15.4293 10.0624 15.1418C10.0624 14.6627 9.96653 14.3752 9.67903 14.0877C9.39154 13.8002 9.10404 13.7043 8.7207 13.7043C8.62487 13.7043 8.52903 13.7043 8.33736 13.7043C8.14569 13.7043 8.04985 13.7043 8.04985 13.7043C7.85818 13.7043 7.66652 13.6085 7.57068 13.5127C7.47485 13.4168 7.37903 13.2252 7.37903 13.1293C7.37903 12.9377 7.47485 12.8418 7.57068 12.6502C7.66652 12.4585 7.85819 12.4585 8.14569 12.4585H8.43319V12.5543ZM14.6624 16.771V11.6918C13.704 12.4585 13.0332 12.746 12.7457 12.746C12.554 12.746 12.4582 12.6502 12.3624 12.5543C12.2665 12.4585 12.1707 12.2668 12.1707 12.0752C12.1707 11.8835 12.2665 11.7877 12.3624 11.6918C12.4582 11.596 12.6499 11.5002 13.0332 11.3085C13.5124 11.1168 13.8957 10.8293 14.0874 10.6377C14.279 10.446 14.5665 10.1585 14.854 9.87099C15.1415 9.58349 15.2374 9.39185 15.2374 9.29602C15.2374 9.20019 15.429 9.2002 15.6207 9.2002C15.8124 9.2002 16.004 9.29602 16.0999 9.39185C16.1957 9.48769 16.2915 9.77516 16.2915 10.0627V16.4835C16.2915 17.2502 16.004 17.6335 15.5249 17.6335C15.3332 17.6335 15.1415 17.5377 14.9499 17.4418C14.7582 17.346 14.6624 17.0585 14.6624 16.771Z" fill="#7E8299"/>
</svg>
