<svg id="Group_21914" data-name="Group 21914" xmlns="http://www.w3.org/2000/svg" xmlns:xlink="http://www.w3.org/1999/xlink" width="35.858" height="33.872" viewBox="0 0 35.858 33.872">
  <defs>
    <clipPath id="clip-path">
      <rect id="Rectangle_887" data-name="Rectangle 887" width="35.858" height="33.872" fill="#fff"/>
    </clipPath>
  </defs>
  <g id="Group_21913" data-name="Group 21913" clip-path="url(#clip-path)">
    <path id="Path_22620" data-name="Path 22620" d="M0,15.728c.113-.133.2-.334.344-.382a1.272,1.272,0,0,1,.707-.043.589.589,0,0,1,.391.622q0,1.129,0,2.258v.453H2.819c.215,0,.43,0,.645,0,.605.01.85.25.853.85,0,.86,0,1.72,0,2.581,0,.131,0,.262,0,.429.117.011.219.028.321.028,1.565,0,3.13.01,4.695,0a.5.5,0,0,0,.369-.182c.781-1.313,1.544-2.636,2.311-3.958a.52.52,0,0,0,.033-.1,2.6,2.6,0,0,1-.313-3.327c-.123-.078-.238-.154-.357-.223Q9.258,13.5,7.14,12.261A3.988,3.988,0,0,1,5.614,6.488q1.252-2.15,2.512-4.3A4.083,4.083,0,0,1,13.98.657Q24.661,6.895,35.337,13.14c.307.18.547.385.518.781-.027.38-.286.545-.6.684-.773.346-1.54.7-2.309,1.058-.117.054-.231.115-.349.173A3.956,3.956,0,0,1,31.472,20.6c-1.713,1.408-3.526,1.187-5.31-.019-.179.3-.337.582-.5.855a1.345,1.345,0,0,1-1.991.5c-1.676-.987-3.356-1.966-5.066-2.967a2.61,2.61,0,0,1-1.275,1.254,2.361,2.361,0,0,1-1.755.11c-.249.426-.49.837-.729,1.248-.738,1.269-1.489,2.531-2.21,3.809a2.2,2.2,0,0,1-2.113,1.2c-1.959-.023-3.918-.012-5.877-.014-.093,0-.187.011-.33.02,0,.163,0,.313,0,.463,0,.872,0,1.744,0,2.616a.7.7,0,0,1-.771.785c-.561.012-1.123,0-1.684,0h-.42c0,.912,0,1.781,0,2.65a.711.711,0,0,1-.679.771A.8.8,0,0,1,0,33.366V15.728m33.58-1.94c-.171-.1-.29-.18-.411-.251L18.153,4.755C16.484,3.779,14.82,2.8,13.146,1.83A2.6,2.6,0,0,0,9.571,2.6Q8.063,5.034,6.68,7.544a2.466,2.466,0,0,0,.946,3.335q1.905,1.138,3.834,2.236a.732.732,0,0,0,.5.063c1.88-.491,3.759-.989,5.631-1.511a1.322,1.322,0,0,1,1.116.151c2.7,1.6,5.415,3.172,8.117,4.768a.614.614,0,0,0,.655.021c1.87-.87,3.747-1.726,5.622-2.588.147-.068.292-.14.482-.231M26.1,17.837c-.064-.047-.1-.078-.141-.1q-3.892-2.281-7.788-4.554a.63.63,0,0,0-.429-.049c-.891.223-1.777.464-2.664.7-.521.139-1.041.281-1.649.444l10.991,6.428L26.1,17.837m-12.8,1.2c-.082.134-.152.245-.217.357-.827,1.422-1.659,2.843-2.476,4.271a.522.522,0,0,1-.527.311c-1.778-.016-3.557-.012-5.335-.014-.137,0-.275.011-.407.017v1.134a1.6,1.6,0,0,0,.168.02c2.053,0,4.106.005,6.159.015a.759.759,0,0,0,.707-.451c.749-1.3,1.506-2.6,2.26-3.9.221-.38.443-.76.681-1.169L13.3,19.036M1.455,29H2.864V20.086H1.455ZM31.233,16.452q-1.775.817-3.553,1.638a.311.311,0,0,0-.13.114c-.223.375-.441.753-.658,1.126,1.709,1.241,2.976.8,3.781.08a2.5,2.5,0,0,0,.561-2.958M17.345,18.228,13.018,15.7a1.027,1.027,0,0,0,.274,1.669q1.205.7,2.408,1.407a1.03,1.03,0,0,0,1.644-.546" transform="translate(0 -0.001)" fill="#fff"/>
    <path id="Path_22621" data-name="Path 22621" d="M121.775,44.5a2.094,2.094,0,0,1-.34-.14q-1.762-1.021-3.517-2.054a.723.723,0,1,1,.719-1.238q1.776,1.031,3.546,2.075a.72.72,0,0,1,.38.844.745.745,0,0,1-.788.512" transform="translate(-106.235 -37.01)" fill="#fff"/>
  </g>
</svg>
