<?xml version="1.0" encoding="utf-8"?>
<!-- Generator: Adobe Illustrator 25.0.1, SVG Export Plug-In . SVG Version: 6.00 Build 0)  -->
<svg version="1.1" id="Layer_1" xmlns="http://www.w3.org/2000/svg" xmlns:xlink="http://www.w3.org/1999/xlink" x="0px" y="0px"
	 viewBox="0 0 18 19" style="enable-background:new 0 0 18 19;" xml:space="preserve">
<style type="text/css">
	.st0{fill:#7239EA;}
</style>
<g>
	<path class="st0" d="M4.5,14.7v0.8c0,0.2-0.1,0.4-0.2,0.5c-0.1,0.1-0.3,0.2-0.5,0.2H3c-0.2,0-0.4-0.1-0.5-0.2
		c-0.1-0.1-0.2-0.3-0.2-0.5v-6l1.6-4.5C3.9,4.7,4,4.5,4.2,4.4c0.2-0.1,0.4-0.2,0.6-0.2h8.3c0.2,0,0.5,0.1,0.6,0.2
		c0.2,0.1,0.3,0.3,0.4,0.5l1.6,4.5v6c0,0.2-0.1,0.4-0.2,0.5c-0.1,0.1-0.3,0.2-0.5,0.2h-0.8c-0.2,0-0.4-0.1-0.5-0.2
		c-0.1-0.1-0.2-0.3-0.2-0.5v-0.8H4.5z M4.3,7.9h9.3l-0.8-2.2H5.1L4.3,7.9z M5.6,12.4c0.3,0,0.6-0.1,0.8-0.3c0.2-0.2,0.3-0.5,0.3-0.8
		s-0.1-0.6-0.3-0.8c-0.2-0.2-0.5-0.3-0.8-0.3S5,10.3,4.8,10.5c-0.2,0.2-0.3,0.5-0.3,0.8s0.1,0.6,0.3,0.8C5,12.3,5.3,12.4,5.6,12.4z
		 M12.4,12.4c0.3,0,0.6-0.1,0.8-0.3c0.2-0.2,0.3-0.5,0.3-0.8s-0.1-0.6-0.3-0.8c-0.2-0.2-0.5-0.3-0.8-0.3s-0.6,0.1-0.8,0.3
		c-0.2,0.2-0.3,0.5-0.3,0.8s0.1,0.6,0.3,0.8C11.8,12.3,12.1,12.4,12.4,12.4z"/>
</g>
</svg>
