<svg width="17" height="17" viewBox="0 0 17 17" fill="none" xmlns="http://www.w3.org/2000/svg">
<path d="M7.946 14.8333L11.9043 7.11459H9.1335V2.16668L5.17516 9.88543H7.946V14.8333ZM8.50016 16.4167C7.40502 16.4167 6.37586 16.2087 5.41266 15.7928C4.44947 15.3775 3.61162 14.8136 2.89912 14.1011C2.18662 13.3886 1.62269 12.5507 1.20733 11.5875C0.791441 10.6243 0.583496 9.59515 0.583496 8.50001C0.583496 7.40487 0.791441 6.37571 1.20733 5.41251C1.62269 4.44932 2.18662 3.61147 2.89912 2.89897C3.61162 2.18647 4.44947 1.62227 5.41266 1.20639C6.37586 0.791024 7.40502 0.583344 8.50016 0.583344C9.5953 0.583344 10.6245 0.791024 11.5877 1.20639C12.5509 1.62227 13.3887 2.18647 14.1012 2.89897C14.8137 3.61147 15.3776 4.44932 15.793 5.41251C16.2089 6.37571 16.4168 7.40487 16.4168 8.50001C16.4168 9.59515 16.2089 10.6243 15.793 11.5875C15.3776 12.5507 14.8137 13.3886 14.1012 14.1011C13.3887 14.8136 12.5509 15.3775 11.5877 15.7928C10.6245 16.2087 9.5953 16.4167 8.50016 16.4167ZM8.50016 14.8333C10.255 14.8333 11.7494 14.2166 12.9834 12.9832C14.2168 11.7493 14.8335 10.2549 14.8335 8.50001C14.8335 6.74515 14.2168 5.25075 12.9834 4.0168C11.7494 2.78339 10.255 2.16668 8.50016 2.16668C6.7453 2.16668 5.25116 2.78339 4.01775 4.0168C2.7838 5.25075 2.16683 6.74515 2.16683 8.50001C2.16683 10.2549 2.7838 11.7493 4.01775 12.9832C5.25116 14.2166 6.7453 14.8333 8.50016 14.8333Z" fill="white"/>
</svg>
