<svg width="26" height="26" viewBox="0 0 26 26" fill="none" xmlns="http://www.w3.org/2000/svg">
<path d="M11.916 11.375C11.916 10.4775 11.1885 9.75 10.291 9.75C9.39355 9.75 8.66602 10.4775 8.66602 11.375V18.9583C8.66602 19.8558 9.39355 20.5833 10.291 20.5833C11.1885 20.5833 11.916 19.8558 11.916 18.9583V11.375Z" fill="#B5B5C3"/>
<path d="M17.334 7.04175C17.334 6.14429 16.6064 5.41675 15.709 5.41675C14.8115 5.41675 14.084 6.14429 14.084 7.04175V18.9584C14.084 19.8559 14.8115 20.5834 15.709 20.5834C16.6064 20.5834 17.334 19.8559 17.334 18.9584V7.04175Z" fill="#E9E9ED"/>
<path d="M22.75 13.5417C22.75 12.6443 22.0225 11.9167 21.125 11.9167C20.2275 11.9167 19.5 12.6443 19.5 13.5417V18.9584C19.5 19.8559 20.2275 20.5834 21.125 20.5834C22.0225 20.5834 22.75 19.8559 22.75 18.9584V13.5417Z" fill="#B5B5C3"/>
<path d="M6.5 15.7083C6.5 14.8108 5.77246 14.0833 4.875 14.0833C3.97754 14.0833 3.25 14.8108 3.25 15.7083V18.9583C3.25 19.8557 3.97754 20.5833 4.875 20.5833C5.77246 20.5833 6.5 19.8557 6.5 18.9583V15.7083Z" fill="#B5B5C3"/>
</svg>
