<svg width="26" height="26" viewBox="0 0 26 26" fill="none" xmlns="http://www.w3.org/2000/svg">
<path d="M11.9166 11.375C11.9166 10.4775 11.1891 9.75 10.2916 9.75C9.39416 9.75 8.66663 10.4775 8.66663 11.375V18.9583C8.66663 19.8558 9.39416 20.5833 10.2916 20.5833C11.1891 20.5833 11.9166 19.8558 11.9166 18.9583V11.375Z" fill="#B5B5C3"/>
<path d="M17.3334 7.04166C17.3334 6.1442 16.6058 5.41666 15.7084 5.41666C14.8109 5.41666 14.0834 6.1442 14.0834 7.04166V18.9583C14.0834 19.8558 14.8109 20.5833 15.7084 20.5833C16.6058 20.5833 17.3334 19.8558 17.3334 18.9583V7.04166Z" fill="#E9E9ED"/>
<path d="M22.75 13.5417C22.75 12.6442 22.0225 11.9167 21.125 11.9167C20.2275 11.9167 19.5 12.6442 19.5 13.5417V18.9583C19.5 19.8558 20.2275 20.5833 21.125 20.5833C22.0225 20.5833 22.75 19.8558 22.75 18.9583V13.5417Z" fill="#B5B5C3"/>
<path d="M6.5 15.7083C6.5 14.8109 5.77246 14.0833 4.875 14.0833C3.97754 14.0833 3.25 14.8109 3.25 15.7083V18.9583C3.25 19.8558 3.97754 20.5833 4.875 20.5833C5.77246 20.5833 6.5 19.8558 6.5 18.9583V15.7083Z" fill="#B5B5C3"/>
</svg>
