<?xml version="1.0" encoding="utf-8"?>
<!-- Generator: Adobe Illustrator 25.0.1, SVG Export Plug-In . SVG Version: 6.00 Build 0)  -->
<svg version="1.1" id="Layer_1" xmlns="http://www.w3.org/2000/svg" xmlns:xlink="http://www.w3.org/1999/xlink" x="0px" y="0px"
	 viewBox="0 0 18 18" style="enable-background:new 0 0 18 18;" xml:space="preserve">
<style type="text/css">
	.st0{fill:#7239EA;}
</style>
<g>
	<path class="st0" d="M2.2,15.8V5.2h3v-3h7.5v6h3v7.5h-6v-3H8.2v3H2.2z M3.8,14.2h1.5v-1.5H3.8V14.2z M3.8,11.2h1.5V9.8H3.8V11.2z
		 M3.8,8.2h1.5V6.8H3.8V8.2z M6.8,11.2h1.5V9.8H6.8V11.2z M6.8,8.2h1.5V6.8H6.8V8.2z M6.8,5.2h1.5V3.8H6.8V5.2z M9.8,11.2h1.5V9.8
		H9.8V11.2z M9.8,8.2h1.5V6.8H9.8V8.2z M9.8,5.2h1.5V3.8H9.8V5.2z M12.8,14.2h1.5v-1.5h-1.5V14.2z M12.8,11.2h1.5V9.8h-1.5V11.2z"/>
</g>
</svg>
