<svg width="23" height="23" viewBox="0 0 23 23" fill="none" xmlns="http://www.w3.org/2000/svg">
<path d="M15.9147 6.42764L6.42764 15.9147C6.05339 16.2889 6.05339 16.8957 6.42764 17.2699C6.8019 17.6442 7.40868 17.6442 7.78293 17.2699L17.2699 7.78293C17.6442 7.40868 17.6442 6.80189 17.2699 6.42764C16.8957 6.05339 16.2889 6.05339 15.9147 6.42764Z" fill="#181C32"/>
<path d="M17.2699 15.9147L7.78287 6.42764C7.40862 6.05339 6.80183 6.05339 6.42758 6.42764C6.05333 6.8019 6.05333 7.40868 6.42758 7.78293L15.9146 17.2699C16.2888 17.6442 16.8956 17.6442 17.2699 17.2699C17.6441 16.8957 17.6441 16.2889 17.2699 15.9147Z" fill="#181C32"/>
</svg>
