<svg xmlns="http://www.w3.org/2000/svg" xmlns:xlink="http://www.w3.org/1999/xlink" width="90" height="90" viewBox="0 0 90 90">
  <defs>
    <clipPath id="clip-path">
      <rect id="Rectangle_1176" data-name="Rectangle 1176" width="90" height="90" transform="translate(-0.321 -0.321)" fill="#0831e2"/>
    </clipPath>
  </defs>
  <g id="Group_22204" data-name="Group 22204" transform="translate(-0.024 -0.024)">
    <g id="Group_22203" data-name="Group 22203" transform="translate(0.346 0.346)" clip-path="url(#clip-path)">
      <path id="Path_23595" data-name="Path 23595" d="M97.842,97.92c0-1.817-.022-3.563.008-5.307a2.628,2.628,0,0,1,4.442-1.857,2.655,2.655,0,0,1,.826,2.057q0,2.192,0,4.383v.693h5.22c.01-.227.027-.444.028-.662,0-1.44,0-2.881,0-4.321a2.648,2.648,0,1,1,5.276-.015c0,1.645,0,3.29,0,5.03h2.277a2.689,2.689,0,0,1,3,3.017c-.012,2.86.085,5.727-.093,8.577a12.991,12.991,0,0,1-9.908,11.712c-.415.1-.574.24-.566.684.028,1.58.011,3.16.011,4.894,1.25-.29,2.434-.464,3.552-.839,8.294-2.782,13.347-8.492,14.76-17.11a21.105,21.105,0,0,0-41.616-7.017c-1.525,8.763,1.5,15.884,8.629,21.226,1.374,1.03,1.78,2.531.939,3.8a2.594,2.594,0,0,1-3.689.7,25.8,25.8,0,0,1-10.553-14.942,26.3,26.3,0,1,1,30.569,19.007,36.322,36.322,0,0,1-5.022.51,2.539,2.539,0,0,1-2.811-2.721q-.021-3.766,0-7.532c0-.363-.087-.534-.473-.633A13.143,13.143,0,0,1,92.569,108.5c-.038-2.592-.019-5.186,0-7.778a2.641,2.641,0,0,1,2.843-2.8c.78,0,1.561,0,2.434,0m0,5.305c0,1.829-.016,3.6,0,5.362a7.893,7.893,0,0,0,15.553,1.781,8.838,8.838,0,0,0,.238-1.889c.032-1.742.011-3.484.011-5.253Z" transform="translate(-61.121 -61.165)" fill="#0831e2"/>
      <path id="Path_23596" data-name="Path 23596" d="M75.2,169.74c-1.7-.231-3.414-.406-5.1-.7a44.057,44.057,0,0,1-18.819-8.052,1.635,1.635,0,0,0-1.65-.28,5.167,5.167,0,0,1-5.938-2.431,5.252,5.252,0,0,1,7.188-7.161,5.12,5.12,0,0,1,2.395,5.943,1.1,1.1,0,0,0,.544,1.474A40.643,40.643,0,0,0,82.06,166a41.213,41.213,0,0,0,35.812-30.784,40.453,40.453,0,0,0-2.43-27.621c-.1-.213-.2-.421-.29-.637a1.757,1.757,0,0,1,.761-2.4,1.667,1.667,0,0,1,2.387.929c1.115,2.939,2.29,5.872,3.136,8.893a60.1,60.1,0,0,1,1.131,6.9c.04.257.1.51.153.765v5.611c-.131,1.067-.244,2.137-.4,3.2a45.053,45.053,0,0,1-36.766,38.2c-1.631.287-3.282.462-4.923.689Z" transform="translate(-33.151 -80.17)" fill="#0831e2"/>
      <path id="Path_23597" data-name="Path 23597" d="M47.522,0c1.675.224,3.357.4,5.022.679A43.715,43.715,0,0,1,71.239,8.588a1.694,1.694,0,0,0,1.432.355A5.152,5.152,0,0,1,78.4,11.962a5.252,5.252,0,1,1-9.585-.066c.069-.159.148-.313.291-.614-1.43-.888-2.82-1.842-4.291-2.65A41.38,41.38,0,0,0,5.363,32.681a40.592,40.592,0,0,0,1.6,28.757,5.545,5.545,0,0,1,.371.98,1.714,1.714,0,0,1-1.184,1.99,1.643,1.643,0,0,1-2.1-.946C3.409,61.992,2.8,60.5,2.281,58.988A41.7,41.7,0,0,1,.148,48.462,6.348,6.348,0,0,0,0,47.7V42.086c.051-.255.113-.507.152-.764.3-2.018.495-4.058.909-6.051A45,45,0,0,1,37.072.7C38.736.42,40.414.23,42.086,0Z" transform="translate(-0.213 -0.213)" fill="#0831e2"/>
    </g>
  </g>
</svg>
