<svg width="12" height="15" viewBox="0 0 12 15" fill="none" xmlns="http://www.w3.org/2000/svg">
<path d="M2.24902 14.4677C1.83652 14.4677 1.48352 14.3202 1.19002 14.0254C0.896023 13.7301 0.749023 13.3753 0.749023 12.9609V3.1673H-0.000976562V1.66058H3.74902V0.907227H8.24902V1.66058H11.999V3.1673H11.249V12.9609C11.249 13.3753 11.1023 13.7301 10.8088 14.0254C10.5148 14.3202 10.1615 14.4677 9.74902 14.4677H2.24902ZM9.74902 3.1673H2.24902V12.9609H9.74902V3.1673ZM3.74902 11.4542H5.24902V4.67401H3.74902V11.4542ZM6.74902 11.4542H8.24902V4.67401H6.74902V11.4542Z" fill="#181C32"/>
<path d="M2.24902 14.4677C1.83652 14.4677 1.48352 14.3202 1.19002 14.0254C0.896023 13.7301 0.749023 13.3753 0.749023 12.9609V3.1673H-0.000976562V1.66058H3.74902V0.907227H8.24902V1.66058H11.999V3.1673H11.249V12.9609C11.249 13.3753 11.1023 13.7301 10.8088 14.0254C10.5148 14.3202 10.1615 14.4677 9.74902 14.4677H2.24902ZM9.74902 3.1673H2.24902V12.9609H9.74902V3.1673ZM3.74902 11.4542H5.24902V4.67401H3.74902V11.4542ZM6.74902 11.4542H8.24902V4.67401H6.74902V11.4542Z" fill="black" fill-opacity="0.2"/>
</svg>
