<svg width="59" height="80" viewBox="0 0 59 80" fill="none" xmlns="http://www.w3.org/2000/svg">
<path d="M29.4693 48.7395C40.1119 48.7395 48.7395 40.1119 48.7395 29.4693C48.7395 18.8267 40.1119 10.1992 29.4693 10.1992C18.8267 10.1992 10.1992 18.8267 10.1992 29.4693C10.1992 40.1119 18.8267 48.7395 29.4693 48.7395Z" fill="white"/>
<path d="M29.4694 0C13.194 0 0 13.194 0 29.4694C0 43.054 20.5722 69.7891 27.3427 78.2089C28.4278 79.5544 30.511 79.5544 31.5961 78.2089C38.3666 69.7891 58.9388 43.0974 58.9388 29.4694C58.9388 13.194 45.7448 0 29.4694 0ZM29.4694 53.2533C16.3622 53.2533 5.72896 42.62 5.72896 29.5128C5.72896 16.4056 16.3622 5.77236 29.4694 5.77236C42.5766 5.77236 53.2099 16.4056 53.2099 29.5128C53.2099 42.62 42.5766 53.2533 29.4694 53.2533Z" fill="#41C76D"/>
<mask id="mask0_1416_7681" style="mask-type:alpha" maskUnits="userSpaceOnUse" x="20" y="20" width="19" height="19">
<rect x="20.4355" y="20.5234" width="18" height="18.0806" fill="#181C32"/>
<rect x="20.4355" y="20.5234" width="18" height="18.0806" fill="black" fill-opacity="0.2"/>
</mask>
<g mask="url(#mask0_1416_7681)">
<path d="M25.6855 36.3436C25.273 36.3436 24.92 36.1962 24.6265 35.9014C24.3325 35.6061 24.1855 35.2513 24.1855 34.8369V25.0433H23.4355V23.5366H27.1855V22.7832H31.6855V23.5366H35.4355V25.0433H34.6855V34.8369C34.6855 35.2513 34.5388 35.6061 34.2453 35.9014C33.9513 36.1962 33.598 36.3436 33.1855 36.3436H25.6855ZM33.1855 25.0433H25.6855V34.8369H33.1855V25.0433ZM27.1855 33.3302H28.6855V26.55H27.1855V33.3302ZM30.1855 33.3302H31.6855V26.55H30.1855V33.3302Z" fill="#181C32"/>
<path d="M25.6855 36.3436C25.273 36.3436 24.92 36.1962 24.6265 35.9014C24.3325 35.6061 24.1855 35.2513 24.1855 34.8369V25.0433H23.4355V23.5366H27.1855V22.7832H31.6855V23.5366H35.4355V25.0433H34.6855V34.8369C34.6855 35.2513 34.5388 35.6061 34.2453 35.9014C33.9513 36.1962 33.598 36.3436 33.1855 36.3436H25.6855ZM33.1855 25.0433H25.6855V34.8369H33.1855V25.0433ZM27.1855 33.3302H28.6855V26.55H27.1855V33.3302ZM30.1855 33.3302H31.6855V26.55H30.1855V33.3302Z" fill="black" fill-opacity="0.2"/>
</g>
</svg>
