<svg xmlns="http://www.w3.org/2000/svg" width="50" height="51" viewBox="0 0 50 51">
  <g id="Group_21832" data-name="Group 21832" transform="translate(-108.001 -129.451)">
    <g id="Group_21608" data-name="Group 21608" transform="translate(108.027 129.794)">
      <g id="Group_19606" data-name="Group 19606" transform="translate(0 0)">
        <ellipse id="Ellipse_23" data-name="Ellipse 23" cx="25" cy="25.5" rx="25" ry="25.5" transform="translate(-0.026 -0.342)" fill="#2c2c6e"/>
      </g>
    </g>
    <g id="Group_21609" data-name="Group 21609" transform="translate(-108.75 37.421)">
      <path id="Path_22482" data-name="Path 22482" d="M237.172,106.03h.894a.715.715,0,0,0,.123.04,4.11,4.11,0,0,1,2.186.987.443.443,0,0,1,.144.294q.01,10.126,0,20.252a.419.419,0,0,1-.128.28,3.965,3.965,0,0,1-1.593.869c-.242.067-.489.115-.733.172h-.894a.834.834,0,0,0-.123-.041,4.145,4.145,0,0,1-3.5-3.034,10.338,10.338,0,0,1-.239-1.49c-.009,0-.066-.019-.123-.032a4.2,4.2,0,0,1-3.282-3.03c-.07-.224-.106-.46-.157-.69v-.894a.687.687,0,0,0,.04-.123,4.081,4.081,0,0,1,.506-1.507c.12-.211.262-.409.4-.618a4.262,4.262,0,0,1-.786-1.535c-.061-.227-.105-.459-.157-.688v-.894a.722.722,0,0,0,.04-.123,4.245,4.245,0,0,1,3.2-3.555l.38-.091c0-.088,0-.155,0-.221a4.25,4.25,0,0,1,3.282-4.214C236.826,106.1,237,106.067,237.172,106.03Z" fill="#fff"/>
      <path id="Path_22483" data-name="Path 22483" d="M435.377,106.03h.894a.847.847,0,0,0,.123.04,4.143,4.143,0,0,1,3.5,3.035,10.393,10.393,0,0,1,.239,1.49c.009,0,.066.018.123.031a4.2,4.2,0,0,1,3.327,3.2c.046.17.076.345.113.517v.85c-.038.188-.072.376-.114.563a4.326,4.326,0,0,1-.836,1.717,4.312,4.312,0,0,1,.792,1.545c.061.228.106.46.158.69v.894a.7.7,0,0,0-.04.123,4.259,4.259,0,0,1-3.289,3.579l-.294.063c0,.092,0,.159,0,.226a4.255,4.255,0,0,1-3.13,4.177c-.22.06-.446.1-.669.15h-.894a.7.7,0,0,0-.123-.04,4.263,4.263,0,0,1-2.174-.965.414.414,0,0,1-.166-.359c.006-1.565,0-3.129,0-4.693v-.246c.419,0,.806.012,1.192,0a.329.329,0,0,1,.366.223,2,2,0,1,0,3.582-1.8,1.914,1.914,0,0,0-1.833-1.093,1.957,1.957,0,0,0-1.778,1.152c-.036.069-.1.172-.158.174-.451.014-.9.008-1.354.008v-3.129c1.051,0,2.086,0,3.121.007.059,0,.138.089.171.155a1.975,1.975,0,0,0,1.721,1.172,2.01,2.01,0,1,0-1.705-2.855.257.257,0,0,1-.276.183c-.946-.008-1.892,0-2.838,0-.065,0-.129-.007-.193-.011v-3.118c.4,0,.79.011,1.176,0a.329.329,0,0,1,.367.222,2,2,0,1,0,3.582-1.8A1.913,1.913,0,0,0,436.225,111a1.957,1.957,0,0,0-1.779,1.152c-.036.069-.1.172-.158.174-.451.014-.9.008-1.353.008a.638.638,0,0,1-.016-.089c0-1.646,0-3.293,0-4.939a.339.339,0,0,1,.111-.22,4.077,4.077,0,0,1,1.738-.921C434.972,106.113,435.175,106.074,435.377,106.03Z" transform="translate(-191.05)" fill="#fff" fill-rule="evenodd"/>
      <path id="Path_22484" data-name="Path 22484" d="M479.322,212.44a.67.67,0,1,1-.671-.663A.677.677,0,0,1,479.322,212.44Z" transform="translate(-233.431 -99.442)" fill="#fff" fill-rule="evenodd"/>
      <path id="Path_22485" data-name="Path 22485" d="M508.648,288.107a.67.67,0,1,1,.669-.665A.678.678,0,0,1,508.648,288.107Z" transform="translate(-261.638 -169.96)" fill="#fff" fill-rule="evenodd"/>
      <path id="Path_22486" data-name="Path 22486" d="M477.978,362.409a.67.67,0,1,1,.646.688A.678.678,0,0,1,477.978,362.409Z" transform="translate(-233.427 -240.479)" fill="#fff" fill-rule="evenodd"/>
    </g>
  </g>
</svg>
