<svg width="16" height="16" viewBox="0 0 16 16" fill="none" xmlns="http://www.w3.org/2000/svg">
<path d="M9.33268 7.99984C9.33268 7.26346 8.73573 6.6665 7.99935 6.6665C7.26297 6.6665 6.66602 7.26346 6.66602 7.99984C6.66602 8.73622 7.26297 9.33317 7.99935 9.33317C8.73573 9.33317 9.33268 8.73622 9.33268 7.99984Z" fill="black"/>
<path d="M14.0007 7.99984C14.0007 7.26346 13.4037 6.6665 12.6673 6.6665C11.9309 6.6665 11.334 7.26346 11.334 7.99984C11.334 8.73622 11.9309 9.33317 12.6673 9.33317C13.4037 9.33317 14.0007 8.73622 14.0007 7.99984Z" fill="black"/>
<path d="M4.66667 7.99984C4.66667 7.26346 4.06971 6.6665 3.33333 6.6665C2.59695 6.6665 2 7.26346 2 7.99984C2 8.73622 2.59695 9.33317 3.33333 9.33317C4.06971 9.33317 4.66667 8.73622 4.66667 7.99984Z" fill="black"/>
</svg>
