<svg width="14" height="13" viewBox="0 0 14 13" fill="none" xmlns="http://www.w3.org/2000/svg">
<path d="M2.5 10.6816V11.4316C2.5 11.6441 2.42825 11.8221 2.28475 11.9656C2.14075 12.1096 1.9625 12.1816 1.75 12.1816H1C0.7875 12.1816 0.6095 12.1096 0.466 11.9656C0.322 11.8221 0.25 11.6441 0.25 11.4316V5.43164L1.825 0.931641C1.9 0.706641 2.0345 0.525391 2.2285 0.387891C2.422 0.250391 2.6375 0.181641 2.875 0.181641H11.125C11.3625 0.181641 11.5783 0.250391 11.7723 0.387891C11.9658 0.525391 12.1 0.706641 12.175 0.931641L13.75 5.43164V11.4316C13.75 11.6441 13.678 11.8221 13.534 11.9656C13.3905 12.1096 13.2125 12.1816 13 12.1816H12.25C12.0375 12.1816 11.8595 12.1096 11.716 11.9656C11.572 11.8221 11.5 11.6441 11.5 11.4316V10.6816H2.5ZM2.35 3.93164H11.65L10.8625 1.68164H3.1375L2.35 3.93164ZM3.625 8.43164C3.9375 8.43164 4.203 8.32214 4.4215 8.10314C4.6405 7.88464 4.75 7.61914 4.75 7.30664C4.75 6.99414 4.6405 6.72864 4.4215 6.51014C4.203 6.29114 3.9375 6.18164 3.625 6.18164C3.3125 6.18164 3.047 6.29114 2.8285 6.51014C2.6095 6.72864 2.5 6.99414 2.5 7.30664C2.5 7.61914 2.6095 7.88464 2.8285 8.10314C3.047 8.32214 3.3125 8.43164 3.625 8.43164ZM10.375 8.43164C10.6875 8.43164 10.953 8.32214 11.1715 8.10314C11.3905 7.88464 11.5 7.61914 11.5 7.30664C11.5 6.99414 11.3905 6.72864 11.1715 6.51014C10.953 6.29114 10.6875 6.18164 10.375 6.18164C10.0625 6.18164 9.797 6.29114 9.5785 6.51014C9.3595 6.72864 9.25 6.99414 9.25 7.30664C9.25 7.61914 9.3595 7.88464 9.5785 8.10314C9.797 8.32214 10.0625 8.43164 10.375 8.43164Z" fill="#7E8299"/>
</svg>
