<svg width="33" height="33" viewBox="0 0 33 33" fill="none" xmlns="http://www.w3.org/2000/svg">
<path opacity="0.3" d="M29.4249 11.4856L26.4563 14.4528L18.5418 6.53829L21.509 3.5696C22.034 3.04473 22.746 2.75 23.4883 2.75C24.2307 2.75 24.9427 3.04473 25.4676 3.5696L29.4249 7.52692C29.9497 8.0519 30.2447 8.7638 30.2447 9.50616C30.2447 10.2485 29.9497 10.9606 29.4249 11.4856ZM5.06951 30.1567L13.5945 27.3145L5.68001 19.4L2.83788 27.925C2.7336 28.2363 2.71831 28.5709 2.79375 28.8904C2.86917 29.2101 3.03232 29.5023 3.26482 29.7343C3.49733 29.9661 3.78996 30.1285 4.10977 30.2031C4.42957 30.2778 4.76386 30.2617 5.07501 30.1567H5.06951Z" fill="black"/>
<path d="M7.66416 29.2876L5.07641 30.1511C4.76554 30.2545 4.432 30.2695 4.11314 30.1943C3.79428 30.1189 3.50264 29.9564 3.2709 29.7247C3.03916 29.4932 2.87644 29.2017 2.80094 28.8828C2.72544 28.564 2.74013 28.2305 2.8434 27.9196L3.70691 25.3304L7.66416 29.2876ZM5.68552 19.3945L13.6 27.309L26.4618 14.4472L18.5473 6.53271L5.68552 19.3945Z" fill="black"/>
</svg>
