<svg width="56" height="56" viewBox="0 0 56 56" fill="none" xmlns="http://www.w3.org/2000/svg">
<path d="M4.14845 3.11084C3.00325 3.11084 2.02558 3.51675 1.21524 4.32608C0.405344 5.13642 0 6.1142 0 7.25929C0 8.01538 0.188994 8.70688 0.567323 9.33323C0.945083 9.9598 1.44759 10.4566 2.07394 10.8241V51.8522C2.07394 52.1548 2.17099 52.4034 2.36566 52.5976C2.55999 52.7922 2.80824 52.8889 3.11108 52.8889H5.18502C5.48764 52.8889 5.73622 52.7921 5.93044 52.5976C6.12488 52.4034 6.22193 52.1548 6.22193 51.8522V10.8241C6.84851 10.4566 7.35079 9.9598 7.72878 9.33323C8.10699 8.70688 8.29587 8.01504 8.29587 7.25929C8.29587 6.11454 7.89098 5.13688 7.0812 4.32608C6.27097 3.51641 5.29319 3.11084 4.14845 3.11084Z" fill="black"/>
<path d="M54.9969 7.55068C54.3268 7.16203 53.6575 7.14069 52.9866 7.48621C52.7929 7.59461 52.4576 7.77793 51.9825 8.03719C47.9209 10.4569 44.5725 11.6669 41.9364 11.6669C40.8344 11.6669 39.8725 11.4616 39.0518 11.0512C36.6326 9.86299 34.3745 8.9338 32.2788 8.26387C30.1831 7.59461 27.9254 7.25953 25.5058 7.25953C23.9287 7.25953 22.2541 7.46487 20.4827 7.87543C18.7111 8.28577 17.0634 8.82052 15.5403 9.4791C14.0173 10.1381 12.7854 10.6998 11.846 11.1644C10.9056 11.629 10.0576 12.0877 9.30178 12.5416C8.63196 12.9736 8.29688 13.5677 8.29688 14.324V38.3702C8.29688 39.1695 8.64263 39.7748 9.3339 40.185C9.67954 40.3582 10.0253 40.444 10.371 40.444C10.7597 40.444 11.1165 40.347 11.4402 40.1531C13.4926 38.9 15.9607 37.7976 18.845 36.847C21.7296 35.8965 24.2737 35.4211 26.4774 35.4211C27.73 35.4211 28.9621 35.5722 30.1718 35.8748C31.3814 36.1771 32.365 36.4909 33.1208 36.8144C33.8763 37.1387 34.9457 37.657 36.3291 38.3702L37.2365 38.8239C38.7483 39.5806 40.4551 39.9589 42.3559 39.9589C45.6188 39.9589 49.6047 38.7057 54.3146 36.1996C54.4661 36.1133 54.6494 36.0162 54.8655 35.9078C55.6214 35.519 56.0001 34.9036 56.0001 34.0608V9.33313C56.0007 8.57704 55.6657 7.98316 54.9969 7.55068ZM12.4445 15.5233C17.025 12.9737 21.1729 11.6127 24.8893 11.4399V17.824C21.2377 17.9755 17.0892 19.25 12.4445 21.6483V15.5233ZM24.8894 31.3704C21.0218 31.6727 16.8733 32.8613 12.4446 34.9356V28.9396C16.8304 26.758 20.9789 25.494 24.8894 25.1482V31.3704ZM51.852 32.8296C48.1143 34.8168 44.9492 35.8104 42.3568 35.8104C41.2987 35.8104 40.3152 35.6263 39.4078 35.2594V29.1673C42.6272 30.1395 46.775 29.3731 51.8521 26.8663V32.8296H51.852ZM51.852 18.9912C46.754 21.8428 42.6054 22.8149 39.4077 21.9081V29.1665C38.9757 29.0375 38.5545 28.8752 38.1436 28.6806C35.832 27.5355 33.6981 26.6495 31.7435 26.0229C29.7879 25.3966 27.7083 25.0831 25.5046 25.0831H24.889V17.8886C25.4505 17.8237 25.9799 17.7915 26.4767 17.7915C26.9517 17.7915 27.4275 17.8135 27.9026 17.8564C28.3781 17.8993 28.8052 17.9426 29.1828 17.9858C29.5603 18.029 29.9868 18.1097 30.4631 18.2288C30.9385 18.3473 31.3168 18.4391 31.5973 18.5039C31.8786 18.5692 32.2673 18.7041 32.7646 18.9093C33.2618 19.115 33.6122 19.2554 33.8176 19.331C34.0228 19.4066 34.3956 19.5739 34.9361 19.8332C35.4756 20.0927 35.8163 20.2548 35.9564 20.3194C36.0975 20.3842 36.4699 20.568 37.0748 20.8708C37.6797 21.173 38.0367 21.3568 38.1443 21.4217C38.5544 21.6163 38.9759 21.7785 39.4079 21.9079V15.5561C40.1211 15.7287 40.9637 15.8156 41.9356 15.8156C44.8955 15.8156 48.2013 14.8322 51.8527 12.8665V18.9913H51.852V18.9912Z" fill="black"/>
</svg>
