<svg width="26" height="26" viewBox="0 0 26 26" fill="none" xmlns="http://www.w3.org/2000/svg">
<path opacity="0.3" d="M23.8327 13.0003C23.8327 18.9587 18.9577 23.8337 12.9993 23.8337C7.04102 23.8337 2.16602 18.9587 2.16602 13.0003C2.16602 7.04199 7.04102 2.16699 12.9993 2.16699C18.9577 2.16699 23.8327 7.04199 23.8327 13.0003ZM12.9993 7.58366C11.1577 7.58366 9.74935 8.99199 9.74935 10.8337C9.74935 12.6753 11.1577 14.0837 12.9993 14.0837C14.841 14.0837 16.2493 12.6753 16.2493 10.8337C16.2493 8.99199 14.841 7.58366 12.9993 7.58366Z" fill="#7E8299"/>
<path d="M13.0005 23.8333C15.8172 23.8333 18.4172 22.75 20.2589 21.0167C19.3922 18.3083 16.4672 16.25 13.0005 16.25C9.53386 16.25 6.60885 18.3083 5.74219 21.0167C7.58385 22.75 10.1839 23.8333 13.0005 23.8333Z" fill="#7E8299"/>
</svg>
