<?xml version="1.0" encoding="utf-8"?>
<!-- Generator: Adobe Illustrator 25.0.1, SVG Export Plug-In . SVG Version: 6.00 Build 0)  -->
<svg version="1.1" id="Layer_1" xmlns="http://www.w3.org/2000/svg" xmlns:xlink="http://www.w3.org/1999/xlink" x="0px" y="0px"
	 viewBox="0 0 24 24" style="enable-background:new 0 0 24 24;" xml:space="preserve">
<style type="text/css">
	.st0{fill:#AD8BF5;}
	.st1{opacity:0.5;fill:#E6DCFC;enable-background:new    ;}
</style>
<path class="st0" d="M9.5,9L9.5,9c0.8,0,1.5,0.7,1.5,1.5v7c0,0.8-0.7,1.5-1.5,1.5l0,0C8.7,19,8,18.3,8,17.5v-7C8,9.7,8.7,9,9.5,9z"
	/>
<path class="st1" d="M14.5,5L14.5,5C15.3,5,16,5.7,16,6.5v11c0,0.8-0.7,1.5-1.5,1.5l0,0c-0.8,0-1.5-0.7-1.5-1.5v-11
	C13,5.7,13.7,5,14.5,5z"/>
<path class="st0" d="M19.5,11L19.5,11c0.8,0,1.5,0.7,1.5,1.5v5c0,0.8-0.7,1.5-1.5,1.5l0,0c-0.8,0-1.5-0.7-1.5-1.5v-5
	C18,11.7,18.7,11,19.5,11z"/>
<path class="st0" d="M4.5,13L4.5,13C5.3,13,6,13.7,6,14.5v3C6,18.3,5.3,19,4.5,19l0,0C3.7,19,3,18.3,3,17.5v-3C3,13.7,3.7,13,4.5,13
	z"/>
</svg>
