<?xml version="1.0" encoding="utf-8"?>
<!-- Generator: Adobe Illustrator 25.0.1, SVG Export Plug-In . SVG Version: 6.00 Build 0)  -->
<svg version="1.1" id="Layer_1" xmlns="http://www.w3.org/2000/svg" xmlns:xlink="http://www.w3.org/1999/xlink" x="0px" y="0px"
	 viewBox="0 0 18 19" style="enable-background:new 0 0 18 19;" xml:space="preserve">
<style type="text/css">
	.st0{fill:#7239EA;}
</style>
<g>
	<path class="st0" d="M0,14.1v-1.2c0-0.6,0.3-1,0.8-1.3c0.6-0.3,1.3-0.5,2.2-0.5c0.2,0,0.3,0,0.5,0c0.1,0,0.3,0,0.4,0.1
		c-0.2,0.2-0.3,0.5-0.4,0.8c-0.1,0.3-0.1,0.6-0.1,0.9v1.2H0z M4.5,14.1v-1.2c0-0.8,0.4-1.5,1.2-2c0.8-0.5,1.9-0.8,3.3-0.8
		c1.4,0,2.4,0.3,3.3,0.8c0.8,0.5,1.2,1.2,1.2,2v1.2H4.5z M14.6,14.1v-1.2c0-0.3,0-0.6-0.1-0.9c-0.1-0.3-0.2-0.6-0.4-0.8
		c0.1,0,0.3,0,0.4-0.1c0.1,0,0.3,0,0.5,0c0.9,0,1.6,0.2,2.2,0.5c0.6,0.3,0.8,0.8,0.8,1.3v1.2H14.6z M3,10.3c-0.4,0-0.8-0.1-1.1-0.4
		C1.6,9.6,1.5,9.2,1.5,8.8c0-0.4,0.1-0.8,0.4-1.1C2.2,7.5,2.6,7.3,3,7.3s0.8,0.1,1.1,0.4c0.3,0.3,0.4,0.6,0.4,1.1
		c0,0.4-0.1,0.8-0.4,1.1C3.8,10.2,3.4,10.3,3,10.3z M15,10.3c-0.4,0-0.8-0.1-1.1-0.4c-0.3-0.3-0.4-0.6-0.4-1.1
		c0-0.4,0.1-0.8,0.4-1.1c0.3-0.3,0.6-0.4,1.1-0.4s0.8,0.1,1.1,0.4c0.3,0.3,0.4,0.6,0.4,1.1c0,0.4-0.1,0.8-0.4,1.1
		C15.8,10.2,15.4,10.3,15,10.3z M9,9.6c-0.6,0-1.2-0.2-1.6-0.7s-0.7-1-0.7-1.6S7,6.2,7.4,5.7s1-0.7,1.6-0.7s1.2,0.2,1.6,0.7
		c0.4,0.4,0.7,1,0.7,1.6S11,8.5,10.6,8.9C10.2,9.3,9.6,9.6,9,9.6z"/>
</g>
</svg>
