<svg width="60" height="81" viewBox="0 0 60 81" fill="none" xmlns="http://www.w3.org/2000/svg">
<path d="M30.0336 80.2488C29.0354 80.2488 28.124 79.8148 27.473 79.0336C21.0496 71.0043 0 43.7918 0 29.9902C0 13.4544 13.4544 0 29.9902 0C46.5261 0 59.9804 13.4544 59.9804 29.9902C59.9804 43.8352 38.9743 71.0477 32.5075 79.0336C31.9433 79.8148 31.0318 80.2488 30.0336 80.2488ZM30.0336 6.72718C17.2303 6.72718 6.81398 17.1435 6.81398 29.9468C6.81398 42.7502 17.2303 53.1664 30.0336 53.1664C42.837 53.1664 53.2533 42.7502 53.2533 29.9468C53.2533 17.1435 42.837 6.72718 30.0336 6.72718Z" fill="url(#paint0_linear_1097_10904)"/>
<path d="M30.0331 49.7811C19.096 49.7811 10.2422 40.8839 10.2422 29.9902C10.2422 19.0965 19.1394 10.1992 30.0331 10.1992C40.9702 10.1992 49.8241 19.0965 49.8241 29.9902C49.8241 40.8839 40.9268 49.7811 30.0331 49.7811Z" fill="url(#paint1_linear_1097_10904)"/>
<path d="M30.0319 0.477051C13.7565 0.477051 0.5625 13.671 0.5625 29.9465C0.5625 43.531 21.1347 70.2662 27.9052 78.686C28.9903 80.0314 31.0735 80.0314 32.1586 78.686C38.9291 70.2662 59.5013 43.5744 59.5013 29.9465C59.5013 13.671 46.3073 0.477051 30.0319 0.477051ZM30.0319 53.7303C16.9247 53.7303 6.29146 43.097 6.29146 29.9899C6.29146 16.8827 16.9247 6.24941 30.0319 6.24941C43.1391 6.24941 53.7724 16.8827 53.7724 29.9899C53.7724 43.097 43.1391 53.7303 30.0319 53.7303Z" fill="#EF0C1A"/>
<path d="M30.0318 49.2165C40.6744 49.2165 49.302 40.589 49.302 29.9464C49.302 19.3038 40.6744 10.6763 30.0318 10.6763C19.3892 10.6763 10.7617 19.3038 10.7617 29.9464C10.7617 40.589 19.3892 49.2165 30.0318 49.2165Z" fill="white"/>
<path d="M25.952 34.28C27.488 32.952 28.696 31.864 29.576 31.016C30.472 30.152 31.216 29.256 31.808 28.328C32.4 27.4 32.696 26.472 32.696 25.544C32.696 24.584 32.464 23.832 32 23.288C31.552 22.744 30.84 22.472 29.864 22.472C28.92 22.472 28.184 22.776 27.656 23.384C27.144 23.976 26.872 24.776 26.84 25.784H24.2C24.248 23.96 24.792 22.568 25.832 21.608C26.888 20.632 28.224 20.144 29.84 20.144C31.584 20.144 32.944 20.624 33.92 21.584C34.912 22.544 35.408 23.824 35.408 25.424C35.408 26.576 35.112 27.688 34.52 28.76C33.944 29.816 33.248 30.768 32.432 31.616C31.632 32.448 30.608 33.416 29.36 34.52L28.28 35.48H35.888V37.76H24.224V35.768L25.952 34.28Z" fill="#181C32"/>
<defs>
<linearGradient id="paint0_linear_1097_10904" x1="14.139" y1="-7.81286" x2="51.6603" y2="79.4963" gradientUnits="userSpaceOnUse">
<stop stop-color="white"/>
<stop offset="1" stop-color="#517536"/>
</linearGradient>
<linearGradient id="paint1_linear_1097_10904" x1="13.8377" y1="-7.68381" x2="51.359" y2="79.6254" gradientUnits="userSpaceOnUse">
<stop stop-color="white"/>
<stop offset="1" stop-color="#517536"/>
</linearGradient>
</defs>
</svg>
