<svg xmlns="http://www.w3.org/2000/svg" width="41.76" height="41.736" viewBox="0 0 41.76 41.736">
  <g id="Group_21648" data-name="Group 21648" transform="translate(0 0)">
    <path id="Path_471" data-name="Path 471" d="M2801.055-858.984a12.455,12.455,0,0,0,3.7-8.889,12.455,12.455,0,0,0-3.7-8.889l-.986.992a11.07,11.07,0,0,1,3.291,7.9,11.07,11.07,0,0,1-3.291,7.9Z" transform="translate(-2767.529 878.834)" fill="#a576cc"/>
    <path id="Path_472" data-name="Path 472" d="M2710.458-791.948a9.24,9.24,0,0,0,0-12.13l-1.037.939a7.809,7.809,0,0,1,0,10.252Z" transform="translate(-2680.403 808.974)" fill="#a576cc"/>
    <path id="Path_473" data-name="Path 473" d="M2615.958-725.544a4.976,4.976,0,0,0,0-6.534l-1.037.939a3.546,3.546,0,0,1,0,4.657Z" transform="translate(-2589.576 739.772)" fill="#a576cc"/>
    <path id="Path_474" data-name="Path 474" d="M2898.4-929.139a16.336,16.336,0,0,1,0,21.443l1.037.938a17.766,17.766,0,0,0,0-23.32Z" transform="translate(-2862.042 930.078)" fill="#a576cc"/>
    <path id="Path_475" data-name="Path 475" d="M2082.963-876.762a12.454,12.454,0,0,0-3.7,8.889,12.454,12.454,0,0,0,3.7,8.889l.986-.992a11.069,11.069,0,0,1-3.291-7.9,11.069,11.069,0,0,1,3.291-7.9Z" transform="translate(-2074.728 878.834)" fill="#a576cc"/>
    <path id="Path_476" data-name="Path 476" d="M2207.784-804.078a9.241,9.241,0,0,0,0,12.13l1.037-.939a7.809,7.809,0,0,1,0-10.252Z" transform="translate(-2196.079 808.974)" fill="#a576cc"/>
    <path id="Path_477" data-name="Path 477" d="M2328.17-732.078a4.978,4.978,0,0,0,0,6.534l1.037-.939a3.546,3.546,0,0,1,0-4.657Z" transform="translate(-2312.793 739.772)" fill="#a576cc"/>
    <path id="Path_478" data-name="Path 478" d="M1968.05-929.139l-1.038-.939a17.765,17.765,0,0,0,0,23.32l1.037-.938A16.337,16.337,0,0,1,1968.05-929.139Z" transform="translate(-1962.65 930.078)" fill="#a576cc"/>
    <path id="Path_479" data-name="Path 479" d="M2162.646-672.241a0,0,0,0,1,0,0l-1.93-4.409-1.3-2.977-.068-.157-.339-.774-5.219-11.926a.7.7,0,0,0-.64-.42h-.531v-5.025a2.1,2.1,0,0,0,1.4-1.969,2.1,2.1,0,0,0-2.1-2.1,2.1,2.1,0,0,0-2.1,2.1,2.1,2.1,0,0,0,1.4,1.969v5.025h-.868a.7.7,0,0,0-.641.42l-2.3,5.247-1.61,3.68-.529,1.209-2.771,6.334h0l-.257.586h0l-2.146,4.9h-2.34v1.4h28.677v-1.4h-3.04Zm-10.73-28.36a.7.7,0,0,1,.7.7.7.7,0,0,1-.7.7.7.7,0,0,1-.7-.7A.7.7,0,0,1,2151.917-700.6Zm-2.9,13.193,5.9.983.418.954-7.729,1.288.706-1.613Zm8.973,8.49-13.685,2.281,1.859-4.251Zm-11.247-3.292.193-.442,5.771-.962,3.206-.534,1.636,3.738Zm12.022,4.581,1.34,3.062.744,1.7-15.334-2.555Zm-7.955-13.879h1.883l1.555,3.554-4.654-.776Zm10.034,20.983h-19.214l1.682-3.845,18.207,3.034.355.81Z" transform="translate(-2130.955 710.863)" fill="#a576cc"/>
  </g>
</svg>
