<svg width="22" height="22" viewBox="0 0 22 22" fill="none" xmlns="http://www.w3.org/2000/svg">
<path opacity="0.3" d="M7.69987 18.7984C6.69154 18.7984 5.86654 17.9734 5.86654 16.965C5.86654 15.9567 6.69154 15.1317 7.69987 15.1317H9.07487C10.8165 15.1317 12.2832 13.665 12.2832 11.9234C12.2832 10.1817 10.8165 8.71504 9.07487 8.71504H7.42487L6.04987 10.2734C5.9582 10.365 5.77487 10.4567 5.59154 10.5484C5.6832 10.5484 5.6832 10.5484 5.77487 10.5484H8.9832C9.71653 10.5484 10.3582 11.19 10.3582 11.9234C10.3582 12.6567 9.71653 13.2984 8.9832 13.2984H7.69987C5.6832 13.2984 4.0332 14.9484 4.0332 16.965C4.0332 18.9817 5.6832 20.6317 7.69987 20.6317H14.1165V18.7984H7.69987Z" fill="#B5B5C3"/>
<path d="M8.15863 7.98169L6.14196 10.2734C5.7753 10.64 5.13363 10.64 4.76696 10.2734L2.7503 7.98169C2.01696 7.15669 1.65029 5.96504 1.92529 4.68171C2.20029 3.30671 3.30029 2.20671 4.67529 1.93171C7.05862 1.38171 9.16696 3.21506 9.16696 5.50672C9.0753 6.42339 8.70863 7.34002 8.15863 7.98169Z" fill="#B5B5C3"/>
<path d="M5.4082 6.88171C6.1676 6.88171 6.7832 6.26611 6.7832 5.50671C6.7832 4.74733 6.1676 4.13171 5.4082 4.13171C4.64882 4.13171 4.0332 4.74733 4.0332 5.50671C4.0332 6.26611 4.64882 6.88171 5.4082 6.88171Z" fill="#E9E9ED"/>
<path d="M15.9505 20.6317H14.1172V12.3817C14.1172 11.8317 14.4839 11.465 15.0339 11.465C15.5839 11.465 15.9505 11.8317 15.9505 12.3817V20.6317Z" fill="#B5B5C3"/>
<path d="M19.6172 16.965H14.1172V12.3817H19.6172C20.3505 12.3817 20.7172 13.2067 20.2589 13.7567L19.5255 14.6734L20.2589 15.59C20.8089 16.14 20.3505 16.965 19.6172 16.965Z" fill="#B5B5C3"/>
</svg>
