<svg width="12" height="12" viewBox="0 0 12 12" fill="none" xmlns="http://www.w3.org/2000/svg">
<path d="M11 6C11 3.23858 8.76142 1 6 1C3.23858 1 1 3.23858 1 6C1 8.76142 3.23858 11 6 11C8.76142 11 11 8.76142 11 6Z" fill="#B5B5C3"/>
<path d="M5.5 4V6.5C5.5 6.77614 5.72386 7 6 7C6.27614 7 6.5 6.77614 6.5 6.5V4C6.5 3.72386 6.27614 3.5 6 3.5C5.72386 3.5 5.5 3.72386 5.5 4Z" fill="black"/>
<path d="M6 7.5C5.72386 7.5 5.5 7.72386 5.5 8C5.5 8.27614 5.72386 8.5 6 8.5C6.27614 8.5 6.5 8.27614 6.5 8C6.5 7.72386 6.27614 7.5 6 7.5Z" fill="black"/>
</svg>
