<svg width="26" height="26" viewBox="0 0 26 26" fill="none" xmlns="http://www.w3.org/2000/svg">
<path d="M21.6667 16.25H4.33334C3.14167 16.25 2.16667 15.275 2.16667 14.0833V7.58333C2.16667 6.93333 2.60001 6.5 3.25001 6.5H22.75C23.4 6.5 23.8333 6.93333 23.8333 7.58333V14.0833C23.8333 15.275 22.8583 16.25 21.6667 16.25ZM14.0833 13H11.9167C11.375 13 10.8333 13.4333 10.8333 14.0833V17.3333C10.8333 17.875 11.2667 18.4167 11.9167 18.4167H14.0833C14.7333 18.4167 15.1667 17.9833 15.1667 17.3333V14.0833C15.1667 13.4333 14.7333 13 14.0833 13Z" fill="#B5B5C3"/>
<path d="M15.1667 6.5V5.41667H10.8333V6.5H8.66667V5.41667C8.66667 4.225 9.64167 3.25 10.8333 3.25H15.1667C16.3583 3.25 17.3333 4.225 17.3333 5.41667V6.5H15.1667ZM21.6667 16.25H15.1667V17.3333C15.1667 17.9833 14.625 18.4167 14.0833 18.4167H11.9167C11.375 18.4167 10.8333 17.9833 10.8333 17.3333V16.25H4.33333C3.9 16.25 3.575 16.1417 3.25 15.925V19.5C3.25 20.6917 4.225 21.6667 5.41667 21.6667H20.5833C21.775 21.6667 22.75 20.6917 22.75 19.5V15.925C22.425 16.1417 22.1 16.25 21.6667 16.25Z" fill="#E9E9ED"/>
</svg>
