<svg width="26" height="26" viewBox="0 0 26 26" fill="none" xmlns="http://www.w3.org/2000/svg">
<path d="M9.75033 2.16666H4.33366C3.13704 2.16666 2.16699 3.13671 2.16699 4.33332V9.74999C2.16699 10.9466 3.13704 11.9167 4.33366 11.9167H9.75033C10.9469 11.9167 11.917 10.9466 11.917 9.74999V4.33332C11.917 3.13671 10.9469 2.16666 9.75033 2.16666Z" fill="#B5B5C3"/>
<path d="M21.6663 2.16666H16.2497C15.0531 2.16666 14.083 3.13671 14.083 4.33332V9.74999C14.083 10.9466 15.0531 11.9167 16.2497 11.9167H21.6663C22.863 11.9167 23.833 10.9466 23.833 9.74999V4.33332C23.833 3.13671 22.863 2.16666 21.6663 2.16666Z" fill="#E9E9ED"/>
<path d="M21.6663 14.0833H16.2497C15.0531 14.0833 14.083 15.0534 14.083 16.25V21.6667C14.083 22.8633 15.0531 23.8333 16.2497 23.8333H21.6663C22.863 23.8333 23.833 22.8633 23.833 21.6667V16.25C23.833 15.0534 22.863 14.0833 21.6663 14.0833Z" fill="#E9E9ED"/>
<path d="M9.75033 14.0833H4.33366C3.13704 14.0833 2.16699 15.0534 2.16699 16.25V21.6667C2.16699 22.8633 3.13704 23.8333 4.33366 23.8333H9.75033C10.9469 23.8333 11.917 22.8633 11.917 21.6667V16.25C11.917 15.0534 10.9469 14.0833 9.75033 14.0833Z" fill="#E9E9ED"/>
</svg>
