<svg width="26" height="26" viewBox="0 0 26 26" fill="none" xmlns="http://www.w3.org/2000/svg">
<path opacity="0.3" d="M22.2672 4.74244L13.1948 2.1928C13.0678 2.15709 12.9324 2.15709 12.8053 2.1928L3.73286 4.74244C3.44628 4.82297 3.25 5.0701 3.25 5.35042V14.6991C3.25 15.915 3.77551 17.1598 4.81184 18.3987C5.60334 19.345 6.6984 20.2951 8.0665 21.2228C10.3648 22.7813 12.628 23.7373 12.7232 23.7772C12.8113 23.8142 12.9056 23.8327 13.0001 23.8327C13.0945 23.8327 13.1889 23.8143 13.277 23.7772C13.3721 23.7373 15.6353 22.7813 17.9336 21.2228C19.3016 20.2951 20.3967 19.345 21.1883 18.3987C22.2246 17.1598 22.75 15.915 22.75 14.6991V5.35042C22.75 5.0701 22.5538 4.82297 22.2672 4.74244Z" fill="#B5B5C3"/>
<path d="M13.0007 12.0844C14.2387 12.0844 15.2508 11.0723 15.2508 9.83418C15.2508 8.59608 14.2387 7.58398 13.0007 7.58398C11.7625 7.58398 10.7504 8.59608 10.7504 9.83418C10.7504 11.0723 11.7625 12.0844 13.0007 12.0844Z" fill="#B5B5C3"/>
<path d="M16.8623 14.9653C16.8034 14.8179 16.7247 14.6804 16.6363 14.5527C16.1842 13.8845 15.4867 13.4423 14.7005 13.3342C14.6023 13.3244 14.4942 13.344 14.4156 13.403C14.0028 13.7076 13.5116 13.8648 13.0007 13.8648C12.4896 13.8648 11.9984 13.7076 11.5856 13.403C11.5071 13.344 11.3989 13.3146 11.3007 13.3342C10.5146 13.4423 9.80712 13.8845 9.36494 14.5527C9.27651 14.6804 9.19789 14.8278 9.13895 14.9653C9.10948 15.0243 9.1193 15.0931 9.14877 15.1521C9.22739 15.2896 9.32564 15.4272 9.41407 15.5451C9.55163 15.7318 9.69903 15.8989 9.86608 16.056C10.0036 16.1936 10.1609 16.3214 10.3181 16.4491C11.0943 17.0289 12.0278 17.3334 12.9908 17.3334C13.9538 17.3334 14.8873 17.0289 15.6635 16.4491C15.8208 16.3312 15.978 16.1936 16.1156 16.056C16.2728 15.8989 16.4299 15.7318 16.5675 15.5451C16.6658 15.4173 16.7543 15.2896 16.8328 15.1521C16.8819 15.0931 16.8918 15.0243 16.8623 14.9653Z" fill="#B5B5C3"/>
</svg>
