<svg width="26" height="26" viewBox="0 0 26 26" fill="none" xmlns="http://www.w3.org/2000/svg">
<path d="M11.9167 11.375C11.9167 10.4775 11.1891 9.75 10.2917 9.75C9.39421 9.75 8.66667 10.4775 8.66667 11.375V18.9583C8.66667 19.8558 9.39421 20.5833 10.2917 20.5833C11.1891 20.5833 11.9167 19.8558 11.9167 18.9583V11.375Z" fill="#B5B5C3"/>
<path d="M17.3333 7.04102C17.3333 6.14355 16.6058 5.41602 15.7083 5.41602C14.8109 5.41602 14.0833 6.14355 14.0833 7.04102V18.9577C14.0833 19.8551 14.8109 20.5827 15.7083 20.5827C16.6058 20.5827 17.3333 19.8551 17.3333 18.9577V7.04102Z" fill="#E9E9ED"/>
<path d="M22.75 13.541C22.75 12.6436 22.0225 11.916 21.125 11.916C20.2275 11.916 19.5 12.6436 19.5 13.541V18.9577C19.5 19.8551 20.2275 20.5827 21.125 20.5827C22.0225 20.5827 22.75 19.8551 22.75 18.9577V13.541Z" fill="#B5B5C3"/>
<path d="M6.5 15.709C6.5 14.8115 5.77246 14.084 4.875 14.084C3.97754 14.084 3.25 14.8115 3.25 15.709V18.959C3.25 19.8564 3.97754 20.584 4.875 20.584C5.77246 20.584 6.5 19.8564 6.5 18.959V15.709Z" fill="#B5B5C3"/>
</svg>
