<?xml version="1.0" encoding="utf-8"?>
<!-- Generator: Adobe Illustrator 25.0.1, SVG Export Plug-In . SVG Version: 6.00 Build 0)  -->
<svg version="1.1" id="Layer_1" xmlns="http://www.w3.org/2000/svg" xmlns:xlink="http://www.w3.org/1999/xlink" x="0px" y="0px"
	 viewBox="0 0 33 33" style="enable-background:new 0 0 33 33;" xml:space="preserve">
<style type="text/css">
	.st0{fill:#B5B5C3;}
</style>
<g>
	<path class="st0" d="M25.5,15.5h-2.1c-0.4-3.1-2.9-5.5-5.9-5.9V7.5c0-0.6-0.4-1-1-1s-1,0.4-1,1v2.1c-3.1,0.4-5.5,2.9-5.9,5.9H7.5
		c-0.6,0-1,0.4-1,1s0.4,1,1,1h2.1c0.4,3.1,2.9,5.5,5.9,5.9v2.1c0,0.6,0.4,1,1,1s1-0.4,1-1v-2.1c3.1-0.4,5.5-2.9,5.9-5.9h2.1
		c0.6,0,1-0.4,1-1S26.1,15.5,25.5,15.5z M16.5,21.5c-2.8,0-5-2.2-5-5s2.2-5,5-5s5,2.2,5,5S19.3,21.5,16.5,21.5z"/>
	<path class="st0" d="M16.5,19.5c1.7,0,3-1.3,3-3s-1.3-3-3-3s-3,1.3-3,3S14.8,19.5,16.5,19.5z"/>
</g>
</svg>
