<svg width="16" height="16" viewBox="0 0 16 16" fill="none" xmlns="http://www.w3.org/2000/svg">
<path opacity="0.3" d="M12.0416 10.2309L8.77489 13.8309C8.37489 14.2975 7.70822 14.2975 7.30822 13.8309L4.04157 10.2309C3.04157 9.09752 2.50824 7.63085 2.70824 5.96421C3.04157 3.56421 4.9749 1.63088 7.37489 1.36421C10.5749 1.03088 13.3082 3.49755 13.3082 6.63088C13.3749 8.03085 12.8416 9.29752 12.0416 10.2309Z" fill="black"/>
<path d="M8.04162 8.69723C9.14622 8.69723 10.0416 7.80183 10.0416 6.69723C10.0416 5.59269 9.14622 4.69727 8.04162 4.69727C6.93709 4.69727 6.04163 5.59269 6.04163 6.69723C6.04163 7.80183 6.93709 8.69723 8.04162 8.69723Z" fill="#7E8299"/>
</svg>
