<svg xmlns="http://www.w3.org/2000/svg" width="49" height="33" viewBox="0 0 49 33">
  <path id="Union_1" data-name="Union 1" d="M3.015,33l-.957-.187-1.2-.8a2.063,2.063,0,0,1-.67-1.5l19-11.859h.287l4.115,2.719a1.745,1.745,0,0,0,1.053.281l1.244-.563,3.637-2.438h.287l19,11.859A2.62,2.62,0,0,1,47.9,32.25l-.957.563L45.985,33ZM0,6.187,16.461,16.734.048,26.906ZM48.856,26.813,32.539,16.734,48.856,6.187,49,6.234V26.859Zm-24.5-8.625L.191,2.625l.1-.7L1.1.75,2.058.187,3.015,0H45.985l.957.187,1.2.8a2.122,2.122,0,0,1,.67,1.641l-23.4,15.094-.766.469Z" fill="#9595a7"/>
</svg>
