<svg xmlns="http://www.w3.org/2000/svg" width="78.29" height="15.545" viewBox="0 0 78.29 15.545">
  <path id="Path_22496" data-name="Path 22496" d="M3.77,15.476H0V.373H6.52L14,11.648V.373h3.77v15.1H11.381L3.77,4.008V15.476M35.8,10.805c0,2.1-.315,2.823-.837,3.517-.8,1.033-1.963,1.344-4.205,1.344H24.327c-2.242,0-3.407-.311-4.206-1.344-.522-.694-.837-1.418-.837-3.517V4.984c0-2.1.315-2.821.837-3.516C20.92.433,22.084.122,24.327.122h6.436c2.242,0,3.406.311,4.205,1.345.522.7.837,1.418.837,3.516v5.822m-5.2,1.035c.861,0,1.165-.06,1.371-.281.193-.206.278-.473.278-1.36V5.59c0-.888-.085-1.152-.278-1.359s-.51-.281-1.371-.281h-6.12c-.861,0-1.165.059-1.37.281s-.279.472-.279,1.359V10.2c0,.888.085,1.154.279,1.36.206.222.509.281,1.37.281H30.6M41.283.373v15.1H37.344V.373h3.939m6.655,0h5.2L46.12,7.437l7.916,8.039H48.471L41.283,7.6,47.938.373m6.824,0H58.7v15.1h-3.94m18.959,0-1.166-2.631H64.933l-1.152,2.63H59.429L66.411.373h4.9l6.982,15.1H73.721M66.3,9.565h4.9L68.75,4.1,66.3,9.565" transform="translate(0 -0.122)" fill="#a5a5aa"/>
</svg>
