<?xml version="1.0" encoding="utf-8"?>
<!-- Generator: Adobe Illustrator 25.0.1, SVG Export Plug-In . SVG Version: 6.00 Build 0)  -->
<svg version="1.1" id="Layer_1" xmlns="http://www.w3.org/2000/svg" xmlns:xlink="http://www.w3.org/1999/xlink" x="0px" y="0px"
	 viewBox="0 0 18 18" style="enable-background:new 0 0 18 18;" xml:space="preserve">
<style type="text/css">
	.st0{fill:#7239EA;}
</style>
<g>
	<path class="st0" d="M4.5,8.2c-1,0-1.9-0.4-2.7-1.1C1.1,6.4,0.8,5.5,0.8,4.5c0-1,0.4-1.9,1.1-2.7c0.7-0.7,1.6-1.1,2.7-1.1
		c1.1,0,1.9,0.4,2.7,1.1s1.1,1.6,1.1,2.7c0,1-0.4,1.9-1.1,2.7C6.4,7.9,5.6,8.2,4.5,8.2z M12,17.2c-0.4,0-0.8-0.1-1.1-0.4
		c-0.3-0.3-0.4-0.6-0.4-1.1V12c0-0.4,0.1-0.8,0.4-1.1c0.3-0.3,0.6-0.4,1.1-0.4h3.8c0.4,0,0.8,0.1,1.1,0.4c0.3,0.3,0.4,0.6,0.4,1.1
		v3.8c0,0.4-0.1,0.8-0.4,1.1c-0.3,0.3-0.6,0.4-1.1,0.4H12z M13.3,5.8l-7.5,7.5c0.1,0.2,0.1,0.3,0.2,0.5C6,13.9,6,14.1,6,14.2
		c0,0.6-0.2,1.2-0.6,1.6c-0.4,0.4-1,0.7-1.6,0.7c-0.6,0-1.2-0.2-1.6-0.7c-0.4-0.4-0.7-1-0.7-1.6c0-0.6,0.2-1.2,0.7-1.6
		c0.4-0.4,1-0.6,1.6-0.6c0.2,0,0.3,0,0.5,0.1c0.2,0,0.3,0.1,0.5,0.2l7.5-7.5c-0.1-0.2-0.1-0.3-0.2-0.5C12,4.1,12,3.9,12,3.8
		c0-0.6,0.2-1.2,0.7-1.6c0.4-0.4,1-0.6,1.6-0.6c0.6,0,1.2,0.2,1.6,0.6c0.4,0.4,0.6,1,0.6,1.6c0,0.6-0.2,1.2-0.6,1.6
		c-0.4,0.4-1,0.7-1.6,0.7c-0.2,0-0.3,0-0.5-0.1C13.6,5.9,13.4,5.8,13.3,5.8z"/>
</g>
</svg>
