<svg width="17" height="17" viewBox="0 0 17 17" fill="none" xmlns="http://www.w3.org/2000/svg">
<path d="M1 5C1 2.79086 2.79086 1 5 1H12C14.2091 1 16 2.79086 16 5V12C16 14.2091 14.2091 16 12 16H5C2.79086 16 1 14.2091 1 12V5Z" fill="#EF0C1A" stroke="#EF0C1A"/>
<mask id="mask0_1585_15320" style="mask-type:alpha" maskUnits="userSpaceOnUse" x="3" y="3" width="12" height="12">
<rect x="3" y="3" width="11.3019" height="11.3525" fill="white"/>
</mask>
<g mask="url(#mask0_1585_15320)">
<path d="M6.29653 12.9333C6.03753 12.9333 5.81589 12.8408 5.6316 12.6557C5.447 12.4703 5.3547 12.2475 5.3547 11.9873V5.83801H4.88379V4.89197H7.23836V4.41895H10.0638V4.89197H12.4184V5.83801H11.9475V11.9873C11.9475 12.2475 11.8554 12.4703 11.6711 12.6557C11.4865 12.8408 11.2647 12.9333 11.0057 12.9333H6.29653ZM11.0057 5.83801H6.29653V11.9873H11.0057V5.83801ZM7.23836 11.0413H8.18019V6.78406H7.23836V11.0413ZM9.12202 11.0413H10.0638V6.78406H9.12202V11.0413Z" fill="white"/>
</g>
</svg>
