<svg width="74" height="74" viewBox="0 0 74 74" fill="none" xmlns="http://www.w3.org/2000/svg">
<mask id="mask0_4024_1231" style="mask-type:alpha" maskUnits="userSpaceOnUse" x="0" y="0" width="74" height="74">
<rect width="74" height="74" fill="#D9D9D9"/>
</mask>
<g mask="url(#mask0_4024_1231)">
<path d="M24.668 52.4167H49.3346V46.25H24.668V52.4167ZM33.7638 43.1667L51.1846 25.7459L46.7909 21.5063L33.7638 34.5334L27.1346 27.9042L22.818 32.2209L33.7638 43.1667ZM37.0013 67.8334C32.736 67.8334 28.7277 67.0235 24.9763 65.4037C21.2249 63.786 17.9617 61.5896 15.1867 58.8146C12.4117 56.0396 10.2154 52.7764 8.59764 49.025C6.97786 45.2736 6.16797 41.2653 6.16797 37C6.16797 32.7347 6.97786 28.7264 8.59764 24.975C10.2154 21.2236 12.4117 17.9604 15.1867 15.1854C17.9617 12.4104 21.2249 10.213 24.9763 8.59327C28.7277 6.97555 32.736 6.16669 37.0013 6.16669C41.2666 6.16669 45.2749 6.97555 49.0263 8.59327C52.7777 10.213 56.0409 12.4104 58.8159 15.1854C61.5909 17.9604 63.7873 21.2236 65.405 24.975C67.0247 28.7264 67.8346 32.7347 67.8346 37C67.8346 41.2653 67.0247 45.2736 65.405 49.025C63.7873 52.7764 61.5909 56.0396 58.8159 58.8146C56.0409 61.5896 52.7777 63.786 49.0263 65.4037C45.2749 67.0235 41.2666 67.8334 37.0013 67.8334ZM37.0013 61.6667C43.8874 61.6667 49.7201 59.2771 54.4992 54.4979C59.2784 49.7188 61.668 43.8861 61.668 37C61.668 30.1139 59.2784 24.2813 54.4992 19.5021C49.7201 14.7229 43.8874 12.3334 37.0013 12.3334C30.1152 12.3334 24.2826 14.7229 19.5034 19.5021C14.7242 24.2813 12.3346 30.1139 12.3346 37C12.3346 43.8861 14.7242 49.7188 19.5034 54.4979C24.2826 59.2771 30.1152 61.6667 37.0013 61.6667Z" fill="#41C76D"/>
</g>
</svg>
