<svg width="17" height="17" viewBox="0 0 17 17" fill="none" xmlns="http://www.w3.org/2000/svg">
<path d="M1 5C1 2.79086 2.79086 1 5 1H12C14.2091 1 16 2.79086 16 5V12C16 14.2091 14.2091 16 12 16H5C2.79086 16 1 14.2091 1 12V5Z" fill="#41C76D" stroke="#41C76D"/>
<path d="M8.5 3C6.565 3 5 4.565 5 6.5C5 7.37 5.25 8.185 5.705 8.92C6.18 9.69 6.805 10.35 7.285 11.12C7.52 11.495 7.69 11.845 7.87 12.25C8 12.525 8.105 13 8.5 13C8.895 13 9 12.525 9.125 12.25C9.31 11.845 9.475 11.495 9.71 11.12C10.19 10.355 10.815 9.695 11.29 8.92C11.75 8.185 12 7.37 12 6.5C12 4.565 10.435 3 8.5 3ZM8.5 7.875C7.81 7.875 7.25 7.315 7.25 6.625C7.25 5.935 7.81 5.375 8.5 5.375C9.19 5.375 9.75 5.935 9.75 6.625C9.75 7.315 9.19 7.875 8.5 7.875Z" fill="white"/>
</svg>
