<svg width="17" height="17" viewBox="0 0 17 17" fill="none" xmlns="http://www.w3.org/2000/svg">
<path d="M1 5C1 2.79086 2.79086 1 5 1H12C14.2091 1 16 2.79086 16 5V12.0671C16 14.2763 14.2091 16.0671 12 16.0671H5C2.79086 16.0671 1 14.2763 1 12.0671V5Z" fill="#41C76D" stroke="#41C76D"/>
<path d="M5.5 12V12.5C5.5 12.6417 5.45217 12.7603 5.3565 12.856C5.2605 12.952 5.14167 13 5 13H4.5C4.35833 13 4.23967 12.952 4.144 12.856C4.048 12.7603 4 12.6417 4 12.5V8.5L5.05 5.5C5.1 5.35 5.18967 5.22917 5.319 5.1375C5.448 5.04583 5.59167 5 5.75 5H11.25C11.4083 5 11.5522 5.04583 11.6815 5.1375C11.8105 5.22917 11.9 5.35 11.95 5.5L13 8.5V12.5C13 12.6417 12.952 12.7603 12.856 12.856C12.7603 12.952 12.6417 13 12.5 13H12C11.8583 13 11.7397 12.952 11.644 12.856C11.548 12.7603 11.5 12.6417 11.5 12.5V12H5.5ZM5.4 7.5H11.6L11.075 6H5.925L5.4 7.5ZM6.25 10.5C6.45833 10.5 6.63533 10.427 6.781 10.281C6.927 10.1353 7 9.95833 7 9.75C7 9.54167 6.927 9.36467 6.781 9.219C6.63533 9.073 6.45833 9 6.25 9C6.04167 9 5.86467 9.073 5.719 9.219C5.573 9.36467 5.5 9.54167 5.5 9.75C5.5 9.95833 5.573 10.1353 5.719 10.281C5.86467 10.427 6.04167 10.5 6.25 10.5ZM10.75 10.5C10.9583 10.5 11.1353 10.427 11.281 10.281C11.427 10.1353 11.5 9.95833 11.5 9.75C11.5 9.54167 11.427 9.36467 11.281 9.219C11.1353 9.073 10.9583 9 10.75 9C10.5417 9 10.3647 9.073 10.219 9.219C10.073 9.36467 10 9.54167 10 9.75C10 9.95833 10.073 10.1353 10.219 10.281C10.3647 10.427 10.5417 10.5 10.75 10.5Z" fill="white"/>
</svg>
