<svg width="13" height="13" viewBox="0 0 13 13" fill="none" xmlns="http://www.w3.org/2000/svg">
<g clip-path="url(#clip0_1244_13972)">
<path d="M6.50065 2.16634C7.54607 2.16634 9.20898 2.92467 9.20898 4.95592C9.20898 6.12592 8.27732 7.48551 6.50065 8.92092C4.72398 7.48551 3.79232 6.12051 3.79232 4.95592C3.79232 2.92467 5.45523 2.16634 6.50065 2.16634ZM6.50065 1.08301C4.7294 1.08301 2.70898 2.41551 2.70898 4.95592C2.70898 6.64592 3.97107 8.42801 6.50065 10.2913C9.03023 8.42801 10.2923 6.64592 10.2923 4.95592C10.2923 2.41551 8.2719 1.08301 6.50065 1.08301Z" fill="#7E8299" fill-opacity="0.4"/>
<path d="M6.50065 3.79199C5.90482 3.79199 5.41732 4.27949 5.41732 4.87533C5.41732 5.47116 5.90482 5.95866 6.50065 5.95866C6.78797 5.95866 7.06352 5.84452 7.26668 5.64136C7.46985 5.43819 7.58398 5.16264 7.58398 4.87533C7.58398 4.58801 7.46985 4.31246 7.26668 4.10929C7.06352 3.90613 6.78797 3.79199 6.50065 3.79199ZM2.70898 10.8337H10.2923V11.917H2.70898V10.8337Z" fill="#7E8299" fill-opacity="0.4"/>
</g>
<defs>
<clipPath id="clip0_1244_13972">
<rect width="13" height="13" fill="white"/>
</clipPath>
</defs>
</svg>
