<svg width="20" height="20" viewBox="0 0 20 20" fill="none" xmlns="http://www.w3.org/2000/svg">
<path opacity="0.5" d="M5 10.8335L14.1667 10.8335C14.6269 10.8335 15 10.4604 15 10.0002C15 9.53993 14.6269 9.16683 14.1667 9.16683L5 9.16683C4.53976 9.16683 4.16667 9.53993 4.16667 10.0002C4.16667 10.4604 4.53976 10.8335 5 10.8335Z" fill="black"/>
<path d="M12.861 10.4713L9.37411 13.9583C9.02894 14.3034 9.02894 14.8631 9.37411 15.2083C9.71928 15.5534 10.2789 15.5534 10.6241 15.2083L15.2432 10.5892C15.5686 10.2638 15.5686 9.7361 15.2432 9.41068L10.6241 4.7916C10.2789 4.44642 9.71928 4.44642 9.37411 4.7916C9.02894 5.13677 9.02894 5.69642 9.37411 6.0416L12.861 9.52851C13.1214 9.78885 13.1214 10.211 12.861 10.4713Z" fill="black"/>
</svg>
