<svg width="25" height="7" viewBox="0 0 25 7" fill="none" xmlns="http://www.w3.org/2000/svg">
<path d="M21.5618 0.479492C20.3173 0.479492 19.266 1.22866 18.7948 2.29199H15.2664C14.7952 1.22866 13.7439 0.479492 12.4993 0.479492C11.2548 0.479492 10.2035 1.22866 9.73227 2.29199H6.20393C5.73268 1.22866 4.68143 0.479492 3.43685 0.479492C1.76935 0.479492 0.416016 1.83283 0.416016 3.50033C0.416016 5.16783 1.76935 6.52116 3.43685 6.52116C4.68143 6.52116 5.73268 5.77199 6.20393 4.70866H9.73227C10.2035 5.77199 11.2548 6.52116 12.4993 6.52116C13.7439 6.52116 14.7952 5.77199 15.2664 4.70866H18.7948C19.266 5.77199 20.3173 6.52116 21.5618 6.52116C23.2293 6.52116 24.5827 5.16783 24.5827 3.50033C24.5827 1.83283 23.2293 0.479492 21.5618 0.479492Z" fill="#7E8299"/>
</svg>
