<svg width="16" height="16" viewBox="0 0 16 16" fill="none" xmlns="http://www.w3.org/2000/svg">
<path d="M14.7308 13.4546L11.8291 10.5529C11.5687 10.2926 11.1466 10.2926 10.8863 10.5529C10.6259 10.8133 10.6259 11.2354 10.8863 11.4957L13.788 14.3975C14.0483 14.6578 14.4704 14.6578 14.7308 14.3975C14.9911 14.1371 14.9911 13.715 14.7308 13.4546Z" fill="#B5B5C3"/>
<path d="M7.33333 12.6667C4.37037 12.6667 2 10.2963 2 7.33333C2 4.37037 4.37037 2 7.33333 2C10.2963 2 12.6667 4.37037 12.6667 7.33333C12.6667 10.2963 10.2963 12.6667 7.33333 12.6667ZM7.33333 3.33333C5.02222 3.33333 3.33333 5.02222 3.33333 7.33333C3.33333 9.64447 5.02222 11.3333 7.33333 11.3333C9.64447 11.3333 11.3333 9.64447 11.3333 7.33333C11.3333 5.02222 9.64447 3.33333 7.33333 3.33333Z" fill="#B5B5C3"/>
</svg>
