<svg xmlns="http://www.w3.org/2000/svg" width="26.106" height="26.557" viewBox="0 0 26.106 26.557">
  <path id="Path_553" data-name="Path 553" d="M4.965,9.139A8.754,8.754,0,0,1-3.7.321,8.755,8.755,0,0,1,4.965-8.5,8.755,8.755,0,0,1,13.632.321,8.754,8.754,0,0,1,4.965,9.139m15.1,5.076L13.223,7.252A10.965,10.965,0,0,0,15.672.321,10.812,10.812,0,0,0,4.965-10.57,10.812,10.812,0,0,0-5.742.321,10.812,10.812,0,0,0,4.965,11.215a10.547,10.547,0,0,0,6.812-2.493l6.847,6.961a1,1,0,0,0,1.441,0,1.049,1.049,0,0,0,0-1.467" transform="translate(5.742 10.57)" fill="#fff"/>
</svg>
