<svg width="27" height="27" viewBox="0 0 27 27" fill="none" xmlns="http://www.w3.org/2000/svg">
<path opacity="0.3" d="M24.7858 9.67498C24.7858 11.7 24.1108 13.725 22.5358 15.1875C20.7358 16.9875 18.3733 17.6625 16.0108 17.325C14.9983 17.2125 13.8733 17.55 13.1983 18.3375L7.79824 23.7375C6.44824 25.0875 4.31076 24.975 3.07326 23.625C1.83576 22.275 2.06074 20.25 3.29824 19.0125L8.47325 13.8375C9.26075 13.05 9.59824 12.0375 9.48574 11.0251C9.14824 8.77506 9.82323 6.3 11.6233 4.5C13.1983 2.925 15.2233 2.25 17.1358 2.25C18.1483 2.25 18.7108 3.60006 17.9233 4.27506L14.6608 7.53758C14.0983 8.10008 13.9858 8.8875 14.3233 9.5625C14.9983 10.9125 16.0108 11.9251 17.3608 12.6001C18.0358 12.9376 18.8233 12.7125 19.3858 12.2625L22.6483 9C23.4358 8.1 24.7858 8.54998 24.7858 9.67498Z" fill="#7E8299"/>
<path d="M4.76133 22.1625C4.31133 21.7125 4.31133 21.0375 4.76133 20.5875L10.9488 14.4C11.3988 13.95 12.0738 13.95 12.5238 14.4C12.9738 14.85 12.9738 15.525 12.5238 15.975L6.33633 22.1625C5.88633 22.6125 5.09883 22.6125 4.76133 22.1625Z" fill="#7E8299"/>
</svg>
