<svg width="16" height="16" viewBox="0 0 16 16" fill="none" xmlns="http://www.w3.org/2000/svg">
<path d="M5.90386 15.4211L5.6053 13.0326C5.44358 12.9704 5.29131 12.8958 5.1485 12.8087C5.00519 12.7216 4.86511 12.6283 4.72827 12.5288L2.5077 13.4618L0.455078 9.91633L2.37708 8.46084C2.36464 8.37376 2.35842 8.28966 2.35842 8.20855V7.70472C2.35842 7.62411 2.36464 7.54027 2.37708 7.45318L0.455078 5.99769L2.5077 2.45224L4.72827 3.38526C4.86511 3.28573 5.00817 3.19243 5.15746 3.10535C5.30674 3.01827 5.45602 2.94363 5.6053 2.88143L5.90386 0.49292H10.0091L10.3077 2.88143C10.4694 2.94363 10.6219 3.01827 10.7652 3.10535C10.908 3.19243 11.0479 3.28573 11.1847 3.38526L13.4053 2.45224L15.4579 5.99769L13.5359 7.45318C13.5483 7.54027 13.5546 7.62411 13.5546 7.70472V8.20855C13.5546 8.28966 13.5421 8.37376 13.5172 8.46084L15.4392 9.91633L13.3866 13.4618L11.1847 12.5288C11.0479 12.6283 10.9048 12.7216 10.7555 12.8087C10.6062 12.8958 10.457 12.9704 10.3077 13.0326L10.0091 15.4211H5.90386ZM7.99381 10.5694C8.71534 10.5694 9.33113 10.3144 9.84117 9.80437C10.3512 9.29433 10.6062 8.67854 10.6062 7.95701C10.6062 7.23548 10.3512 6.61969 9.84117 6.10965C9.33113 5.5996 8.71534 5.34458 7.99381 5.34458C7.25984 5.34458 6.64082 5.5996 6.13674 6.10965C5.63317 6.61969 5.38138 7.23548 5.38138 7.95701C5.38138 8.67854 5.63317 9.29433 6.13674 9.80437C6.64082 10.3144 7.25984 10.5694 7.99381 10.5694ZM7.99381 9.07662C7.68281 9.07662 7.41858 8.96765 7.20112 8.7497C6.98317 8.53224 6.8742 8.26801 6.8742 7.95701C6.8742 7.64601 6.98317 7.38178 7.20112 7.16432C7.41858 6.94637 7.68281 6.8374 7.99381 6.8374C8.30481 6.8374 8.56929 6.94637 8.78724 7.16432C9.0047 7.38178 9.11342 7.64601 9.11342 7.95701C9.11342 8.26801 9.0047 8.53224 8.78724 8.7497C8.56929 8.96765 8.30481 9.07662 7.99381 9.07662ZM7.21008 13.9283H8.68424L8.94548 11.9503C9.33113 11.8508 9.6889 11.7045 10.0188 11.5114C10.3482 11.3188 10.6498 11.0857 10.9235 10.812L12.7708 11.5771L13.4986 10.3082L11.8938 9.09528C11.956 8.92112 11.9995 8.7375 12.0244 8.54443C12.0493 8.35186 12.0617 8.15605 12.0617 7.95701C12.0617 7.75797 12.0493 7.56191 12.0244 7.36884C11.9995 7.17627 11.956 6.9929 11.8938 6.81874L13.4986 5.60582L12.7708 4.33693L10.9235 5.12066C10.6498 4.83453 10.3482 4.59494 10.0188 4.40186C9.6889 4.20929 9.33113 4.06324 8.94548 3.96372L8.7029 1.98574H7.22874L6.9675 3.96372C6.58185 4.06324 6.22432 4.20929 5.89491 4.40186C5.56499 4.59494 5.2632 4.82831 4.98951 5.102L3.14215 4.33693L2.4144 5.60582L4.01918 6.80008C3.95698 6.98668 3.91344 7.17328 3.88856 7.35988C3.86368 7.54649 3.85124 7.74553 3.85124 7.95701C3.85124 8.15605 3.86368 8.34888 3.88856 8.53548C3.91344 8.72208 3.95698 8.90868 4.01918 9.09528L2.4144 10.3082L3.14215 11.5771L4.98951 10.7934C5.2632 11.0795 5.56499 11.3188 5.89491 11.5114C6.22432 11.7045 6.58185 11.8508 6.9675 11.9503L7.21008 13.9283Z" fill="#7E8299"/>
</svg>
