<svg xmlns="http://www.w3.org/2000/svg" width="50" height="51" viewBox="0 0 50 51">
  <g id="Group_21896" data-name="Group 21896" transform="translate(-705 -981)">
    <g id="Group_21668" data-name="Group 21668" transform="translate(-40.013)">
      <g id="Group_19604" data-name="Group 19604" transform="translate(745.039 981.342)">
        <g id="Group_19606" data-name="Group 19606" transform="translate(0 0)">
          <ellipse id="Ellipse_23" data-name="Ellipse 23" cx="25" cy="25.5" rx="25" ry="25.5" transform="translate(-0.026 -0.342)" fill="#2c2c6e"/>
        </g>
      </g>
    </g>
    <g id="layer1" transform="translate(683.886 914.249)">
      <path id="path666" d="M36.735,103.487a2,2,0,0,1-1.379-1.052c-.248-.49-.242-.291-.242-7.148,0-3.853.016-6.43.042-6.59a2.2,2.2,0,0,1,1-1.452c.4-.232.647-.268,1.777-.268h1.021L44,84.041c2.774-1.615,5.162-3,5.307-3.069a2.006,2.006,0,0,1,2.426.466c.125.139.772,1.221,1.713,2.864.985,1.719,1.544,2.654,1.6,2.678a1.5,1.5,0,0,0,.254.063,2.349,2.349,0,0,1,.868.443,2.379,2.379,0,0,1,.609.9,7.07,7.07,0,0,1,.111,2.065l.018,1.8.183.086a1.659,1.659,0,0,1,.692.729l.119.254.013,1.824a7.384,7.384,0,0,1-.078,2.124,1.617,1.617,0,0,1-.731.888l-.2.106-.018,1.807a8.074,8.074,0,0,1-.1,2.023,2.194,2.194,0,0,1-1.351,1.356c-.195.069-.913.076-9.323.083-7.454.007-9.161,0-9.384-.051Zm18.377-1.028a1.006,1.006,0,0,0,.628-.527c.088-.182.092-.263.092-1.865V98.393l-1.771-.021c-1.994-.023-2.074-.034-2.729-.355a3.294,3.294,0,0,1-1.353-1.371,3.855,3.855,0,0,1-.279-.757,3.554,3.554,0,0,1,.072-1.537,3.182,3.182,0,0,1,2.161-2.1,9.8,9.8,0,0,1,2.083-.1l1.816-.017V90.461c0-1.528-.008-1.7-.082-1.858a1.173,1.173,0,0,0-.616-.554c-.117-.033-2.96-.047-9.171-.047-8.667,0-9.007,0-9.182.083a1.2,1.2,0,0,0-.563.578c-.046.13-.058,1.459-.058,6.623,0,6.218,0,6.467.083,6.617a1.107,1.107,0,0,0,.719.582c.074.018,4.135.035,9.026.037,7.893,0,8.918,0,9.124-.064Zm1.515-5.208c.249-.129.252-.155.252-2.012,0-1.662,0-1.709-.093-1.831-.176-.237-.259-.244-2.446-.226a9.049,9.049,0,0,0-2.222.1,2.235,2.235,0,0,0-1.16.934,2.083,2.083,0,0,0,1.175,3.018,10.322,10.322,0,0,0,2.309.081,11.435,11.435,0,0,0,2.185-.061ZM52.38,96.219a1.055,1.055,0,0,1-.656-.989.976.976,0,0,1,.433-.809c.209-.15.238-.158.585-.158s.381.011.558.135a.983.983,0,0,1,.445,1.045,1.019,1.019,0,0,1-1.364.775ZM47.007,84.683c2.167-1.262,3.98-2.321,4.029-2.353.087-.057.083-.066-.1-.246a.987.987,0,0,0-.9-.281c-.15.035-1.551.827-4.547,2.571-2.382,1.387-4.35,2.54-4.373,2.562a4.369,4.369,0,0,0,.958.041h1l3.94-2.294Zm2.546.91c1.31-.762,2.425-1.413,2.479-1.448l.1-.063-.253-.442c-.231-.4-.261-.438-.343-.394-.261.14-6.29,3.658-6.326,3.692a4.854,4.854,0,0,0,.961.04h1Zm4.186,1.337c0-.069-1.071-1.913-1.111-1.913s-3.254,1.862-3.321,1.922c-.024.022.934.039,2.194.039A18.7,18.7,0,0,0,53.738,86.93Z" fill="#fff"/>
    </g>
  </g>
</svg>
