<svg width="20" height="20" viewBox="0 0 20 20" fill="none" xmlns="http://www.w3.org/2000/svg">
<path d="M9.3585 17.3333L13.9418 8.39584H10.7335V2.66668L6.15016 11.6042H9.3585V17.3333ZM10.0002 19.1667C8.73211 19.1667 7.54044 18.9259 6.42516 18.4443C5.30989 17.9634 4.33975 17.3104 3.51475 16.4854C2.68975 15.6604 2.03677 14.6903 1.55583 13.575C1.07427 12.4597 0.833496 11.2681 0.833496 10C0.833496 8.73195 1.07427 7.54029 1.55583 6.42501C2.03677 5.30973 2.68975 4.33959 3.51475 3.51459C4.33975 2.68959 5.30989 2.03632 6.42516 1.55476C7.54044 1.07382 8.73211 0.833344 10.0002 0.833344C11.2682 0.833344 12.4599 1.07382 13.5752 1.55476C14.6904 2.03632 15.6606 2.68959 16.4856 3.51459C17.3106 4.33959 17.9636 5.30973 18.4445 6.42501C18.9261 7.54029 19.1668 8.73195 19.1668 10C19.1668 11.2681 18.9261 12.4597 18.4445 13.575C17.9636 14.6903 17.3106 15.6604 16.4856 16.4854C15.6606 17.3104 14.6904 17.9634 13.5752 18.4443C12.4599 18.9259 11.2682 19.1667 10.0002 19.1667ZM10.0002 17.3333C12.0321 17.3333 13.7625 16.6193 15.1912 15.1911C16.6194 13.7623 17.3335 12.032 17.3335 10C17.3335 7.96807 16.6194 6.2377 15.1912 4.80893C13.7625 3.38076 12.0321 2.66668 10.0002 2.66668C7.96822 2.66668 6.23816 3.38076 4.81 4.80893C3.38122 6.2377 2.66683 7.96807 2.66683 10C2.66683 12.032 3.38122 13.7623 4.81 15.1911C6.23816 16.6193 7.96822 17.3333 10.0002 17.3333Z" fill="#41C76D"/>
</svg>
