<svg width="22" height="19" viewBox="0 0 22 19" fill="none" xmlns="http://www.w3.org/2000/svg">
<path d="M3.66667 16.625V17.8125C3.66667 18.149 3.54974 18.4308 3.31589 18.658C3.08122 18.886 2.79074 19 2.44444 19H1.22222C0.875926 19 0.585852 18.886 0.352 18.658C0.117333 18.4308 0 18.149 0 17.8125V8.3125L2.56667 1.1875C2.68889 0.83125 2.90807 0.544271 3.22422 0.326563C3.53956 0.108854 3.89074 0 4.27778 0H17.7222C18.1093 0 18.4609 0.108854 18.777 0.326563C19.0923 0.544271 19.3111 0.83125 19.4333 1.1875L22 8.3125V17.8125C22 18.149 21.8827 18.4308 21.648 18.658C21.4141 18.886 21.1241 19 20.7778 19H19.5556C19.2093 19 18.9192 18.886 18.6853 18.658C18.4507 18.4308 18.3333 18.149 18.3333 17.8125V16.625H3.66667ZM3.42222 5.9375H18.5778L17.2944 2.375H4.70556L3.42222 5.9375ZM5.5 13.0625C6.00926 13.0625 6.44193 12.8891 6.798 12.5424C7.15489 12.1964 7.33333 11.776 7.33333 11.2812C7.33333 10.7865 7.15489 10.3661 6.798 10.0201C6.44193 9.67338 6.00926 9.5 5.5 9.5C4.99074 9.5 4.55807 9.67338 4.202 10.0201C3.84511 10.3661 3.66667 10.7865 3.66667 11.2812C3.66667 11.776 3.84511 12.1964 4.202 12.5424C4.55807 12.8891 4.99074 13.0625 5.5 13.0625ZM16.5 13.0625C17.0093 13.0625 17.4419 12.8891 17.798 12.5424C18.1549 12.1964 18.3333 11.776 18.3333 11.2812C18.3333 10.7865 18.1549 10.3661 17.798 10.0201C17.4419 9.67338 17.0093 9.5 16.5 9.5C15.9907 9.5 15.5581 9.67338 15.202 10.0201C14.8451 10.3661 14.6667 10.7865 14.6667 11.2812C14.6667 11.776 14.8451 12.1964 15.202 12.5424C15.5581 12.8891 15.9907 13.0625 16.5 13.0625Z" fill="#7E8299"/>
</svg>
