<svg width="18" height="18" viewBox="0 0 18 18" fill="none" xmlns="http://www.w3.org/2000/svg">
<mask id="mask0_1488_4715" style="mask-type:alpha" maskUnits="userSpaceOnUse" x="0" y="0" width="18" height="18">
<rect width="18" height="18" fill="#7E8299"/>
</mask>
<g mask="url(#mask0_1488_4715)">
<path d="M4.5 8.25C3.4625 8.25 2.57825 7.88425 1.84725 7.15275C1.11575 6.42175 0.75 5.5375 0.75 4.5C0.75 3.45 1.11575 2.5625 1.84725 1.8375C2.57825 1.1125 3.4625 0.75 4.5 0.75C5.55 0.75 6.4375 1.1125 7.1625 1.8375C7.8875 2.5625 8.25 3.45 8.25 4.5C8.25 5.5375 7.8875 6.42175 7.1625 7.15275C6.4375 7.88425 5.55 8.25 4.5 8.25ZM12 17.25C11.5875 17.25 11.2345 17.1033 10.941 16.8097C10.647 16.5157 10.5 16.1625 10.5 15.75V12C10.5 11.5875 10.647 11.2343 10.941 10.9403C11.2345 10.6467 11.5875 10.5 12 10.5H15.75C16.1625 10.5 16.5157 10.6467 16.8097 10.9403C17.1033 11.2343 17.25 11.5875 17.25 12V15.75C17.25 16.1625 17.1033 16.5157 16.8097 16.8097C16.5157 17.1033 16.1625 17.25 15.75 17.25H12ZM13.2938 5.775L5.775 13.275C5.8375 13.425 5.8905 13.5813 5.934 13.7438C5.978 13.9063 6 14.075 6 14.25C6 14.875 5.7845 15.4062 5.3535 15.8438C4.922 16.2812 4.3875 16.5 3.75 16.5C3.125 16.5 2.59375 16.2812 2.15625 15.8438C1.71875 15.4062 1.5 14.875 1.5 14.25C1.5 13.6125 1.71875 13.0783 2.15625 12.6473C2.59375 12.2158 3.125 12 3.75 12C3.925 12 4.09375 12.0217 4.25625 12.0653C4.41875 12.1093 4.575 12.1625 4.725 12.225L12.225 4.70625C12.1625 4.55625 12.1093 4.403 12.0653 4.2465C12.0217 4.0905 12 3.925 12 3.75C12 3.1125 12.2188 2.578 12.6562 2.1465C13.0938 1.7155 13.625 1.5 14.25 1.5C14.8875 1.5 15.422 1.7155 15.8535 2.1465C16.2845 2.578 16.5 3.1125 16.5 3.75C16.5 4.375 16.2845 4.90625 15.8535 5.34375C15.422 5.78125 14.8875 6 14.25 6C14.075 6 13.9095 5.978 13.7535 5.934C13.597 5.8905 13.4438 5.8375 13.2938 5.775Z" fill="#7E8299"/>
</g>
</svg>
