<svg width="25" height="25" viewBox="0 0 25 25" fill="none" xmlns="http://www.w3.org/2000/svg">
<mask id="mask0_1488_4712" style="mask-type:alpha" maskUnits="userSpaceOnUse" x="0" y="0" width="25" height="25">
<rect width="25" height="25" fill="#7E8299"/>
</mask>
<g mask="url(#mask0_1488_4712)">
<path d="M0 18.75V17.1094C0 16.3455 0.381944 15.7333 1.14583 15.2729C1.90972 14.8132 2.91667 14.5833 4.16667 14.5833C4.39236 14.5833 4.60521 14.592 4.80521 14.6094C5.00451 14.6267 5.19965 14.6528 5.39062 14.6875C5.14757 15.0347 4.96944 15.408 4.85625 15.8073C4.74375 16.2066 4.6875 16.6319 4.6875 17.0833V18.75H0ZM6.25 18.75V17.0833C6.25 15.9549 6.82743 15.0389 7.98229 14.3354C9.13646 13.6326 10.6424 13.2812 12.5 13.2812C14.375 13.2812 15.8854 13.6326 17.0312 14.3354C18.1771 15.0389 18.75 15.9549 18.75 17.0833V18.75H6.25ZM20.3125 18.75V17.0833C20.3125 16.6319 20.2517 16.2066 20.1302 15.8073C20.0087 15.408 19.8351 15.0347 19.6094 14.6875C19.8003 14.6528 19.9958 14.6267 20.1958 14.6094C20.3951 14.592 20.6076 14.5833 20.8333 14.5833C22.0833 14.5833 23.0903 14.8132 23.8542 15.2729C24.6181 15.7333 25 16.3455 25 17.1094V18.75H20.3125ZM4.16667 13.5417C3.59375 13.5417 3.10347 13.3375 2.69583 12.9292C2.2875 12.5215 2.08333 12.0312 2.08333 11.4583C2.08333 10.8854 2.2875 10.3948 2.69583 9.98646C3.10347 9.57882 3.59375 9.375 4.16667 9.375C4.73958 9.375 5.22986 9.57882 5.6375 9.98646C6.04583 10.3948 6.25 10.8854 6.25 11.4583C6.25 12.0312 6.04583 12.5215 5.6375 12.9292C5.22986 13.3375 4.73958 13.5417 4.16667 13.5417ZM20.8333 13.5417C20.2604 13.5417 19.7698 13.3375 19.3615 12.9292C18.9538 12.5215 18.75 12.0312 18.75 11.4583C18.75 10.8854 18.9538 10.3948 19.3615 9.98646C19.7698 9.57882 20.2604 9.375 20.8333 9.375C21.4062 9.375 21.8969 9.57882 22.3052 9.98646C22.7128 10.3948 22.9167 10.8854 22.9167 11.4583C22.9167 12.0312 22.7128 12.5215 22.3052 12.9292C21.8969 13.3375 21.4062 13.5417 20.8333 13.5417ZM12.5 12.5C11.6319 12.5 10.8941 12.1962 10.2865 11.5885C9.67882 10.9809 9.375 10.2431 9.375 9.375C9.375 8.50694 9.67882 7.7691 10.2865 7.16146C10.8941 6.55382 11.6319 6.25 12.5 6.25C13.3681 6.25 14.1059 6.55382 14.7135 7.16146C15.3212 7.7691 15.625 8.50694 15.625 9.375C15.625 10.2431 15.3212 10.9809 14.7135 11.5885C14.1059 12.1962 13.3681 12.5 12.5 12.5Z" fill="#7E8299"/>
</g>
</svg>
