<svg width="23" height="23" viewBox="0 0 23 23" fill="none" xmlns="http://www.w3.org/2000/svg">
<path opacity="0.3" d="M20.0285 12.3623C19.4535 12.3623 19.0702 11.979 19.0702 11.404C19.0702 10.829 19.4535 10.4457 20.0285 10.4457H20.891C20.4118 5.9415 16.866 2.29984 12.3618 1.9165V2.779C12.3618 3.354 11.9785 3.73734 11.4035 3.73734C10.8285 3.73734 10.4452 3.354 10.4452 2.779V1.9165C5.94101 2.39567 2.29935 5.9415 1.91602 10.4457H2.77851C3.35351 10.4457 3.73684 10.829 3.73684 11.404C3.73684 11.979 3.35351 12.3623 2.77851 12.3623H1.91602C2.39518 16.8665 5.94101 20.5082 10.4452 20.8915V20.029C10.4452 19.454 10.8285 19.0707 11.4035 19.0707C11.9785 19.0707 12.3618 19.454 12.3618 20.029V20.8915C16.866 20.4123 20.5077 16.8665 20.891 12.3623H20.0285Z" fill="black"/>
<path d="M16.196 10.4458H13.0335C12.8418 10.1583 12.6501 9.96661 12.3626 9.77495V5.65413C12.3626 5.07913 11.9793 4.6958 11.4043 4.6958C10.8293 4.6958 10.446 5.07913 10.446 5.65413V9.77495C10.1585 9.96661 9.96681 10.1583 9.77514 10.4458H9.48763C8.91263 10.4458 8.5293 10.8291 8.5293 11.4041C8.5293 11.9791 8.91263 12.3624 9.48763 12.3624H9.77514C9.96681 12.6499 10.1585 12.8416 10.446 13.0333V13.3208C10.446 13.8958 10.8293 14.2791 11.4043 14.2791C11.9793 14.2791 12.3626 13.8958 12.3626 13.3208V13.0333C12.6501 12.8416 12.8418 12.6499 13.0335 12.3624H16.196C16.771 12.3624 17.1543 11.9791 17.1543 11.4041C17.1543 10.8291 16.771 10.4458 16.196 10.4458Z" fill="black"/>
</svg>
