<svg width="15" height="15" viewBox="0 0 15 15" fill="none" xmlns="http://www.w3.org/2000/svg">
<path opacity="0.5" d="M8.125 11.25V4.375C8.125 4.02982 7.84518 3.75 7.5 3.75C7.15482 3.75 6.875 4.02982 6.875 4.375V11.25C6.875 11.5952 7.15482 11.875 7.5 11.875C7.84518 11.875 8.125 11.5952 8.125 11.25Z" fill="black"/>
<path d="M7.85436 5.35346L10.4696 7.96866C10.7284 8.22753 11.1482 8.22753 11.4071 7.96866C11.6659 7.70978 11.6659 7.29003 11.4071 7.03116L7.94274 3.56685C7.69868 3.32277 7.30293 3.32277 7.05886 3.56685L3.59455 7.03116C3.33567 7.29003 3.33567 7.70978 3.59455 7.96866C3.85343 8.22753 4.27317 8.22753 4.53205 7.96866L7.14724 5.35346C7.34249 5.1582 7.65911 5.1582 7.85436 5.35346Z" fill="black"/>
</svg>
