<svg width="26" height="26" viewBox="0 0 26 26" fill="none" xmlns="http://www.w3.org/2000/svg">
<path opacity="0.3" d="M23.8333 13C23.8333 18.9584 18.9583 23.8334 13 23.8334C7.04163 23.8334 2.16663 18.9584 2.16663 13C2.16663 7.04169 7.04163 2.16669 13 2.16669C18.9583 2.16669 23.8333 7.04169 23.8333 13ZM13 7.58335C11.1583 7.58335 9.74996 8.99169 9.74996 10.8334C9.74996 12.675 11.1583 14.0834 13 14.0834C14.8416 14.0834 16.25 12.675 16.25 10.8334C16.25 8.99169 14.8416 7.58335 13 7.58335Z" fill="#7E8299"/>
<path d="M13 23.8333C15.8167 23.8333 18.4167 22.75 20.2584 21.0167C19.3917 18.3083 16.4667 16.25 13 16.25C9.53338 16.25 6.60837 18.3083 5.7417 21.0167C7.58337 22.75 10.1834 23.8333 13 23.8333Z" fill="#7E8299"/>
</svg>
