<svg width="471" height="295" viewBox="0 0 471 295" fill="none" xmlns="http://www.w3.org/2000/svg">
<g clip-path="url(#clip0_1528_1632)">
<path d="M69.1754 286.458V277.731H74.4083V278.669H70.2322V281.618H74.0163V282.555H70.2322V286.458H69.1754ZM78.3458 286.595C77.7151 286.595 77.1711 286.456 76.7137 286.177C76.2592 285.896 75.9083 285.504 75.6611 285.001C75.4168 284.495 75.2947 283.907 75.2947 283.237C75.2947 282.566 75.4168 281.976 75.6611 281.464C75.9083 280.95 76.2521 280.549 76.6924 280.262C77.1356 279.973 77.6526 279.828 78.2435 279.828C78.5844 279.828 78.9211 279.885 79.2535 279.998C79.5859 280.112 79.8884 280.297 80.1611 280.552C80.4339 280.805 80.6512 281.14 80.8131 281.558C80.9751 281.976 81.056 282.49 81.056 283.101V283.527H76.0106V282.657H80.0333C80.0333 282.288 79.9594 281.958 79.8117 281.669C79.6668 281.379 79.4594 281.15 79.1896 280.983C78.9225 280.815 78.6072 280.731 78.2435 280.731C77.843 280.731 77.4964 280.831 77.2038 281.03C76.914 281.226 76.691 281.481 76.5347 281.797C76.3785 282.112 76.3004 282.45 76.3004 282.811V283.39C76.3004 283.885 76.3856 284.304 76.556 284.647C76.7293 284.988 76.9694 285.248 77.2762 285.427C77.583 285.603 77.9396 285.691 78.3458 285.691C78.61 285.691 78.8486 285.655 79.0617 285.581C79.2776 285.504 79.4637 285.39 79.62 285.24C79.7762 285.086 79.8969 284.896 79.9822 284.669L80.9538 284.941C80.8515 285.271 80.6796 285.561 80.4381 285.811C80.1967 286.058 79.8984 286.251 79.5432 286.39C79.1881 286.527 78.789 286.595 78.3458 286.595ZM72.2222 301.458V292.731H73.2279V295.953H73.3131C73.387 295.839 73.4893 295.694 73.62 295.518C73.7535 295.339 73.9438 295.18 74.191 295.041C74.441 294.899 74.779 294.828 75.2052 294.828C75.7563 294.828 76.2421 294.966 76.6626 295.241C77.083 295.517 77.4111 295.907 77.6469 296.413C77.8827 296.919 78.0006 297.515 78.0006 298.203C78.0006 298.896 77.8827 299.497 77.6469 300.005C77.4111 300.511 77.0844 300.903 76.6668 301.182C76.2492 301.457 75.7677 301.595 75.2222 301.595C74.8018 301.595 74.4651 301.525 74.2123 301.386C73.9594 301.244 73.7648 301.083 73.6285 300.905C73.4921 300.723 73.387 300.572 73.3131 300.453H73.1938V301.458H72.2222ZM73.2109 298.186C73.2109 298.68 73.2833 299.116 73.4282 299.494C73.5731 299.869 73.7847 300.163 74.0631 300.376C74.3415 300.586 74.6825 300.691 75.0859 300.691C75.5063 300.691 75.8572 300.581 76.1384 300.359C76.4225 300.135 76.6356 299.833 76.7776 299.456C76.9225 299.075 76.995 298.652 76.995 298.186C76.995 297.726 76.9239 297.311 76.7819 296.941C76.6427 296.569 76.431 296.275 76.1469 296.059C75.8657 295.841 75.512 295.731 75.0859 295.731C74.6768 295.731 74.333 295.835 74.0546 296.042C73.7762 296.247 73.566 296.534 73.4239 296.903C73.2819 297.27 73.2109 297.697 73.2109 298.186Z" fill="#A1A5B7"/>
<path d="M137.22 277.731H138.481L141.447 284.976H141.549L144.515 277.731H145.777V286.458H144.788V279.828H144.703L141.975 286.458H141.021L138.294 279.828H138.208V286.458H137.22V277.731ZM149.685 286.612C149.27 286.612 148.894 286.534 148.556 286.378C148.218 286.218 147.949 285.99 147.751 285.691C147.552 285.39 147.452 285.027 147.452 284.601C147.452 284.226 147.526 283.922 147.674 283.689C147.822 283.453 148.019 283.268 148.266 283.135C148.513 283.001 148.786 282.902 149.084 282.836C149.386 282.768 149.688 282.714 149.992 282.674C150.39 282.623 150.712 282.585 150.959 282.559C151.209 282.531 151.391 282.484 151.505 282.419C151.621 282.353 151.68 282.24 151.68 282.078V282.044C151.68 281.623 151.565 281.297 151.334 281.064C151.107 280.831 150.762 280.714 150.299 280.714C149.819 280.714 149.442 280.819 149.17 281.03C148.897 281.24 148.705 281.464 148.594 281.703L147.64 281.362C147.81 280.964 148.038 280.655 148.322 280.433C148.609 280.208 148.921 280.052 149.259 279.964C149.6 279.873 149.935 279.828 150.265 279.828C150.475 279.828 150.716 279.853 150.989 279.905C151.265 279.953 151.53 280.054 151.786 280.207C152.045 280.36 152.259 280.592 152.43 280.902C152.6 281.211 152.685 281.626 152.685 282.146V286.458H151.68V285.572H151.628C151.56 285.714 151.447 285.866 151.288 286.028C151.128 286.19 150.917 286.328 150.653 286.441C150.388 286.555 150.066 286.612 149.685 286.612ZM149.839 285.708C150.236 285.708 150.572 285.63 150.844 285.474C151.12 285.318 151.327 285.116 151.466 284.869C151.609 284.622 151.68 284.362 151.68 284.089V283.169C151.637 283.22 151.543 283.267 151.398 283.309C151.256 283.349 151.091 283.385 150.904 283.416C150.719 283.444 150.539 283.47 150.363 283.493C150.19 283.512 150.049 283.53 149.941 283.544C149.68 283.578 149.435 283.633 149.208 283.71C148.984 283.784 148.802 283.896 148.663 284.047C148.526 284.194 148.458 284.396 148.458 284.652C148.458 285.001 148.587 285.265 148.846 285.444C149.107 285.62 149.438 285.708 149.839 285.708ZM143.57 301.458V294.913H144.541V295.902H144.609C144.729 295.578 144.945 295.315 145.257 295.113C145.57 294.912 145.922 294.811 146.314 294.811C146.388 294.811 146.48 294.812 146.591 294.815C146.702 294.818 146.786 294.822 146.842 294.828V295.851C146.808 295.842 146.73 295.829 146.608 295.812C146.489 295.792 146.362 295.782 146.229 295.782C145.911 295.782 145.626 295.849 145.376 295.983C145.129 296.113 144.933 296.295 144.788 296.528C144.646 296.758 144.575 297.021 144.575 297.316V301.458H143.57Z" fill="#A1A5B7"/>
<path d="M208.997 286.458H207.889L211.093 277.731H212.184L215.389 286.458H214.281L211.673 279.112H211.605L208.997 286.458ZM209.406 283.049H213.872V283.987H209.406V283.049ZM216.612 288.913V279.913H217.583V280.953H217.703C217.777 280.839 217.879 280.694 218.01 280.518C218.143 280.339 218.333 280.18 218.581 280.041C218.831 279.899 219.169 279.828 219.595 279.828C220.146 279.828 220.632 279.966 221.052 280.241C221.473 280.517 221.801 280.907 222.037 281.413C222.272 281.919 222.39 282.515 222.39 283.203C222.39 283.896 222.272 284.497 222.037 285.005C221.801 285.511 221.474 285.903 221.056 286.182C220.639 286.457 220.157 286.595 219.612 286.595C219.191 286.595 218.855 286.525 218.602 286.386C218.349 286.244 218.154 286.083 218.018 285.905C217.882 285.723 217.777 285.572 217.703 285.453H217.618V288.913H216.612ZM217.6 283.186C217.6 283.68 217.673 284.116 217.818 284.494C217.963 284.869 218.174 285.163 218.453 285.376C218.731 285.586 219.072 285.691 219.475 285.691C219.896 285.691 220.247 285.581 220.528 285.359C220.812 285.135 221.025 284.833 221.167 284.456C221.312 284.075 221.385 283.652 221.385 283.186C221.385 282.726 221.314 282.311 221.171 281.941C221.032 281.569 220.821 281.275 220.537 281.059C220.255 280.841 219.902 280.731 219.475 280.731C219.066 280.731 218.723 280.835 218.444 281.042C218.166 281.247 217.956 281.534 217.814 281.903C217.671 282.27 217.6 282.697 217.6 283.186ZM213.981 301.458V294.913H214.953V295.902H215.021C215.14 295.578 215.356 295.315 215.668 295.113C215.981 294.912 216.333 294.811 216.725 294.811C216.799 294.811 216.891 294.812 217.002 294.815C217.113 294.818 217.197 294.822 217.254 294.828V295.851C217.22 295.842 217.141 295.829 217.019 295.812C216.9 295.792 216.774 295.782 216.64 295.782C216.322 295.782 216.038 295.849 215.788 295.983C215.541 296.113 215.345 296.295 215.2 296.528C215.058 296.758 214.987 297.021 214.987 297.316V301.458H213.981Z" fill="#A1A5B7"/>
<path d="M278.16 277.731H279.421L282.387 284.976H282.489L285.455 277.731H286.717V286.458H285.728V279.828H285.643L282.916 286.458H281.961L279.234 279.828H279.149V286.458H278.16V277.731ZM290.625 286.612C290.211 286.612 289.834 286.534 289.496 286.378C289.158 286.218 288.89 285.99 288.691 285.691C288.492 285.39 288.393 285.027 288.393 284.601C288.393 284.226 288.466 283.922 288.614 283.689C288.762 283.453 288.959 283.268 289.206 283.135C289.454 283.001 289.726 282.902 290.025 282.836C290.326 282.768 290.628 282.714 290.932 282.674C291.33 282.623 291.652 282.585 291.9 282.559C292.15 282.531 292.331 282.484 292.445 282.419C292.562 282.353 292.62 282.24 292.62 282.078V282.044C292.62 281.623 292.505 281.297 292.275 281.064C292.047 280.831 291.702 280.714 291.239 280.714C290.759 280.714 290.383 280.819 290.11 281.03C289.837 281.24 289.645 281.464 289.535 281.703L288.58 281.362C288.75 280.964 288.978 280.655 289.262 280.433C289.549 280.208 289.861 280.052 290.199 279.964C290.54 279.873 290.875 279.828 291.205 279.828C291.415 279.828 291.657 279.853 291.929 279.905C292.205 279.953 292.471 280.054 292.726 280.207C292.985 280.36 293.199 280.592 293.37 280.902C293.54 281.211 293.625 281.626 293.625 282.146V286.458H292.62V285.572H292.569C292.5 285.714 292.387 285.866 292.228 286.028C292.069 286.19 291.857 286.328 291.593 286.441C291.329 286.555 291.006 286.612 290.625 286.612ZM290.779 285.708C291.177 285.708 291.512 285.63 291.785 285.474C292.06 285.318 292.268 285.116 292.407 284.869C292.549 284.622 292.62 284.362 292.62 284.089V283.169C292.577 283.22 292.483 283.267 292.339 283.309C292.196 283.349 292.032 283.385 291.844 283.416C291.66 283.444 291.479 283.47 291.303 283.493C291.13 283.512 290.989 283.53 290.881 283.544C290.62 283.578 290.375 283.633 290.148 283.71C289.924 283.784 289.742 283.896 289.603 284.047C289.466 284.194 289.398 284.396 289.398 284.652C289.398 285.001 289.527 285.265 289.786 285.444C290.047 285.62 290.378 285.708 290.779 285.708ZM283.933 303.913C283.763 303.913 283.611 303.899 283.477 303.87C283.344 303.845 283.251 303.819 283.2 303.794L283.456 302.907C283.7 302.97 283.916 302.993 284.103 302.976C284.291 302.958 284.457 302.875 284.602 302.724C284.75 302.576 284.885 302.336 285.007 302.004L285.194 301.493L282.774 294.913H283.865L285.672 300.129H285.74L287.547 294.913H288.638L285.859 302.413C285.734 302.751 285.579 303.031 285.395 303.253C285.21 303.477 284.996 303.643 284.751 303.751C284.51 303.859 284.237 303.913 283.933 303.913Z" fill="#A1A5B7"/>
<path d="M354.19 277.731H355.247V283.97C355.247 284.527 355.145 285 354.94 285.389C354.736 285.778 354.447 286.074 354.075 286.275C353.703 286.477 353.264 286.578 352.758 286.578C352.281 286.578 351.856 286.491 351.484 286.318C351.112 286.142 350.819 285.892 350.606 285.568C350.393 285.244 350.287 284.859 350.287 284.413H351.326C351.326 284.66 351.388 284.876 351.51 285.061C351.635 285.243 351.805 285.385 352.021 285.487C352.237 285.589 352.483 285.64 352.758 285.64C353.062 285.64 353.321 285.576 353.534 285.449C353.747 285.321 353.909 285.133 354.02 284.886C354.133 284.636 354.19 284.331 354.19 283.97V277.731ZM361.353 283.782V279.913H362.359V286.458H361.353V285.351H361.285C361.132 285.683 360.893 285.966 360.569 286.199C360.245 286.429 359.836 286.544 359.342 286.544C358.933 286.544 358.569 286.454 358.251 286.275C357.933 286.093 357.683 285.821 357.501 285.457C357.319 285.091 357.228 284.629 357.228 284.072V279.913H358.234V284.004C358.234 284.481 358.368 284.862 358.635 285.146C358.905 285.43 359.248 285.572 359.666 285.572C359.916 285.572 360.17 285.508 360.429 285.38C360.69 285.253 360.909 285.057 361.085 284.792C361.264 284.528 361.353 284.191 361.353 283.782ZM354.953 297.521V301.458H353.947V294.913H354.919V295.936H355.004C355.157 295.603 355.39 295.336 355.703 295.135C356.015 294.93 356.419 294.828 356.913 294.828C357.356 294.828 357.744 294.919 358.076 295.101C358.409 295.28 358.667 295.552 358.852 295.919C359.037 296.282 359.129 296.743 359.129 297.299V301.458H358.123V297.368C358.123 296.853 357.99 296.453 357.723 296.166C357.456 295.876 357.089 295.731 356.623 295.731C356.302 295.731 356.015 295.801 355.763 295.94C355.513 296.079 355.315 296.282 355.17 296.549C355.025 296.816 354.953 297.14 354.953 297.521Z" fill="#A1A5B7"/>
<path d="M424.601 277.731H425.657V283.97C425.657 284.527 425.555 285 425.351 285.389C425.146 285.778 424.858 286.074 424.486 286.275C424.113 286.477 423.675 286.578 423.169 286.578C422.692 286.578 422.267 286.491 421.895 286.318C421.523 286.142 421.23 285.892 421.017 285.568C420.804 285.244 420.697 284.859 420.697 284.413H421.737C421.737 284.66 421.798 284.876 421.92 285.061C422.045 285.243 422.216 285.385 422.432 285.487C422.648 285.589 422.893 285.64 423.169 285.64C423.473 285.64 423.731 285.576 423.944 285.449C424.157 285.321 424.319 285.133 424.43 284.886C424.544 284.636 424.601 284.331 424.601 283.97V277.731ZM431.764 283.782V279.913H432.77V286.458H431.764V285.351H431.696C431.542 285.683 431.304 285.966 430.98 286.199C430.656 286.429 430.247 286.544 429.753 286.544C429.344 286.544 428.98 286.454 428.662 286.275C428.344 286.093 428.094 285.821 427.912 285.457C427.73 285.091 427.639 284.629 427.639 284.072V279.913H428.645V284.004C428.645 284.481 428.778 284.862 429.045 285.146C429.315 285.43 429.659 285.572 430.076 285.572C430.326 285.572 430.581 285.508 430.839 285.38C431.101 285.253 431.319 285.057 431.496 284.792C431.675 284.528 431.764 284.191 431.764 283.782ZM427.449 292.731V301.458H426.444V292.731H427.449Z" fill="#A1A5B7"/>
<path d="M39.2656 26.1284H461.732" stroke="#EFF2F5" stroke-dasharray="4 4"/>
<path d="M39.2656 85.4717H461.732" stroke="#EFF2F5" stroke-dasharray="4 4"/>
<path d="M39.2656 144.815H461.732" stroke="#EFF2F5" stroke-dasharray="4 4"/>
<path d="M39.2656 204.158H461.732" stroke="#EFF2F5" stroke-dasharray="4 4"/>
<path d="M39.2656 263.501H461.732" stroke="#EFF2F5" stroke-dasharray="4 4"/>
<path d="M63.9102 263.501V179.836C63.9102 177.588 65.0336 176.464 67.2805 176.464H69.4164C71.6632 176.464 72.7867 177.588 72.7867 179.836V263.501H63.9102Z" fill="#009EF7"/>
<path d="M134.32 263.501V158.077C134.32 155.829 135.444 154.705 137.691 154.705H139.827C142.073 154.705 143.197 155.829 143.197 158.077V263.501H134.32Z" fill="#009EF7"/>
<path d="M204.732 263.501V154.12C204.732 151.873 205.856 150.749 208.103 150.749H210.239C212.486 150.749 213.609 151.873 213.609 154.12V263.501H204.732Z" fill="#009EF7"/>
<path d="M275.143 263.501V156.098C275.143 153.851 276.266 152.727 278.513 152.727H280.649C282.896 152.727 284.019 153.851 284.019 156.098V263.501H275.143Z" fill="#009EF7"/>
<path d="M345.555 263.501V146.208C345.555 143.96 346.678 142.836 348.925 142.836H351.061C353.308 142.836 354.431 143.96 354.431 146.208V263.501H345.555Z" fill="#009EF7"/>
<path d="M415.965 263.501V152.142C415.965 149.895 417.088 148.771 419.335 148.771H421.471C423.718 148.771 424.841 149.895 424.841 152.142V263.501H415.965Z" fill="#009EF7"/>
<path d="M74.4727 263.501V116.536C74.4727 114.289 75.5961 113.165 77.843 113.165H79.9789C82.2257 113.165 83.3492 114.289 83.3492 116.536V263.501H74.4727Z" fill="#E4E6EF"/>
<path d="M144.883 263.501V98.7332C144.883 96.4856 146.006 95.3618 148.253 95.3618H150.389C152.636 95.3618 153.759 96.4856 153.759 98.7332V263.501H144.883Z" fill="#E4E6EF"/>
<path d="M215.295 263.501V67.0838C215.295 64.8362 216.418 63.7124 218.665 63.7124H220.801C223.048 63.7124 224.171 64.8362 224.171 67.0838V263.501H215.295Z" fill="#E4E6EF"/>
<path d="M285.705 263.501V73.0179C285.705 70.7703 286.829 69.6465 289.075 69.6465H291.211C293.458 69.6465 294.582 70.7703 294.582 73.0179V263.501H285.705Z" fill="#E4E6EF"/>
<path d="M356.117 263.501V94.7772C356.117 92.5296 357.241 91.4058 359.487 91.4058H361.623C363.87 91.4058 364.994 92.5296 364.994 94.7772V263.501H356.117Z" fill="#E4E6EF"/>
<path d="M426.527 263.501V59.1712C426.527 56.9236 427.651 55.7998 429.898 55.7998H432.034C434.28 55.7998 435.404 56.9236 435.404 59.1712V263.501H426.527Z" fill="#E4E6EF"/>
<path d="M22.6278 19.6243V28.3516H21.571V20.7322H21.5199L19.3892 22.147V21.0732L21.571 19.6243H22.6278ZM25.1378 28.3516V27.5845L28.0185 24.4311C28.3565 24.0618 28.6349 23.7408 28.8537 23.468C29.0724 23.1925 29.2344 22.9339 29.3395 22.6925C29.4474 22.4482 29.5014 22.1925 29.5014 21.9254C29.5014 21.6186 29.4276 21.353 29.2798 21.1286C29.1349 20.9041 28.9361 20.7308 28.6832 20.6087C28.4304 20.4865 28.1463 20.4254 27.831 20.4254C27.4957 20.4254 27.2031 20.495 26.9531 20.6342C26.706 20.7706 26.5142 20.9624 26.3778 21.2095C26.2443 21.4567 26.1776 21.7464 26.1776 22.0788H25.1719C25.1719 21.5675 25.2898 21.1186 25.5256 20.7322C25.7614 20.3459 26.0824 20.0447 26.4886 19.8288C26.8977 19.6129 27.3565 19.505 27.8651 19.505C28.3764 19.505 28.8295 19.6129 29.2244 19.8288C29.6193 20.0447 29.929 20.3359 30.1534 20.7024C30.3778 21.0689 30.4901 21.4766 30.4901 21.9254C30.4901 22.2464 30.4318 22.5604 30.3153 22.8672C30.2017 23.1712 30.0028 23.5107 29.7188 23.8857C29.4375 24.2578 29.0469 24.7124 28.5469 25.2493L26.5866 27.3459V27.4141H30.6435V28.3516H25.1378ZM35.25 28.4709C34.608 28.4709 34.0611 28.2962 33.6094 27.9467C33.1577 27.5945 32.8125 27.0845 32.5739 26.4169C32.3352 25.7464 32.2159 24.9368 32.2159 23.9879C32.2159 23.0447 32.3352 22.2393 32.5739 21.5717C32.8153 20.9013 33.1619 20.3899 33.6136 20.0376C34.0682 19.6825 34.6136 19.505 35.25 19.505C35.8864 19.505 36.4304 19.6825 36.8821 20.0376C37.3366 20.3899 37.6832 20.9013 37.9219 21.5717C38.1634 22.2393 38.2841 23.0447 38.2841 23.9879C38.2841 24.9368 38.1648 25.7464 37.9261 26.4169C37.6875 27.0845 37.3423 27.5945 36.8906 27.9467C36.4389 28.2962 35.892 28.4709 35.25 28.4709ZM35.25 27.5334C35.8864 27.5334 36.3807 27.2266 36.733 26.6129C37.0852 25.9993 37.2614 25.1243 37.2614 23.9879C37.2614 23.2322 37.1804 22.5888 37.0185 22.0575C36.8594 21.5263 36.6293 21.1214 36.3281 20.843C36.0298 20.5646 35.6705 20.4254 35.25 20.4254C34.6193 20.4254 34.1264 20.7365 33.7713 21.3587C33.4162 21.978 33.2386 22.8544 33.2386 23.9879C33.2386 24.7436 33.3182 25.3857 33.4773 25.9141C33.6364 26.4425 33.8651 26.8445 34.1634 27.12C34.4645 27.3956 34.8267 27.5334 35.25 27.5334Z" fill="#A1A5B7"/>
<path d="M27.6919 78.8482C28.0498 78.8511 28.4078 78.9193 28.7657 79.0528C29.1237 79.1863 29.4504 79.4079 29.7458 79.7176C30.0413 80.0244 30.2785 80.4434 30.4575 80.9747C30.6365 81.5059 30.726 82.1721 30.726 82.9732C30.726 83.7488 30.6521 84.4377 30.5044 85.04C30.3595 85.6394 30.1492 86.1451 29.8737 86.557C29.601 86.969 29.2686 87.2815 28.8765 87.4945C28.4873 87.7076 28.047 87.8141 27.5555 87.8141C27.0669 87.8141 26.6308 87.7176 26.2473 87.5244C25.8666 87.3283 25.5541 87.057 25.3098 86.7104C25.0683 86.361 24.9135 85.9562 24.8453 85.496H25.885C25.9788 85.8965 26.1649 86.2275 26.4433 86.4889C26.7245 86.7474 27.0953 86.8766 27.5555 86.8766C28.2288 86.8766 28.76 86.5826 29.1492 85.9945C29.5413 85.4065 29.7373 84.5755 29.7373 83.5016H29.6691C29.51 83.7403 29.3211 83.9462 29.1024 84.1195C28.8836 84.2928 28.6407 84.4264 28.3737 84.5201C28.1066 84.6139 27.8225 84.6607 27.5214 84.6607C27.0214 84.6607 26.5626 84.5372 26.145 84.29C25.7302 84.04 25.3978 83.6977 25.1478 83.263C24.9007 82.8255 24.7771 82.3255 24.7771 81.763C24.7771 81.2289 24.8964 80.7403 25.135 80.2971C25.3765 79.8511 25.7146 79.496 26.1492 79.2318C26.5867 78.9676 27.101 78.8397 27.6919 78.8482ZM27.6919 79.7857C27.3339 79.7857 27.0115 79.8752 26.7245 80.0542C26.4404 80.2303 26.2146 80.469 26.047 80.7701C25.8822 81.0684 25.7998 81.3994 25.7998 81.763C25.7998 82.1266 25.8794 82.4576 26.0385 82.7559C26.2004 83.0514 26.4206 83.2872 26.699 83.4633C26.9802 83.6366 27.2998 83.7232 27.6578 83.7232C27.9277 83.7232 28.1791 83.6707 28.412 83.5656C28.645 83.4576 28.8481 83.3113 29.0214 83.1266C29.1975 82.9391 29.3353 82.7275 29.4348 82.4917C29.5342 82.2531 29.5839 82.0045 29.5839 81.746C29.5839 81.4051 29.5015 81.0854 29.3367 80.7872C29.1748 80.4889 28.9504 80.2474 28.6635 80.0627C28.3794 79.8781 28.0555 79.7857 27.6919 79.7857ZM35.2483 87.8141C34.6063 87.8141 34.0594 87.6394 33.6077 87.29C33.156 86.9377 32.8108 86.4278 32.5722 85.7602C32.3336 85.0897 32.2142 84.2801 32.2142 83.3312C32.2142 82.388 32.3336 81.5826 32.5722 80.915C32.8137 80.2445 33.1603 79.7332 33.612 79.3809C34.0665 79.0258 34.612 78.8482 35.2483 78.8482C35.8847 78.8482 36.4287 79.0258 36.8804 79.3809C37.335 79.7332 37.6816 80.2445 37.9202 80.915C38.1617 81.5826 38.2824 82.388 38.2824 83.3312C38.2824 84.2801 38.1631 85.0897 37.9245 85.7602C37.6858 86.4278 37.3407 86.9377 36.889 87.29C36.4372 87.6394 35.8904 87.8141 35.2483 87.8141ZM35.2483 86.8766C35.8847 86.8766 36.379 86.5698 36.7313 85.9562C37.0836 85.3426 37.2597 84.4676 37.2597 83.3312C37.2597 82.5755 37.1787 81.932 37.0168 81.4008C36.8577 80.8695 36.6276 80.4647 36.3265 80.1863C36.0282 79.9079 35.6688 79.7687 35.2483 79.7687C34.6176 79.7687 34.1247 80.0798 33.7696 80.7019C33.4145 81.3212 33.237 82.1977 33.237 83.3312C33.237 84.0869 33.3165 84.7289 33.4756 85.2573C33.6347 85.7857 33.8634 86.1877 34.1617 86.4633C34.4628 86.7389 34.825 86.8766 35.2483 86.8766Z" fill="#A1A5B7"/>
<path d="M27.8112 147.157C27.4532 147.152 27.0953 147.084 26.7373 146.953C26.3794 146.822 26.0527 146.602 25.7572 146.292C25.4617 145.98 25.2245 145.558 25.0456 145.027C24.8666 144.493 24.7771 143.822 24.7771 143.015C24.7771 142.243 24.8495 141.558 24.9944 140.961C25.1393 140.362 25.3495 139.858 25.6251 139.449C25.9007 139.037 26.2331 138.724 26.6223 138.511C27.0143 138.298 27.4561 138.191 27.9475 138.191C28.4362 138.191 28.8708 138.29 29.2515 138.486C29.635 138.679 29.9475 138.949 30.189 139.295C30.4305 139.642 30.5867 140.041 30.6578 140.493H29.618C29.5214 140.101 29.3339 139.775 29.0555 139.517C28.7771 139.258 28.4078 139.129 27.9475 139.129C27.2714 139.129 26.7387 139.423 26.3495 140.011C25.9632 140.599 25.7686 141.424 25.7657 142.487H25.8339C25.993 142.245 26.1819 142.04 26.4007 141.869C26.6223 141.696 26.8666 141.562 27.1336 141.468C27.4007 141.375 27.6833 141.328 27.9816 141.328C28.4816 141.328 28.939 141.453 29.3538 141.703C29.7686 141.95 30.101 142.292 30.351 142.73C30.601 143.165 30.726 143.663 30.726 144.226C30.726 144.765 30.6052 145.26 30.3637 145.709C30.1223 146.155 29.7828 146.51 29.3453 146.774C28.9106 147.035 28.3992 147.163 27.8112 147.157ZM27.8112 146.22C28.1691 146.22 28.4902 146.13 28.7742 145.951C29.0612 145.772 29.287 145.532 29.4518 145.231C29.6194 144.93 29.7032 144.595 29.7032 144.226C29.7032 143.865 29.6223 143.537 29.4603 143.241C29.3012 142.943 29.0811 142.706 28.7998 142.53C28.5214 142.353 28.2032 142.265 27.8453 142.265C27.5754 142.265 27.324 142.319 27.091 142.427C26.8581 142.532 26.6535 142.677 26.4774 142.862C26.3041 143.047 26.1677 143.258 26.0683 143.497C25.9689 143.733 25.9191 143.981 25.9191 144.243C25.9191 144.589 26.0001 144.913 26.162 145.214C26.3268 145.515 26.5512 145.758 26.8353 145.943C27.1223 146.128 27.4475 146.22 27.8112 146.22ZM35.2483 147.157C34.6063 147.157 34.0594 146.983 33.6077 146.633C33.156 146.281 32.8108 145.771 32.5722 145.103C32.3336 144.433 32.2142 143.623 32.2142 142.674C32.2142 141.731 32.3336 140.926 32.5722 140.258C32.8137 139.588 33.1603 139.076 33.612 138.724C34.0665 138.369 34.612 138.191 35.2483 138.191C35.8847 138.191 36.4287 138.369 36.8804 138.724C37.335 139.076 37.6816 139.588 37.9202 140.258C38.1617 140.926 38.2824 141.731 38.2824 142.674C38.2824 143.623 38.1631 144.433 37.9245 145.103C37.6858 145.771 37.3407 146.281 36.889 146.633C36.4372 146.983 35.8904 147.157 35.2483 147.157ZM35.2483 146.22C35.8847 146.22 36.379 145.913 36.7313 145.299C37.0836 144.686 37.2597 143.811 37.2597 142.674C37.2597 141.919 37.1787 141.275 37.0168 140.744C36.8577 140.213 36.6276 139.808 36.3265 139.53C36.0282 139.251 35.6688 139.112 35.2483 139.112C34.6176 139.112 34.1247 139.423 33.7696 140.045C33.4145 140.665 33.237 141.541 33.237 142.674C33.237 143.43 33.3165 144.072 33.4756 144.601C33.6347 145.129 33.8634 145.531 34.1617 145.807C34.4628 146.082 34.825 146.22 35.2483 146.22Z" fill="#A1A5B7"/>
<path d="M27.7116 206.501C27.1491 206.501 26.6476 206.404 26.2073 206.211C25.7698 206.018 25.4218 205.749 25.1633 205.405C24.9076 205.059 24.7684 204.657 24.7456 204.2H25.8195C25.8422 204.481 25.9388 204.724 26.1093 204.928C26.2797 205.13 26.5027 205.286 26.7783 205.397C27.0539 205.508 27.3593 205.563 27.6945 205.563C28.0695 205.563 28.4019 205.498 28.6917 205.367C28.9814 205.236 29.2087 205.055 29.3735 204.822C29.5383 204.589 29.6206 204.319 29.6206 204.012C29.6206 203.691 29.5411 203.408 29.382 203.164C29.2229 202.917 28.99 202.724 28.6831 202.584C28.3763 202.445 28.0013 202.376 27.5581 202.376H26.8593V201.438H27.5581C27.9047 201.438 28.2087 201.376 28.4701 201.251C28.7343 201.126 28.9402 200.95 29.088 200.722C29.2385 200.495 29.3138 200.228 29.3138 199.921C29.3138 199.626 29.2485 199.369 29.1178 199.15C28.9871 198.931 28.8025 198.761 28.5638 198.638C28.328 198.516 28.0496 198.455 27.7286 198.455C27.4275 198.455 27.1434 198.511 26.8763 198.621C26.6121 198.729 26.3962 198.887 26.2286 199.094C26.061 199.299 25.9701 199.546 25.9559 199.836H24.9331C24.9502 199.379 25.088 198.978 25.3465 198.634C25.605 198.288 25.9431 198.018 26.3607 197.825C26.7812 197.631 27.2428 197.535 27.7456 197.535C28.2854 197.535 28.7485 197.644 29.1348 197.863C29.5212 198.079 29.8181 198.364 30.0255 198.719C30.2329 199.075 30.3366 199.458 30.3366 199.87C30.3366 200.361 30.2073 200.78 29.9488 201.127C29.6931 201.474 29.3451 201.714 28.9047 201.847V201.915C29.4559 202.006 29.8863 202.241 30.1959 202.619C30.5056 202.994 30.6604 203.458 30.6604 204.012C30.6604 204.486 30.5312 204.913 30.2726 205.29C30.017 205.665 29.6675 205.961 29.2243 206.177C28.7812 206.393 28.2769 206.501 27.7116 206.501ZM35.2499 206.501C34.6079 206.501 34.061 206.326 33.6093 205.977C33.1576 205.624 32.8124 205.114 32.5738 204.447C32.3351 203.776 32.2158 202.967 32.2158 202.018C32.2158 201.075 32.3351 200.269 32.5738 199.602C32.8152 198.931 33.1618 198.42 33.6135 198.067C34.0681 197.712 34.6135 197.535 35.2499 197.535C35.8863 197.535 36.4303 197.712 36.882 198.067C37.3366 198.42 37.6831 198.931 37.9218 199.602C38.1633 200.269 38.284 201.075 38.284 202.018C38.284 202.967 38.1647 203.776 37.926 204.447C37.6874 205.114 37.3422 205.624 36.8905 205.977C36.4388 206.326 35.892 206.501 35.2499 206.501ZM35.2499 205.563C35.8863 205.563 36.3806 205.256 36.7329 204.643C37.0851 204.029 37.2613 203.154 37.2613 202.018C37.2613 201.262 37.1803 200.619 37.0184 200.087C36.8593 199.556 36.6292 199.151 36.328 198.873C36.0297 198.594 35.6704 198.455 35.2499 198.455C34.6192 198.455 34.1263 198.766 33.7712 199.388C33.4161 200.008 33.2385 200.884 33.2385 202.018C33.2385 202.773 33.3181 203.415 33.4772 203.944C33.6363 204.472 33.865 204.874 34.1633 205.15C34.4644 205.425 34.8266 205.563 35.2499 205.563Z" fill="#A1A5B7"/>
<path d="M35.249 265.844C34.6069 265.844 34.0601 265.669 33.6084 265.32C33.1566 264.968 32.8115 264.458 32.5728 263.79C32.3342 263.119 32.2149 262.31 32.2149 261.361C32.2149 260.418 32.3342 259.612 32.5728 258.945C32.8143 258.274 33.1609 257.763 33.6126 257.411C34.0672 257.056 34.6126 256.878 35.249 256.878C35.8853 256.878 36.4294 257.056 36.8811 257.411C37.3356 257.763 37.6822 258.274 37.9209 258.945C38.1623 259.612 38.2831 260.418 38.2831 261.361C38.2831 262.31 38.1637 263.119 37.9251 263.79C37.6865 264.458 37.3413 264.968 36.8896 265.32C36.4379 265.669 35.891 265.844 35.249 265.844ZM35.249 264.906C35.8853 264.906 36.3797 264.6 36.7319 263.986C37.0842 263.372 37.2603 262.497 37.2603 261.361C37.2603 260.605 37.1794 259.962 37.0174 259.431C36.8584 258.899 36.6282 258.494 36.3271 258.216C36.0288 257.938 35.6694 257.798 35.249 257.798C34.6183 257.798 34.1254 258.11 33.7703 258.732C33.4152 259.351 33.2376 260.227 33.2376 261.361C33.2376 262.117 33.3172 262.759 33.4762 263.287C33.6353 263.816 33.864 264.218 34.1623 264.493C34.4635 264.769 34.8257 264.906 35.249 264.906Z" fill="#A1A5B7"/>
</g>
<defs>
<clipPath id="clip0_1528_1632">
<rect width="471" height="295" fill="white"/>
</clipPath>
</defs>
</svg>
