<svg width="22" height="22" viewBox="0 0 22 22" fill="none" xmlns="http://www.w3.org/2000/svg">
<path d="M7.69987 18.7982C6.69154 18.7982 5.86654 17.9732 5.86654 16.9648C5.86654 15.9565 6.69154 15.1315 7.69987 15.1315H9.07487C10.8165 15.1315 12.2832 13.6648 12.2832 11.9232C12.2832 10.1815 10.8165 8.71484 9.07487 8.71484H7.42487L6.04987 10.2732C5.9582 10.3648 5.77487 10.4565 5.59154 10.5482C5.6832 10.5482 5.6832 10.5482 5.77487 10.5482H8.9832C9.71653 10.5482 10.3582 11.1898 10.3582 11.9232C10.3582 12.6565 9.71653 13.2982 8.9832 13.2982H7.69987C5.6832 13.2982 4.0332 14.9482 4.0332 16.9648C4.0332 18.9815 5.6832 20.6315 7.69987 20.6315H14.1165V18.7982H7.69987Z" fill="#E6DCFC"/>
<path d="M8.15863 7.98186L6.14196 10.2735C5.7753 10.6402 5.13363 10.6402 4.76696 10.2735L2.7503 7.98186C2.01696 7.15686 1.65029 5.96521 1.92529 4.68187C2.20029 3.30687 3.30029 2.20687 4.67529 1.93187C7.05862 1.38187 9.16696 3.21522 9.16696 5.50689C9.0753 6.42356 8.70863 7.34019 8.15863 7.98186Z" fill="#AD8BF5"/>
<path d="M5.4082 6.88184C6.1676 6.88184 6.7832 6.26623 6.7832 5.50684C6.7832 4.74745 6.1676 4.13184 5.4082 4.13184C4.64882 4.13184 4.0332 4.74745 4.0332 5.50684C4.0332 6.26623 4.64882 6.88184 5.4082 6.88184Z" fill="#E6DCFC"/>
<path d="M15.9505 20.6315H14.1172V12.3815C14.1172 11.8315 14.4839 11.4648 15.0339 11.4648C15.5839 11.4648 15.9505 11.8315 15.9505 12.3815V20.6315Z" fill="#AD8BF5"/>
<path d="M19.6172 16.9652H14.1172V12.3818H19.6172C20.3505 12.3818 20.7172 13.2068 20.2589 13.7568L19.5255 14.6735L20.2589 15.5902C20.8089 16.1402 20.3505 16.9652 19.6172 16.9652Z" fill="#AD8BF5"/>
</svg>
