<svg width="17" height="16" viewBox="0 0 17 16" fill="none" xmlns="http://www.w3.org/2000/svg">
<path d="M6.40039 4.7998V9.5998L10.1604 11.9198L10.8004 10.9598L7.60039 9.0398V4.7998H6.40039Z" fill="black"/>
<path d="M12.736 8.0001C12.776 8.2641 12.8 8.5281 12.8 8.8001C12.8 11.9201 10.32 14.4001 7.2 14.4001C4.08 14.4001 1.6 11.9201 1.6 8.8001C1.6 5.6801 4.08 3.2001 7.2 3.2001C7.76 3.2001 8.296 3.2801 8.8 3.4321V1.7841C8.288 1.6641 7.752 1.6001 7.2 1.6001C3.2 1.6001 0 4.8001 0 8.8001C0 12.8001 3.2 16.0001 7.2 16.0001C11.2 16.0001 14.4 12.8001 14.4 8.8001C14.4 8.5281 14.384 8.2641 14.352 8.0001H12.736Z" fill="black"/>
<path d="M14.4004 2.4V0H12.8004V2.4H10.4004V4H12.8004V6.4H14.4004V4H16.8004V2.4H14.4004Z" fill="black"/>
</svg>
