<svg xmlns="http://www.w3.org/2000/svg" xmlns:xlink="http://www.w3.org/1999/xlink" width="777.63" height="546.714" viewBox="0 0 777.63 546.714">
  <defs>
    <clipPath id="clip-path">
      <rect id="Rectangle_1142" data-name="Rectangle 1142" width="30.396" height="23.573" fill="none"/>
    </clipPath>
    <clipPath id="clip-path-2">
      <rect id="Rectangle_1143" data-name="Rectangle 1143" width="18.548" height="23.565" fill="none"/>
    </clipPath>
    <clipPath id="clip-path-3">
      <rect id="Rectangle_1144" data-name="Rectangle 1144" width="27.649" height="5.468" fill="none"/>
    </clipPath>
    <clipPath id="clip-path-4">
      <rect id="Rectangle_1147" data-name="Rectangle 1147" width="31.928" height="11.82" fill="none"/>
    </clipPath>
    <clipPath id="clip-path-5">
      <rect id="Rectangle_1149" data-name="Rectangle 1149" width="15.967" height="18.401" fill="none"/>
    </clipPath>
    <clipPath id="clip-path-6">
      <rect id="Rectangle_1152" data-name="Rectangle 1152" width="38.731" height="3.711" fill="none"/>
    </clipPath>
    <clipPath id="clip-path-7">
      <rect id="Rectangle_1154" data-name="Rectangle 1154" width="19.367" height="10.29" fill="none"/>
    </clipPath>
    <clipPath id="clip-path-8">
      <path id="Path_23531" data-name="Path 23531" d="M357.089,124.712a16.882,16.882,0,1,0,4.86-.716,16.9,16.9,0,0,0-4.86.716" transform="translate(-345.036 -123.996)" fill="none"/>
    </clipPath>
    <clipPath id="clip-path-9">
      <rect id="Rectangle_1157" data-name="Rectangle 1157" width="40.959" height="47.189" fill="none"/>
    </clipPath>
    <clipPath id="clip-path-10">
      <rect id="Rectangle_1159" data-name="Rectangle 1159" width="38.261" height="44.935" fill="none"/>
    </clipPath>
    <clipPath id="clip-path-11">
      <rect id="Rectangle_1161" data-name="Rectangle 1161" width="37.257" height="44.096" fill="none"/>
    </clipPath>
  </defs>
  <g id="Group_22242" data-name="Group 22242" transform="translate(-991.371 -206.214)">
    <g id="Group_22108" data-name="Group 22108" transform="translate(1044.658 299)">
      <path id="Path_23384" data-name="Path 23384" d="M200.9,168.591l-4.287-2.742c7.045-11.015,7.042-21.009-.006-28.9-11.713-13.119-35.5-2.75-35.735-2.643l-2.075-4.647a59.107,59.107,0,0,1,15.133-4.076c11.373-1.443,20.526,1.316,26.474,7.977,8.6,9.636,8.781,22.078.5,35.032" transform="translate(65.162 51.38)" fill="#453b73"/>
      <path id="Path_23394" data-name="Path 23394" d="M222.316,76.994a1.722,1.722,0,1,0,1.441-1.368,1.724,1.724,0,0,0-1.441,1.368" transform="translate(91.215 31.026)" fill="#453b73"/>
      <path id="Path_23401" data-name="Path 23401" d="M189.829,58.371a9.351,9.351,0,1,1,2.75-12.936,9.361,9.361,0,0,1-2.75,12.936m-8.042-12.384a5.415,5.415,0,1,0,7.49,1.592,5.422,5.422,0,0,0-7.49-1.592" transform="translate(71.971 16.898)" fill="#453b73"/>
      <path id="Path_23404" data-name="Path 23404" d="M189.367,160.485H138.328v-21.9a25.52,25.52,0,0,1,51.039,0Z" transform="translate(116.763 46.398)" fill="#453b73"/>
      <path id="Path_23405" data-name="Path 23405" d="M152.4,125.509a11.607,11.607,0,1,0,16.373,1.165,11.607,11.607,0,0,0-16.373-1.165m12.152,14.013a6.942,6.942,0,1,1,.7-9.792,6.942,6.942,0,0,1-.7,9.792" transform="translate(60.894 50.338)" fill="#48c6c6"/>
      <rect id="Rectangle_1120" data-name="Rectangle 1120" width="65.253" height="19.172" transform="translate(189.289 204.309)" fill="#453b73"/>
      <path id="Path_23406" data-name="Path 23406" d="M230.232,163.827H114.267a13.972,13.972,0,0,0-.093,1.622v55.662H230.323V165.449a14.3,14.3,0,0,0-.092-1.622" transform="translate(46.852 67.227)" fill="#488ec6"/>
      <path id="Path_23407" data-name="Path 23407" d="M204.882,151.407H139.5c-13.988,3.8-24.224,10.345-25.293,19.632H230.175c-1.068-9.287-11.3-15.831-25.293-19.632" transform="translate(46.865 62.13)" fill="#488ec6"/>
      <rect id="Rectangle_1121" data-name="Rectangle 1121" width="122.273" height="16.938" transform="translate(158.354 271.404)" fill="#453b73"/>
      <path id="Path_23408" data-name="Path 23408" d="M148.392,177.058h0a3.124,3.124,0,1,1,3.124-3.124,3.124,3.124,0,0,1-3.124,3.124" transform="translate(59.611 70.092)" fill="#453b73"/>
      <path id="Path_23409" data-name="Path 23409" d="M155.9,177.058h0a3.124,3.124,0,1,1,3.124-3.124,3.124,3.124,0,0,1-3.124,3.124" transform="translate(62.691 70.092)" fill="#453b73"/>
      <path id="Path_23410" data-name="Path 23410" d="M163.408,177.058h0a3.124,3.124,0,1,1,3.124-3.124,3.123,3.123,0,0,1-3.124,3.124" transform="translate(65.773 70.092)" fill="#453b73"/>
      <path id="Path_23411" data-name="Path 23411" d="M170.917,177.058h0a3.124,3.124,0,1,1,3.124-3.124,3.124,3.124,0,0,1-3.124,3.124" transform="translate(68.854 70.092)" fill="#453b73"/>
      <path id="Path_23412" data-name="Path 23412" d="M142.126,195.526H123.394v-17.2h18.732Zm-18.442-.289h18.153V178.615H123.685Z" transform="translate(50.635 73.175)" fill="#453b73"/>
      <path id="Path_23413" data-name="Path 23413" d="M127.846,160.39c1.905-2.74,4.76-4.672,7.59-6.372h-1.375c-2.835,1.7-5.687,3.632-7.593,6.372Z" transform="translate(51.896 63.201)" fill="#453b73"/>
      <path id="Path_23414" data-name="Path 23414" d="M130.167,160.39c1.9-2.74,4.754-4.671,7.583-6.372h-1.375c-2.831,1.7-5.684,3.632-7.586,6.372Z" transform="translate(52.849 63.201)" fill="#453b73"/>
      <path id="Path_23415" data-name="Path 23415" d="M132.488,160.39c1.9-2.74,4.75-4.671,7.575-6.372h-1.375c-2.826,1.7-5.681,3.632-7.578,6.372Z" transform="translate(53.801 63.201)" fill="#453b73"/>
      <path id="Path_23416" data-name="Path 23416" d="M134.809,160.39c1.891-2.74,4.746-4.671,7.568-6.372H141c-2.824,1.7-5.678,3.632-7.571,6.372Z" transform="translate(54.754 63.201)" fill="#453b73"/>
      <path id="Path_23417" data-name="Path 23417" d="M137.131,160.39c1.887-2.74,4.742-4.671,7.559-6.372h-1.375c-2.819,1.7-5.674,3.632-7.562,6.372Z" transform="translate(55.706 63.201)" fill="#453b73"/>
      <path id="Path_23418" data-name="Path 23418" d="M139.452,160.39c1.883-2.74,4.737-4.671,7.551-6.372h-1.375c-2.815,1.7-5.67,3.632-7.554,6.372Z" transform="translate(56.659 63.201)" fill="#453b73"/>
      <path id="Path_23419" data-name="Path 23419" d="M141.773,160.39c1.879-2.74,4.733-4.671,7.544-6.372h-1.375c-2.812,1.7-5.668,3.632-7.547,6.372Z" transform="translate(57.611 63.201)" fill="#453b73"/>
      <g id="Group_22221" data-name="Group 22221" transform="translate(60.381 18.521)">
        <path id="Path_23388" data-name="Path 23388" d="M230.468,108.137l3.172-.121L238.2,83.726l-8.652.329Z" transform="translate(134.197 -35.643)" fill="#453b73"/>
        <g id="Group_22220" data-name="Group 22220" transform="translate(-38.428 -103.586)">
          <path id="Path_23395" data-name="Path 23395" d="M230.224,84.757a2.735,2.735,0,1,0,2.289-2.172,2.738,2.738,0,0,0-2.289,2.172" transform="translate(164.217 61.228)" fill="#453b73"/>
          <g id="Group_22219" data-name="Group 22219" transform="translate(118.707 -7.721)">
            <path id="Path_23383" data-name="Path 23383" d="M191.511,196.939l-1.518-1.234c13.343-16.4,18.777-30.088,16.612-41.828-2.95-15.983-19.758-25.673-34.587-34.222-8.323-4.8-16.187-9.334-20.627-14.475-3.332-3.859-4.714-8.037-4.1-12.421,1.38-9.944,12.469-17.35,12.94-17.66l1.076,1.633c-.108.072-10.825,7.239-12.078,16.3-.527,3.8.7,7.456,3.649,10.866,4.224,4.892,11.946,9.345,20.124,14.059,15.2,8.762,32.419,18.692,35.532,35.563,2.276,12.339-3.291,26.541-17.018,43.418" transform="translate(-48.496 61.348)" fill="#453b73"/>
            <path id="Path_23385" data-name="Path 23385" d="M117.893,124.825a87.336,87.336,0,0,1-7.31-27.615c-1.777-20.532,5.644-36.556,21.458-46.34,11.551-7.146,24.265-9.215,36.769-5.985,14.423,3.727,25.92,13.981,29.151,19.738l-6.827,3.829c-2.154-3.837-11.779-12.76-24.28-15.987-10.534-2.722-20.862-1.02-30.7,5.063-13.321,8.241-19.3,21.365-17.775,39.008a80.016,80.016,0,0,0,6.56,24.883Z" transform="translate(-91.551 24.288)" fill="#453b73"/>
            <rect id="Rectangle_1115" data-name="Rectangle 1115" width="21.786" height="5.98" transform="translate(92.066 93.682) rotate(-29.999)" fill="#453b73"/>
            <rect id="Rectangle_1116" data-name="Rectangle 1116" width="12.879" height="59.676" transform="translate(241.748 69.144)" fill="#453b73"/>
            <path id="Path_23386" data-name="Path 23386" d="M230.181,63.195l-15.1-.011A11.908,11.908,0,0,0,210.7,72.44l.022,10.92,23.857-.028-.022-10.92a11.9,11.9,0,0,0-4.373-9.217" transform="translate(25.811 47.418)" fill="#488ec6"/>
            <rect id="Rectangle_1117" data-name="Rectangle 1117" width="28.198" height="3.421" transform="translate(234.437 130.738)" fill="#453b73"/>
            <path id="Path_23387" data-name="Path 23387" d="M217.043,120.924l-4.831.707L198.5,86.174l13.176-1.926Z" transform="translate(11.553 72.047)" fill="#453b73"/>
            <path id="Path_23389" data-name="Path 23389" d="M241.883,86.75,213.5,86.73a6.288,6.288,0,0,1,.009-12.575l28.387.02a6.288,6.288,0,1,1-.009,12.575" transform="translate(21.738 60.246)" fill="#488ec6"/>
            <path id="Path_23390" data-name="Path 23390" d="M227.378,76.047a5.392,5.392,0,0,0-7.508-.453L201.308,91.609a8.965,8.965,0,1,0,13.337,11.681l13.285-20.7a5.393,5.393,0,0,0-.551-6.542" transform="translate(11.116 60.398)" fill="#488ec6"/>
            <path id="Path_23391" data-name="Path 23391" d="M201.583,85.02a3.447,3.447,0,1,0,3.824-1.093,3.451,3.451,0,0,0-3.824,1.093" transform="translate(14.266 71.444)" fill="#453b73"/>
            <path id="Path_23392" data-name="Path 23392" d="M208.982,76.745a2.648,2.648,0,1,0,2.939-.84,2.652,2.652,0,0,0-2.939.84" transform="translate(23.123 62.118)" fill="#453b73"/>
            <path id="Path_23393" data-name="Path 23393" d="M221.828,76.469a5.388,5.388,0,0,1,7.382-1.438l20.515,13.423A8.965,8.965,0,1,1,238.045,101.8l-15.9-18.768a5.394,5.394,0,0,1-.317-6.558" transform="translate(37.702 60.24)" fill="#488ec6"/>
            <rect id="Rectangle_1118" data-name="Rectangle 1118" width="47.459" height="15.269" transform="translate(203.184 66)" fill="#453b73"/>
            <path id="Path_23396" data-name="Path 23396" d="M223.579,71.865H192.834a16.714,16.714,0,1,1,0-33.428h30.745Z" transform="translate(-14.618 18.482)" fill="#488ec6"/>
            <path id="Path_23397" data-name="Path 23397" d="M228.037,71.865H206.368V38.437h21.669a16.714,16.714,0,0,1,0,33.428" transform="translate(20.749 18.482)" fill="#488ec6"/>
            <path id="Path_23398" data-name="Path 23398" d="M224.757,58.946a8.808,8.808,0,1,1,4.718-11.527,8.819,8.819,0,0,1-4.718,11.527M219.38,46.119a5.1,5.1,0,1,0,6.675,2.731,5.1,5.1,0,0,0-6.675-2.731" transform="translate(27.97 22.666)" fill="#453b73"/>
            <rect id="Rectangle_1119" data-name="Rectangle 1119" width="10.194" height="48.829" transform="translate(81.745 108.272) rotate(-32.865)" fill="#453b73"/>
            <path id="Path_23399" data-name="Path 23399" d="M117.871,123.761h0a13.309,13.309,0,0,1,3.994-18.393L190.344,61.28l14.4,22.385-68.479,44.09a13.309,13.309,0,0,1-18.393-3.994" transform="translate(-85.202 45.192)" fill="#453b73"/>
            <path id="Path_23400" data-name="Path 23400" d="M170.432,132.749,227.8,90.264l16.714-12.378a22.419,22.419,0,0,0-24.374-37.535l-80.1,45.359Z" transform="translate(-56.802 17.325)" fill="#488ec6"/>
            <path id="Path_23402" data-name="Path 23402" d="M244.121,228.019h0a43.2,43.2,0,0,1-60.939-4.336l-70.95-81.818a43.2,43.2,0,1,1,65.275-56.6l70.95,81.818a43.2,43.2,0,0,1-4.336,60.939" transform="translate(-101.669 55.811)" fill="#488ec6"/>
            <path id="Path_23403" data-name="Path 23403" d="M118.175,84.469a22.744,22.744,0,1,0,32.085,2.284,22.747,22.747,0,0,0-32.085-2.284m23.812,27.461a13.6,13.6,0,1,1,1.364-19.187,13.6,13.6,0,0,1-1.364,19.187" transform="translate(-91.54 65.804)" fill="#453b73"/>
            <path id="Path_23420" data-name="Path 23420" d="M224.44,39.088a7.314,7.314,0,0,1-10.248-.475,7.116,7.116,0,0,1,.469-10.133,7.314,7.314,0,0,1,10.25.477,7.115,7.115,0,0,1-.471,10.13" transform="translate(27.681 4.656)" fill="#488ec6"/>
            <path id="Path_23421" data-name="Path 23421" d="M260.074,27.65l0,0a2.278,2.278,0,0,0-.013-3.215,41.432,41.432,0,0,0-57.411-1.328,2.28,2.28,0,0,0-.154,3.215,2.353,2.353,0,0,0,3.293.217,37.16,37.16,0,0,1,50.986,1.18,2.345,2.345,0,0,0,3.3-.067" transform="translate(15.535 -12.198)" fill="#488ec6"/>
            <path id="Path_23422" data-name="Path 23422" d="M249.851,29.209l.011-.011a2.3,2.3,0,0,0-.074-3.28,32.562,32.562,0,0,0-44.107-1.03,2.3,2.3,0,0,0-.219,3.276l.011.011a2.346,2.346,0,0,0,3.25.241,28.291,28.291,0,0,1,37.869.885,2.343,2.343,0,0,0,3.26-.091" transform="translate(19.007 -6.835)" fill="#488ec6"/>
            <path id="Path_23423" data-name="Path 23423" d="M239.942,30.729l.022-.022a2.285,2.285,0,0,0-.106-3.306,23.977,23.977,0,0,0-31.263-.744,2.283,2.283,0,0,0-.252,3.3l.02.022a2.353,2.353,0,0,0,3.2.275,19.715,19.715,0,0,1,25.161.6,2.355,2.355,0,0,0,3.217-.128" transform="translate(22.369 -1.643)" fill="#488ec6"/>
          </g>
        </g>
      </g>
      <path id="Path_23424" data-name="Path 23424" d="M62.257,419.929c-11.791-10.549-78.3-68.255-58.651-151.687,15.425-65.5,85.071-98.387,174.333-104.947,80.071-5.885,99.342-53.627,178.912-81.535C421.915,58.94,487.467,89.8,514.465,112.121c35.664,29.495,46.124,50,161.1,97.035,104.623,42.8,10.184,195.768-1.7,210.773Z" transform="translate(0 30.258)" fill="#3864c7"/>
      <path id="Path_23425" data-name="Path 23425" d="M355.264,337.022a7.832,7.832,0,0,0-5.273-.35,6.988,6.988,0,0,0-3.383-3.01,9.692,9.692,0,0,0-7.633-.048,10.913,10.913,0,0,0-5.78-5.562,15.354,15.354,0,0,0-10.053-.764,10.443,10.443,0,0,0-6.194-6.868,15.47,15.47,0,0,0-9.657-.9c-.732-3.4-3.31-6.519-7.382-8.341-7.174-3.213-16.264-1.189-20.3,4.522-.024.035-.045.07-.07.106a17.152,17.152,0,0,0-3.207-1.866,20.285,20.285,0,0,0-19.054,1.439,9.4,9.4,0,0,0-5.1-5.029,13.352,13.352,0,0,0-7.084-1.014c-.106-3.218-2.273-6.313-6.055-8.005a14.522,14.522,0,0,0-12.308.314c-.568-4.24-3.613-8.2-8.636-10.453a20.679,20.679,0,0,0-9.191-1.738c-1.017-3.657-3.905-6.967-8.33-8.949a21.055,21.055,0,0,0-14.414-.884c-.838-3.575-3.585-6.842-7.88-8.765-7.105-3.18-15.95-1.568-20.677,3.516a10.445,10.445,0,0,0-3.264-.523c-4.812,0-8.712,3.158-8.712,7.052a6.032,6.032,0,0,0,1.252,3.592,14.594,14.594,0,0,0-4.96,1.272c-4.709,2.2-7.083,6.507-6.379,10.695a14.828,14.828,0,0,0-6.7,1.355c-5.632,2.629-7.926,8.276-5.6,13.125a12.662,12.662,0,0,0-6.228,1.124,9.475,9.475,0,0,0-5.089,5.318c-.032-.048-.061-.1-.094-.145-2.211-3.262-7.193-4.419-11.123-2.582a7.915,7.915,0,0,0-2.323,1.621,12.82,12.82,0,0,0-12.964-1.3,9.147,9.147,0,0,0-5.595,7.362,7.731,7.731,0,0,0-6.531-.049c-2.543,1.187-3.761,3.572-3.211,5.823a10.645,10.645,0,0,0-10.6-2.508,13.633,13.633,0,0,0-10.105-4.186c-5.34,0-9.9,2.747-11.757,6.63a10.97,10.97,0,0,0-5.565.959,8.085,8.085,0,0,0-4.557,5.076,6.935,6.935,0,0,0-5.9-.066,5.49,5.49,0,0,0-2.162,1.753,6.949,6.949,0,0,0-5.1.264,5.106,5.106,0,0,0-2.8,3,6.875,6.875,0,0,0-3.654.58,5.092,5.092,0,0,0-2.811,3.042H358.322c.669-2.156-.506-4.486-3.058-5.63" transform="translate(2.079 110.473)" fill="#becde8"/>
      <path id="Path_23426" data-name="Path 23426" d="M88.067,254.522H80.58a.993.993,0,0,1,0-1.986h7.488a.993.993,0,0,1,0,1.986m7.368-1.062a.993.993,0,0,1-.336-1.927,17.33,17.33,0,0,0,6-3.675.993.993,0,1,1,1.355,1.451,19.292,19.292,0,0,1-6.682,4.091.969.969,0,0,1-.336.059m10.681-9.926a.992.992,0,0,1-.9-1.4,18.342,18.342,0,0,0,1.642-6.867,1.048,1.048,0,0,1,1.034-.949.994.994,0,0,1,.949,1.035,20.331,20.331,0,0,1-1.817,7.6.993.993,0,0,1-.9.581m1.747-14.725a.994.994,0,0,1-.993-.993v-7.49a.993.993,0,1,1,1.986,0v7.49a.993.993,0,0,1-.993.993m0-14.978a.994.994,0,0,1-.993-.993v-7.49a.993.993,0,0,1,1.986,0v7.49a.993.993,0,0,1-.993.993m0-14.978a.994.994,0,0,1-.993-.993v-7.49a.993.993,0,0,1,1.986,0v7.49a.993.993,0,0,1-.993.993m0-14.978a.994.994,0,0,1-.993-.993v-7.489a.993.993,0,0,1,1.986,0v7.489a.993.993,0,0,1-.993.993m0-14.978a1,1,0,0,1-.993-.994v-7.488a.993.993,0,0,1,1.986,0V167.9a.994.994,0,0,1-.993.994m.052-14.978-.071,0a.994.994,0,0,1-.921-1.061,20.342,20.342,0,0,1,2.032-7.551.992.992,0,1,1,1.781.873A18.377,18.377,0,0,0,108.905,153a.994.994,0,0,1-.99.922m6.445-13.1a.992.992,0,0,1-.656-1.738,19.279,19.279,0,0,1,6.8-3.893.992.992,0,0,1,.615,1.887,17.308,17.308,0,0,0-6.105,3.5,1,1,0,0,1-.656.247m257.689-4.575h-4.193a.993.993,0,0,1,0-1.986h4.193a17.082,17.082,0,0,0,3.1-.281.993.993,0,0,1,.358,1.953,19.236,19.236,0,0,1-3.455.313m-11.683,0h-7.488a.993.993,0,0,1,0-1.986h7.488a.993.993,0,1,1,0,1.986m-14.978,0H337.9a.993.993,0,0,1,0-1.986h7.488a.993.993,0,1,1,0,1.986m-14.978,0h-7.488a.993.993,0,0,1,0-1.986h7.488a.993.993,0,0,1,0,1.986m-14.978,0h-7.488a.993.993,0,1,1,0-1.986h7.488a.993.993,0,0,1,0,1.986m-14.978,0h-7.489a.993.993,0,1,1,0-1.986h7.489a.993.993,0,0,1,0,1.986m-14.978,0h-7.489a.993.993,0,0,1,0-1.986h7.489a.993.993,0,0,1,0,1.986m-14.978,0H263.01a.993.993,0,0,1,0-1.986H270.5a.993.993,0,1,1,0,1.986m-14.978,0h-7.489a.993.993,0,0,1,0-1.986h7.489a.993.993,0,0,1,0,1.986m-14.978,0h-7.489a.993.993,0,0,1,0-1.986h7.489a.993.993,0,0,1,0,1.986m-14.979,0h-7.488a.993.993,0,0,1,0-1.986h7.488a.993.993,0,1,1,0,1.986m-14.978,0H203.1a.993.993,0,1,1,0-1.986h7.488a.993.993,0,1,1,0,1.986m-14.976,0h-7.489a.993.993,0,1,1,0-1.986h7.489a.993.993,0,0,1,0,1.986m-14.978,0h-7.49a.993.993,0,0,1,0-1.986h7.49a.993.993,0,1,1,0,1.986m-14.978,0h-7.49a.993.993,0,0,1,0-1.986h7.49a.993.993,0,0,1,0,1.986m-14.978,0h-7.49a.993.993,0,1,1,0-1.986h7.49a.993.993,0,0,1,0,1.986m-14.978,0h-7.49a.993.993,0,0,1,0-1.986h7.49a.993.993,0,0,1,0,1.986m246.51-3.114a.993.993,0,0,1-.557-1.815,17.79,17.79,0,0,0,4.946-5.022.992.992,0,0,1,1.659,1.089,19.771,19.771,0,0,1-5.495,5.578.977.977,0,0,1-.553.171m8.025-12.19a1,1,0,0,1-.975-1.183,18.9,18.9,0,0,0,.344-3.594V112.48a.993.993,0,1,1,1.986,0v3.682a20.906,20.906,0,0,1-.382,3.973.994.994,0,0,1-.973.8m.362-14.954a.993.993,0,0,1-.993-.993V97.5a.993.993,0,1,1,1.986,0v7.489a.993.993,0,0,1-.993.993" transform="translate(32.658 39.603)" fill="#f76c59"/>
      <path id="Path_23427" data-name="Path 23427" d="M121.6,150.652H106.754l7.425-13.693Z" transform="translate(43.807 56.201)" fill="#f76c59"/>
      <rect id="Rectangle_1122" data-name="Rectangle 1122" width="5.294" height="30.066" transform="translate(155.339 205.477)" fill="#f76c59"/>
      <path id="Path_23428" data-name="Path 23428" d="M365.166,107.1H263.794a26.331,26.331,0,0,1-.016-52.663A37.745,37.745,0,0,1,331.424,50.9a28.818,28.818,0,0,1,11.511-2.443,29.27,29.27,0,0,1,26.8,17.418,20.867,20.867,0,0,1-4.569,41.229M263.794,56.709a24.058,24.058,0,0,0,0,48.117H365.166a18.593,18.593,0,0,0,3.544-36.847l-.6-.114-.236-.56a26.834,26.834,0,0,0-36.463-13.91l-.986.468-.506-.968a35.473,35.473,0,0,0-64.363,3.176l-.295.733-.793-.023a4.047,4.047,0,0,1-.47-.048,1.432,1.432,0,0,0-.209-.025" transform="translate(97.443 12.95)" fill="#b5c8f7"/>
      <path id="Path_23429" data-name="Path 23429" d="M466.368,94.387a25.416,25.416,0,0,0,4.843-50.368,36.029,36.029,0,0,0-48.949-18.674,47.161,47.161,0,0,0-85.569,4.224c-.31-.011-.6-.1-.918-.1a32.457,32.457,0,0,0,0,64.914Z" transform="translate(124.469 0)" fill="#3864c7"/>
      <rect id="Rectangle_1123" data-name="Rectangle 1123" width="43.908" height="106.711" transform="translate(118.706 346.416)" fill="#3d4361"/>
      <rect id="Rectangle_1124" data-name="Rectangle 1124" width="43.908" height="106.711" transform="translate(76.769 346.416)" fill="#f4b573"/>
      <rect id="Rectangle_1125" data-name="Rectangle 1125" width="33.424" height="96.955" transform="translate(82.011 351.293)" fill="#fff"/>
      <path id="Path_23430" data-name="Path 23430" d="M87.935,264.561H60.465a.7.7,0,0,1-.705-.705v-9.723a.705.705,0,0,1,.705-.705H87.935a.705.705,0,0,1,.705.705v9.723a.7.7,0,0,1-.705.705m-26.764-1.41H87.229v-8.314H61.17Z" transform="translate(24.522 103.994)" fill="#ccdafc"/>
      <path id="Path_23431" data-name="Path 23431" d="M87.935,275.477H60.465a.7.7,0,0,1-.705-.705V265.05a.705.705,0,0,1,.705-.705H87.935a.705.705,0,0,1,.705.705v9.721a.7.7,0,0,1-.705.705m-26.764-1.41H87.229v-8.313H61.17Z" transform="translate(24.522 108.474)" fill="#ccdafc"/>
      <path id="Path_23432" data-name="Path 23432" d="M87.935,286.394H60.465a.7.7,0,0,1-.705-.705v-9.723a.705.705,0,0,1,.705-.705H87.935a.705.705,0,0,1,.705.705v9.723a.7.7,0,0,1-.705.705m-26.764-1.41H87.229V276.67H61.17Z" transform="translate(24.522 112.954)" fill="#ccdafc"/>
      <path id="Path_23433" data-name="Path 23433" d="M87.935,297.311H60.465a.705.705,0,0,1-.705-.705v-9.723a.705.705,0,0,1,.705-.705H87.935a.705.705,0,0,1,.705.705v9.723a.705.705,0,0,1-.705.705M61.17,295.9H87.229v-8.313H61.17Z" transform="translate(24.522 117.433)" fill="#ccdafc"/>
      <rect id="Rectangle_1126" data-name="Rectangle 1126" width="43.908" height="106.711" transform="translate(168.37 346.416)" fill="#3d4361"/>
      <rect id="Rectangle_1127" data-name="Rectangle 1127" width="43.908" height="106.711" transform="translate(126.434 346.416)" fill="#f4b573"/>
      <rect id="Rectangle_1128" data-name="Rectangle 1128" width="33.424" height="96.955" transform="translate(131.676 351.293)" fill="#fff"/>
      <path id="Path_23434" data-name="Path 23434" d="M123.15,264.561H95.679a.7.7,0,0,1-.705-.705v-9.723a.705.705,0,0,1,.705-.705H123.15a.705.705,0,0,1,.705.705v9.723a.7.7,0,0,1-.705.705m-26.766-1.41h26.06v-8.314H96.384Z" transform="translate(38.973 103.994)" fill="#ccdafc"/>
      <path id="Path_23435" data-name="Path 23435" d="M123.15,275.477H95.679a.7.7,0,0,1-.705-.705V265.05a.705.705,0,0,1,.705-.705H123.15a.705.705,0,0,1,.705.705v9.721a.7.7,0,0,1-.705.705m-26.766-1.41h26.06v-8.313H96.384Z" transform="translate(38.973 108.474)" fill="#ccdafc"/>
      <path id="Path_23436" data-name="Path 23436" d="M123.15,286.394H95.679a.7.7,0,0,1-.705-.705v-9.723a.705.705,0,0,1,.705-.705H123.15a.705.705,0,0,1,.705.705v9.723a.7.7,0,0,1-.705.705m-26.766-1.41h26.06V276.67H96.384Z" transform="translate(38.973 112.954)" fill="#ccdafc"/>
      <path id="Path_23437" data-name="Path 23437" d="M123.15,297.311H95.679a.705.705,0,0,1-.705-.705v-9.723a.705.705,0,0,1,.705-.705H123.15a.705.705,0,0,1,.705.705v9.723a.705.705,0,0,1-.705.705M96.384,295.9h26.06v-8.313H96.384Z" transform="translate(38.973 117.433)" fill="#ccdafc"/>
      <rect id="Rectangle_1129" data-name="Rectangle 1129" width="43.908" height="106.711" transform="translate(218.036 346.416)" fill="#3d4361"/>
      <rect id="Rectangle_1130" data-name="Rectangle 1130" width="43.908" height="106.711" transform="translate(176.098 346.416)" fill="#f4b573"/>
      <rect id="Rectangle_1131" data-name="Rectangle 1131" width="33.424" height="96.955" transform="translate(181.34 351.293)" fill="#fff"/>
      <path id="Path_23438" data-name="Path 23438" d="M158.364,264.561H130.894a.7.7,0,0,1-.705-.705v-9.723a.705.705,0,0,1,.705-.705h27.469a.705.705,0,0,1,.705.705v9.723a.7.7,0,0,1-.705.705m-26.764-1.41h26.059v-8.314H131.6Z" transform="translate(53.423 103.994)" fill="#ccdafc"/>
      <path id="Path_23439" data-name="Path 23439" d="M158.364,275.477H130.894a.7.7,0,0,1-.705-.705V265.05a.705.705,0,0,1,.705-.705h27.469a.705.705,0,0,1,.705.705v9.721a.7.7,0,0,1-.705.705m-26.764-1.41h26.059v-8.313H131.6Z" transform="translate(53.423 108.474)" fill="#ccdafc"/>
      <path id="Path_23440" data-name="Path 23440" d="M158.364,286.394H130.894a.7.7,0,0,1-.705-.705v-9.723a.705.705,0,0,1,.705-.705h27.469a.705.705,0,0,1,.705.705v9.723a.7.7,0,0,1-.705.705m-26.764-1.41h26.059V276.67H131.6Z" transform="translate(53.423 112.954)" fill="#ccdafc"/>
      <path id="Path_23441" data-name="Path 23441" d="M158.364,297.311H130.894a.705.705,0,0,1-.705-.705v-9.723a.705.705,0,0,1,.705-.705h27.469a.705.705,0,0,1,.705.705v9.723a.705.705,0,0,1-.705.705M131.6,295.9h26.059v-8.313H131.6Z" transform="translate(53.423 117.433)" fill="#ccdafc"/>
      <path id="Path_23452" data-name="Path 23452" d="M419.046,276.165H394.809a6.286,6.286,0,0,1-6.277-6.279V245.649a6.285,6.285,0,0,1,6.277-6.279h24.237a6.286,6.286,0,0,1,6.279,6.279v24.237a6.287,6.287,0,0,1-6.279,6.279m-24.237-34.4a3.892,3.892,0,0,0-3.887,3.888v24.237a3.891,3.891,0,0,0,3.887,3.887h24.237a3.891,3.891,0,0,0,3.887-3.887V245.649a3.892,3.892,0,0,0-3.887-3.888Z" transform="translate(159.435 98.226)" fill="#fff"/>
      <path id="Path_23453" data-name="Path 23453" d="M412.037,267.072H397.722a4.2,4.2,0,0,1-4.2-4.2V248.56a4.2,4.2,0,0,1,4.2-4.2h14.315a4.2,4.2,0,0,1,4.2,4.2v14.315a4.2,4.2,0,0,1-4.2,4.2m-14.315-20.318a1.807,1.807,0,0,0-1.805,1.805v14.315a1.808,1.808,0,0,0,1.805,1.807h14.315a1.808,1.808,0,0,0,1.807-1.807V248.56a1.807,1.807,0,0,0-1.807-1.805Z" transform="translate(161.483 100.275)" fill="#fff"/>
      <path id="Path_23454" data-name="Path 23454" d="M392.112,275.791a1.2,1.2,0,0,1-1.2-1.2v-5.931a1.2,1.2,0,0,1,2.392,0V274.6a1.2,1.2,0,0,1-1.2,1.2" transform="translate(160.413 109.757)" fill="#fff"/>
      <path id="Path_23455" data-name="Path 23455" d="M396.037,275.791a1.2,1.2,0,0,1-1.2-1.2v-5.931a1.2,1.2,0,0,1,2.392,0V274.6a1.2,1.2,0,0,1-1.2,1.2" transform="translate(162.023 109.757)" fill="#fff"/>
      <path id="Path_23456" data-name="Path 23456" d="M399.962,275.791a1.2,1.2,0,0,1-1.2-1.2v-5.931a1.2,1.2,0,0,1,2.392,0V274.6a1.2,1.2,0,0,1-1.2,1.2" transform="translate(163.634 109.757)" fill="#fff"/>
      <path id="Path_23457" data-name="Path 23457" d="M403.886,275.791a1.2,1.2,0,0,1-1.2-1.2v-5.931a1.2,1.2,0,0,1,2.392,0V274.6a1.2,1.2,0,0,1-1.2,1.2" transform="translate(165.244 109.757)" fill="#fff"/>
      <path id="Path_23458" data-name="Path 23458" d="M407.811,275.791a1.2,1.2,0,0,1-1.2-1.2v-5.931a1.2,1.2,0,0,1,2.392,0V274.6a1.2,1.2,0,0,1-1.2,1.2" transform="translate(166.854 109.757)" fill="#fff"/>
      <path id="Path_23459" data-name="Path 23459" d="M411.735,275.791a1.2,1.2,0,0,1-1.2-1.2v-5.931a1.2,1.2,0,0,1,2.392,0V274.6a1.2,1.2,0,0,1-1.2,1.2" transform="translate(168.465 109.757)" fill="#fff"/>
      <path id="Path_23460" data-name="Path 23460" d="M392.112,239.78a1.2,1.2,0,0,1-1.2-1.2v-5.932a1.2,1.2,0,0,1,2.392,0v5.932a1.2,1.2,0,0,1-1.2,1.2" transform="translate(160.413 94.979)" fill="#fff"/>
      <path id="Path_23461" data-name="Path 23461" d="M396.037,239.78a1.2,1.2,0,0,1-1.2-1.2v-5.932a1.2,1.2,0,0,1,2.392,0v5.932a1.2,1.2,0,0,1-1.2,1.2" transform="translate(162.023 94.979)" fill="#fff"/>
      <path id="Path_23462" data-name="Path 23462" d="M399.962,239.78a1.2,1.2,0,0,1-1.2-1.2v-5.932a1.2,1.2,0,0,1,2.392,0v5.932a1.2,1.2,0,0,1-1.2,1.2" transform="translate(163.634 94.979)" fill="#fff"/>
      <path id="Path_23463" data-name="Path 23463" d="M403.886,239.78a1.2,1.2,0,0,1-1.2-1.2v-5.932a1.2,1.2,0,0,1,2.392,0v5.932a1.2,1.2,0,0,1-1.2,1.2" transform="translate(165.244 94.979)" fill="#fff"/>
      <path id="Path_23464" data-name="Path 23464" d="M407.811,239.78a1.2,1.2,0,0,1-1.2-1.2v-5.932a1.2,1.2,0,0,1,2.392,0v5.932a1.2,1.2,0,0,1-1.2,1.2" transform="translate(166.854 94.979)" fill="#fff"/>
      <path id="Path_23465" data-name="Path 23465" d="M411.735,239.78a1.2,1.2,0,0,1-1.2-1.2v-5.932a1.2,1.2,0,0,1,2.392,0v5.932a1.2,1.2,0,0,1-1.2,1.2" transform="translate(168.465 94.979)" fill="#fff"/>
      <path id="Path_23466" data-name="Path 23466" d="M423.759,263.769h-5.932a1.2,1.2,0,1,1,0-2.391h5.932a1.2,1.2,0,1,1,0,2.391" transform="translate(170.965 107.257)" fill="#fff"/>
      <path id="Path_23467" data-name="Path 23467" d="M423.759,259.845h-5.932a1.2,1.2,0,1,1,0-2.391h5.932a1.2,1.2,0,1,1,0,2.391" transform="translate(170.965 105.646)" fill="#fff"/>
      <path id="Path_23468" data-name="Path 23468" d="M423.759,255.92h-5.932a1.2,1.2,0,1,1,0-2.391h5.932a1.2,1.2,0,1,1,0,2.391" transform="translate(170.965 104.036)" fill="#fff"/>
      <path id="Path_23469" data-name="Path 23469" d="M423.759,251.995h-5.932a1.2,1.2,0,1,1,0-2.391h5.932a1.2,1.2,0,1,1,0,2.391" transform="translate(170.965 102.425)" fill="#fff"/>
      <path id="Path_23470" data-name="Path 23470" d="M423.759,248.071h-5.932a1.2,1.2,0,1,1,0-2.391h5.932a1.2,1.2,0,1,1,0,2.391" transform="translate(170.965 100.815)" fill="#fff"/>
      <path id="Path_23471" data-name="Path 23471" d="M423.759,244.146h-5.932a1.2,1.2,0,1,1,0-2.391h5.932a1.2,1.2,0,1,1,0,2.391" transform="translate(170.965 99.204)" fill="#fff"/>
      <path id="Path_23472" data-name="Path 23472" d="M387.747,263.769h-5.932a1.2,1.2,0,1,1,0-2.391h5.932a1.2,1.2,0,1,1,0,2.391" transform="translate(156.188 107.257)" fill="#fff"/>
      <path id="Path_23473" data-name="Path 23473" d="M387.747,259.845h-5.932a1.2,1.2,0,1,1,0-2.391h5.932a1.2,1.2,0,1,1,0,2.391" transform="translate(156.188 105.646)" fill="#fff"/>
      <path id="Path_23474" data-name="Path 23474" d="M387.747,255.92h-5.932a1.2,1.2,0,1,1,0-2.391h5.932a1.2,1.2,0,1,1,0,2.391" transform="translate(156.188 104.036)" fill="#fff"/>
      <path id="Path_23475" data-name="Path 23475" d="M387.747,251.995h-5.932a1.2,1.2,0,1,1,0-2.391h5.932a1.2,1.2,0,1,1,0,2.391" transform="translate(156.188 102.425)" fill="#fff"/>
      <path id="Path_23476" data-name="Path 23476" d="M387.747,248.071h-5.932a1.2,1.2,0,1,1,0-2.391h5.932a1.2,1.2,0,1,1,0,2.391" transform="translate(156.188 100.815)" fill="#fff"/>
      <path id="Path_23477" data-name="Path 23477" d="M387.747,244.146h-5.932a1.2,1.2,0,1,1,0-2.391h5.932a1.2,1.2,0,1,1,0,2.391" transform="translate(156.188 99.204)" fill="#fff"/>
      <path id="Path_23478" data-name="Path 23478" d="M495.058,247.552q-.2,0-.406,0a25.02,25.02,0,0,1-17.006-42.989,24.674,24.674,0,0,1,17.806-7.043,25.02,25.02,0,0,1-.393,50.036m-.017-47.649a22.625,22.625,0,1,0,.372,0l-.372,0" transform="translate(192.879 81.047)" fill="#fff"/>
      <path id="Path_23479" data-name="Path 23479" d="M495.066,247.552c-.138,0-.275,0-.412,0a25.051,25.051,0,0,1-24.62-25.42,25.02,25.02,0,1,1,25.032,25.424m-.017-47.652a22.61,22.61,0,1,0,.367,0l-.367,0" transform="translate(192.877 81.047)" fill="#fff"/>
      <path id="Path_23480" data-name="Path 23480" d="M491.45,247.545h-.124c-7.614-.123-13.4-11.205-13.178-25.233.223-13.95,6.3-24.8,13.851-24.8h.127c7.614.123,13.4,11.205,13.18,25.233-.224,13.95-6.3,24.8-13.855,24.8M492,199.9c-6.028,0-11.269,10.241-11.465,22.447-.2,12.263,4.761,22.707,10.826,22.8,6.028.133,11.355-10.184,11.549-22.447S498.151,200,492.086,199.9Z" transform="translate(196.206 81.048)" fill="#fff"/>
      <path id="Path_23481" data-name="Path 23481" d="M494.387,213.651c-.251,0-.5,0-.756-.006-7.551-.121-14.57-2.02-19.261-5.208a1.2,1.2,0,0,1-.252-1.746,25.02,25.02,0,0,1,39.233.629,1.194,1.194,0,0,1-.309,1.736c-4.626,2.935-11.391,4.595-18.655,4.595m-17.526-6.471c4.282,2.5,10.315,3.969,16.809,4.074,6.523.137,12.566-1.176,16.926-3.534a22.627,22.627,0,0,0-33.734-.54" transform="translate(194.443 81.047)" fill="#fff"/>
      <path id="Path_23482" data-name="Path 23482" d="M493.63,237.687c-.137,0-.272,0-.409,0a24.885,24.885,0,0,1-19.463-9.806,1.194,1.194,0,0,1,.309-1.736c4.79-3.036,11.874-4.684,19.411-4.588,7.551.12,14.57,2.015,19.26,5.206a1.195,1.195,0,0,1,.254,1.746,24.9,24.9,0,0,1-19.361,9.183m-17.116-10.211a22.627,22.627,0,0,0,33.734.54c-4.283-2.5-10.315-3.97-16.809-4.073s-12.563,1.175-16.926,3.533" transform="translate(194.306 90.913)" fill="#fff"/>
      <path id="Path_23483" data-name="Path 23483" d="M487.851,247.544a1.2,1.2,0,0,1-1.2-1.214l.762-47.643a1.2,1.2,0,0,1,2.392.039l-.762,47.642a1.2,1.2,0,0,1-1.2,1.176" transform="translate(199.699 81.049)" fill="#fff"/>
      <path id="Path_23484" data-name="Path 23484" d="M518.873,217.283l-47.661-.762a1.2,1.2,0,0,1,.02-2.391l47.661.762a1.2,1.2,0,0,1-.02,2.391" transform="translate(192.879 87.869)" fill="#fff"/>
      <path id="Path_23485" data-name="Path 23485" d="M89.2,237.776H23.5a1.2,1.2,0,0,1-1.2-1.2V193.814a1.2,1.2,0,0,1,1.2-1.2H89.2a1.2,1.2,0,0,1,1.2,1.2V236.58a1.2,1.2,0,0,1-1.2,1.2m-64.5-2.391H88V195.01H24.692Z" transform="translate(9.15 79.041)" fill="#fff"/>
      <path id="Path_23486" data-name="Path 23486" d="M55.025,215.551a1.189,1.189,0,0,1-.636-.183L25.9,197.463a1.2,1.2,0,1,1,1.272-2.025l27.857,17.5,27.86-17.5a1.2,1.2,0,0,1,1.272,2.025l-28.5,17.9a1.2,1.2,0,0,1-.636.183" transform="translate(10.396 80.123)" fill="#fff"/>
      <path id="Path_23487" data-name="Path 23487" d="M26.433,227.238a1.2,1.2,0,0,1-.7-2.165l21.528-15.56a1.2,1.2,0,0,1,1.4,1.939l-21.528,15.56a1.194,1.194,0,0,1-.7.226" transform="translate(10.355 85.88)" fill="#fff"/>
      <path id="Path_23488" data-name="Path 23488" d="M73.512,227.238a1.194,1.194,0,0,1-.7-.226l-21.53-15.56a1.2,1.2,0,0,1,1.4-1.939l21.53,15.56a1.2,1.2,0,0,1-.7,2.165" transform="translate(20.841 85.88)" fill="#fff"/>
      <path id="Path_23489" data-name="Path 23489" d="M59.809,265.733H13.736a1.194,1.194,0,0,1-1.195-1.2V234.545a1.194,1.194,0,0,1,1.195-1.195H59.809a1.194,1.194,0,0,1,1.2,1.195v29.992a1.2,1.2,0,0,1-1.2,1.2m-44.877-2.392H58.614v-27.6H14.932Z" transform="translate(5.146 95.755)" fill="#fff"/>
      <path id="Path_23490" data-name="Path 23490" d="M35.847,250.146a1.189,1.189,0,0,1-.636-.183L15.229,237.407a1.2,1.2,0,1,1,1.272-2.025l19.346,12.154,19.347-12.154a1.2,1.2,0,1,1,1.272,2.025L36.483,249.962a1.189,1.189,0,0,1-.636.183" transform="translate(6.02 96.514)" fill="#fff"/>
      <path id="Path_23491" data-name="Path 23491" d="M15.8,258.342a1.2,1.2,0,0,1-.7-2.165l15.1-10.912a1.2,1.2,0,1,1,1.4,1.939L16.5,258.117a1.194,1.194,0,0,1-.7.226" transform="translate(5.99 100.551)" fill="#fff"/>
      <path id="Path_23492" data-name="Path 23492" d="M48.812,258.342a1.194,1.194,0,0,1-.7-.226L33.013,247.2a1.2,1.2,0,1,1,1.4-1.939l15.1,10.912a1.2,1.2,0,0,1-.7,2.165" transform="translate(13.344 100.551)" fill="#fff"/>
      <path id="Path_23493" data-name="Path 23493" d="M588.09,339.631a6.8,6.8,0,0,0-5.273-.408,7.5,7.5,0,0,0-3.383-3.509,8.432,8.432,0,0,0-7.633-.055,11.909,11.909,0,0,0-5.78-6.485,13.342,13.342,0,0,0-10.053-.893,11.749,11.749,0,0,0-6.194-8.007,13.46,13.46,0,0,0-9.657-1.054,13.863,13.863,0,0,0-7.382-9.723c-7.174-3.746-16.264-1.386-20.3,5.27-.024.041-.045.082-.07.124a16.735,16.735,0,0,0-3.207-2.176,17.826,17.826,0,0,0-19.054,1.677,10.317,10.317,0,0,0-5.1-5.863,11.654,11.654,0,0,0-7.084-1.183,10.931,10.931,0,0,0-6.055-9.331,12.676,12.676,0,0,0-12.308.365,15.868,15.868,0,0,0-8.636-12.187,18.136,18.136,0,0,0-9.191-2.024,16.019,16.019,0,0,0-8.329-10.434,18.291,18.291,0,0,0-14.414-1.03,14.9,14.9,0,0,0-7.88-10.219,16.8,16.8,0,0,0-20.677,4.1,9.129,9.129,0,0,0-3.264-.608,8.476,8.476,0,0,0-8.712,8.221,7.811,7.811,0,0,0,1.252,4.187,12.936,12.936,0,0,0-4.96,1.482,12.226,12.226,0,0,0-6.379,12.468,13.062,13.062,0,0,0-6.7,1.58,12.153,12.153,0,0,0-5.6,15.3,11.1,11.1,0,0,0-6.228,1.312,10.519,10.519,0,0,0-5.089,6.2c-.032-.056-.062-.113-.095-.169a8.316,8.316,0,0,0-11.123-3.013,8.057,8.057,0,0,0-2.323,1.891,11.329,11.329,0,0,0-12.964-1.519,10.63,10.63,0,0,0-5.595,8.582,6.746,6.746,0,0,0-6.531-.055,6.272,6.272,0,0,0-3.211,6.788,9.6,9.6,0,0,0-10.6-2.924,12.847,12.847,0,0,0-21.862,2.849,9.6,9.6,0,0,0-5.565,1.118,9.1,9.1,0,0,0-4.557,5.916,6.055,6.055,0,0,0-5.9-.076,5.773,5.773,0,0,0-2.162,2.042,6.054,6.054,0,0,0-5.1.309,5.7,5.7,0,0,0-2.8,3.5,6.013,6.013,0,0,0-3.654.676,5.7,5.7,0,0,0-2.811,3.547H591.148a5.752,5.752,0,0,0-3.058-6.564" transform="translate(97.619 106.931)" fill="#becde8"/>
      <path id="Path_23494" data-name="Path 23494" d="M449.819,137.811l-6.293-.055a2.707,2.707,0,0,1-2.65-2.7l.056-6.562a.338.338,0,0,0-.258-.354,27.876,27.876,0,0,1-2.757-1.087.458.458,0,0,0-.523.1l-4.245,4.993a2.683,2.683,0,0,1-1.84.943,2.636,2.636,0,0,1-1.941-.639L424.6,128.4a2.715,2.715,0,0,1-.908-1.863,2.631,2.631,0,0,1,.649-1.918L428.6,119.6a.434.434,0,0,0,0-.527,17.629,17.629,0,0,1-1.451-2.485.446.446,0,0,0-.447-.265l-6.483,1.107a2.68,2.68,0,0,1-3.051-2.223l-1.062-6.166a2.719,2.719,0,0,1,2.172-3.086l6.638-1.109a.337.337,0,0,0,.31-.278,27.512,27.512,0,0,1,.553-2.848c.01-.044.076-.323-.133-.437l-5.822-3.436a2.721,2.721,0,0,1-.972-3.663l3.216-5.395a2.661,2.661,0,0,1,3.644-.955l5.818,3.41a.285.285,0,0,0,.382-.03,26.9,26.9,0,0,1,2.241-1.859.369.369,0,0,0,.2-.44L432.1,82.575a2.632,2.632,0,0,1,.1-2.018,2.661,2.661,0,0,1,1.519-1.378l5.919-2.11a2.663,2.663,0,0,1,3.4,1.619l2.272,6.378a.415.415,0,0,0,.419.262,26.811,26.811,0,0,1,2.722.018.43.43,0,0,0,.5-.257l2.378-6.327a2.664,2.664,0,0,1,3.427-1.56l5.878,2.21a2.668,2.668,0,0,1,1.561,3.427l-2.382,6.332a.382.382,0,0,0,.158.379,28.392,28.392,0,0,1,2.19,1.87c.118.118.259.212.393.126l5.935-3.343a2.661,2.661,0,0,1,2.034-.237,2.617,2.617,0,0,1,1.594,1.285l3.1,5.406a2.722,2.722,0,0,1-1,3.653l-5.868,3.327a.407.407,0,0,0-.176.441c.216.951.379,1.859.5,2.785a.375.375,0,0,0,.315.368l6.595,1.219a2.72,2.72,0,0,1,2.145,3.094c0,.027-1.137,6.207-1.137,6.207a2.719,2.719,0,0,1-3.094,2.147l-6.5-1.226a.445.445,0,0,0-.461.286A17.719,17.719,0,0,1,465,119.446a.419.419,0,0,0,.024.47l4.237,5.105a2.617,2.617,0,0,1,.6,1.939,2.688,2.688,0,0,1-.989,1.833l-4.84,3.976a2.678,2.678,0,0,1-3.743-.364l-4.209-5.124a.429.429,0,0,0-.5-.065,28.253,28.253,0,0,1-2.677,1.008c-.248.063-.347.195-.347.372l-.059,6.564a2.708,2.708,0,0,1-2.675,2.65m-12.073-13.07a2.627,2.627,0,0,1,1.137.255,25.685,25.685,0,0,0,2.446.97,2.6,2.6,0,0,1,1.877,2.549l-.056,6.564a.428.428,0,0,0,.395.4l6.273.055a.414.414,0,0,0,.4-.4l.059-6.564a2.619,2.619,0,0,1,2-2.54c.815-.268,1.65-.581,2.392-.91a2.709,2.709,0,0,1,3.128.671l4.225,5.142a.394.394,0,0,0,.543.082l4.87-4a.408.408,0,0,0,.155-.282.347.347,0,0,0-.071-.26l-4.246-5.118a2.7,2.7,0,0,1-.143-3.218,15.89,15.89,0,0,0,1.37-2.25,2.717,2.717,0,0,1,2.888-1.46l6.478,1.221a.443.443,0,0,0,.474-.346l1.125-6.134a.445.445,0,0,0-.344-.5l-6.568-1.214a2.633,2.633,0,0,1-2.158-2.328c-.107-.839-.255-1.676-.454-2.54a2.668,2.668,0,0,1,1.275-2.942l5.839-3.311a.425.425,0,0,0,.162-.58l-3.1-5.407a.4.4,0,0,0-.236-.207.387.387,0,0,0-.306.042l-5.874,3.3a2.51,2.51,0,0,1-3.152-.457c-.544-.519-1.192-1.072-1.951-1.663a2.631,2.631,0,0,1-.942-2.974l2.393-6.366a.389.389,0,0,0-.236-.5l-5.878-2.211a.389.389,0,0,0-.5.237L451.07,85.9a2.677,2.677,0,0,1-2.833,1.712c-.759-.042-1.508-.049-2.348-.014a2.635,2.635,0,0,1-2.725-1.759l-2.275-6.385a.384.384,0,0,0-.488-.241l-5.921,2.11a.4.4,0,0,0-.227.2.372.372,0,0,0-.014.282l2.272,6.38a2.611,2.611,0,0,1-1.062,3.041c-.681.515-1.337,1.056-1.928,1.6a2.51,2.51,0,0,1-3.18.35l-5.78-3.388a.365.365,0,0,0-.281-.037.391.391,0,0,0-.238.181l-3.216,5.393a.422.422,0,0,0,.185.575l5.764,3.4a2.62,2.62,0,0,1,1.214,2.974c-.209.843-.372,1.675-.5,2.533a2.579,2.579,0,0,1-2.193,2.275l-6.616,1.1a.44.44,0,0,0-.324.5l1.061,6.165a.387.387,0,0,0,.457.329l6.458-1.1a2.706,2.706,0,0,1,2.852,1.482,15.817,15.817,0,0,0,1.313,2.248,2.72,2.72,0,0,1-.168,3.271l-4.275,5.024a.38.38,0,0,0-.1.288.411.411,0,0,0,.128.285l4.768,4.058a.353.353,0,0,0,.274.09.388.388,0,0,0,.276-.138l4.29-5.043a2.8,2.8,0,0,1,2.049-.9m9.205-4.61h-.116a12.767,12.767,0,0,1,.109-25.534h.114a12.767,12.767,0,0,1-.107,25.534m-.007-23.262a10.495,10.495,0,0,0-.087,20.989,10.605,10.605,0,0,0,7.437-3,10.492,10.492,0,0,0-7.255-17.985Z" transform="translate(170.74 31.562)" fill="#ccdafc"/>
      <path id="Path_23495" data-name="Path 23495" d="M405.47,117.857l-4.153-.038a2.151,2.151,0,0,1-2.132-2.166l.037-4.225c-.649-.223-1.2-.443-1.7-.673l-2.747,3.231a2.14,2.14,0,0,1-3.044.24l-3.141-2.67a2.18,2.18,0,0,1-.212-3.044l2.75-3.23a12.456,12.456,0,0,1-.949-1.64l-4.156.767a2.185,2.185,0,0,1-1.64-.4,2.078,2.078,0,0,1-.819-1.388l-.7-4.053a2.179,2.179,0,0,1,1.743-2.481l4.289-.719c.092-.625.2-1.171.334-1.714l-3.728-2.2a2.178,2.178,0,0,1-.783-2.939l2.125-3.564a2.111,2.111,0,0,1,1.3-.993,2.143,2.143,0,0,1,1.629.228l3.728,2.183c.443-.4.877-.759,1.364-1.125l-1.45-4.066a2.15,2.15,0,0,1,1.3-2.735l3.9-1.391a2.148,2.148,0,0,1,2.735,1.3l1.467,4.121c.64-.023,1.166-.02,1.736.014l1.537-4.09a2.141,2.141,0,0,1,2.761-1.255l3.873,1.457a2.146,2.146,0,0,1,1.255,2.761L412.468,85.4c.532.416.962.786,1.347,1.148l3.773-2.123a2.121,2.121,0,0,1,2.922.841l2.038,3.558a2.18,2.18,0,0,1-.8,2.935L417.962,93.9c.128.573.228,1.135.306,1.721l4.252.788a2.176,2.176,0,0,1,1.726,2.479c0,.028-.752,4.1-.752,4.1a2.168,2.168,0,0,1-2.481,1.729l-4.3-.81a6.217,6.217,0,0,1-.855,1.585l2.73,3.29a2.112,2.112,0,0,1,.48,1.563,2.159,2.159,0,0,1-.8,1.474l-3.189,2.62a2.152,2.152,0,0,1-3.005-.286l-2.709-3.3c-.527.228-1.1.446-1.712.643l-.04,4.221a2.165,2.165,0,0,1-2.149,2.132m-4.012-2.31,3.89.035.038-4.2A2.117,2.117,0,0,1,407,109.33c.492-.164,1.03-.365,1.512-.578a2.165,2.165,0,0,1,2.506.537l2.723,3.313,3.008-2.47-2.705-3.261a2.168,2.168,0,0,1-.121-2.582,10.2,10.2,0,0,0,.886-1.448,2.172,2.172,0,0,1,2.32-1.164l4.149.781.7-3.836-4.228-.783a2.116,2.116,0,0,1-1.738-1.872,16.351,16.351,0,0,0-.292-1.633,2.149,2.149,0,0,1,1.028-2.364l3.759-2.131-1.932-3.371-3.76,2.116a2.029,2.029,0,0,1-2.547-.368,16,16,0,0,0-1.248-1.063,2.118,2.118,0,0,1-.749-2.391l1.534-4.084-3.63-1.365-1.525,4.056a2.166,2.166,0,0,1-2.282,1.378c-.461-.025-.946-.03-1.484-.007a2.136,2.136,0,0,1-2.175-1.412l-1.457-4.093-3.654,1.3,1.453,4.077a2.118,2.118,0,0,1-.858,2.462c-.364.278-.805.633-1.219,1.014a2.026,2.026,0,0,1-2.572.268l-3.673-2.152-1.991,3.337,3.725,2.2a2.113,2.113,0,0,1,.977,2.391c-.128.526-.237,1.063-.319,1.629a2.079,2.079,0,0,1-1.766,1.826l-4.242.709.663,3.843,4.132-.7a2.167,2.167,0,0,1,2.288,1.176,10.175,10.175,0,0,0,.839,1.441,2.184,2.184,0,0,1-.13,2.632l-2.747,3.225,2.949,2.508,2.745-3.227a2.214,2.214,0,0,1,2.565-.525c.495.228,1.034.437,1.571.622a2.089,2.089,0,0,1,1.5,2.051Zm2.12-9.349H403.5a8.806,8.806,0,0,1,.076-17.612h.079a8.806,8.806,0,0,1-.076,17.612m0-15.34a6.506,6.506,0,1,0,.058,0Z" transform="translate(157.098 31.566)" fill="#ccdafc"/>
      <g id="Group_22218" data-name="Group 22218" transform="translate(31.228 125.784)">
        <path id="Path_23496" data-name="Path 23496" d="M273.394,272.972H208.81a5.818,5.818,0,0,1-5.819-5.819V140.193a5.818,5.818,0,0,1,5.819-5.819h64.584a5.818,5.818,0,0,1,5.819,5.819V267.154a5.818,5.818,0,0,1-5.819,5.819" transform="translate(83.025 54.868)" fill="#fff"/>
        <path id="Path_23497" data-name="Path 23497" d="M273.289,273.171H208.7a6.128,6.128,0,0,1-6.122-6.122V140.088a6.128,6.128,0,0,1,6.122-6.122h64.584a6.128,6.128,0,0,1,6.122,6.122V267.049a6.128,6.128,0,0,1-6.122,6.122M208.7,134.572a5.522,5.522,0,0,0-5.516,5.516V267.049a5.522,5.522,0,0,0,5.516,5.516h64.584a5.522,5.522,0,0,0,5.516-5.516V140.088a5.522,5.522,0,0,0-5.516-5.516Z" transform="translate(83.13 54.973)" fill="#346c91"/>
        <path id="Path_23498" data-name="Path 23498" d="M275.04,269.35H208.466a2.944,2.944,0,0,1-2.944-2.944V144.777a2.944,2.944,0,0,1,2.944-2.944H275.04a2.944,2.944,0,0,1,2.944,2.944v121.63a2.944,2.944,0,0,1-2.944,2.944" transform="translate(82.374 52.949)" fill="#4e5a85"/>
        <path id="Path_23499" data-name="Path 23499" d="M226.165,279.928a15.319,15.319,0,0,1-6.921-1.452,16.437,16.437,0,0,1-4.916-3.674l3.911-6.153a15.855,15.855,0,0,0,3.14,2.45,6.693,6.693,0,0,0,3.448.969,5.153,5.153,0,0,0,3.577-1.139,4.533,4.533,0,0,0,1.26-3.532,4.605,4.605,0,0,0-1.235-3.5,4.46,4.46,0,0,0-3.191-1.168,7.269,7.269,0,0,0-1.184.085,6.051,6.051,0,0,0-1,.256,5.764,5.764,0,0,0-1.055.513q-.567.342-1.286.855L216.9,261.7l.824-18.572h19.349v8.2H225.342l-.411,5.242a7.961,7.961,0,0,1,1.569-.457,9.5,9.5,0,0,1,1.518-.114,11.8,11.8,0,0,1,4.014.684,9.432,9.432,0,0,1,3.345,2.051,9.718,9.718,0,0,1,2.291,3.475,13.229,13.229,0,0,1,.849,4.956,13.877,13.877,0,0,1-1,5.413,11.773,11.773,0,0,1-2.7,4.016,11.646,11.646,0,0,1-3.937,2.478,13.088,13.088,0,0,1-4.709.854" transform="translate(80.108 26.892)" fill="#f4b573"/>
        <path id="Path_23500" data-name="Path 23500" d="M270.148,279.375a18.461,18.461,0,0,1-6.587-1.168,14.559,14.559,0,0,1-5.378-3.532,16.642,16.642,0,0,1-3.6-5.925,26.589,26.589,0,0,1,.025-16.578,18.122,18.122,0,0,1,3.628-6.1,15.621,15.621,0,0,1,5.327-3.789,15.957,15.957,0,0,1,6.382-1.309,13.343,13.343,0,0,1,6.407,1.453,16.552,16.552,0,0,1,4.5,3.446l-4.632,6.267a12.779,12.779,0,0,0-2.6-1.966,7.394,7.394,0,0,0-6.51-.028,7.671,7.671,0,0,0-2.521,2.108,9.884,9.884,0,0,0-1.673,3.362,15.785,15.785,0,0,0-.592,4.5q0,5.242,2.11,8.033t6.638,2.79a5.926,5.926,0,0,0,1.416-.17,3.239,3.239,0,0,0,1.158-.512v-5.128h-4.94v-7.975h12.762v17.66a15.065,15.065,0,0,1-4.786,3.219,15.809,15.809,0,0,1-6.536,1.338" transform="translate(70.091 27.444)" fill="#f4b573"/>
        <path id="Path_23501" data-name="Path 23501" d="M256.251,201.532a3.07,3.07,0,1,1-3.07-3.071,3.071,3.071,0,0,1,3.07,3.071" transform="translate(70.904 38.382)" fill="#243947"/>
        <path id="Path_23502" data-name="Path 23502" d="M253.2,202.181l-1.236-3.541a.091.091,0,0,1,.052-.124l21.529-5.611c.18-.047.287.26.117.336l-20.344,9a.091.091,0,0,1-.117-.065" transform="translate(70.427 39.812)" fill="#243947"/>
        <path id="Path_23503" data-name="Path 23503" d="M271.613,203.828l-6.386-2.7a23.172,23.172,0,1,0-42.7,0l-6.387,2.7a30.106,30.106,0,1,1,55.477,0" transform="translate(80.253 47.761)" fill="#fff"/>
        <path id="Path_23504" data-name="Path 23504" d="M287.715,206.882l-6.386-2.7a23.152,23.152,0,0,0-4.967-25.4l4.9-4.9a30.134,30.134,0,0,1,6.45,33.008" transform="translate(64.15 44.707)" fill="#ff6454"/>
        <path id="Path_23505" data-name="Path 23505" d="M227.375,201.028a1.693,1.693,0,1,1-1.693,1.693,1.694,1.694,0,0,1,1.693-1.693" transform="translate(77.188 37.721)" fill="#fff"/>
        <path id="Path_23506" data-name="Path 23506" d="M236.288,182.9a1.693,1.693,0,1,1-2.395,0,1.694,1.694,0,0,1,2.395,0" transform="translate(75.203 42.512)" fill="#fff"/>
        <path id="Path_23507" data-name="Path 23507" d="M255.409,176.382a1.693,1.693,0,1,1-1.693-1.693,1.694,1.694,0,0,1,1.693,1.693" transform="translate(70.412 44.497)" fill="#fff"/>
        <path id="Path_23508" data-name="Path 23508" d="M273.537,185.294a1.693,1.693,0,1,1,0-2.395,1.694,1.694,0,0,1,0,2.395" transform="translate(65.621 42.513)" fill="#fff"/>
        <path id="Path_23509" data-name="Path 23509" d="M280.054,204.415a1.693,1.693,0,1,1,1.693-1.693,1.694,1.694,0,0,1-1.693,1.693" transform="translate(63.636 37.721)" fill="#fff"/>
      </g>
      <path id="Path_23510" data-name="Path 23510" d="M355.107,350.362a.583.583,0,0,1-.138-.016.628.628,0,0,1-.474-.75c5.168-22.876,9.414-76.252,8.827-98.788-.547,1.9-1.221,4.361-2.02,7.266-5.4,19.672-16.642,60.6-33.047,91.951a.628.628,0,0,1-1.113-.581c16.342-31.228,27.558-72.073,32.949-91.7,1.443-5.249,2.484-9.042,3.114-10.8a.611.611,0,0,1,.68-.41.627.627,0,0,1,.537.584c1.238,19.889-3.216,78.472-8.7,102.762a.63.63,0,0,1-.613.491" transform="translate(134.214 101.158)" fill="#fff"/>
      <path id="Path_23511" data-name="Path 23511" d="M401.692,349.055a.631.631,0,0,1-.549-.32c-17.825-31.764-31.165-70.543-37.575-89.181-.654-1.9-1.228-3.568-1.719-4.973.924,12.332,3.448,25.065,6.107,38.463,3.2,16.137,6.826,34.425,8.3,55.338a.629.629,0,0,1-.582.671.6.6,0,0,1-.671-.582c-1.464-20.834-5.081-39.082-8.275-55.181-2.974-15-5.785-29.173-6.385-42.932a.628.628,0,0,1,1.21-.262c.639,1.585,1.716,4.718,3.207,9.052,6.4,18.6,19.712,57.308,37.484,88.973a.628.628,0,0,1-.241.855.637.637,0,0,1-.307.08" transform="translate(147.865 102.465)" fill="#fff"/>
      <path id="Path_23512" data-name="Path 23512" d="M374.274,352.687a.627.627,0,0,1-.619-.533c-3.09-20.3-5.809-42.23-8.208-61.579-2.427-19.605-4.457-35.961-6.069-44.144-.127,35.58-2.353,66.6-7.531,105.71a.629.629,0,0,1-1.247-.165c5.412-40.855,7.593-72.87,7.526-110.5a.63.63,0,0,1,.508-.618.644.644,0,0,1,.7.384c1.824,4.526,4.268,24.231,7.359,49.18,2.4,19.34,5.115,41.261,8.2,61.542a.628.628,0,0,1-.527.716.7.7,0,0,1-.1.007" transform="translate(143.867 98.833)" fill="#fff"/>
      <path id="Path_23513" data-name="Path 23513" d="M378.322,241.672c0-19.657-16.51-35.594-16.51-35.594s-16.51,15.937-16.51,35.594,16.51,51.448,16.51,51.448,16.51-31.791,16.51-51.448" transform="translate(141.695 84.564)" fill="#ff7840"/>
      <path id="Path_23514" data-name="Path 23514" d="M372.176,231.49c0-14.034-11.75-25.412-11.75-25.412s-11.75,11.377-11.75,25.412,11.75,36.73,11.75,36.73,11.75-22.7,11.75-36.73" transform="translate(143.08 84.564)" fill="#ffaf40"/>
      <path id="Path_23515" data-name="Path 23515" d="M364.7,222.2c0-8.9-5.956-16.117-5.956-16.117s-5.954,7.215-5.954,16.117,5.954,23.3,5.954,23.3,5.956-14.4,5.956-23.3" transform="translate(144.766 84.564)" fill="#ffd499"/>
      <path id="Path_23516" data-name="Path 23516" d="M348.56,161.732c-6.554,4.668-32.435,23.849-35.734,37.924-3.783,16.136,16.714,50.653,16.714,50.653,4.124-18.512,10.377-34.827,19.009-48.684Z" transform="translate(128.177 66.367)" fill="#f76c59"/>
      <path id="Path_23517" data-name="Path 23517" d="M376.009,161.742c6.551,4.671,32.422,23.867,35.714,37.944,3.773,16.137-16.742,50.643-16.742,50.643C390.867,231.815,384.624,215.5,376,201.635Z" transform="translate(154.291 66.371)" fill="#f76c59"/>
      <path id="Path_23518" data-name="Path 23518" d="M363.911,80.43c-4.034,0-14.874,14.744-23.622,38.213l47.224.013c-8.736-23.475-19.569-38.225-23.6-38.226" transform="translate(139.638 33.005)" fill="#f76c59"/>
      <path id="Path_23519" data-name="Path 23519" d="M343.895,107.526a198.708,198.708,0,0,0-12.379,64.127c-.306,13.435,4.633,37.459,10.126,59.711l51.663.014c5.5-22.25,10.458-46.271,10.157-59.707a198.69,198.69,0,0,0-12.343-64.133Z" transform="translate(136.032 44.123)" fill="#fff"/>
      <path id="Path_23520" data-name="Path 23520" d="M349.958,206.44,343.9,230l36.938.01L374.8,206.447Z" transform="translate(141.121 84.713)" fill="#4e5a85"/>
      <g id="Group_22088" data-name="Group 22088" transform="translate(488.3 291.15)" style="mix-blend-mode: screen;isolation: isolate">
        <g id="Group_22087" data-name="Group 22087">
          <g id="Group_22086" data-name="Group 22086" clip-path="url(#clip-path)">
            <path id="Path_23521" data-name="Path 23521" d="M352.284,206.438,347.175,230h-.949l5.28-23.564Z" transform="translate(-346.226 -206.438)" fill="#476b7d"/>
            <path id="Path_23522" data-name="Path 23522" d="M354.9,206.439,352.387,230h-.939l2.685-23.566Z" transform="translate(-344.083 -206.438)" fill="#476b7d"/>
            <path id="Path_23523" data-name="Path 23523" d="M357.575,206.44l.037,23.566h-.949l.048-23.566Z" transform="translate(-341.943 -206.437)" fill="#476b7d"/>
            <path id="Path_23524" data-name="Path 23524" d="M363.561,230.008h-.949l-2.5-23.567h.769Z" transform="translate(-340.529 -206.437)" fill="#476b7d"/>
            <path id="Path_23525" data-name="Path 23525" d="M369.54,230.009h-.959l-5.1-23.567h.779Z" transform="translate(-339.144 -206.436)" fill="#476b7d"/>
          </g>
        </g>
      </g>
      <g id="Group_22091" data-name="Group 22091" transform="translate(485.026 291.153)" style="mix-blend-mode: multiply;isolation: isolate">
        <g id="Group_22090" data-name="Group 22090">
          <g id="Group_22089" data-name="Group 22089" clip-path="url(#clip-path-2)">
            <path id="Path_23526" data-name="Path 23526" d="M362.452,206.444l-12.5,0L343.9,230l18.549.006Z" transform="translate(-343.905 -206.44)" fill="#e8eaed"/>
          </g>
        </g>
      </g>
      <g id="Group_22094" data-name="Group 22094" transform="translate(489.676 291.153)" style="mix-blend-mode: multiply;isolation: isolate">
        <g id="Group_22093" data-name="Group 22093">
          <g id="Group_22092" data-name="Group 22092" clip-path="url(#clip-path-3)">
            <path id="Path_23527" data-name="Path 23527" d="M374.849,211.908l-1.4-5.461L348.6,206.44l-1.4,5.461Z" transform="translate(-347.201 -206.44)" fill="#bac2d9"/>
          </g>
        </g>
      </g>
      <rect id="Rectangle_1145" data-name="Rectangle 1145" width="31.925" height="18.397" transform="translate(487.541 275.5)" fill="#4e5a85"/>
      <g id="Group_22097" data-name="Group 22097" transform="translate(487.54 275.495)" style="mix-blend-mode: multiply;isolation: isolate">
        <g id="Group_22096" data-name="Group 22096">
          <g id="Group_22095" data-name="Group 22095" clip-path="url(#clip-path-4)">
            <rect id="Rectangle_1146" data-name="Rectangle 1146" width="31.923" height="11.812" transform="translate(0.002 0.005)" fill="#bac2d9"/>
          </g>
        </g>
      </g>
      <g id="Group_22100" data-name="Group 22100" transform="translate(487.539 275.495)" style="mix-blend-mode: multiply;isolation: isolate">
        <g id="Group_22099" data-name="Group 22099">
          <g id="Group_22098" data-name="Group 22098" clip-path="url(#clip-path-5)">
            <rect id="Rectangle_1148" data-name="Rectangle 1148" width="15.962" height="18.397" transform="translate(0.002 0.003)" fill="#e8eaed"/>
          </g>
        </g>
      </g>
      <rect id="Rectangle_1150" data-name="Rectangle 1150" width="38.73" height="10.286" transform="translate(484.14 275.5)" fill="#4e5a85"/>
      <g id="Group_22103" data-name="Group 22103" transform="translate(484.14 275.495)" style="mix-blend-mode: multiply;isolation: isolate">
        <g id="Group_22102" data-name="Group 22102">
          <g id="Group_22101" data-name="Group 22101" clip-path="url(#clip-path-6)">
            <rect id="Rectangle_1151" data-name="Rectangle 1151" width="38.73" height="3.701" transform="translate(0.001 0.004)" fill="#bac2d9"/>
          </g>
        </g>
      </g>
      <g id="Group_22106" data-name="Group 22106" transform="translate(484.139 275.495)" style="mix-blend-mode: multiply;isolation: isolate">
        <g id="Group_22105" data-name="Group 22105">
          <g id="Group_22104" data-name="Group 22104" clip-path="url(#clip-path-7)">
            <rect id="Rectangle_1153" data-name="Rectangle 1153" width="19.364" height="10.286" transform="translate(0.002 0.002)" fill="#e8eaed"/>
          </g>
        </g>
      </g>
      <path id="Path_23528" data-name="Path 23528" d="M383.463,141.947a20.481,20.481,0,1,1-20.475-20.487,20.482,20.482,0,0,1,20.475,20.487" transform="translate(140.546 49.841)" fill="#4e5a85"/>
      <path id="Path_23529" data-name="Path 23529" d="M362.691,161.043a.707.707,0,1,1,0-1.413.707.707,0,0,1,0,1.413m-7.427-1.454a.716.716,0,0,1,.523-1.333.755.755,0,0,1,.4.951.732.732,0,0,1-.667.423,1.2,1.2,0,0,1-.261-.041m13.924-.4a.7.7,0,0,1,.382-.928.711.711,0,0,1,.546,1.313.634.634,0,0,1-.262.061.716.716,0,0,1-.666-.446m-20.222-3.814a.7.7,0,1,1,.99,0,.7.7,0,0,1-.505.2.627.627,0,0,1-.485-.2m26.437-.02a.7.7,0,1,1,.987,0,.618.618,0,0,1-.484.2.693.693,0,0,1-.5-.2m-30.654-6.256a.7.7,0,0,1,.385-.928.666.666,0,0,1,.908.385.692.692,0,0,1-.365.908.718.718,0,0,1-.282.059.68.68,0,0,1-.646-.424m34.932.346a.7.7,0,1,1,.544-1.293.676.676,0,0,1,.384.908.693.693,0,0,1-.646.444.723.723,0,0,1-.282-.059m-36.425-7.771a.7.7,0,0,1,.708-.705.676.676,0,0,1,.705.705.7.7,0,0,1-.705.708.716.716,0,0,1-.708-.708m37.412-.039a.738.738,0,0,1,.708-.788.716.716,0,0,1,.705.708.743.743,0,0,1-.705.807.734.734,0,0,1-.708-.726m-35.576-6.476a.716.716,0,0,1-.382-.929.737.737,0,0,1,.928-.384.72.72,0,0,1,.382.928.7.7,0,0,1-.666.443.733.733,0,0,1-.262-.058m34.186-.465a.712.712,0,0,1,.382-.928.7.7,0,0,1,.928.384.7.7,0,0,1-.382.907.638.638,0,0,1-.283.061.721.721,0,0,1-.645-.423m-30.37-5.75a.724.724,0,0,1,0-1.01.706.706,0,0,1,1.01,0,.746.746,0,0,1,0,1.01.737.737,0,0,1-1.01,0m26.454-.082a.686.686,0,0,1,0-.989.7.7,0,1,1,.99.989.679.679,0,0,1-.505.2.637.637,0,0,1-.485-.2m-20.542-4.217a.7.7,0,0,1,.382-.928.712.712,0,0,1,.931.382.742.742,0,0,1-.385.928,1.375,1.375,0,0,1-.281.041.7.7,0,0,1-.647-.423m14.692.343a.72.72,0,0,1-.385-.928.7.7,0,0,1,.929-.384.7.7,0,0,1-.282,1.351,1.192,1.192,0,0,1-.262-.039m-7.609-2.059a.715.715,0,0,1,.708-.705.705.705,0,0,1,.725.705.716.716,0,0,1-1.433,0" transform="translate(140.855 50.152)" fill="#72accc"/>
    </g>
    <g id="Group_22119" data-name="Group 22119" transform="translate(1487.28 472.878)">
      <g id="Group_22118" data-name="Group 22118" clip-path="url(#clip-path-8)">
        <path id="Path_23530" data-name="Path 23530" d="M378.133,136.048a16.9,16.9,0,1,1-21.044-11.336,16.9,16.9,0,0,1,21.044,11.336" transform="translate(-345.036 -123.996)" fill="#b9dced"/>
        <g id="Group_22111" data-name="Group 22111" transform="translate(-5.546 -8.511)" style="mix-blend-mode: screen;isolation: isolate">
          <g id="Group_22110" data-name="Group 22110">
            <g id="Group_22109" data-name="Group 22109" clip-path="url(#clip-path-9)">
              <rect id="Rectangle_1156" data-name="Rectangle 1156" width="56.007" height="6.573" transform="translate(0 42.975) rotate(-50.113)" fill="#72accc"/>
            </g>
          </g>
        </g>
        <g id="Group_22114" data-name="Group 22114" transform="translate(0.826 -3.783)" style="mix-blend-mode: screen;isolation: isolate">
          <g id="Group_22113" data-name="Group 22113">
            <g id="Group_22112" data-name="Group 22112" clip-path="url(#clip-path-10)">
              <rect id="Rectangle_1158" data-name="Rectangle 1158" width="56.007" height="3.056" transform="translate(0.001 42.975) rotate(-50.113)" fill="#72accc"/>
            </g>
          </g>
        </g>
        <g id="Group_22117" data-name="Group 22117" transform="translate(6.359 0.536)" style="mix-blend-mode: screen;isolation: isolate">
          <g id="Group_22116" data-name="Group 22116">
            <g id="Group_22115" data-name="Group 22115" clip-path="url(#clip-path-11)">
              <rect id="Rectangle_1160" data-name="Rectangle 1160" width="56.007" height="1.748" transform="translate(0 42.975) rotate(-50.113)" fill="#72accc"/>
            </g>
          </g>
        </g>
      </g>
    </g>
    <path id="Path_23608" data-name="Path 23608" d="M359.035,250.317s-7.7-34.511-6.956-50.647c.647-14.074,5.7-33.269,6.98-37.931,1.285,4.664,6.33,23.86,6.969,37.934.735,16.137-6.993,50.644-6.993,50.644" transform="translate(1145.113 364.37)" fill="#f76c59"/>
    <g id="Group_22225" data-name="Group 22225" transform="translate(127.673 -89.124)">
      <g id="Group_22224" data-name="Group 22224" transform="translate(863.698 515.2)">
        <g id="Group_22222" data-name="Group 22222" transform="translate(0)">
          <rect id="Rectangle_1134" data-name="Rectangle 1134" width="6.595" height="4.834" transform="translate(34.371 4.419)" fill="#495c7c"/>
          <rect id="Rectangle_1135" data-name="Rectangle 1135" width="4.106" height="5.227" transform="translate(35.614 8.722)" fill="#495c7c"/>
          <rect id="Rectangle_1136" data-name="Rectangle 1136" width="12.547" height="3.647" transform="translate(31.395 10.302)" fill="#495c7c"/>
          <rect id="Rectangle_1139" data-name="Rectangle 1139" width="12.547" height="3.647" transform="translate(193.512 10.302)" fill="#495c7c"/>
          <path id="Path_23443" data-name="Path 23443" d="M141.826,137.2c0,2.374-16.863,4.3-37.665,4.3S66.5,139.575,66.5,137.2s16.863-4.3,37.665-4.3,37.665,1.927,37.665,4.3" transform="translate(95.625 -132.9)" fill="#62a6bf"/>
          <path id="Path_23444" data-name="Path 23444" d="M108.645,147.5,63.336,153.03V137.607H117.4a9.966,9.966,0,0,1-8.76,9.892" transform="translate(89.724 -124.111)" fill="#f4b573"/>
          <path id="Path_23445" data-name="Path 23445" d="M29.34,147.5l45.309,5.531V137.607H20.583A9.963,9.963,0,0,0,29.34,147.5" transform="translate(9.891 -124.111)" fill="#f4b573"/>
          <path id="Path_23446" data-name="Path 23446" d="M116.827,139.349l-18.964-2.936a121.727,121.727,0,0,0-37.1,0L41.8,139.349c-3.114.482-5.37,2.733-5.37,5.353V155.4c0,2.713,2.411,5.009,5.657,5.391l4,.47a7.343,7.343,0,0,1,3,1.024l12.946,7.974a7.521,7.521,0,0,0,3.928,1.075H92.659a7.513,7.513,0,0,0,3.928-1.075l12.946-7.974a7.356,7.356,0,0,1,3.008-1.024l4-.47c3.246-.381,5.657-2.678,5.657-5.391V144.7c0-2.621-2.257-4.872-5.37-5.353" transform="translate(39.483 -128.995)" fill="#f4b573"/>
          <path id="Path_23447" data-name="Path 23447" d="M66.583,146.573a9.2,9.2,0,1,1-9.2-9.2,9.2,9.2,0,0,1,9.2,9.2" transform="translate(61.418 -124.549)" fill="#495c7c"/>
          <path id="Path_23448" data-name="Path 23448" d="M62.068,144.794a6.469,6.469,0,1,1-6.469-6.469,6.469,6.469,0,0,1,6.469,6.469" transform="translate(63.199 -122.77)" fill="#fcfcf5"/>
          <path id="Path_23449" data-name="Path 23449" d="M132.206,197.19H35.639a1.714,1.714,0,0,1-1.715-1.718v-45.12a1.714,1.714,0,0,1,1.715-1.717h96.568a1.717,1.717,0,0,1,1.718,1.717v45.12a1.717,1.717,0,0,1-1.718,1.718m-94.85-3.435h93.136V152.067H37.356Z" transform="translate(34.803 -103.518)" fill="#495c7c"/>
          <rect id="Rectangle_1140" data-name="Rectangle 1140" width="95.008" height="68.181" transform="translate(71.222 59.235)" fill="#a66e50"/>
          <rect id="Rectangle_1141" data-name="Rectangle 1141" width="8.258" height="68.181" transform="translate(114.597 59.235)" fill="#ffcea2"/>
          <path id="Path_23607" data-name="Path 23607" d="M85.288,137.2c0,2.374-16.863,4.3-37.665,4.3s-37.668-1.927-37.668-4.3,16.865-4.3,37.668-4.3,37.665,1.927,37.665,4.3" transform="translate(-9.955 -132.9)" fill="#62a6bf"/>
        </g>
      </g>
      <rect id="Rectangle_1180" data-name="Rectangle 1180" width="23.062" height="4.808" transform="translate(970.891 564.174)" fill="#495c7c"/>
      <rect id="Rectangle_1181" data-name="Rectangle 1181" width="17.347" height="4.57" transform="translate(972.925 557.823)" fill="#495c7c"/>
    </g>
    <g id="Group_22226" data-name="Group 22226" transform="translate(1037.658 237.316)">
      <path id="Path_23450" data-name="Path 23450" d="M61.523,144.8a34.922,34.922,0,1,1,34.923-34.923A34.963,34.963,0,0,1,61.523,144.8m0-67.333a32.411,32.411,0,1,0,32.41,32.41,32.448,32.448,0,0,0-32.41-32.41" transform="translate(10.915 30.76)" fill="#f76c59"/>
      <path id="Path_23451" data-name="Path 23451" d="M56.49,83.091a17.607,17.607,0,0,0-17.6,17.6c-.056,4.012,1.612,8.867,4.668,14.342A119.358,119.358,0,0,0,54.98,131.411a1.948,1.948,0,0,0,3.018,0,120.423,120.423,0,0,0,11.429-16.373c3.055-5.475,4.723-10.311,4.649-14.324A17.594,17.594,0,0,0,56.49,83.091m-.018,25.666a7.94,7.94,0,1,1,7.949-7.93,7.921,7.921,0,0,1-7.949,7.93" transform="translate(15.956 34.096)" fill="#f76c59"/>
    </g>
  </g>
</svg>
