<svg id="Group_21648" data-name="Group 21648" xmlns="http://www.w3.org/2000/svg" width="38.087" height="38.066" viewBox="0 0 38.087 38.066">
  <path id="Path_471" data-name="Path 471" d="M2800.969-860.547a11.359,11.359,0,0,0,3.378-8.107,11.359,11.359,0,0,0-3.378-8.107l-.9.9a10.1,10.1,0,0,1,3,7.2,10.1,10.1,0,0,1-3,7.2Z" transform="translate(-2770.391 878.652)" fill="#a576cc"/>
  <path id="Path_472" data-name="Path 472" d="M2710.367-793.015a8.427,8.427,0,0,0,0-11.063l-.946.856a7.122,7.122,0,0,1,0,9.351Z" transform="translate(-2682.956 808.543)" fill="#a576cc"/>
  <path id="Path_473" data-name="Path 473" d="M2615.867-726.119a4.539,4.539,0,0,0,0-5.959l-.946.856a3.235,3.235,0,0,1,0,4.247Z" transform="translate(-2591.805 739.095)" fill="#a576cc"/>
  <path id="Path_474" data-name="Path 474" d="M2898.4-929.222a14.9,14.9,0,0,1,0,19.558l.946.856a16.2,16.2,0,0,0,0-21.27Z" transform="translate(-2865.24 930.078)" fill="#a576cc"/>
  <path id="Path_475" data-name="Path 475" d="M2082.637-876.762a11.36,11.36,0,0,0-3.378,8.107,11.36,11.36,0,0,0,3.378,8.107l.9-.9a10.1,10.1,0,0,1-3-7.2,10.1,10.1,0,0,1,3-7.2Z" transform="translate(-2075.126 878.652)" fill="#a576cc"/>
  <path id="Path_476" data-name="Path 476" d="M2207.585-804.078a8.428,8.428,0,0,0,0,11.063l.946-.856a7.122,7.122,0,0,1,0-9.351Z" transform="translate(-2196.909 808.543)" fill="#a576cc"/>
  <path id="Path_477" data-name="Path 477" d="M2328.063-732.078a4.54,4.54,0,0,0,0,5.959l.946-.856a3.235,3.235,0,0,1,0-4.247Z" transform="translate(-2314.038 739.095)" fill="#a576cc"/>
  <path id="Path_478" data-name="Path 478" d="M1967.575-929.222l-.947-.856a16.2,16.2,0,0,0,0,21.27l.946-.856A14.9,14.9,0,0,1,1967.575-929.222Z" transform="translate(-1962.65 930.078)" fill="#a576cc"/>
  <path id="Path_479" data-name="Path 479" d="M2160.458-674.858a0,0,0,0,1,0,0l-1.76-4.021-1.188-2.715-.062-.143-.309-.706-4.76-10.877a.637.637,0,0,0-.584-.383h-.484v-4.583a1.911,1.911,0,0,0,1.276-1.8,1.916,1.916,0,0,0-1.914-1.914,1.916,1.916,0,0,0-1.914,1.914,1.911,1.911,0,0,0,1.276,1.8v4.583h-.792a.638.638,0,0,0-.584.383l-2.094,4.786-1.469,3.356-.483,1.1-2.527,5.777h0l-.234.535h0l-1.958,4.473h-2.135v1.276h26.155v-1.276h-2.772Zm-9.786-25.866a.639.639,0,0,1,.638.638.638.638,0,0,1-.638.638.638.638,0,0,1-.638-.638A.639.639,0,0,1,2150.671-700.724Zm-2.648,12.033,5.382.9.381.87-7.05,1.174.644-1.471Zm8.184,7.743-12.481,2.08,1.7-3.877Zm-10.258-3,.176-.4,5.264-.877,2.924-.487,1.492,3.41Zm10.965,4.178,1.222,2.793.679,1.551-13.985-2.33Zm-7.255-12.658h1.717l1.418,3.241-4.245-.707Zm9.152,19.138h-17.525l1.534-3.507,16.605,2.767.323.739Z" transform="translate(-2131.553 710.083)" fill="#a576cc"/>
</svg>
