<svg xmlns="http://www.w3.org/2000/svg" width="31.193" height="23.407" viewBox="0 0 31.193 23.407">
  <path id="path237" d="M33.336,117.684a1.574,1.574,0,0,1-.953-.8c-.1-.18-.114-.352-.114-1.1,0-.79.014-.91.132-1.128a1.534,1.534,0,0,1,1.408-.822h.381v-2.961c0-3.034.006-3.124.239-3.3.141-.108,13.041-.108,13.182,0,.232.178.239.268.239,3.3v2.961h.381a1.535,1.535,0,0,1,1.408.822c.118.218.132.338.132,1.128,0,.746-.018.918-.114,1.1a1.671,1.671,0,0,1-.679.692l-.244.132-7.622.01C36.919,117.727,33.42,117.71,33.336,117.684Zm1.545-1.195a1.671,1.671,0,0,1-.184-.625,1,1,0,0,1,.149-.7l.179-.351h-.756c-.721,0-.762.007-.905.15s-.15.189-.148.808c0,.939.059.989,1.107.992l.712,0Zm4.878,0a1.671,1.671,0,0,1-.184-.625,1,1,0,0,1,.149-.7l.179-.351H37.258l.179.351a1,1,0,0,1,.149.7,1.671,1.671,0,0,1-.184.625l-.154.276h2.666Zm4.878,0a1.671,1.671,0,0,1-.184-.625,1,1,0,0,1,.149-.7l.179-.351H42.136l.179.351a1,1,0,0,1,.149.7,1.671,1.671,0,0,1-.184.625l-.154.276h2.666Zm3.9.2c.249-.133.282-.239.284-.923,0-.619-.007-.667-.148-.808s-.184-.15-.905-.15h-.756l.179.351a1,1,0,0,1,.149.7,1.671,1.671,0,0,1-.184.625l-.154.276h.7a3.036,3.036,0,0,0,.834-.071Zm-12.2-.488a.453.453,0,0,0,.136-.755.484.484,0,0,0-.824.32.475.475,0,0,0,.272.432.357.357,0,0,0,.416,0Zm4.878,0a.453.453,0,0,0,.136-.755.484.484,0,0,0-.824.32.475.475,0,0,0,.272.432.357.357,0,0,0,.416,0Zm4.878,0a.453.453,0,0,0,.136-.755.484.484,0,0,0-.824.32.475.475,0,0,0,.272.432.357.357,0,0,0,.416,0Zm-5.568-5.051v-2.683h-.976v1.491a9.556,9.556,0,0,1-.068,1.64c-.116.255-.285.284-1.64.284s-1.524-.029-1.64-.284a9.555,9.555,0,0,1-.068-1.64v-1.491h-.976v5.366h5.366Zm6.342,0v-2.683H45.9v1.491a9.557,9.557,0,0,1-.068,1.64c-.116.255-.285.284-1.64.284s-1.524-.029-1.64-.284a9.557,9.557,0,0,1-.068-1.64v-1.491h-.976v5.366h5.366Zm-8.293-1.463v-1.22H37.117v2.439H38.58Zm6.342,0v-1.22H43.459v2.439h1.463Zm6.12,7.978a.5.5,0,0,1-.2-.212,19.325,19.325,0,0,1,0-3.333c.144-.271.2-.282,1.56-.284l1.3,0v-1.01c0-1.433-.007-1.424,1.143-1.427l.808,0V98.678l-.178-.132a2,2,0,0,1-.381-.467l-.2-.335-2.409,0-2.409,0-.246.374a2.053,2.053,0,0,1-.621.621l-.374.246,0,1.326,0,1.326,1.3,0a5.256,5.256,0,0,1,1.393.076c.21.161.239.332.239,1.406v1.065l-.229.335a12.085,12.085,0,0,1-1.518,1.91.337.337,0,0,1-.376.029.5.5,0,0,1-.284-.56,10.642,10.642,0,0,1,.737-1.062l.694-.924v-1.3H44.922v1.3l.694.924a10.644,10.644,0,0,1,.737,1.062.5.5,0,0,1-.278.558c-.317.131-.463.008-1.255-1.056-.4-.544-.767-1.048-.8-1.122a9.754,9.754,0,0,1,0-2.356c.144-.271.2-.282,1.56-.284l1.3,0V98.974l-.191-.079a2.713,2.713,0,0,1-.989-1.04,2.412,2.412,0,0,1,1.779-3.482,2.447,2.447,0,0,1,2.068.663l.264.264h5.341l.278-.266a2.563,2.563,0,0,1,1.414-.667,1.656,1.656,0,0,1,.855.045A2.447,2.447,0,0,1,59.524,96.5a2.477,2.477,0,0,1-.672,1.924l-.269.26V111.4l.808,0c1.15,0,1.143-.006,1.143,1.427v1.01l1.3,0c1.357,0,1.416.013,1.56.284a19.363,19.363,0,0,1,0,3.333.508.508,0,0,1-.216.216c-.2.092-11.944.088-12.133,0Zm11.442-1.88v-.976H51.752v1.951H62.484Zm-2.927-2.927v-.488H54.679v.976h4.878ZM57.606,105.3V99.2H56.63v12.2h.976Zm-9.174-7.218a1.454,1.454,0,1,0-2.046-1.319,1.54,1.54,0,0,0,1.463,1.462A1.577,1.577,0,0,0,48.432,98.083Zm9.269,0a1.454,1.454,0,1,0-2.046-1.319,1.54,1.54,0,0,0,1.463,1.462A1.577,1.577,0,0,0,57.7,98.083ZM54.679,96.52v-.244h-4.39v.488h4.39Z" transform="translate(-32.269 -94.333)" fill="#fff"/>
</svg>
