<svg id="Group_2621" data-name="Group 2621" xmlns="http://www.w3.org/2000/svg" width="22.627" height="24.683" viewBox="0 0 22.627 24.683">
  <path id="Path_415" data-name="Path 415" d="M138.744,451.085A3.863,3.863,0,0,0,142.522,448h-7.557A3.863,3.863,0,0,0,138.744,451.085Z" transform="translate(-128.458 -426.402)" fill="#fff"/>
  <path id="Path_416" data-name="Path 416" d="M17.5,52.952h-.012a7.208,7.208,0,0,1-7.2-7.2,7.135,7.135,0,0,1,.688-3.051c-.226-.021-.456-.035-.688-.035a7.2,7.2,0,0,0-7.2,7.2v2.867A6.9,6.9,0,0,1,.628,58.014a1.8,1.8,0,0,0-.566,1.847,1.887,1.887,0,0,0,1.849,1.32H18.65a1.885,1.885,0,0,0,1.88-1.427,1.8,1.8,0,0,0-.614-1.761A6.844,6.844,0,0,1,17.5,52.952Z" transform="translate(0.002 -40.611)" fill="#fff"/>
  <path id="Path_417" data-name="Path 417" d="M266.3,5.142A5.142,5.142,0,1,1,261.154,0,5.142,5.142,0,0,1,266.3,5.142Z" transform="translate(-243.67)" fill="#fff"/>
</svg>
