<svg xmlns="http://www.w3.org/2000/svg" width="23.27" height="29.893" viewBox="0 0 23.27 29.893">
  <path id="Union_2" data-name="Union 2" d="M7442.282-361.1q-2.425,0-4.852,0t-4.851,0a3.014,3.014,0,0,1-3.158-3.173c0-.338-.009-.677,0-1.015a.6.6,0,0,1,.611-.624.6.6,0,0,1,.585.615c.013.363,0,.727,0,1.091a1.808,1.808,0,0,0,1.917,1.9q2.8,0,5.608,0,2.1,0,4.208,0a2.093,2.093,0,0,1,.375.009.566.566,0,0,1,.52.592.565.565,0,0,1-.521.591,1.216,1.216,0,0,1-.2.014C7442.45-361.1,7442.366-361.1,7442.282-361.1Zm2.786-2.816c0-4.274,0-18.549,0-22.825a1.831,1.831,0,0,0-2.039-2.046H7432.65a1.828,1.828,0,0,0-2.026,2.022c0,.3,0,.6,0,.9a.613.613,0,0,1-.591.684.6.6,0,0,1-.607-.665,10.993,10.993,0,0,1,.073-1.723,2.912,2.912,0,0,1,2.822-2.414q5.528-.028,11.056,0a2.965,2.965,0,0,1,2.893,3.011q.017,4.418,0,8.837c0,.284-.019.377.006.8v1.413c0,.673,0,11.345,0,12.018,0,.478-.217.755-.589.762h-.018C7445.289-363.143,7445.068-363.426,7445.068-363.919Zm-7.247.407c-.2,0-.4.011-.6,0a.594.594,0,0,1-.574-.583.588.588,0,0,1,.585-.609c.413-.015.828-.017,1.239,0a.587.587,0,0,1,.576.581.6.6,0,0,1-.585.611c-.078,0-.156.006-.235.006C7438.091-363.507,7437.956-363.511,7437.821-363.511Zm-8.25-3.825a25.1,25.1,0,0,1-5.171-8.469,6.254,6.254,0,0,1,.129-4.726,6.079,6.079,0,0,1,6.047-3.422,5.941,5.941,0,0,1,5.35,4.687,9.258,9.258,0,0,1,.12.932,9.692,9.692,0,0,1-.837,3.747,28.112,28.112,0,0,1-4.693,7.212.674.674,0,0,1-.5.268A.584.584,0,0,1,7429.571-367.337Zm-.592-15.328a4.683,4.683,0,0,0-3.575,5.988c.82,3.067,2.663,5.545,4.61,8.038a28.69,28.69,0,0,0,3.79-5.75,9.417,9.417,0,0,0,1.022-3.433,4.733,4.733,0,0,0-4.783-4.958A4.96,4.96,0,0,0,7428.979-382.664Zm1.031,7.718a3.021,3.021,0,0,1-3-3.031,3.018,3.018,0,0,1,3.039-2.986,3.016,3.016,0,0,1,2.977,3.011,3.019,3.019,0,0,1-3.01,3.007Zm-1.792-3.018a1.814,1.814,0,0,0,1.814,1.815,1.814,1.814,0,0,0,1.794-1.8,1.81,1.81,0,0,0-1.775-1.815h-.023A1.812,1.812,0,0,0,7428.218-377.964Zm7.922-8.419c-.436-.006-.707-.25-.7-.615a.608.608,0,0,1,.688-.587q1.713-.006,3.422,0c.436,0,.707.249.7.615a.611.611,0,0,1-.688.585c-.577.007-1.153,0-1.73,0l-1.127,0Q7436.422-386.381,7436.14-386.383Z" transform="translate(-7423.505 390.491)" stroke="rgba(0,0,0,0)" stroke-miterlimit="10" stroke-width="1"/>
</svg>
