<svg id="Group_2623" data-name="Group 2623" xmlns="http://www.w3.org/2000/svg" width="21.837" height="21.84" viewBox="0 0 21.837 21.84">
  <g id="Group_2622" data-name="Group 2622">
    <path id="Path_418" data-name="Path 418" d="M24.3,5.81l-.327.1-1.74.155-.492.785-.357-.113L20,5.491l-.2-.649-.269-.692-.87-.781-1.027-.2-.024.47,1.006.982.492.58-.553.289-.45-.133-.675-.282.022-.544-.885-.364-.294,1.28-.893.2.088.714,1.164.224.2-1.141.959.142.446.261h.716l.49.982,1.3,1.318-.1.512L19.6,8.527l-1.81.914L16.484,11l-.17.692h-.468l-.872-.4-.847.4.211.894.368-.425.648-.02-.045.8.537.157.536.6.875-.245,1,.157,1.161.312L20,14l.983,1.116,1.9,1.115L21.65,18.574l-1.3.6-.492,1.34-1.874,1.251-.2.722A10.906,10.906,0,0,0,24.3,5.81Z" transform="translate(-4.309 -0.966)" fill="#fff"/>
    <path id="Path_419" data-name="Path 419" d="M12.178,18.923l-.8-1.475.73-1.521-.73-.218-.82-.823-1.816-.407-.6-1.261v.749H7.878L6.314,11.844V10.1L5.166,8.236l-1.821.325H2.118l-.617-.4.788-.624L1.5,7.713a10.905,10.905,0,0,0,9.419,16.423,11.453,11.453,0,0,0,1.371-.1l-.114-1.322s.5-1.965.5-2.031S12.178,18.923,12.178,18.923Z" transform="translate(-0.004 -2.296)" fill="#fff"/>
    <path id="Path_420" data-name="Path 420" d="M5.156,3.521l1.94-.27.894-.49L9,3.051,10.6,2.962l.551-.866.8.132,1.95-.183.537-.592L15.2.947l1.072.161.39-.059A10.883,10.883,0,0,0,3.6,3.97H3.6Zm7.322-2.435L13.593.472l.716.414-1.037.789-.99.1-.446-.289Zm-3.3.09.492.205.644-.205.351.608-1.488.391L8.46,1.756S9.159,1.306,9.175,1.176Z" transform="translate(-1.099)" fill="#fff"/>
  </g>
</svg>
