<svg xmlns="http://www.w3.org/2000/svg" width="42.067" height="37.49" viewBox="0 0 42.067 37.49">
  <g id="Group_21512" data-name="Group 21512" transform="translate(0.75 0.75)">
    <path id="Path_18145" data-name="Path 18145" d="M-341.6-15.027c.04-.064.083-.127.119-.193a1.2,1.2,0,0,1,1.316-.652,1.187,1.187,0,0,1,.939,1.17c.011.713,0,1.425,0,2.137,0,.13,0,.258,0,.394,2.53.172,4.952.059,6.952-1.739.059-.053.118-.1.175-.16a.552.552,0,0,0,.055-.1c-.241-.169-.488-.339-.731-.514a1.183,1.183,0,0,1-.314-1.731c.258-.382.53-.756.8-1.132.022-.032.052-.058.116-.128l9.624,6.873c-.3.433-.557.845-.85,1.233a1.154,1.154,0,0,1-1.62.267c-.4-.256-.78-.535-1.187-.816a15.6,15.6,0,0,1-13.017,5.1c0,.85.008,1.638,0,2.426a1.158,1.158,0,0,1-.827,1.132,1.15,1.15,0,0,1-1.278-.382c-.1-.131-.18-.282-.269-.424Z" transform="translate(341.599 37.371)" fill="none" stroke="#cf755e" stroke-width="1.5" fill-rule="evenodd"/>
    <path id="Path_18146" data-name="Path 18146" d="M-236.311-12.563c-.352.489-.684,1-1.061,1.467q-2.312,2.89-4.648,5.764a1.223,1.223,0,0,1-1.921.266c-.8-.576-1.6-1.156-2.438-1.757.862-.69,1.7-1.365,2.546-2.038l6.125-4.893c.5-.4.507-.408.971.031a3.62,3.62,0,0,1,.424.6Z" transform="translate(276.878 34.907)" fill="none" stroke="#cf755e" stroke-width="1.5" fill-rule="evenodd"/>
    <path id="Path_18147" data-name="Path 18147" d="M-319.126-79.162a2.731,2.731,0,0,1,1.709.59q5.644,4.085,11.3,8.16l11.135,8.044a1.235,1.235,0,0,1,.053,2.225l-10.951,8.75-.123.1a1.293,1.293,0,0,1-1.916.057l-12.209-8.718q-3.8-2.715-7.6-5.43a2.385,2.385,0,0,1-.507-3.7q3.643-4.539,7.289-9.078A2.432,2.432,0,0,1-319.126-79.162ZM-301.989-61.3a1.189,1.189,0,0,0-1.191-1.178,1.188,1.188,0,0,0-1.185,1.184,1.19,1.19,0,0,0,1.19,1.179A1.191,1.191,0,0,0-301.989-61.3Z" transform="translate(332.968 79.162)" fill="none" stroke="#cf755e" stroke-width="1.5" fill-rule="evenodd"/>
  </g>
</svg>
