<svg xmlns="http://www.w3.org/2000/svg" xmlns:xlink="http://www.w3.org/1999/xlink" width="104" height="104" viewBox="0 0 104 104">
  <defs>
    <clipPath id="clip-path">
      <rect id="Rectangle_1177" data-name="Rectangle 1177" width="104" height="104" fill="#0831e2"/>
    </clipPath>
  </defs>
  <g id="Group_22206" data-name="Group 22206" transform="translate(0.477 0.477)">
    <g id="Group_22205" data-name="Group 22205" transform="translate(-0.477 -0.477)" clip-path="url(#clip-path)">
      <path id="Path_23598" data-name="Path 23598" d="M54.136,0A52.532,52.532,0,0,1,60.5,1.424c11.206,3.96,17.892,11.832,19.7,23.605A27.623,27.623,0,0,1,75.9,44.4q-4.763,7.554-9.528,15.106c-.193.306-.371.621-.65,1.091H86.1c1.555,0,1.807.178,2.366,1.648q7.268,19.129,14.538,38.257c.117.308.277.6.417.9v2.018H0V101.4q1.807-4.64,3.614-9.281c.329-.845.632-1.7.971-2.542.42-1.044,1.163-1.44,2.03-1.113a1.533,1.533,0,0,1,.792,2.184c-1.1,2.926-2.22,5.842-3.329,8.763-.1.275-.179.562-.292.92H99.646c-.113-.349-.2-.663-.316-.967Q92.706,81.938,86.095,64.5a1.147,1.147,0,0,0-1.291-.888q-10.047.042-20.1,0a1.4,1.4,0,0,0-1.444.79c-.373.709-.837,1.37-1.389,2.256h3.808c2.91,0,2.9,0,3.425,2.829q1.236,6.591,2.512,13.175c.377,1.955-.106,2.579-2.056,2.579q-17.873,0-35.747,0c-1.843,0-2.388-.645-2.049-2.423q1.385-7.282,2.776-14.562c.231-1.208.687-1.594,1.921-1.6,1.615-.01,3.229,0,5.1,0-.669-1.05-1.23-1.979-1.855-2.863-.109-.154-.488-.161-.743-.161-6.867-.008-13.734.006-20.6-.026-.688,0-.825.352-1.012.847q-3.6,9.522-7.227,19.036c-.036.094-.064.191-.1.285-.48,1.218-1.19,1.66-2.1,1.31S6.732,83.91,7.18,82.726q2.71-7.165,5.434-14.326c.811-2.136,1.645-4.264,2.423-6.412a1.9,1.9,0,0,1,2.039-1.409c6.429.029,12.858.015,19.287.015h1.329c-.262-.443-.444-.771-.644-1.088-3.208-5.094-6.439-10.175-9.624-15.283A28.706,28.706,0,0,1,41.407,1.961,55.727,55.727,0,0,1,48.523.189L49.288,0ZM25.965,28.752a25.266,25.266,0,0,0,3.914,13.685Q40,58.539,50.163,74.619c.968,1.534,2.131,1.529,3.1-.011Q63.391,58.566,73.5,42.513a25.339,25.339,0,0,0,3.7-17.294,25.74,25.74,0,0,0-51.236,3.533m40.1,40.938c-1.836,0-3.551.038-5.262-.019a1.351,1.351,0,0,0-1.353.779c-1.207,1.98-2.449,3.94-3.7,5.892-2.1,3.279-5.976,3.282-8.072.009-1.287-2.01-2.538-4.043-3.837-6.045a1.279,1.279,0,0,0-.807-.594c-1.875-.053-3.753-.027-5.677-.027L34.995,82.136H68.43L66.067,69.69" transform="translate(0.288 0.288)" fill="#0831e2"/>
      <path id="Path_23599" data-name="Path 23599" d="M141.663,336.843h-30.4c-1.853,0-2.367-.594-2.041-2.4q.458-2.531.964-5.052c.26-1.3.674-1.635,1.986-1.636q10-.006,20,0h37.672c1.576,0,1.838.177,2.386,1.622.632,1.665,1.268,3.329,1.884,5,.586,1.589-.035,2.465-1.745,2.465q-15.351.006-30.7,0m28.982-3.063a18.05,18.05,0,0,1-.734-1.986c-.2-.841-.67-1.032-1.5-1.031q-27.165.037-54.33.019h-1.1l-.545,3Z" transform="translate(-79.45 -239.19)" fill="#0831e2"/>
      <path id="Path_23600" data-name="Path 23600" d="M57.373,266.031c-1.885,0-3.769.009-5.654,0-1.617-.01-2.241-.919-1.664-2.448,1.862-4.935,3.746-9.861,5.6-14.8a1.851,1.851,0,0,1,1.975-1.354c2.793.039,5.586.005,8.38.017,1.438.006,2.016.694,1.749,2.126q-1.4,7.483-2.837,14.958a1.552,1.552,0,0,1-1.795,1.5c-1.918.014-3.836,0-5.755,0m7.135-15.515H58.253L53.516,263c2.792,0,5.441.013,8.088-.025a.875.875,0,0,0,.632-.544c.777-3.949,1.515-7.905,2.271-11.916" transform="translate(-36.131 -180.498)" fill="#0831e2"/>
      <path id="Path_23601" data-name="Path 23601" d="M277.861,266.053c-1.884,0-3.767.006-5.651,0-1.241-.005-1.689-.361-1.924-1.586q-1.424-7.423-2.819-14.852c-.275-1.469.313-2.137,1.832-2.141,2.758-.007,5.517.022,8.275-.015a1.858,1.858,0,0,1,1.985,1.344c1.855,4.934,3.739,9.858,5.6,14.791.594,1.576-.038,2.453-1.748,2.46-1.85.007-3.7,0-5.551,0m3.842-3.03-4.736-12.48h-6.252c.763,4.04,1.508,8.027,2.289,12.008a.8.8,0,0,0,.611.452c2.649.031,5.3.02,8.089.02" transform="translate(-195.094 -180.521)" fill="#0831e2"/>
      <path id="Path_23602" data-name="Path 23602" d="M41.426,336.819c-2.252,0-4.5.008-6.756,0-1.626-.008-2.238-.9-1.667-2.444.664-1.793,1.377-3.569,2.026-5.367a1.779,1.779,0,0,1,1.912-1.284c4.168.022,8.336,0,12.5.013,1.431,0,2.014.694,1.767,2.134-.318,1.852-.677,3.7-1.042,5.542a1.612,1.612,0,0,1-1.786,1.415c-2.319-.016-4.638-.005-6.957,0m5.956-3.062.566-3c-3.368,0-6.623,0-9.877.012a.708.708,0,0,0-.553.282c-.367.871-.677,1.766-1.025,2.7Z" transform="translate(-23.673 -239.167)" fill="#0831e2"/>
      <path id="Path_23603" data-name="Path 23603" d="M74.471,258.9c-.757,4.011-1.494,7.968-2.271,11.916a.875.875,0,0,1-.632.544c-2.648.038-5.3.025-8.088.025L68.217,258.9Z" transform="translate(-46.095 -188.879)" fill="#0831e2"/>
      <path id="Path_23604" data-name="Path 23604" d="M163.47,61.695A16.655,16.655,0,1,1,146.891,45a16.678,16.678,0,0,1,16.578,16.69m-3.029-.069A13.627,13.627,0,1,0,146.881,75.3a13.639,13.639,0,0,0,13.559-13.678" transform="translate(-94.815 -32.595)" fill="#0831e2"/>
      <path id="Path_23605" data-name="Path 23605" d="M173.859,78.08a10.59,10.59,0,1,1-10.624-10.568A10.613,10.613,0,0,1,173.859,78.08m-18.152.037a7.563,7.563,0,1,0,7.559-7.575,7.579,7.579,0,0,0-7.559,7.575" transform="translate(-111.27 -49.041)" fill="#0831e2"/>
    </g>
  </g>
</svg>
