<svg id="next" xmlns="http://www.w3.org/2000/svg" width="31.76" height="31.76" viewBox="0 0 31.76 31.76">
  <path id="Path_22535" data-name="Path 22535" d="M16.88,32.76A15.88,15.88,0,1,1,32.76,16.879,15.9,15.9,0,0,1,16.88,32.76Z" transform="translate(-1 -1)" fill="#263aac"/>
  <path id="Path_22536" data-name="Path 22536" d="M24.958,18.754,20.44,14.236a.8.8,0,1,0-1.131,1.13L22.6,18.658H14.145a.8.8,0,1,0,0,1.6H22.6l-3.294,3.292a.8.8,0,0,0,1.131,1.131l4.519-4.52a.79.79,0,0,0,.206-.7.786.786,0,0,0-.206-.7" transform="translate(-3.543 -3.678)" fill="#fff"/>
</svg>
