<svg xmlns="http://www.w3.org/2000/svg" width="25.13" height="27.191" viewBox="0 0 25.13 27.191">
  <g id="Group_21878" data-name="Group 21878" transform="translate(-370.5 -467.408)">
    <g id="Rectangle_884" data-name="Rectangle 884" transform="translate(370.5 467.408)" fill="none" stroke="#fff" stroke-width="1.5">
      <rect width="25" height="4" rx="2" stroke="none"/>
      <rect x="0.75" y="0.75" width="23.5" height="2.5" rx="1.25" fill="none"/>
    </g>
    <g id="Subtraction_2" data-name="Subtraction 2" transform="translate(374.789 472.619)" fill="none">
      <path d="M8.235,6.959A8.32,8.32,0,0,1,5.3,6.427,8.32,8.32,0,0,1,2.814,4.96,8.355,8.355,0,0,1,0,0H16.47a8.355,8.355,0,0,1-2.814,4.96,8.32,8.32,0,0,1-2.482,1.466A8.32,8.32,0,0,1,8.235,6.959Z" stroke="none"/>
      <path d="M 8.234651565551758 5.458523273468018 C 9.065502166748047 5.458523273468018 9.876741409301758 5.311873435974121 10.64583206176758 5.022643089294434 C 11.38912200927734 4.74311351776123 12.07390213012695 4.338393211364746 12.68113136291504 3.819733381271362 C 13.43404388427734 3.176618099212646 14.0340633392334 2.382728576660156 14.4460334777832 1.500003337860107 L 2.023512601852417 1.500003337860107 C 2.435475826263428 2.382732391357422 3.035476446151733 3.176622629165649 3.788351774215698 3.819713354110718 C 4.395621776580811 4.338393211364746 5.080391883850098 4.743123531341553 5.823631763458252 5.022643089294434 C 6.592691898345947 5.311873435974121 7.403871536254883 5.458523273468018 8.234651565551758 5.458523273468018 M 8.234651565551758 6.958523273468018 C 7.222901821136475 6.958523273468018 6.234071731567383 6.779573440551758 5.295621871948242 6.426643371582031 C 4.388981819152832 6.085663318634033 3.55411171913147 5.592313289642334 2.814151763916016 4.960293292999268 C 1.32211172580719 3.685833215713501 0.3227217197418213 1.924243330955505 1.728515599097591e-06 3.305663994979113e-06 L 16.46954154968262 3.305663994979113e-06 C 16.14679145812988 1.924503326416016 15.14725208282471 3.685973405838013 13.65536212921143 4.960293292999268 C 12.91540145874023 5.592323303222656 12.08050155639648 6.085673332214355 11.17383193969727 6.426643371582031 C 10.2353515625 6.779573440551758 9.246461868286133 6.958523273468018 8.234651565551758 6.958523273468018 Z" stroke="none" fill="#fff"/>
    </g>
    <path id="rgba_0_0_0_1_" data-name="rgba(0,0,0,1)" d="M87.692,165.6h2.161l.065-.065,1.179-.065,1.637-.327,1.833-.589a15.924,15.924,0,0,0,5.6-3.765,1.558,1.558,0,0,0,.393-1.506,1.878,1.878,0,0,0-.687-.949l-.327-.2L98.954,158q-.1.164-.458.065l-.524.262a12.529,12.529,0,0,1-4.387,2.946l-1.375.458-1.506.327-1.244.065-.065.065H88.02l-.065-.065H87.3l-1.506-.262-1.179-.327-1.31-.524a12.894,12.894,0,0,1-3.8-2.75L78.657,158l-.589.131-.687.491a1.62,1.62,0,0,0-.393,1.244l.327.786,1.015,1.015a15.9,15.9,0,0,0,4.387,2.75l2.423.786,1.375.262,1.113.065Z" transform="translate(294.293 328.253)" fill="none" stroke="#fff" stroke-width="1.5"/>
    <path id="rgba_0_0_0_1_2" data-name="rgba(0,0,0,1)" d="M159.962,266.861l2.161-.065,1.7-.458a9.161,9.161,0,0,0,3.5-2.455,1.839,1.839,0,0,0,.393-1.31l-.262-.786-.491-.491a1.493,1.493,0,0,0-1.309-.262l-.524.262-1.048.917-1.179.655-1.506.393h-1.375l-.72-.131-1.31-.524a6.343,6.343,0,0,1-1.571-1.31l-.393-.2a1.6,1.6,0,0,0-.917-.065,1.764,1.764,0,0,0-.884.557,1.863,1.863,0,0,0-.393,1.506l.327.72,1.015,1.015a8.68,8.68,0,0,0,2.226,1.375l1.113.393Z" transform="translate(222.482 220.243)" fill="none" stroke="#fff" stroke-width="1.5"/>
  </g>
</svg>
