<svg xmlns="http://www.w3.org/2000/svg" width="50" height="51" viewBox="0 0 50 51">
  <g id="Group_21895" data-name="Group 21895" transform="translate(-406.001 -981.081)">
    <g id="Group_21667" data-name="Group 21667" transform="translate(-19.508)">
      <g id="Group_19606" data-name="Group 19606" transform="translate(425.535 981.423)">
        <ellipse id="Ellipse_23" data-name="Ellipse 23" cx="25" cy="25.5" rx="25" ry="25.5" transform="translate(-0.026 -0.342)" fill="#2c2c6e"/>
      </g>
      <path id="Path_22486" data-name="Path 22486" d="M477.978,362.409a.67.67,0,1,1,.646.688A.678.678,0,0,1,477.978,362.409Z" transform="translate(-24.648 649.02)" fill="#fff" fill-rule="evenodd"/>
    </g>
    <path id="path546" d="M57.039,127.1a2.762,2.762,0,0,1-2.016-2.135,3.018,3.018,0,0,1,.037-1.206l.042-.2h-.64a6.109,6.109,0,0,1-.961-.068,2.744,2.744,0,0,1-2.117-3.087,2.781,2.781,0,0,1,1.357-1.935c.169-.086.224-.148.2-.222-.018-.057-.809-3.258-1.759-7.114q-1.725-7.006-1.845-7.178c-.229-.322-.421-.364-1.664-.364a3.731,3.731,0,0,0-1.338.1.908.908,0,0,0-.485.623l-.037.187h-.9c-1.023,0-.959.043-.832-.557a2.733,2.733,0,0,1,1.372-1.821,3.954,3.954,0,0,1,2.221-.346,3.954,3.954,0,0,1,2.221.346,2.884,2.884,0,0,1,1.464,2.166c.09.366.19.768.223.893l.06.227H63.318c6.422,0,11.675.007,11.674.015s-.936,3.269-2.076,7.246L70.843,119.9l-8.559.03-8.559.03-.189.135a.916.916,0,0,0,.122,1.552c.188.089.911.1,7.683.1,5.243,0,7.572.02,7.8.067a2.711,2.711,0,1,1-3.222,3.151,3.018,3.018,0,0,1,.037-1.206l.042-.2H60.275l.042.2a2.8,2.8,0,0,1-.208,1.921,2.715,2.715,0,0,1-3.07,1.419Zm1.075-1.844a.9.9,0,1,0-1.318-.692A.881.881,0,0,0,58.114,125.255Zm10.892,0a.9.9,0,1,0-1.318-.692A.881.881,0,0,0,69.006,125.255ZM71,112.782c.842-2.934,1.544-5.384,1.56-5.446.028-.109-.276-.112-10.2-.112-8.441,0-10.233.014-10.233.08s2.573,10.573,2.632,10.736c.021.06,1.551.076,7.371.076h7.344ZM59.746,115.12,58.2,113.577l.65-.65.65-.65.908.907.908.907,2.269-2.268,2.269-2.268.65.65.65.65-2.9,2.9c-1.6,1.6-2.918,2.9-2.935,2.9S60.594,115.969,59.746,115.12Z" transform="translate(370.23 892.519)" fill="#fff"/>
  </g>
</svg>
