<svg xmlns="http://www.w3.org/2000/svg" width="19.633" height="22.338" viewBox="0 0 19.633 22.338">
  <g id="Group_2629" data-name="Group 2629" transform="translate(0)">
    <g id="Group_2628" data-name="Group 2628">
      <g id="Group_2625" data-name="Group 2625" transform="translate(3.927)">
        <g id="Group_2624" data-name="Group 2624" transform="translate(0)">
          <path id="Path_421" data-name="Path 421" d="M338.931,0a5.89,5.89,0,1,0,5.89,5.89A5.9,5.9,0,0,0,338.931,0Z" transform="translate(-333.041)" fill="#fff"/>
        </g>
      </g>
      <g id="Group_2627" data-name="Group 2627" transform="translate(0 13.089)">
        <g id="Group_2626" data-name="Group 2626">
          <path id="Path_422" data-name="Path 422" d="M245.547,351.337a8.4,8.4,0,0,0-6.019-2.539H236.91a8.4,8.4,0,0,0-6.019,2.539,8.584,8.584,0,0,0-2.488,6.056.654.654,0,0,0,.654.654h18.324a.654.654,0,0,0,.654-.654A8.584,8.584,0,0,0,245.547,351.337Z" transform="translate(-228.402 -348.798)" fill="#fff"/>
        </g>
      </g>
    </g>
  </g>
</svg>
