<svg id="Group_21619" data-name="Group 21619" xmlns="http://www.w3.org/2000/svg" width="41.263" height="41.263" viewBox="0 0 41.263 41.263">
  <path id="Path_22488" data-name="Path 22488" d="M229.75,187.2a1.022,1.022,0,0,1,.914-.373q5.5.012,11,0h.582c-.114-.892.208-1.384,1.213-1.172,0-.772,0-1.479,0-2.185,0-.059-.034-.156-.074-.169-.5-.166-.886-.587-1.473-.582-1.53.015-3.062.019-4.592-.03a7.544,7.544,0,0,1-3.954-1.331.622.622,0,0,1-.262-.86.6.6,0,0,1,.909-.153,7.373,7.373,0,0,0,4.4,1.179c.937-.023,1.875,0,2.791,0,0-2,0-3.956,0-5.913a1.892,1.892,0,0,1,.683-1.444c.156-.143.329-.269.491-.4-.013-.036-.014-.071-.03-.082a2.393,2.393,0,0,1-1.159-2.309c.065-1.515.049-3.035,0-4.551a2.076,2.076,0,0,1,1.106-2.037,10.173,10.173,0,0,1,2.353-1,22.866,22.866,0,0,1,11.972.145,8.326,8.326,0,0,1,1.953.921,2.037,2.037,0,0,1,1.009,1.929c-.038,1.5-.056,3.01.005,4.511a2.38,2.38,0,0,1-1.189,2.4c.011.051.007.089.022.1a2.462,2.462,0,0,1,1.169,2.428c-.069,1.339-.017,2.685-.017,4.028v1.242c5.8.661,9.434-3.01,10.136-7.182a8.591,8.591,0,0,0-7.343-9.838c-1.027-.123-1.024-.124-1.285-1.116a12.3,12.3,0,0,0-1.454-3.388c-.1-.154-.222-.368-.18-.509a.923.923,0,0,1,.409-.526.516.516,0,0,1,.71.279,23.788,23.788,0,0,1,1.393,2.976,1.57,1.57,0,0,0,1.374,1.254,9.644,9.644,0,0,1,7.616,8.39,1.233,1.233,0,0,0,.07.224v1.773c-.053.289-.11.577-.157.866a9.7,9.7,0,0,1-8.117,7.9c-1.3.159-2.628.052-3.934.164a5.234,5.234,0,0,0-1.432.554.174.174,0,0,0-.064.136c0,.718,0,1.436,0,2.146,1.07.139,1.07.139,1.258,1.24h.5q5.515,0,11.03,0a1.025,1.025,0,0,1,.914.373v.483a1.032,1.032,0,0,1-.918.363q-5.52-.013-11.04-.005h-.546c0,.238.015.426,0,.611a.575.575,0,0,1-.593.588c-.819.012-1.639.016-2.457,0a.547.547,0,0,1-.565-.6c-.007-.792-.01-1.585,0-2.377a.572.572,0,0,1,.6-.617c.195-.015.391-.018.584-.027V183.78l-3.264.556v.421c0,1.45.082,2.907-.026,4.349a2.687,2.687,0,0,0,1.155,2.685,1.167,1.167,0,0,0,.594.234q6.225.02,12.45.01h.4c0-.149,0-.242,0-.335.006-.7.177-.873.883-.874.631,0,1.263.016,1.894-.006a.863.863,0,0,1,.85.409v3.224H267.79c-.512-.257-.376-.766-.418-1.209h-.524q-6.323,0-12.646.007a1.152,1.152,0,0,1-.922-.386c-.4-.432-.819-.853-1.253-1.252a1.264,1.264,0,0,1-.434-1.026c.019-1.919.008-3.839.008-5.759v-.422h-2.438v.462c0,1.906-.011,3.812.008,5.719a1.269,1.269,0,0,1-.433,1.027c-.434.4-.85.821-1.253,1.252a1.158,1.158,0,0,1-.923.385q-6.343-.016-12.686-.007h-.493c-.008.476.074.948-.409,1.209H229.75v-3.224c.2-.134.4-.37.609-.382.8-.045,1.611-.029,2.416-.013a.586.586,0,0,1,.6.626c.01.182,0,.365,0,.576h.527c3.707,0,7.415-.05,11.121.03a2.815,2.815,0,0,0,2.685-1.153,1.173,1.173,0,0,0,.234-.595c.018-1.867.011-3.734.011-5.6v-.379l-3.285-.563v1.838c.179.009.311.018.443.021.58.014.763.2.765.782,0,.712.005,1.424,0,2.136,0,.477-.209.688-.688.7q-1.128.016-2.256,0a.612.612,0,0,1-.678-.674c-.007-.167,0-.334,0-.531h-.543q-5.52,0-11.041.005a1.027,1.027,0,0,1-.917-.363Zm28.608-9.857c-.574.236-1.093.491-1.637.664a21.409,21.409,0,0,1-7.4.849c-.7-.026-1.394-.084-2.086-.172a.567.567,0,0,1-.431-.937.928.928,0,0,1,.674-.222,26.042,26.042,0,0,0,6.228-.076,11.2,11.2,0,0,0,3.81-1.086c.36-.194.874-.412.794-.853-.058-.316-.488-.586-.79-.831a1.111,1.111,0,0,0-1.083-.148c-.9.249-1.829.412-2.752.576-.508.09-.8-.118-.839-.506s.213-.617.718-.693a10.431,10.431,0,0,0,1.544-.27c.878-.273,1.745-.594,2.594-.949a1.044,1.044,0,0,0,.666-1.164,12.661,12.661,0,0,1-.009-1.288v-1.994a21.287,21.287,0,0,1-15.954,0c0,1.172.014,2.3-.008,3.422a.871.871,0,0,0,.448.876,12.484,12.484,0,0,0,1.9.856,19.733,19.733,0,0,0,5.53.727c.459.009.7.224.7.6a.607.607,0,0,1-.7.608,20.029,20.029,0,0,1-5.769-.747,1.621,1.621,0,0,0-1.555.267c-.722.5-.716.868.027,1.356a2.529,2.529,0,0,0,.384.22c.418.179.846.338,1.262.523a.572.572,0,0,1,.328.765.584.584,0,0,1-.723.361,2.323,2.323,0,0,1-.38-.13c-.474-.2-.946-.4-1.444-.6,0,1.04.06,2.052-.019,3.052a1.42,1.42,0,0,0,.945,1.541c.145.069.289.141.438.2a13.646,13.646,0,0,0,3.865.9,22.362,22.362,0,0,0,8-.454,12.852,12.852,0,0,0,2.152-.87.856.856,0,0,0,.577-.763C258.36,179.755,258.358,178.56,258.358,177.342Zm-7.988-13.047a18.8,18.8,0,0,0-5.182.593,10.927,10.927,0,0,0-2.256.922c-.706.385-.69.828-.018,1.265a6.364,6.364,0,0,0,1.257.619,15.506,15.506,0,0,0,4.491.843,20.941,20.941,0,0,0,7.453-.688,7.9,7.9,0,0,0,1.811-.841c.58-.358.573-.735.015-1.121a5.793,5.793,0,0,0-1.314-.68A18.453,18.453,0,0,0,250.37,164.295Zm19.413,28.931V192.06h-1.159v1.166Zm-38.816-.006h1.173v-1.154h-1.173Zm12.514-5.209h1.162V186.88h-1.162Zm12.635-1.145v1.141h1.157v-1.141Z" transform="translate(-229.75 -153.189)" fill="#658790" fill-rule="evenodd"/>
  <path id="Path_22489" data-name="Path 22489" d="M229.75,126.662c.09-.431.149-.872.275-1.293a8.03,8.03,0,0,1,5.982-5.816c.129-.034.258-.065.371-.093.071-.771.106-1.534.216-2.286a13.069,13.069,0,0,1,10.12-10.825c.6-.13,1.209-.214,1.813-.32h2.1c.825.163,1.663.279,2.472.5a12.714,12.714,0,0,1,5.559,3.192,1.21,1.21,0,0,1,.255.307.545.545,0,0,1-.16.722.618.618,0,0,1-.84-.066,22.506,22.506,0,0,0-2.054-1.612,11.868,11.868,0,0,0-17.962,7.754,20.622,20.622,0,0,0-.227,2.96c-.026.556-.152.747-.707.822a6.9,6.9,0,0,0-4.879,10.61c.044.068.091.133.131.2a.6.6,0,0,1-.147.855.57.57,0,0,1-.861-.213c-.407-.78-.792-1.576-1.122-2.391a8.959,8.959,0,0,1-.329-1.4Z" transform="translate(-229.75 -106.03)" fill="#658790" fill-rule="evenodd"/>
  <path id="Path_22490" data-name="Path 22490" d="M387.812,272.62a.621.621,0,0,1,.6.631.6.6,0,0,1-.609.57.594.594,0,0,1-.59-.623A.607.607,0,0,1,387.812,272.62Z" transform="translate(-370.286 -254.716)" fill="#658790" fill-rule="evenodd"/>
  <path id="Path_22491" data-name="Path 22491" d="M388.412,357.749a.623.623,0,0,1-.6.625.61.61,0,0,1-.6-.584.589.589,0,0,1,.557-.614A.6.6,0,0,1,388.412,357.749Z" transform="translate(-370.288 -330.185)" fill="#658790" fill-rule="evenodd"/>
  <path id="Path_22492" data-name="Path 22492" d="M446.064,357.764a.623.623,0,0,1-.615.612.6.6,0,0,1-.582-.6.58.58,0,0,1,.565-.6A.6.6,0,0,1,446.064,357.764Z" transform="translate(-421.749 -330.188)" fill="#658790" fill-rule="evenodd"/>
  <path id="Path_22493" data-name="Path 22493" d="M446.059,273.249a.6.6,0,0,1-.641.577.585.585,0,0,1-.555-.614.6.6,0,0,1,.591-.586A.621.621,0,0,1,446.059,273.249Z" transform="translate(-421.745 -254.723)" fill="#658790" fill-rule="evenodd"/>
  <path id="Path_22494" data-name="Path 22494" d="M416.8,360.02a.59.59,0,0,1-.593-.619.594.594,0,1,1,1.187.042A.59.59,0,0,1,416.8,360.02Z" transform="translate(-396.167 -331.652)" fill="#658790" fill-rule="evenodd"/>
  <path id="Path_22495" data-name="Path 22495" d="M417.388,275.03a.593.593,0,1,1-.586-.582A.58.58,0,0,1,417.388,275.03Z" transform="translate(-396.164 -256.349)" fill="#658790" fill-rule="evenodd"/>
</svg>
