<svg xmlns="http://www.w3.org/2000/svg" width="41.499" height="41.499" viewBox="0 0 41.499 41.499">
  <g id="Group_2989" data-name="Group 2989" transform="translate(1 1)">
    <path id="Path_1849" data-name="Path 1849" d="M19.745,0A19.749,19.749,0,1,1,0,19.752v0A19.745,19.745,0,0,1,19.745,0Z" transform="translate(0 0)" fill="none" stroke="#ef9a9b" stroke-width="2"/>
    <path id="Path_1850" data-name="Path 1850" d="M17.462,16.126,13.479,12.14l3.983-3.983A1.126,1.126,0,1,0,15.91,6.524a.166.166,0,0,0-.042.039l-3.986,3.986L7.9,6.564a1.128,1.128,0,0,0-1.6,1.6h0l3.986,3.983L6.307,16.128a1.128,1.128,0,1,0,1.6,1.6l3.981-3.983,3.988,3.983a1.127,1.127,0,0,0,1.593,0h0a1.135,1.135,0,0,0,0-1.6" transform="translate(7.864 8.174)" fill="#ef9a9b"/>
  </g>
</svg>
