<svg xmlns="http://www.w3.org/2000/svg" width="38.499" height="34.326" viewBox="0 0 38.499 34.326">
  <g id="Group_21512" data-name="Group 21512" transform="translate(0.75 0.75)">
    <path id="Path_18145" data-name="Path 18145" d="M-341.6-15.26c.036-.059.076-.115.108-.176a1.091,1.091,0,0,1,1.2-.594,1.083,1.083,0,0,1,.857,1.067c.01.65,0,1.3,0,1.949,0,.119,0,.236,0,.359,2.308.157,4.516.054,6.341-1.586.054-.048.108-.1.159-.146a.5.5,0,0,0,.051-.093c-.219-.154-.445-.309-.667-.469a1.079,1.079,0,0,1-.286-1.579c.235-.349.484-.689.727-1.033.02-.029.048-.053.106-.117l8.778,6.268c-.271.395-.508.771-.776,1.124a1.053,1.053,0,0,1-1.478.244c-.362-.234-.711-.488-1.083-.744a14.232,14.232,0,0,1-11.872,4.649c0,.775.007,1.494,0,2.213a1.056,1.056,0,0,1-.754,1.032,1.049,1.049,0,0,1-1.165-.349c-.093-.12-.164-.257-.246-.386Z" transform="translate(341.599 35.639)" fill="none" stroke="#cf755e" stroke-width="1.5" fill-rule="evenodd"/>
    <path id="Path_18146" data-name="Path 18146" d="M-237.2-12.694c-.321.446-.624.909-.967,1.338Q-240.272-8.72-242.4-6.1a1.116,1.116,0,0,1-1.752.243c-.733-.525-1.464-1.054-2.224-1.6.786-.63,1.554-1.245,2.322-1.859l5.586-4.462c.452-.361.462-.372.886.029a3.3,3.3,0,0,1,.387.552Z" transform="translate(274.196 33.073)" fill="none" stroke="#cf755e" stroke-width="1.5" fill-rule="evenodd"/>
    <path id="Path_18147" data-name="Path 18147" d="M-319.986-79.162a2.491,2.491,0,0,1,1.559.538q5.148,3.726,10.3,7.442l10.156,7.336a1.126,1.126,0,0,1,.048,2.029l-9.988,7.98-.112.091a1.179,1.179,0,0,1-1.748.052L-320.9-61.645q-3.467-2.476-6.933-4.953a2.175,2.175,0,0,1-.462-3.374q3.323-4.14,6.648-8.279A2.218,2.218,0,0,1-319.986-79.162Zm15.63,16.293a1.085,1.085,0,0,0-1.086-1.075,1.084,1.084,0,0,0-1.081,1.079,1.085,1.085,0,0,0,1.085,1.075A1.086,1.086,0,0,0-304.356-62.869Z" transform="translate(332.61 79.162)" fill="none" stroke="#cf755e" stroke-width="1.5" fill-rule="evenodd"/>
  </g>
</svg>
