<svg xmlns="http://www.w3.org/2000/svg" width="45.242" height="45.242" viewBox="0 0 45.242 45.242">
  <g id="Group_21619" data-name="Group 21619" transform="translate(0 0)">
    <path id="Path_22488" data-name="Path 22488" d="M229.75,189.931a1.121,1.121,0,0,1,1-.409q6.029.013,12.059.005h.638c-.125-.978.228-1.517,1.33-1.285,0-.846,0-1.621,0-2.4,0-.064-.037-.171-.081-.186-.549-.181-.971-.644-1.615-.638-1.678.016-3.357.021-5.034-.033a8.271,8.271,0,0,1-4.336-1.46.682.682,0,0,1-.288-.943.659.659,0,0,1,1-.168,8.084,8.084,0,0,0,4.821,1.293c1.028-.025,2.056,0,3.06,0,0-2.191,0-4.337,0-6.483a2.075,2.075,0,0,1,.749-1.584c.171-.157.361-.295.539-.438-.014-.039-.015-.078-.033-.09a2.624,2.624,0,0,1-1.271-2.532c.071-1.661.054-3.328,0-4.99a2.276,2.276,0,0,1,1.213-2.234,11.153,11.153,0,0,1,2.58-1.1,25.07,25.07,0,0,1,13.127.159,9.129,9.129,0,0,1,2.142,1.01,2.233,2.233,0,0,1,1.106,2.115c-.041,1.648-.062,3.3.006,4.946a2.609,2.609,0,0,1-1.3,2.628c.012.056.008.1.024.108a2.7,2.7,0,0,1,1.281,2.662c-.076,1.468-.018,2.944-.018,4.416v1.361c6.363.725,10.344-3.3,11.113-7.875A9.419,9.419,0,0,0,265.5,165c-1.126-.135-1.123-.136-1.409-1.223a13.483,13.483,0,0,0-1.595-3.714c-.1-.169-.243-.4-.2-.558a1.012,1.012,0,0,1,.449-.577.566.566,0,0,1,.779.306,26.079,26.079,0,0,1,1.527,3.263,1.722,1.722,0,0,0,1.507,1.375,10.574,10.574,0,0,1,8.35,9.2,1.352,1.352,0,0,0,.077.245v1.944c-.058.317-.121.632-.172.95a10.636,10.636,0,0,1-8.9,8.667c-1.423.175-2.881.057-4.314.179a5.739,5.739,0,0,0-1.57.607.191.191,0,0,0-.07.149c0,.787,0,1.575,0,2.353,1.173.153,1.173.153,1.38,1.36h.552q6.047,0,12.094-.005a1.124,1.124,0,0,1,1,.409v.53a1.132,1.132,0,0,1-1.006.4q-6.052-.015-12.1-.006h-.6c0,.261.016.467,0,.669a.631.631,0,0,1-.65.645c-.9.014-1.8.017-2.694,0a.6.6,0,0,1-.62-.663c-.008-.869-.011-1.738,0-2.606a.627.627,0,0,1,.657-.676c.214-.017.428-.02.64-.03v-2.007l-3.579.61v.462c0,1.59.09,3.187-.029,4.769a2.946,2.946,0,0,0,1.266,2.943,1.28,1.28,0,0,0,.651.256q6.825.022,13.65.011h.443c0-.163,0-.265,0-.367.007-.772.194-.957.968-.958.692,0,1.385.018,2.076-.007a.947.947,0,0,1,.932.448v3.535h-3.534c-.562-.282-.413-.84-.459-1.326h-.574q-6.932,0-13.865.008a1.263,1.263,0,0,1-1.01-.423c-.441-.474-.9-.935-1.374-1.372a1.385,1.385,0,0,1-.476-1.125c.02-2.1.009-4.209.009-6.314v-.463h-2.673v.506c0,2.09-.012,4.18.009,6.27a1.391,1.391,0,0,1-.475,1.126c-.476.439-.932.9-1.374,1.373a1.27,1.27,0,0,1-1.012.422q-6.955-.018-13.909-.008h-.541c-.009.521.082,1.039-.448,1.326H229.75v-3.535c.222-.146.438-.406.668-.419.881-.049,1.766-.032,2.649-.014a.643.643,0,0,1,.656.686c.011.2,0,.4,0,.631h.577c4.065,0,8.13-.054,12.193.032A3.086,3.086,0,0,0,249.44,194a1.287,1.287,0,0,0,.257-.652c.019-2.047.012-4.094.012-6.141v-.415l-3.6-.617v2.015c.2.009.341.019.486.023.636.015.837.217.839.858,0,.781.006,1.561,0,2.341,0,.522-.229.755-.754.762q-1.237.018-2.474,0a.671.671,0,0,1-.744-.739c-.008-.183,0-.366,0-.582h-.6q-6.053,0-12.105.006a1.126,1.126,0,0,1-1.006-.4Zm31.367-10.808c-.63.258-1.2.538-1.795.728a23.473,23.473,0,0,1-8.114.931c-.764-.029-1.529-.092-2.287-.189a.622.622,0,0,1-.473-1.027,1.017,1.017,0,0,1,.739-.244,28.554,28.554,0,0,0,6.829-.083,12.276,12.276,0,0,0,4.177-1.191c.395-.212.959-.452.871-.935-.063-.347-.535-.643-.866-.911a1.218,1.218,0,0,0-1.188-.162c-.988.273-2.005.452-3.017.631-.557.1-.878-.129-.92-.555s.234-.676.787-.76a11.436,11.436,0,0,0,1.693-.3c.963-.3,1.914-.651,2.845-1.04a1.145,1.145,0,0,0,.73-1.277,13.882,13.882,0,0,1-.009-1.413v-2.187a23.34,23.34,0,0,1-17.492,0c0,1.284.016,2.519-.009,3.752a.955.955,0,0,0,.492.96,13.686,13.686,0,0,0,2.078.938,21.635,21.635,0,0,0,6.063.8c.5.01.77.246.772.653a.666.666,0,0,1-.766.667,21.961,21.961,0,0,1-6.325-.819,1.777,1.777,0,0,0-1.7.293c-.792.549-.785.951.03,1.487a2.774,2.774,0,0,0,.421.241c.459.2.927.371,1.383.574a.627.627,0,0,1,.359.839.641.641,0,0,1-.793.4,2.546,2.546,0,0,1-.417-.143c-.52-.214-1.037-.433-1.584-.662,0,1.141.066,2.25-.021,3.347a1.557,1.557,0,0,0,1.036,1.689c.159.076.317.155.48.223a14.962,14.962,0,0,0,4.237.988,24.518,24.518,0,0,0,8.768-.5,14.09,14.09,0,0,0,2.359-.954.938.938,0,0,0,.632-.837C261.119,181.769,261.117,180.459,261.117,179.123Zm-8.759-14.305a20.608,20.608,0,0,0-5.681.65,11.981,11.981,0,0,0-2.473,1.011c-.774.423-.757.908-.02,1.387a6.977,6.977,0,0,0,1.379.678,17,17,0,0,0,4.924.925,22.96,22.96,0,0,0,8.172-.755,8.657,8.657,0,0,0,1.986-.922c.636-.393.628-.806.017-1.229a6.351,6.351,0,0,0-1.441-.746A20.232,20.232,0,0,0,252.358,164.818Zm21.285,31.72V195.26h-1.271v1.278Zm-42.558-.006h1.286v-1.266h-1.286Zm13.721-5.711h1.274v-1.241h-1.274Zm13.853-1.256v1.252h1.269v-1.252Z" transform="translate(-229.75 -152.642)" fill="#658790" fill-rule="evenodd"/>
    <path id="Path_22489" data-name="Path 22489" d="M229.75,128.651c.1-.473.163-.956.3-1.418a8.8,8.8,0,0,1,6.559-6.376c.141-.037.283-.071.407-.1.078-.845.116-1.681.236-2.506a14.33,14.33,0,0,1,11.1-11.868c.657-.143,1.325-.235,1.988-.351h2.3c.9.179,1.823.306,2.71.547a13.94,13.94,0,0,1,6.095,3.5,1.327,1.327,0,0,1,.279.337.6.6,0,0,1-.175.791.677.677,0,0,1-.921-.072,24.675,24.675,0,0,0-2.252-1.767,13.012,13.012,0,0,0-19.694,8.5,22.616,22.616,0,0,0-.249,3.245c-.028.609-.167.819-.775.9a7.57,7.57,0,0,0-5.35,11.633c.048.074.1.146.144.222a.662.662,0,0,1-.161.937.625.625,0,0,1-.945-.234c-.446-.856-.868-1.728-1.23-2.622a9.819,9.819,0,0,1-.361-1.533Z" transform="translate(-229.75 -106.03)" fill="#658790" fill-rule="evenodd"/>
    <path id="Path_22490" data-name="Path 22490" d="M387.87,272.62a.68.68,0,0,1,.654.692.663.663,0,0,1-.668.625.651.651,0,0,1-.647-.683A.666.666,0,0,1,387.87,272.62Z" transform="translate(-368.654 -252.99)" fill="#658790" fill-rule="evenodd"/>
    <path id="Path_22491" data-name="Path 22491" d="M388.527,357.8a.683.683,0,0,1-.661.686.669.669,0,0,1-.656-.64.646.646,0,0,1,.61-.673A.66.66,0,0,1,388.527,357.8Z" transform="translate(-368.657 -327.582)" fill="#658790" fill-rule="evenodd"/>
    <path id="Path_22492" data-name="Path 22492" d="M446.18,357.82a.683.683,0,0,1-.674.672.659.659,0,0,1-.638-.652.636.636,0,0,1,.619-.66A.658.658,0,0,1,446.18,357.82Z" transform="translate(-419.52 -327.585)" fill="#658790" fill-rule="evenodd"/>
    <path id="Path_22493" data-name="Path 22493" d="M446.174,273.309a.66.66,0,0,1-.7.633.642.642,0,0,1-.609-.673.66.66,0,0,1,.648-.642A.68.68,0,0,1,446.174,273.309Z" transform="translate(-419.515 -252.996)" fill="#658790" fill-rule="evenodd"/>
    <path id="Path_22494" data-name="Path 22494" d="M416.855,360.136a.647.647,0,0,1-.65-.679.651.651,0,1,1,1.3.046A.647.647,0,0,1,416.855,360.136Z" transform="translate(-394.235 -329.032)" fill="#658790" fill-rule="evenodd"/>
    <path id="Path_22495" data-name="Path 22495" d="M417.5,275.086a.651.651,0,1,1-.643-.638A.636.636,0,0,1,417.5,275.086Z" transform="translate(-394.232 -254.603)" fill="#658790" fill-rule="evenodd"/>
  </g>
</svg>
