<svg id="Group_21853" data-name="Group 21853" xmlns="http://www.w3.org/2000/svg" width="29" height="29" viewBox="0 0 29 29">
  <path id="Path_22600" data-name="Path 22600" d="M0,27.471V10.592A2.511,2.511,0,0,1,1.165,9.137c2.677-1.844,5.34-3.708,8.01-5.563Q11.751,1.784,14.33,0h.34c.118.077.237.15.352.23q6.405,4.455,12.814,8.905A2.532,2.532,0,0,1,29,10.592V27.471c-.064.174-.113.354-.193.52A1.922,1.922,0,0,1,27.471,29H1.529a6.284,6.284,0,0,1-.8-.376A1.874,1.874,0,0,1,0,27.471m23.563.326h3.426c.593,0,.807-.211.807-.8q0-7.958,0-15.915a.862.862,0,0,0-.405-.781q-6.337-4.4-12.661-8.809a.338.338,0,0,0-.464,0Q7.932,5.915,1.585,10.32a.815.815,0,0,0-.384.734q.006,7.986,0,15.972c0,.55.223.769.776.77q1.586,0,3.172,0h.285v-.354q0-3.073,0-6.145c0-.546.2-.749.755-.75q1.572,0,3.143,0h.336v-.368q0-3.044,0-6.088c0-.612.182-.793.792-.794h8.07c.612,0,.795.181.795.791q0,3.058,0,6.117v.342h3.448c.591,0,.785.193.785.777q0,2.719,0,5.437Zm-16.9-6.038v6h7.2V21.766H10.875c0,.381.013.748-.006,1.113a.9.9,0,0,1-.134.447.528.528,0,0,1-.626.209.562.562,0,0,1-.433-.563c-.006-.4,0-.8,0-1.214Zm8.481.005v5.988h7.2V21.767H19.37c-.019.024-.03.032-.03.039,0,.368-.011.736-.011,1.1a.607.607,0,0,1-.279.554.6.6,0,0,1-.922-.524c-.012-.392,0-.785,0-1.177Zm-.033-7.251c0,.407.01.784,0,1.161a.609.609,0,0,1-.672.635.616.616,0,0,1-.539-.656c-.009-.374,0-.749,0-1.138h-3v6H18.1v-6Z" fill="#898c99"/>
  <path id="Path_22602" data-name="Path 22602" d="M0,363.75A1.875,1.875,0,0,0,.727,364.9a6.3,6.3,0,0,0,.8.376H0Z" transform="translate(0 -336.279)" fill="#fff"/>
  <path id="Path_22603" data-name="Path 22603" d="M363.75,365.279a1.922,1.922,0,0,0,1.336-1.009c.08-.166.129-.346.193-.52v1.529Z" transform="translate(-336.279 -336.279)" fill="#fff"/>
</svg>
