<svg xmlns="http://www.w3.org/2000/svg" width="38.001" height="34.094" viewBox="0 0 38.001 34.094">
  <g id="Group_19122" data-name="Group 19122" transform="translate(-827.001 -680.93)">
    <g id="Group_19120" data-name="Group 19120" transform="translate(827.001 680.93)">
      <g id="Group_19115" data-name="Group 19115" transform="translate(0 0)">
        <g id="Group_19114" data-name="Group 19114" transform="translate(0 0)">
          <path id="Path_6364" data-name="Path 6364" d="M457.395,82.9,442.87,57.742a4.468,4.468,0,0,0-7.74,0L420.606,82.9a4.468,4.468,0,0,0,3.87,6.7h29.05a4.468,4.468,0,0,0,3.87-6.7Zm-1.928,3.355a2.219,2.219,0,0,1-1.942,1.121h-29.05a2.242,2.242,0,0,1-1.942-3.363l14.525-25.158a2.242,2.242,0,0,1,3.883,0l14.525,25.158A2.219,2.219,0,0,1,455.467,86.255Z" transform="translate(-420 -55.508)" fill="#e94b3d"/>
        </g>
      </g>
      <g id="Group_19117" data-name="Group 19117" transform="translate(17.887 11.11)">
        <g id="Group_19116" data-name="Group 19116" transform="translate(0 0)">
          <rect id="Rectangle_505" data-name="Rectangle 505" width="2.226" height="11.132" fill="#e94b3d"/>
        </g>
      </g>
      <g id="Group_19119" data-name="Group 19119" transform="translate(17.516 24.468)">
        <g id="Group_19118" data-name="Group 19118" transform="translate(0 0)">
          <path id="Path_6365" data-name="Path 6365" d="M919.3,750.915a1.484,1.484,0,1,0,1.484,1.484A1.486,1.486,0,0,0,919.3,750.915Z" transform="translate(-917.815 -750.915)" fill="#e94b3d"/>
        </g>
      </g>
    </g>
  </g>
</svg>
