<svg xmlns="http://www.w3.org/2000/svg" width="30.643" height="30.645" viewBox="0 0 30.643 30.645">
  <g id="Group_19319" data-name="Group 19319" transform="translate(0)">
    <g id="Group_19309" data-name="Group 19309" transform="translate(0 0)">
      <path id="Path_17798" data-name="Path 17798" d="M287.939,327.978a15.323,15.323,0,1,1,15.321-15.323A15.34,15.34,0,0,1,287.939,327.978Z" transform="translate(-272.617 -297.333)" fill="#fff"/>
      <path id="Path_17799" data-name="Path 17799" d="M298.906,311.978a11.645,11.645,0,1,1-11.644-11.645A11.645,11.645,0,0,1,298.906,311.978Z" transform="translate(-271.94 -296.656)" fill="#fc1603"/>
    </g>
    <path id="Path_17800" data-name="Path 17800" d="M7.374,5.608a6.733,6.733,0,0,1,4.177,1.245,6.35,6.35,0,0,1,2.275,3.4H11.943a4.61,4.61,0,0,0-1.706-2.187,4.945,4.945,0,0,0-2.883-.814A4.438,4.438,0,0,0,3.245,9.8a6.307,6.307,0,0,0-.618,2.873,6.2,6.2,0,0,0,.618,2.844,4.451,4.451,0,0,0,4.109,2.53,4.945,4.945,0,0,0,2.883-.814,4.61,4.61,0,0,0,1.706-2.187h1.883a6.35,6.35,0,0,1-2.275,3.4,6.733,6.733,0,0,1-4.177,1.245A6.551,6.551,0,0,1,3.942,18.8a6.151,6.151,0,0,1-2.324-2.491,7.751,7.751,0,0,1-.834-3.638A7.854,7.854,0,0,1,1.618,9,6.136,6.136,0,0,1,3.942,6.5,6.551,6.551,0,0,1,7.374,5.608Z" transform="translate(7.532 2.492)" fill="#fff"/>
  </g>
</svg>
