<svg id="Group_19092" data-name="Group 19092" xmlns="http://www.w3.org/2000/svg" width="75.393" height="41.434" viewBox="0 0 75.393 41.434">
  <path id="Path_6328" data-name="Path 6328" d="M333.919,235.5a3.659,3.659,0,0,0-3.16,1.824,1.216,1.216,0,0,0,2.091,1.242l.015-.026a1.217,1.217,0,0,1,2.108,0,1.216,1.216,0,1,0,2.121-1.19l-.015-.026A3.659,3.659,0,0,0,333.919,235.5Z" transform="translate(-296.299 -197.727)" fill="#2755f4"/>
  <path id="Path_6329" data-name="Path 6329" d="M320.546,216.358a1.216,1.216,0,0,0,2.1-1.218,7.3,7.3,0,0,0-12.639,0,1.216,1.216,0,0,0,2.1,1.218,4.867,4.867,0,0,1,8.429,0Z" transform="translate(-278.71 -177.369)" fill="#2755f4"/>
  <path id="Path_6330" data-name="Path 6330" d="M289.666,194.623a1.216,1.216,0,0,0,1.661-.444,8.516,8.516,0,0,1,14.749,0,1.216,1.216,0,0,0,2.117-1.2l-.011-.019a10.948,10.948,0,0,0-18.96,0,1.216,1.216,0,0,0,.444,1.661Z" transform="translate(-261.081 -157.013)" fill="#2755f4"/>
  <path id="Path_6331" data-name="Path 6331" d="M128.712-13H108.04A3.043,3.043,0,0,0,105-9.96V4.632a3.043,3.043,0,0,0,3.04,3.04h6.217l-.406,1.216H112.3a1.216,1.216,0,1,0,0,2.432h12.16a1.216,1.216,0,1,0,0-2.432H122.9L122.5,7.672h6.217a3.043,3.043,0,0,0,3.04-3.04V-9.96A3.043,3.043,0,0,0,128.712-13Zm-12.3,21.888.406-1.216h3.11l.406,1.216ZM129.32,4.632a.608.608,0,0,1-.608.608H108.04a.608.608,0,0,1-.608-.608V-9.96a.608.608,0,0,1,.608-.608h20.672a.608.608,0,0,1,.608.608Z" transform="translate(-105 13)" fill="#2755f4"/>
  <path id="Path_6332" data-name="Path 6332" d="M450.537,32.376H449.32V22.04A3.043,3.043,0,0,0,446.28,19H430.472a3.043,3.043,0,0,0-3.04,3.04V32.376h-1.216A1.216,1.216,0,0,0,425,33.592v1.824a3.043,3.043,0,0,0,3.04,3.04h20.672a3.043,3.043,0,0,0,3.04-3.04V33.592A1.216,1.216,0,0,0,450.537,32.376ZM429.864,22.04a.608.608,0,0,1,.608-.608H446.28a.608.608,0,0,1,.608.608V32.376H429.864ZM449.32,35.416a.608.608,0,0,1-.608.608H428.04a.608.608,0,0,1-.608-.608v-.608H449.32Z" transform="translate(-376.359 -14.136)" fill="#2755f4"/>
  <path id="Path_6333" data-name="Path 6333" d="M316.552,19H308.04A3.043,3.043,0,0,0,305,22.04V35.416a3.043,3.043,0,0,0,3.04,3.04h8.512a3.043,3.043,0,0,0,3.04-3.04V22.04A3.043,3.043,0,0,0,316.552,19Zm.608,16.416a.608.608,0,0,1-.608.608H308.04a.608.608,0,0,1-.608-.608v-.608h9.728Zm0-3.04h-9.728v-7.3h9.728Zm0-9.728h-9.728V22.04a.608.608,0,0,1,.608-.608h8.512a.608.608,0,0,1,.608.608Z" transform="translate(-274.6 -14.136)" fill="#2755f4"/>
  <path id="Path_6334" data-name="Path 6334" d="M345,156.216v2.432a1.216,1.216,0,1,0,2.432,0v-2.432a1.216,1.216,0,0,0-2.432,0Z" transform="translate(-308.519 -129.464)" fill="#2755f4"/>
  <path id="Path_6335" data-name="Path 6335" d="M186.216,155A1.216,1.216,0,0,0,185,156.216v9.728a1.216,1.216,0,0,0,1.216,1.216h12.16a1.216,1.216,0,1,0,0-2.432H187.432v-8.512A1.216,1.216,0,0,0,186.216,155Z" transform="translate(-172.84 -129.464)" fill="#2755f4"/>
  <path id="Path_6336" data-name="Path 6336" d="M438.376,167.16a1.216,1.216,0,0,0,1.216-1.216v-9.728a1.216,1.216,0,1,0-2.432,0v8.512H426.216a1.216,1.216,0,1,0,0,2.432Z" transform="translate(-376.359 -129.464)" fill="#2755f4"/>
</svg>
