<svg xmlns="http://www.w3.org/2000/svg" width="42.286" height="42.262" viewBox="0 0 42.286 42.262">
  <g id="Group_19083" data-name="Group 19083" transform="translate(0 0)">
    <path id="Path_471" data-name="Path 471" d="M2801.068-858.76a12.611,12.611,0,0,0,3.75-9,12.611,12.611,0,0,0-3.75-9l-1,1a11.209,11.209,0,0,1,3.332,8,11.209,11.209,0,0,1-3.332,8Z" transform="translate(-2767.119 878.86)" fill="#2755f4"/>
    <path id="Path_472" data-name="Path 472" d="M2710.471-791.8a9.356,9.356,0,0,0,0-12.283l-1.05.95a7.907,7.907,0,0,1,0,10.382Z" transform="translate(-2680.038 809.036)" fill="#2755f4"/>
    <path id="Path_473" data-name="Path 473" d="M2615.971-725.462a5.039,5.039,0,0,0,0-6.616l-1.05.951a3.591,3.591,0,0,1,0,4.716Z" transform="translate(-2589.256 739.869)" fill="#2755f4"/>
    <path id="Path_474" data-name="Path 474" d="M2898.4-929.128a16.542,16.542,0,0,1,0,21.714l1.05.95a17.991,17.991,0,0,0,0-23.614Z" transform="translate(-2861.584 930.078)" fill="#2755f4"/>
    <path id="Path_475" data-name="Path 475" d="M2083.01-876.762a12.612,12.612,0,0,0-3.75,9,12.612,12.612,0,0,0,3.75,9l1-1a11.208,11.208,0,0,1-3.333-8,11.208,11.208,0,0,1,3.333-8Z" transform="translate(-2074.671 878.86)" fill="#2755f4"/>
    <path id="Path_476" data-name="Path 476" d="M2207.813-804.078a9.357,9.357,0,0,0,0,12.283l1.051-.951a7.908,7.908,0,0,1,0-10.382Z" transform="translate(-2195.959 809.036)" fill="#2755f4"/>
    <path id="Path_477" data-name="Path 477" d="M2328.186-732.078a5.04,5.04,0,0,0,0,6.616l1.05-.95a3.592,3.592,0,0,1,0-4.716Z" transform="translate(-2312.614 739.869)" fill="#2755f4"/>
    <path id="Path_478" data-name="Path 478" d="M1968.118-929.128l-1.051-.951a17.99,17.99,0,0,0,0,23.614l1.05-.95A16.542,16.542,0,0,1,1968.118-929.128Z" transform="translate(-1962.65 930.078)" fill="#2755f4"/>
    <path id="Path_479" data-name="Path 479" d="M2162.96-671.866a.006.006,0,0,1,0,0L2161-676.334l-1.319-3.014-.069-.159-.343-.784-5.284-12.076a.707.707,0,0,0-.648-.425h-.538v-5.088a2.122,2.122,0,0,0,1.417-1.994,2.127,2.127,0,0,0-2.125-2.125,2.127,2.127,0,0,0-2.125,2.125,2.122,2.122,0,0,0,1.416,1.994v5.088h-.879a.708.708,0,0,0-.649.425l-2.324,5.313-1.631,3.726-.536,1.225-2.806,6.414h0l-.26.594h0l-2.173,4.966h-2.37v1.417H2166.8v-1.417h-3.078Zm-10.865-28.718a.709.709,0,0,1,.708.708.709.709,0,0,1-.708.708.709.709,0,0,1-.708-.708A.709.709,0,0,1,2152.095-700.584Zm-2.94,13.359,5.975,1,.423.966-7.827,1.3.715-1.633Zm9.086,8.6-13.857,2.31,1.883-4.3Zm-11.389-3.334.2-.448,5.844-.974,3.246-.541,1.657,3.786Zm12.174,4.639,1.357,3.1.754,1.723-15.527-2.587Zm-8.055-14.054h1.907l1.574,3.6-4.713-.785Zm10.161,21.247h-19.457l1.7-3.893,18.436,3.072.359.821Z" transform="translate(-2130.869 710.974)" fill="#2755f4"/>
  </g>
</svg>
