<svg xmlns="http://www.w3.org/2000/svg" width="30.103" height="30.105" viewBox="0 0 30.103 30.105">
  <g id="Group_19318" data-name="Group 19318" transform="translate(0)">
    <g id="Group_19310" data-name="Group 19310" transform="translate(0 0)">
      <path id="Path_17798" data-name="Path 17798" d="M287.669,327.438a15.052,15.052,0,1,1,15.051-15.052A15.069,15.069,0,0,1,287.669,327.438Z" transform="translate(-272.617 -297.333)" fill="#fff"/>
      <path id="Path_17799" data-name="Path 17799" d="M298.5,311.773a11.439,11.439,0,1,1-11.438-11.44A11.44,11.44,0,0,1,298.5,311.773Z" transform="translate(-272.005 -296.721)" fill="#eba609"/>
    </g>
    <path id="Path_17801" data-name="Path 17801" d="M12,4.991V15.839H10.576V7.183L7.117,15.839H5.849L2.373,7.214v8.625H.949V4.991H2.655L6.506,14.1l3.788-9.11Z" transform="translate(8.891 4.029)" fill="#fff"/>
  </g>
</svg>
