<svg id="Group_19242" data-name="Group 19242" xmlns="http://www.w3.org/2000/svg" width="52.203" height="58.424" viewBox="0 0 52.203 58.424">
  <g id="Group_19046" data-name="Group 19046" transform="translate(0 41.45)">
    <path id="Path_463" data-name="Path 463" d="M415.341,698.85c-12.88,0-26.2-4.091-26.2-10.939,0-2.159,1.449-4.278,3.976-5.808a1.532,1.532,0,0,1,1.62.012c4.319,2.7,12.409,4.452,20.6,4.452s16.284-1.748,20.6-4.452a1.524,1.524,0,0,1,1.615-.014c2.44,1.473,3.782,3.537,3.782,5.81C441.343,694.147,430.164,698.85,415.341,698.85Zm-21.365-13.6a3.723,3.723,0,0,0-1.748,2.665c0,3.708,9.887,7.851,23.113,7.851,13.112,0,22.911-4.143,22.911-7.851a3.5,3.5,0,0,0-1.551-2.661c-4.96,2.729-13.008,4.4-21.36,4.4S398.936,687.98,393.976,685.246Z" transform="translate(-389.14 -681.876)" fill="#2755f4"/>
  </g>
  <g id="Group_19047" data-name="Group 19047" transform="translate(0 32.266)">
    <path id="Path_464" data-name="Path 464" d="M415.341,694.973c-12.88,0-26.2-4.086-26.2-10.925,0-2.174,1.451-4.295,3.981-5.818a1.555,1.555,0,0,1,1.615.012c4.335,2.71,12.424,4.459,20.6,4.459s16.269-1.748,20.6-4.459a1.546,1.546,0,0,1,1.611-.012c2.406,1.442,3.786,3.563,3.786,5.818C441.343,691.143,427.948,694.973,415.341,694.973Zm-21.367-13.6a3.708,3.708,0,0,0-1.746,2.673c0,3.7,9.887,7.837,23.113,7.837,13.112,0,22.911-4.138,22.911-7.837a3.543,3.543,0,0,0-1.553-2.668c-4.972,2.734-13.017,4.411-21.358,4.411S398.948,684.115,393.974,681.376Z" transform="translate(-389.14 -678.01)" fill="#2755f4"/>
  </g>
  <g id="Group_19048" data-name="Group 19048" transform="translate(0 23.078)">
    <path id="Path_465" data-name="Path 465" d="M415.341,691.112c-12.88,0-26.2-4.088-26.2-10.929,0-2.171,1.451-4.292,3.979-5.817a1.549,1.549,0,0,1,1.615.012c4.342,2.7,12.431,4.449,20.607,4.449s16.265-1.746,20.607-4.449a1.541,1.541,0,0,1,1.611-.014c2.4,1.447,3.784,3.566,3.784,5.82C441.343,687.28,427.948,691.112,415.341,691.112Zm-21.365-13.6a3.716,3.716,0,0,0-1.748,2.672c0,3.7,9.887,7.839,23.113,7.839,13.112,0,22.911-4.138,22.911-7.839a3.555,3.555,0,0,0-1.553-2.67c-4.979,2.732-13.025,4.4-21.358,4.4S398.953,680.242,393.976,677.51Z" transform="translate(-389.14 -674.142)" fill="#2755f4"/>
  </g>
  <g id="Group_19049" data-name="Group 19049" transform="translate(0 13.887)">
    <path id="Path_466" data-name="Path 466" d="M415.341,687.238c-12.88,0-26.2-4.088-26.2-10.927,0-2.164,1.449-4.281,3.976-5.813a1.542,1.542,0,0,1,1.668.041c4.1,2.772,11.785,4.423,20.557,4.423s16.46-1.651,20.557-4.423a1.553,1.553,0,0,1,1.663-.043c2.4,1.451,3.782,3.57,3.782,5.815C441.343,683.409,427.948,687.238,415.341,687.238ZM393.95,673.66a3.707,3.707,0,0,0-1.722,2.651c0,3.7,9.887,7.837,23.113,7.837,13.112,0,22.911-4.138,22.911-7.837a3.539,3.539,0,0,0-1.53-2.646c-4.732,2.758-12.6,4.388-21.381,4.388S398.682,676.421,393.95,673.66Z" transform="translate(-389.14 -670.273)" fill="#2755f4"/>
  </g>
  <g id="Group_19050" data-name="Group 19050" transform="translate(0)">
    <path id="Path_467" data-name="Path 467" d="M415.341,686.093c-12.7,0-26.2-3.76-26.2-10.727,0-6.848,13.321-10.939,26.2-10.939,14.823,0,26,4.7,26,10.939C441.343,682.333,427.948,686.093,415.341,686.093Zm0-18.576c-13.227,0-23.113,4.143-23.113,7.848,0,3.606,9.887,7.637,23.113,7.637,13.5,0,22.911-4.024,22.911-7.637C438.252,671.66,428.454,667.517,415.341,667.517Z" transform="translate(-389.14 -664.427)" fill="#2755f4"/>
  </g>
</svg>
