<svg id="Page-1" xmlns="http://www.w3.org/2000/svg" width="32" height="32" viewBox="0 0 32 32">
  <g id="Icon-Set-Filled">
    <path id="zoom" d="M26,12a1,1,0,0,1-2,0l.021-2.565-4.777,4.778L17.83,12.8l4.8-4.8H20a1,1,0,0,1,0-2h4.973a.991.991,0,0,1,.711.3A.894.894,0,0,1,26,7v5Zm0,13a.884.884,0,0,1-.316.7,1.013,1.013,0,0,1-.711.3H20a1,1,0,0,1,0-2h2.628l-4.8-4.8,1.414-1.41,4.777,4.78L24,20a1,1,0,0,1,2,0v5ZM12.756,14.213,7.978,9.435,8,12a1,1,0,0,1-2,0V7a.894.894,0,0,1,.316-.7A.992.992,0,0,1,7.028,6H12a1,1,0,0,1,0,2H9.372l4.8,4.8-1.414,1.414ZM12,24a1,1,0,0,1,0,2H7.028a1.014,1.014,0,0,1-.712-.3A.884.884,0,0,1,6,25V20a1,1,0,0,1,2,0l-.022,2.57,4.778-4.78L14.17,19.2,9.372,24ZM28,0H4A4,4,0,0,0,0,4V28a4,4,0,0,0,4,4H28a4,4,0,0,0,4-4V4a4,4,0,0,0-4-4Z" fill="#1f3bb3"/>
  </g>
</svg>
